<?xml version="1.0" encoding="utf-8"?>
<!-- Generator: Adobe Illustrator 18.1.1, SVG Export Plug-In . SVG Version: 6.00 Build 0)  -->
<!DOCTYPE svg PUBLIC "-//W3C//DTD SVG 1.1//EN" "http://www.w3.org/Graphics/SVG/1.1/DTD/svg11.dtd">
<svg version="1.1" id="Layer_1" xmlns="http://www.w3.org/2000/svg" xmlns:xlink="http://www.w3.org/1999/xlink" x="0px" y="0px"
	 viewBox="0 0 255.1 255.1" style="enable-background:new 0 0 255.1 255.1;" xml:space="preserve">
<style type="text/css">
	.st0{fill:#FFFFFF;}
</style>
<g>
	<path class="st0" d="M69.6,180.2c-1.4,0-2.8,0.6-3.8,1.6c-2.1,2.1-2.1,5.5,0,7.6c1,1,2.3,1.6,3.8,1.6c1.4,0,2.8-0.6,3.8-1.6
		c1-1,1.6-2.3,1.6-3.8c0-1.4-0.6-2.8-1.6-3.8C72.3,180.8,71,180.2,69.6,180.2z"/>
	<path class="st0" d="M157.7,92.1c-1.4,0-2.8,0.6-3.8,1.6c-2.1,2.1-2.1,5.5,0,7.5c1,1,2.3,1.6,3.8,1.6c1.4,0,2.8-0.6,3.8-1.6
		c1-1,1.6-2.3,1.6-3.8c0-1.4-0.6-2.8-1.6-3.8C160.5,92.6,159.2,92.1,157.7,92.1z"/>
	<path class="st0" d="M115,179.8l11.3,11.3l78-78L193,101.8l45.3-45.3l-39.7-39.7l-45.3,45.3L142,50.8l-78,78l11.3,11.3l-58.6,58.6
		l39.7,39.7L115,179.8z M198.7,20.7l35.8,35.8L191,99.8l-35.8-35.8L198.7,20.7z M188.8,102.1L129,161.8l-17.4-17.4l2.7-3.4l5.1-5.1
		l1,0.6c2.2,1.3,5.1,1,6.9-0.8c1.1-1.1,1.7-2.5,1.7-4c0-1.5-0.6-2.9-1.7-4c-2.1-2.1-5.9-2.1-8,0c-1.8,1.8-2.2,4.4-1,6.7l0.5,1
		l-8.2,8.2l-17.5-17.5L153,66.3L188.8,102.1z M68.6,128.8L142,55.4l9,9l-61.7,61.7l19.4,19.4l-9.4,9.4l0.8,0.8l9.4-9.4l19.4,19.4
		l61.7-61.7l9,9l-73.4,73.4l-24.1-24.1l-2.2,2.2l-9.5-9.5l2.2-2.2L68.6,128.8z M20.7,198.7l56.2-56.2l35.8,35.7l-56.2,56.2
		L20.7,198.7z"/>
	<path class="st0" d="M193.7,56.1c-1.4,0-2.8,0.6-3.8,1.6c-2.1,2.1-2.1,5.5,0,7.5c1,1,2.3,1.6,3.8,1.6c1.4,0,2.8-0.6,3.8-1.6
		c1-1,1.6-2.4,1.6-3.8c0-1.4-0.6-2.8-1.6-3.8C196.5,56.6,195.1,56.1,193.7,56.1z"/>
</g>
</svg>
