<?xml version="1.0" encoding="utf-8"?>
<!-- Generator: Adobe Illustrator 18.1.1, SVG Export Plug-In . SVG Version: 6.00 Build 0)  -->
<!DOCTYPE svg PUBLIC "-//W3C//DTD SVG 1.1//EN" "http://www.w3.org/Graphics/SVG/1.1/DTD/svg11.dtd">
<svg version="1.1" id="Layer_1" xmlns="http://www.w3.org/2000/svg" xmlns:xlink="http://www.w3.org/1999/xlink" x="0px" y="0px"
	 viewBox="0 0 255.1 255.1" style="enable-background:new 0 0 255.1 255.1;" xml:space="preserve">
<style type="text/css">
	.st0{opacity:0.5;}
	.st1{fill:#FFFFFF;}
</style>
<g transform="translate(-7.5, -6.509)" class="st0">
	<g>
		<path class="st1" d="M233.4,10.3c2.5,1.8,1.9,0.7,2.5,2.9v35c1.2-0.1,0.6,0,1.7-0.1c1.1-0.1,1.7-0.1,2.4-0.1
			c0.2,0,5.9-0.1,10.2-0.1c1.6,0,2.9,1.3,2.9,2.9v2.9h5.8c1.6,0,2.9,1.3,2.9,2.9v175.8c0,1.6-1.3,2.9-2.9,2.9
			c-29.7,0.4-59.8,1.7-88.8,8.9c-7.2,1.8-24.1,5.4-26.5,14.2l0,0c0,1.6-1.3,2.9-2.9,2.9h-11.5c-1.6,0-2.9-1.3-2.9-2.9l0,0
			c0-11.6-52.2-23.1-115.3-23.1c-1.6,0-2.9-1.3-2.9-2.9V56.4c0-1.6,1.3-2.9,2.9-2.9h5.8v-2.9c0-1.6,1.3-2.9,2.9-2.9
			c30.6,0.7,62.5,2.5,91.2,14.3c10.1,4.2,16.3,7.3,22.9,16.2c16.6-34.3,64.6-55,98.2-67.8L233.4,10.3z M256.1,59.3h-2.9v164.3
			c0,1.6-1.3,2.9-2.9,2.9c-29.1,0.5-59,2.3-86.7,11.9c-6.5,2.2-17.3,6.2-21.7,12.2c11-9.6,25.9-12.3,39.9-15
			c24.5-4.6,49.5-5.9,74.4-6.2V59.3z M16.8,59.3h-2.9v170.1c30.3,0.7,61.3,1.6,90.7,10c7,1.5,13.3,4.5,19.6,7.9
			c-1.9-1.3-3.7-2.7-5.7-3.8c-29.1-14.4-67-16.5-98.8-17c-1.6,0-2.9-1.3-2.9-2.9V59.3z M22.6,53.5v167.2
			c29.6,0.7,60.3,2.5,88.4,13.2c9.2,3.2,14.1,6.2,21.2,12.7V88.1c-3.5-16.8-26.8-22.8-40.9-26.4C68.8,55.9,45.6,53.9,22.6,53.5z
			 M38.6,148.6c31.1,1.8,51,4.7,70.6,11.9c0.1,0.1,0.1,0.1,0.3,0.1c-0.2-0.1,2.7,1,3.5,1.3c3.3,1.2,5.6,2.3,7.7,3.6
			c0.8,0.5,1.4,1.5,1.4,2.4v45.9c0,2.1-2.2,3.5-4.1,2.6c-6.4-3-11.6-4.9-16.9-6.3c-0.8-0.2-1.7-0.5-2.8-0.8c-0.6-0.2-1-0.3-2.8-0.8
			c0,0,0,0-0.1,0v0c-18.6-4.9-37.9-6.7-57-8.1c-1.5-0.1-2.7-1.3-2.7-2.9v-46.2C35.5,149.8,36.9,148.5,38.6,148.6z M41.3,154.6V195
			c18.8,0.7,37.2,4,55.5,8.1c0,0,0,0,0,0l0,0c0,0,0,0,0,0c1.8,0.5,2.2,0.6,2.8,0.8c1.1,0.3,2,0.6,2.8,0.8c4.7,1.2,9.3,2.8,13.8,4.8
			v-39.7c-2.8-1.5-1-0.6-5.3-2.4c-0.8-0.3-3.7-1.4-3.5-1.3c-0.1-0.1-0.1-0.1-0.3-0.1C86.1,158.1,63.6,156,41.3,154.6z M38.6,75.5
			c31.1,1.8,51,4.7,70.6,11.9c0.1,0.1,0.1,0.1,0.3,0.1c-0.2-0.1,2.7,1,3.5,1.3c3.3,1.2,5.6,2.3,7.7,3.6c0.8,0.5,1.4,1.5,1.4,2.4
			v45.9c0,2.1-2.2,3.5-4.1,2.6c-6.4-3-11.6-4.9-16.9-6.3c-0.8-0.2-1.7-0.5-2.8-0.8c-0.6-0.2-1-0.3-2.8-0.8c0,0,0,0-0.1,0l0,0
			c-18.6-4.9-37.9-6.7-57-8.1c-1.5-0.1-2.7-1.3-2.7-2.9V78.3C35.5,76.7,36.9,75.4,38.6,75.5z M41.3,81.4v40.4
			c18.8,0.7,37.2,4,55.5,8.1c0,0,0,0,0,0l0,0c0,0,0,0,0,0c1.8,0.5,2.2,0.6,2.8,0.8c1.1,0.3,2,0.6,2.8,0.8c4.7,1.2,9.3,2.8,13.8,4.8
			V96.6c-2.8-1.5-1-0.6-5.3-2.4c-0.8-0.3-3.7-1.4-3.5-1.3c-0.1-0.1-0.1-0.1-0.3-0.1C86.1,84.9,63.6,82.8,41.3,81.4z M230.1,17.3
			c-25.1,9.7-49.9,21.7-70.9,38.8c-9.1,7.4-19.6,16.7-21.3,29v158.4c22.8-29.3,58.3-46.2,92.2-59.2V17.3z M216,121.2
			c2.6,1.7,2,0.6,2.6,2.9v50.6c0,1.1-0.7,2.2-1.7,2.6c-0.8,0.4-1.5,0.7-3,1.3c-0.1,0-0.1,0-0.2,0.1c-9.3,4.2-13.5,6.1-18.6,8.5
			c-21.2,10.4-31.3,16.5-40.8,26.1c-1.8,1.8-4.9,0.6-4.9-2V163c0-0.8,0.3-1.5,0.8-2c16.6-16.6,34.2-26.9,64.3-39.5L216,121.2z
			 M212.8,128.5c-21.3,8.5-41,20-57.7,35.8v40.4c11-9.8,24.4-16.2,37.5-22.7c5.2-2.4,9.5-4.3,18.8-8.5c0.1,0,0.1,0,0.2-0.1l1.3-0.6
			V128.5z M216,49.2c2.6,1.7,2,0.6,2.6,2.9v50.6c0,1.1-0.7,2.2-1.7,2.6c-0.8,0.4-1.5,0.7-3,1.3c-0.1,0-0.1,0-0.2,0.1
			c-9.3,4.2-13.5,6.1-18.6,8.5c-21.2,10.4-31.3,16.5-40.8,26.1c-1.8,1.8-4.9,0.6-4.9-2V91c0-0.8,0.3-1.5,0.8-2
			c16.6-16.6,34.2-26.9,64.3-39.5L216,49.2z M212.8,56.4c-21.3,8.5-41,20-57.7,35.8v40.4c11-9.8,24.4-16.2,37.5-22.7
			c5.2-2.4,9.5-4.3,18.8-8.5c0.1,0,0.1,0,0.2-0.1l1.3-0.6V56.4z M247.4,53.5c-2.4,0-4.9,0.1-7.3,0.1c-0.7,0-1.2,0-2.2,0.1
			c-1.2,0.1-0.5,0-2.1,0.1v132.4c0,1.2-0.8,2.3-1.9,2.7c-30.3,11-59.1,26.1-83,47.8c7.7-3.7,15.9-5.7,24.1-7.8
			c23.6-6,48.1-7.8,72.4-8.2V53.5z"/>
	</g>
</g>
</svg>
