<?xml version="1.0" encoding="utf-8"?>
<!-- Generator: Adobe Illustrator 18.1.1, SVG Export Plug-In . SVG Version: 6.00 Build 0)  -->
<!DOCTYPE svg PUBLIC "-//W3C//DTD SVG 1.1//EN" "http://www.w3.org/Graphics/SVG/1.1/DTD/svg11.dtd">
<svg version="1.1" id="Layer_1" xmlns="http://www.w3.org/2000/svg" xmlns:xlink="http://www.w3.org/1999/xlink" x="0px" y="0px"
	 viewBox="0 0 53.7 60.4" style="enable-background:new 0 0 53.7 60.4;" xml:space="preserve">
<style type="text/css">
	.st0{fill-rule:evenodd;clip-rule:evenodd;fill:#4E4E4E;}
</style>
<g>
	<path class="st0" d="M53.6,23.4c-0.2-1.4-0.4-2.7-0.6-4.1c-0.3-1.8-0.9-3.5-2.2-4.9c-0.3-0.4-0.7-0.8-1-1.2
		c-0.9-1.4-2.3-2.3-3.8-3.1c-0.5-0.3-1-0.7-1.5-0.7c-0.8-0.1-1.4-0.5-2.1-0.9c-1.1-0.7-2-1.8-3.5-1.4c-0.1,0-0.1,0-0.2-0.1
		C38,6.7,37.3,6.9,36.5,7c-0.7,0.1-1.4,0.3-2.2,0.2c-0.6-0.1-0.7-0.4-0.3-0.8c0.1-0.1,0.1-0.1,0.2-0.2c1-0.8,2-1.7,3.1-2.5
		c1-0.8,2.2-1.3,3.4-1.3c1,0,1.6-0.2,2-1.1c0,0,0-0.1,0-0.1c-0.5-0.4-1.2-0.4-1.7-0.8c-1-0.7-2-0.6-3-0.1c-1,0.4-1.9,1-2.7,1.7
		c-1.4,1.2-2.8,2.3-4.1,3.6c-0.3,0.3-0.5,0.4-1,0.2c-0.7-0.4-1.4-0.7-2.1-1.2c-0.8-0.5-1.6-1-2.5-1.3c-0.7-0.3-1.3-0.6-1.8-1.1
		c-0.6-0.5-1.3-0.7-2.1-0.4c-0.7,0.3-1.5,0.4-2.2,0.1c-0.2-0.1-0.4-0.2-0.7-0.2c-2.6-1-5.1-0.6-7.5,0.5C10,3,8.7,3.9,7.5,5.1
		C7.1,5.5,6.4,5.8,6.1,6.3c-0.4,0.7-1,1.3-1.6,2c-1.3,1.6-2.4,3.3-2.9,5.4C1.2,14.8,1,16,0.6,17.2C0.3,18.5,0,19.7,0,21
		c0,1.5,0.1,3,0,4.5c-0.1,1.4,0.2,2.8,0.2,4.2c0,0.9,0.1,1.9,0.4,2.8C1,33.8,1.6,35,2,36.2c0.2,0.6,0.5,1.2,0.8,1.8
		c0.8,1.4,1.6,2.7,2.1,4.1c0.1,0.4,0.3,0.8,0.5,1.2c0.8,1.2,1.6,2.5,2.5,3.7c1.2,1.6,2.6,3.2,3.5,5c0.3,0.5,0.6,1,1,1.4
		c1.5,1.5,3.1,2.9,4.8,4.2c1.1,0.9,2.3,1.6,3.7,1.9c1.7,0.4,3.4,0.5,5.1,0.7c0.8,0.1,1.7,0.2,2.5,0.1c1.7-0.3,3.4-1.1,5-1.9
		c1.9-0.9,3.4-2.3,5.2-3.5c0.6-0.4,1-0.8,1.4-1.4c0.4-0.6,0.8-1.1,1.4-1.4c0.4-0.3,0.8-0.6,1-1.1c0.3-0.5,0.7-0.9,1.1-1.3
		c1-0.9,1.9-1.9,2.4-3.2c0.2-0.4,0.4-0.8,0.7-1.1c1.5-1.8,2.7-3.8,3.2-6.1c0-0.2,0.1-0.3,0.2-0.5c0.5-1.6,1.3-3,1.6-4.7
		c0.2-1.3,0.6-2.6,1-3.9C53.5,28.1,54,25.8,53.6,23.4z M40.1,1.9c-0.3,0.1-0.5,0.2-0.9,0.3C39.4,1.7,39.7,1.8,40.1,1.9z M39.2,0.6
		c0.1-0.1,0.3-0.1,0.4,0c0.1,0.1-0.2,0.2-0.3,0.2c-0.1,0-0.2,0.1-0.4,0C39,0.8,39.1,0.7,39.2,0.6z M36.9,2.6
		c-0.8,0.7-1.5,1.3-2.4,2.1C34.9,3.8,35.6,3.2,36.9,2.6z M29.2,5.9c0.2,0,0.4,0.1,0.5,0.2c0.1,0.1,0,0.1-0.1,0.1
		c-0.2,0-0.4,0-0.5-0.2c0,0,0-0.1-0.1-0.1C29.1,5.9,29.2,5.9,29.2,5.9z M17,1.9c-1.5,0.1-2.9,0.4-4.3,0.6C14,1.8,15.4,1.5,17,1.9z
		 M13.2,3.3c-0.3,0.4-1.8,0.9-3.1,1.1C11.2,3.7,12.2,3.6,13.2,3.3z M8.4,5.1C8.5,5,8.6,4.8,8.8,4.9c0,0,0.1,0.1,0.1,0.2
		C8.7,5.2,8.5,5.2,8.4,5.3c0,0-0.1,0-0.1,0C8.3,5.2,8.3,5.1,8.4,5.1z M0.6,20c0-0.6,0.2-1,0.5-1.5c1-1.9,2.4-3.5,4.1-5
		c0.4-0.4,0.8-0.7,1.1-1.2c-0.5,0.2-1,0.6-1.4,0.9c-0.5,0.4-0.9,0.8-1.4,1.2c-0.5,0.4-0.8,0.9-1.3,1.3c-0.1,0.3-0.3,0.5-0.7,0.8
		c0.1-0.5,0.4-0.7,0.6-0.9c1-1.5,2.3-2.6,3.6-3.7c0.6-0.5,1.3-0.8,1.7-1.5c0,0,0,0,0,0c0,0,0,0,0,0c-1.4,0.7-2.5,1.7-3.7,2.7
		c-0.2,0.2-0.4,0.5-0.7,0.6c-0.2-0.3,0-0.5,0.2-0.7c1.5-1.7,3.1-3.2,5.2-4.4c0,0.9-0.5,1.3-1,1.8c0,0,0,0,0,0c0,0,0,0,0,0
		c0.2,0.2,0.2,0.3,0,0.5c-0.6,1-0.6,2.1-0.8,3.2c-0.1,0.5,0,0.9-0.4,1.3c-0.1,0.1-0.1,0.2,0,0.3c0.4,0.4,0,0.6-0.2,0.9
		c-0.2,0.2-0.4,0.4-0.6,0.7c0,0,0,0,0,0c0,0,0,0,0,0c0,0,0,0,0,0c0.3-0.1,0.6-0.1,0.7,0.1c0.1,0.2-0.1,0.4-0.2,0.6
		c-0.1,0.2-0.4,0.4-0.2,0.6c0.4,0.5,0.2,0.8-0.2,1.1c-0.1,0.1-0.2,0.2-0.2,0.3c0.1,1-0.6,1.6-1.2,2.3c-0.8,1-1.5,2-2,3.1
		c-0.1,0.1-0.1,0.3-0.3,0.4c-0.3-1.2,0.3-2.1,0.9-3c0.5-0.9,1.2-1.7,1.9-2.4c-0.7,0.4-1.2,0.9-1.8,1.5c0.6-1.4,1.4-2.7,2.7-3.6
		c-0.4-0.2-0.6,0.1-0.8,0.3C4,19.3,3.5,20.1,3,20.8c-0.4,0.7-0.9,1.5-1.4,2.1c1-2.1,1.8-4.3,3.9-5.6c0,0,0,0,0,0
		c-0.5-0.1-0.8,0.1-1.2,0.4c-1.5,1.4-2.4,3.2-3.2,5.1c0,0.1-0.1,0.3-0.1,0.4c0.1,0.9,0.1,0.9-0.5,1.7c-0.1-0.8,0.2-1.5,0-2.3
		C0.5,21.8,0.6,20.9,0.6,20z M25.7,7.7c-0.9,0.6-1.9,0.6-3,0.6c0.5-0.5,1.1-0.4,1.4-0.9c-0.3-0.6-0.7-1-1.5-0.8
		c0.4-0.2,0.7-0.4,0.8-0.8c0,0,0,0,0,0c0,0,0,0,0,0c-0.3,0.1-0.5,0.1-0.9,0c0.3-0.3,0.6,0,0.9,0c0,0,0,0,0.1,0c0,0,0,0,0,0
		C24.3,6.2,25.1,6.8,25.7,7.7z M23.1,8.8c0.5,0,1.1,0,1.6-0.2c0.5-0.2,1.1-0.1,1.7-0.2c0.3-0.1,0.6,0.2,0.7,0.4
		c0.6,1.1,1.4,2.1,1.7,3.3c0.2,0.7,0.2,1.5,0.5,2.2c0.1,0.3-0.3,0.6-0.4,0.9c-0.1,0.2-0.3,0.5,0.2,0.4c0.2,0,0.3,0.1,0.2,0.2
		c-0.4,0.7-0.1,1.5-0.3,2.2c-0.1,0.6-0.4,1-0.8,1.3c-0.2,0.2-0.5,0.5-0.7,0.8c-0.1,0.1-0.2,0.3,0,0.4c0.2,0.2,0.3,0,0.4-0.1
		c0.2-0.3,0.4-0.6,0.8-0.8c0.2,0.5,0,0.8-0.3,1.1c-0.5,0.5-0.9,1-1.3,1.5c-0.1,0.2-0.4,0.4,0,0.7c0.2,0.1-0.1,0.3-0.2,0.4
		c-0.5,0.5-0.8,1.1-1.2,1.9c0.6-0.1,0.7-0.6,1-0.9c0.3-0.3,0.5-0.6,0.9-0.9c0.1,0.6-0.2,1-0.5,1.4c-0.9,1-1.9,2-2.5,3.3
		c-0.1,0.2-0.2,0.3-0.2,0.5c-0.1,0.2-0.2,0.4,0,0.5c0.3,0.1,0.2-0.2,0.3-0.4c0.6-1,1.1-1.9,2-2.7c0.1,0.3,0,0.5-0.1,0.7
		c-0.5,0.8-1.1,1.4-1.4,2.3c-0.2,0.5-0.8,0.9-0.3,1.6c0.1,0.2-0.2,0.5-0.3,0.8c-0.2,0.4-0.5,0.8-0.4,1.3c0.5,0.1,0.5-0.4,0.7-0.7
		c0.1,0.5-0.1,0.8-0.3,1.2c-0.5,0.7-0.8,1.4-1.1,2.1c-0.1,0.2-0.2,0.5-0.2,0.8c0,0.2,0,0.4,0.2,0.5c0.1,0.1,0.3,0.1,0.4-0.1
		c0.1-0.1,0.7-0.4-0.1-0.4c0,0,0-0.1,0-0.2c0.3-0.6,0.4-1.2,1-1.8c0,1.3-0.2,2.3-0.3,3.4c-0.1,0.4-0.2,0.8-0.1,1.3
		c0,0.6,0,1.2-0.3,1.8c-0.1,0.3-0.3,0.6,0.3,0.5c0.4-0.1,0.5,0.3,0.5,0.6c0,1.2,0.4,2.4,0.8,3.5c0.1,0.4,0.3,0.7,0.5,1
		c0.4,0.5,0.6,1.2,0.9,1.8c0.3,0.6,0.3,0.6,0.9,0.2c0.3-0.2,0.6-0.5,0.9-0.8c0.6-0.7,1.1-1.5,1.9-2c0.1,0,0.3-0.2,0.1-0.3
		c-0.6-0.2-0.3-0.4-0.1-0.6c1.1-1.6,2.2-3.2,3.3-4.8c0.8-1.3,1.7-2.6,2.3-3.9c0.5-1.1,0.8-2.3,1-3.6c0.2-1.2,0.2-2.4,0.3-3.6
		c0.1-0.8-0.2-1.6-0.4-2.4c-0.9-3.2-1.8-6.5-3-9.6c-0.5-1.4-0.7-3-0.6-4.6c0.1-0.7,0.5-1.1,1-1.5c0.6,0.8,1.3,1.4,2.2,1.8
		c0.9,0.4,1.8,1,2.7,1.5c0.7,0.4,1.4,0.7,2.1,1c1.9,0.9,3,2.7,2.9,4.8c0,0.1,0,0.2,0,0.3c-0.5,0.8-0.1,1.3,0.6,1.8
		c0.2,0.1,0.4,0.4,0.6,0.5c0.4,0.3,0.5,0.8,0.7,1.2c0.4,0.6-0.3,0.8-0.6,1.1c-0.3,0.6-0.3,1.2-0.1,1.8c0.3,0.7,0,1.2-0.4,1.7
		c-0.3,0.3-0.5,0.6-0.7,0.8c-0.9,1-1,2.2-0.7,3.5c0.3,1.3,0.2,2.6-0.5,3.8c-0.6,1.1-1.2,2.2-2.1,3c-0.4,0.3-0.6,0.8-0.8,1.3
		c-0.4,1.3-1,2.6-0.9,4c0,0.2,0,0.4-0.2,0.6c-0.7,0.8-0.9,1.8-1.5,2.6c-0.1,0.1-0.1,0.2-0.2,0.2C37.4,48,36.9,47,36.9,48
		c0,0.5-0.4,0.4-0.6,0.7c-0.2,0.3-0.3,0.5-0.3,0.8c0,0.5-0.4,0.8-0.8,1.1c-1.1,0.8-2.4,0.8-3.6,1.4c-0.8,0.5-1.6,1-2.4,1.5
		c-0.4,0.3-0.7,0.4-1.2,0.3c-0.6-0.1-1.1,0.1-1.7-0.1c1.2,0.3,2.3,0.9,3.4-0.2c0.4-0.4,0.9-0.7,1.4-1c0.8-0.5,1.9-0.3,2.8-0.8
		c-0.3,0.6-0.5,1-0.4,1.7c0.1,0.5-0.2,1.1-1,1.3c-0.2-0.4,0-0.7,0.3-1c0.3-0.3,0.6-0.6,0.3-1.1c-0.3,0.4-0.6,0.8-0.9,1.3
		c-0.1,0.2-0.2,0.4-0.2,0.7c0,0.6,0.3,0.8,0.9,0.6c0.2-0.1,0.5-0.2,0.7-0.4c0.1-0.3,0.3-0.5,0.4-0.8c0.1-0.4,0.1-0.9,0.8-0.6
		c0.3,0.1,0.8-0.2,0.8-0.6c0.1-0.4,0.3-0.7,0.5-1c0.1-0.1,0.2-0.3,0-0.4c-0.1-0.1-0.2,0-0.4,0c-0.2,0.1-0.3,0.3-0.5,0.2
		c-0.1-0.4,0.4-0.5,0.6-0.8c0.3-0.4,0.6-0.1,0.9,0c0.6,0.2,1-0.2,0.9-0.8c0-0.3-0.1-0.6-0.1-0.9c0-0.4,0-0.7,0.5-0.8
		c0.1,0,0.2,0.1,0.2,0.1c0,0.3-0.3,0.6,0.1,0.8c0.4,0.2,0.6-0.1,0.8-0.4c0.7-0.8,1.4-1.5,2.1-2.3c0.1-0.1,0.2-0.2,0.2-0.4
		c-0.1-0.2-0.2-0.1-0.4-0.2c-1.1-0.1-1.3-0.3-1.2-1.4c0.1-1.1,0.2-2.3,0.9-3.3c0.3,0.3,0.3,0.9,0.6,1.3c-0.1,0.1-0.1,0.1-0.2,0.2
		c-0.3,0.2-0.9,0-0.8,0.7c0.1,0.8,0.4,1.7,0.9,1.8c0.4,0.1,0.8-0.1,1-0.5c0.4-1.2,1.4-1.9,2.4-2.6c0,0,0,0,0,0c0,0,0,0,0,0
		c0.3-0.8,1.1-1.3,1.5-2c-0.1,0.9-0.7,1.5-1.5,2c0,0,0,0,0,0c0,0,0,0,0,0c-0.1,0.5-0.4,1-0.7,1.4c-0.5,0.6-0.8,1.3-1.1,2
		c-0.1,0.4-0.3,0.7-0.6,1c-0.9,0.9-1.4,2.1-2.2,3c-1.1,1.1-1.9,2.4-3.2,3.2c-0.9,0.5-1.4,1.5-2.4,2c-0.2,0.1-0.4,0.3-0.6,0.3
		c-0.7,0.8-1.5,1.5-2.5,1.9c-0.8,0.2-1.4,0.7-2.2,0.9c-0.5,0.1-1,0.2-1.5,0.2c-0.2-0.3-0.2-0.6-0.2-0.9c-0.1-0.6-0.4-1.1-0.8-1.5
		c-0.1-0.1-0.3-0.3-0.5-0.1c-0.1,0.2,0,0.3,0.1,0.4c0.5,0.3,0.7,0.8,0.6,1.4c-0.7-0.2-0.5-0.9-0.8-1.2c-0.3,0-0.2,0.3-0.3,0.4
		c-0.1,0.1-0.3,0.3-0.4-0.1c-0.3-0.8-0.5-0.8-1.1-0.2c-0.1,0.1-0.1,0.2-0.3,0.1c0-0.4-0.1-0.9-0.5-1.2c-0.3-0.2-0.5-0.2-0.8,0.1
		c-0.6,0.7-0.5,1.4-0.5,2.2c0,0,0,0,0,0c0,0,0.1,0,0.1,0c0.4,0,0.9,0,1.3-0.2c-0.4,0.5-0.9,0.2-1.3,0.2c0,0-0.1,0-0.1,0c0,0,0,0,0,0
		c-0.6-0.3-1.2-0.5-1.7-1c-0.1-0.1-0.2-0.2-0.1-0.3c0.1-0.1,0.2-0.2,0.3-0.1c0.3,0.2,0.6,0.2,1,0.1c-0.4-0.3-0.7-0.7-0.2-1.1
		c0.2-0.2,0.3-0.2,0.5-0.1c0.1,0.1,0.3,0.2,0.3,0.1c0.2-0.4,0.4-0.8,0.5-1.1c0-0.1-0.1-0.2-0.2-0.3c0,0,0,0,0,0c0,0,0,0,0,0
		c-0.1,0-0.2,0.1-0.3,0.1c-0.2,0.2-0.4,0.5-0.7,0.4c-0.2-0.1-0.2-0.4-0.4-0.6c0,0,0,0,0,0c0,0,0,0,0,0c-0.4-0.1-0.6,0.3-0.9,0.4
		c-0.2-0.3,0.1-0.8-0.4-0.8c-0.4,0-0.5,0.3-0.7,0.6c-0.2,0.3-0.2,0.8-0.4,1.2c-0.3-0.2-0.7-0.2-0.3-0.6c0.4-0.5,0.3-1.2,0.5-1.8
		c0.1-0.5-0.5-0.7-0.7-1.2c-0.8,0.5-0.7,1.5-1.3,2.1c-0.3-0.2-0.5-0.3-0.2-0.7c0.6-0.7,0.6-0.9,0.7-2c0-0.6,0.6-1,1.2-0.9
		c0.3,0.1,0.7,0.1,1,0.2c0.6,0.2,1,0.8,0.8,1.2c-0.4,1,0,1.7,0.6,2.4c0,0,0,0,0,0c0,0,0,0,0,0c0.4,0,0.9,0.1,1.3,0.1c0,0,0,0,0,0
		c0,0,0,0,0,0c0-0.3,0.2-0.3,0.4-0.4c0.3-0.1,0.6-0.1,0.8-0.4c-0.5-0.1-0.9,0.2-1.3,0.3c-1,0.3-1.8-0.3-1.5-1.2
		c0.4-1.3-0.1-2-1.2-2.5c-0.1-0.1-0.2-0.2-0.3-0.2c-0.7,0-1.4,0.4-2.1,0c-0.2-0.1-0.3,0.2-0.5,0.2c-0.2,0.4-0.5,0.7-0.7,1.1
		c-0.1-0.6,0.3-0.9,0.6-1.2c0-0.1,0-0.2,0.1-0.3c0.1-0.2,0.3-0.4,0.1-0.6c-0.2-0.1-0.4,0.1-0.5,0.2c-0.1,0.1-0.2,0.2-0.5,0.5
		c0.2-0.6,0.3-0.8-0.3-1.1c-0.6-0.3-0.7-1.1-1-1.8c-0.1-0.2,0.1-0.4,0.2-0.5c0.2-0.2,0.5-0.2,0.6-0.6c-0.9,0.1-1.5,0.5-1.9,1.3
		c-0.2,0.3-0.4,0.6-0.6,0.9c0,0,0,0,0,0c0,0,0,0,0,0c0,0.2-0.1,0.4,0,0.6c0.2,0.7,0.6,0.9,1.5,0.7c-0.1,0.7-0.2,1.4,0,2.1
		c-1.1-0.8-1.7-2.1-2.9-2.7c0.3-0.4,0.6-0.7,0.8-1c0.2,0.1,0.3,0.4,0.5,0.4c0,0,0,0,0,0c0,0,0,0,0,0c-0.4-1.1-0.2-2.1,0.6-3
		c0.1-0.1,0.3-0.4,0.2-0.5c-0.3-0.2-0.3-0.4-0.4-0.6c-0.1-0.1-0.2-0.1-0.3,0.1c-0.2,0.2-0.2,0.4-0.5,0.4c-0.2-0.3,0.5-0.5,0.1-0.8
		c-0.3-0.2-0.5,0.2-0.7,0.4c-0.3,0.3-0.6,0.6-0.7,1c-0.1,0.3-0.3,0.6-0.7,0.8c0.1-0.7,0.6-1.2,0.9-1.8c0.1-0.2,0.3-0.4,0.5-0.7
		c0.4-0.7,0.4-0.9-0.4-1.3c-0.2-0.1-0.2-0.2-0.1-0.4c0-0.1,0.1-0.2,0.2-0.2c0.1-0.2,0.5-0.3,0.3-0.6c-0.2-0.3-0.5,0.2-0.8,0.1
		c0-0.6,0.2-1.1,0.7-1.6c0.1-0.1,0.1-0.3,0-0.4c-0.2-0.2-0.2,0-0.4,0.2c-0.4,0.4-0.5,1-0.8,1.5c-0.1,0.3-0.1,0.6-0.5,0.7
		c-0.5-0.6-0.2-1.1,0.2-1.6c0.4-0.5,0.9-0.8,1.3-1.4c-0.6-0.1-0.9,0.1-1.2,0.5c-0.6,0.7-1.3,1.4-1.5,2.4c-0.1,0.3-0.3,0.4-0.7,0.4
		C8,40,8.2,39.5,8.6,39c0.3-0.4,0.6-0.8,0.8-1.1c0-0.1,0.1-0.1,0.1-0.2c-0.3-0.5,0-0.9,0.2-1.4c0.1-0.2-0.2-0.2-0.5-0.3
		c0.2-0.2,0.5-0.4,0.7-0.7c0.2-0.2,0.7-0.5,0.1-0.8c-0.2-0.1,0.1-0.2,0.1-0.3c0.3-0.2,0.6-0.5,0.7-0.9c-0.4-0.2-0.6,0.1-0.8,0.3
		c-0.3,0.2-0.5,0.5-0.8,0.6c0-0.3,0.2-0.3,0.3-0.5c0.1-0.1,0.2-0.3,0.1-0.3c-0.7-0.5,0.1-0.8,0.2-1.1c0-0.1,0-0.2,0.1-0.4
		c-0.9,0.2-1.3,0.9-1.9,1.3c-0.6,0.4-1,1-1.8,1.5c0.9-1.5,2.2-2.3,3.2-3.5c-0.3-0.3-0.4-0.2-0.6-0.1c-0.1,0-0.2,0-0.3-0.1
		c-0.2-0.2,0-1.3,0.2-1.4c0.2-0.1,0.5-0.1,0.6-0.4c-0.9-0.2-2.4,0.3-2.9,1c-0.3,0.4-0.1,0.7,0,1.1c0.1,0.2,0.1,0.3-0.1,0.4
		c-0.2,0.1-0.3,0-0.3-0.2c-0.1-0.3-0.3-0.2-0.5-0.1c-0.3,0.1-0.5,0.3-0.9,0.6c0.3-0.9,1.3-1,1.4-2c-0.6,0-0.8,0.5-1.3,0.6
		c0.1-0.4,0.4-0.6,0.6-0.8c1-0.9,1.6-2.2,2.9-2.7c0.1,0,0.1-0.1,0.2-0.1c0.3-0.7,1-1.1,1.4-1.7c-0.3-0.4-0.6,0-0.8-0.1
		c0.1-1.5,1.2-2.2,2.2-3.1c-1,0-2,0.4-3.1,0.2c0-0.5,0.2-0.9,0.7-1.1c0.4-0.2,0.6-0.5,1-0.7c0.6-0.2,0.7-0.9,0.7-1.3
		c0.1-0.5-0.4-0.2-0.7-0.2c-0.2,0.2-0.4,0.4-0.7,0.3c0.2-0.2,0.4-0.3,0.7-0.4c0.6-0.4,1.4-0.5,1.8-1.2c-0.3-0.3-0.6-0.1-0.9,0
		c-0.4,0.2-0.8,0.4-1.1-0.1c0-0.1-0.3,0-0.4-0.2c1.1-0.7,2.3-0.5,3.5-0.9c0-0.2-0.2-0.2-0.4-0.2c-0.5,0-0.8-0.3-1.2-0.4
		c-0.3-0.1-0.2-0.4-0.2-0.6c0-0.3,1-0.5,1.2-0.2c0.1,0.2,0.2,0.4,0.4,0.4c0.2,0,0.4,0.1,0.5-0.1c0.1-0.3-0.4-0.1-0.3-0.4
		c0.6-0.4,1.3-0.8,1.9-1.2c0.2-0.1,0.4-0.3,0.5-0.4c0.1-0.1,0.1-0.2,0-0.3c0-0.1-0.2-0.1-0.3-0.1c-0.2,0.1-0.4,0.2-0.6,0.3
		c-0.3,0.2-0.5,0-0.7-0.3c0.5-0.4,1.1-0.7,1.7-1c0.5-0.2,1.1-0.3,1.3-1.1c0.1-0.4,0.8-0.4,1.4-0.5c-0.4,0.5-0.8,1.1-1.3,1.6
		c-0.4,0.4-0.7,0.8-0.9,1.3c-0.4,0.9-1.2,1.5-1.6,2.3c-0.7,1.3-1.3,2.6-1.2,4.1c0,0.8-0.2,1.4-0.7,2c-1.4,1.5-1.7,3.2-1,5.1
		c0.2,0.5,0.2,1.1,0.1,1.6c-0.4,2.1-0.5,4.2-0.7,6.3c-0.2,1.8,0.6,3.1,1.4,4.5c0.3,0.4,0.6,0.9,1,1.1c0.9,0.7,1.4,1.6,1.8,2.6
		c0.3,0.6,0.5,1.2,0.4,1.8c-0.1,0.7,0,1.4,0.6,1.8c0.8,0.6,1.6,1.2,2.4,1.8c-0.4-0.7-1-1.2-1.6-1.6c-0.7-0.5-1.1-1.2-1-2.2
		c0.1-1.5-0.6-2.6-1.5-3.8c-0.3-0.4-0.7-0.8-1-1.1c-1.1-1-1.5-2.3-2-3.6c-0.2-0.4-0.1-0.7,0-1.1c0.2-0.7,0.2-1.4,0.1-2.1
		c-0.1-0.9,0.1-1.9,0.3-2.8c0.3-1.4,0.4-2.7,0-4.2c-0.4-1.5,0-2.9,1.1-4c0.6-0.6,0.8-1.3,0.8-2.2c0-0.9,0.1-1.8,0.5-2.7
		c0.5-1,0.9-1.9,1.7-2.7c0.1-0.1,0.2-0.2,0.3-0.3c0.7-1.5,2-2.6,3-3.9C20.2,9.2,21.6,8.8,23.1,8.8z M32.6,22.4
		c0.4-0.3,0.8-0.6,0.9-1.2c-1.3,1.1-2.7,2.1-4,3.2c0.2-0.8,0.4-1.6,1.1-2.1c1-0.7,1.9-1.5,2.9-2.2c0.3,0.1,0.3,0.4,0.3,0.7
		c0,1.7,0.2,3.3,0.6,4.9c0.1,0.2,0.1,0.5,0,0.7c-0.1,0.9-0.1,1.8-0.1,2.7c0.1,1.1-0.2,2.1-0.7,3.2c-0.3-0.6,0.1-1.3-0.3-1.9
		c0,0,0,0,0,0c0,0.7-0.1,1.3-0.1,2c0,0.3,0,0.5-0.5,0.5c-0.1-0.6-0.1-1.2,0-1.8c0-0.3,0.1-0.7,0.6-0.7c0,0,0,0,0,0c0,0,0,0,0,0
		c0,0,0,0,0,0c0-0.3-0.2-0.7,0-1c0.4-0.7,0.3-1.5,0.5-2.2c0-0.1,0.1-0.2,0-0.2c-0.8-0.7,0-1.6-0.3-2.4c-1.9,1.4-3.7,2.8-5.5,4.6
		c0-1,0.2-1.6,0.9-2.2c1.4-1.2,2.8-2.5,4.4-3.5c0.1,0,0.1-0.1,0.1-0.3c-0.9,0.3-1.7,1-2.4,1.6c-0.8,0.6-1.5,1.2-2.4,1.9
		c0-0.7,0.2-1.1,0.6-1.5C30.5,24.2,31.5,23.3,32.6,22.4z M29.7,19c0.1,0.3-0.1,0.5-0.1,0.7C29.3,19.4,29.4,19.2,29.7,19z M30.1,20.6
		c0-0.8,0.5-1.1,0.9-1.5c0.4-0.4,0.9-0.7,1.3-1.2c-0.8,0.2-1.2,0.9-2,1.2c0.1-1.7,1.6-1.9,2.4-2.9c0.2,1.1,0.6,2,0.7,2.9
		c0,0.5-0.1,0.8-0.5,1c-0.7,0.5-1.4,1-2.2,1.5c-0.4,0.2-0.6,0.5-1,0.8c0-0.7,0.2-1.2,0.8-1.6c0.6-0.4,1.2-0.8,1.8-1.3
		c0.2-0.2,0.4-0.3,0.5-0.7C31.9,19.5,31,20,30.1,20.6z M30.5,16.8c0.6-0.5,1.1-1,1.7-1.5c0.1-0.1,0.2-0.1,0.4,0
		c0.1,0.1,0.1,0.2,0,0.4c-0.1,0.1-0.2,0.3-0.3,0.4c-0.6,0.4-1.1,0.9-1.7,1.2C30.4,17.1,30.4,16.9,30.5,16.8z M33.5,38.8
		c-0.1-0.1-0.2,0-0.2,0.1c-0.1,0.2-0.1,0.4-0.2,0.6c-0.4,0.6-0.6,1.2-1,1.9c-0.2,0.4-0.3,0.8-0.8,0.9c0,0,0,0,0,0c0,0,0,0,0,0
		c0,0.4-0.2,0.6-0.6,0.8c0.2-0.5,0.3-0.7,0.6-0.8c0,0,0,0,0,0c0,0,0,0,0,0c0.3-1,1-1.8,1.4-2.8c1-2.4,2.2-4.8,2.5-7.4
		c0.1-0.7,0.3-1.4,0.5-2c0.6-2.2,0.1-4.3-0.4-6.4c-0.2-0.9-0.4-1.9-0.5-2.8c0.9,2.2,1.5,4.4,2.1,6.7c0.2,1,0.2,2,0,2.9
		c-0.3,2.6-0.9,5.1-2.5,7.2c-0.3,0.4-0.4,1-0.9,1.3C33.6,38.9,33.6,38.8,33.5,38.8z M26.5,38.6c-0.3,0-0.1,0.4-0.3,0.4
		c0,0-0.1-0.1-0.1-0.1c0-0.7,0.1-1.3,0.8-1.8c-0.1,0.7-0.1,1.4-0.2,2.2C26.5,39.1,26.7,38.8,26.5,38.6z M25.6,40.5
		c-0.6-0.4-0.6-0.7-0.2-1.6C25.5,39.5,25.6,40,25.6,40.5C25.6,40.5,25.6,40.5,25.6,40.5C25.6,40.5,25.6,40.5,25.6,40.5
		C25.6,40.5,25.6,40.5,25.6,40.5c0,0.3,0,0.6,0,1C25.3,41.2,25.4,40.9,25.6,40.5L25.6,40.5z M25.5,36.9c0,0.4,0.1,0.8-0.1,1.4
		C25,37.7,25.3,37.3,25.5,36.9z M25.4,34.2c-0.1-0.7,0.1-1.2,0.5-1.6C25.6,33.1,25.8,33.7,25.4,34.2z M25.7,31.8
		c-0.4-1,0.2-1.6,0.9-2.1C26.4,30.5,26.4,31.2,25.7,31.8z M26.4,33.4c-0.2-0.5,0.1-0.8,0.2-1.2C26.7,32.7,26.8,33.1,26.4,33.4z
		 M26.8,33.9c0.1,0.4,0.1,0.4-0.2,0.8C26.5,34.4,26.5,34.2,26.8,33.9z M26.9,35.2c0.1,0.8-0.1,1.2-0.8,1.7
		C26.2,36,26.2,35.9,26.9,35.2z M26,29.4c0-0.7,0.1-0.9,1.3-2.1C27.2,28.3,27.1,28.5,26,29.4z M28,44.8c0.2,0.2,0.1,0.3,0,0.5
		c-0.2,0.3-0.4,0.5-0.6,0.8c-0.7-0.9-0.6-1.9-0.7-2.9C27.1,43.8,27.4,44.3,28,44.8z M31.8,37.5c-0.2,1-0.2,2-1,2.7
		C30.9,39.2,31.3,38.3,31.8,37.5z M31.3,34.9c-0.1,0-0.2-0.1-0.1-0.2c0.1-0.1,0.2-0.2,0.3-0.2c0,0,0,0.1,0.1,0.2
		C31.5,34.9,31.4,35,31.3,34.9z M31.8,36.7c0.1-0.6,0.2-1,0.3-1.5C32.1,35.7,32.3,36.2,31.8,36.7z M31.8,32.8
		C31.8,32.8,31.8,32.8,31.8,32.8C31.8,32.8,31.8,32.8,31.8,32.8c0.1,0.9-0.5,1.4-1.1,1.9c-0.3,0.2-1,0-1.1-0.3c0-0.1,0-0.2,0-0.3
		c0.1-0.1,0.2-0.3,0.3-0.4C30.6,33.4,31.1,33,31.8,32.8C31.8,32.8,31.8,32.8,31.8,32.8C31.8,32.8,31.8,32.8,31.8,32.8
		c0-0.3,0.2-0.6,0.4-0.8c0.2,0.1,0.1,0.2,0.1,0.4C32.4,32.8,32.4,32.8,31.8,32.8z M28,38.9c0.1,0,0.8,0.6,0.8,0.8
		c0,0.1-0.1,0.2-0.2,0.2c-0.3,0.1-0.8-0.4-0.8-0.7C27.7,39.1,27.8,39,28,38.9z M27.9,34.2c0.2,0,0.2,0.1,0.2,0.3
		c0,0.1,0,0.3-0.1,0.3c-0.2,0-0.2-0.1-0.2-0.3C27.8,34.4,27.7,34.2,27.9,34.2z M27.9,40.2c0.1,0,0.3,0.1,0.2,0.3
		c-0.2,0.2-0.3,0.5-0.6,0.4c-0.2,0-0.2-0.3-0.1-0.4C27.5,40.3,27.7,40.1,27.9,40.2z M28.8,40.4c-0.1,0.6-0.6,0.7-0.7,1.1
		C28.1,41.1,28.1,41.1,28.8,40.4z M29.1,42.8c-0.3,0.1-0.4,0.1-0.6-0.1C28.7,42.5,28.9,42.6,29.1,42.8z M28.6,38.8
		c-0.1-0.2-0.3-0.4-0.2-0.6c0.4,0.3,0.4-0.3,0.7-0.3c0.3,0.1,0.6,0.2,1,0.2c-0.1,0.4-0.3,0.5-0.5,0.7C29.1,39.3,29,39.3,28.6,38.8z
		 M29.2,37.4c0,0-0.1-0.1-0.1-0.2c0-0.1,0.1-0.2,0.2-0.2c0.1,0,0.1,0,0.2,0c0.3,0.1,0.7,0.1,1.1,0.2C30.1,37.7,29.5,37.7,29.2,37.4z
		 M29.5,36c-0.2,0.1-0.2,0.5-0.5,0.3c-0.3-0.1-0.5-0.3-0.5-0.7c0-0.2,0.1-0.3,0.2-0.4c0.2-0.2,0.3,0,0.4,0.1
		c0.2,0.1,0.4,0.3,0.7,0.5C29.6,35.8,29.5,35.9,29.5,36z M29.9,32.8c-0.2,0.2-0.4,0-0.5-0.2C29.6,32.7,29.8,32.8,29.9,32.8z
		 M30,31.9c0.8-0.7,1.5-1.4,2.3-2.1c0.1,0.8,0.1,0.8-0.6,1.4c-0.1,0.1-0.1,0.1-0.1,0.2c-0.3,0.9-0.7,1.1-1.7,0.8
		C29.8,32.1,29.9,32,30,31.9z M29.6,33.4c-0.2,0.3-0.4,0.6-0.7,0.3c-0.1-0.1-0.4-0.3-0.2-0.5C29,33,29.2,33.4,29.6,33.4z M29.3,31.9
		c-0.6-0.4-0.3-0.7,0-1c0.8-0.7,1.6-1.5,2.5-2.2c0.3-0.3,0.5-0.8,1.1-0.8c0.1,0.4,0,0.9-0.3,1.1C31.5,30,30.4,30.9,29.3,31.9z
		 M32.5,27.7c-0.9,0.6-1.7,1.5-2.6,2.2c-0.3,0.2-0.5,0.5-0.9,0.6c-0.3-0.1-0.2-0.5-0.5-0.6c-0.1,0-0.2,0.1-0.2,0.2
		c-0.1,0.4,0.1,0.9-0.2,1.5c-0.2-1.1,0-1.8,0.7-2.5c1.3-1.2,2.6-2.3,3.9-3.4c0.2-0.1,0.3-0.2,0.6-0.4C33.5,26.4,33.3,27.1,32.5,27.7
		z M27.5,26.1c-0.1-0.6,0.2-1,0.6-1.5C28.1,25.3,27.9,25.8,27.5,26.1z M27.6,28.9c0-0.1,0.1-0.1,0.1,0.1c0,0.2-0.1,0.5-0.2,0.9
		C27.3,29.4,27.5,29.1,27.6,28.9z M27.4,37.6c0.3,0.4,0.4,0.6,0,0.9C27.3,38.2,27.3,38,27.4,37.6z M27.3,47.1
		c0.1-0.3,0.5-0.3,0.7-0.3c0.1,0,0.1,0.1,0.2,0.2c-0.2,0.2-0.4,0.5-0.7,0.5C27.3,47.5,27.3,47.2,27.3,47.1z M28.2,43.6
		c0.4-0.1,0.8-0.3,1.3-0.3c-0.1,0.5-0.5,0.8-0.9,1.1C28.5,44.2,28.2,44,28.2,43.6z M29.6,44.2c-0.1,0.3-0.2,0.4-0.4,0.6
		C29.2,44.5,29.4,44.4,29.6,44.2z M29.6,42.6c0.1-0.1,0.1-0.1,0.2-0.1c0.2-0.1,0.3-0.1,0.5,0c0,0,0,0.1,0,0.2c-0.1,0.1-0.3,0-0.5,0
		C29.7,42.6,29.7,42.6,29.6,42.6z M30.1,41.8c-0.1,0-0.2-0.1-0.2-0.2c0.1-0.3,0.2-0.8,0.8-0.7c0,0.1,0,0.2-0.1,0.3
		C30.5,41.5,30.5,41.8,30.1,41.8z M29.6,36.6c0.3-0.7,0.9-0.9,1.7-0.9C30.9,36.9,30.7,37,29.6,36.6z M35.3,27.6
		c0.3,0.1,0.3,0.3,0.2,0.5c-0.4,1.8-0.8,3.7-1.2,5.5c-0.2,1-0.5,2-1,3c-0.1,0.2-0.1,0.4-0.4,0.5c0.4-1.3,0.4-2.6,1-3.8
		C34.7,31.4,35.1,29.5,35.3,27.6z M34.9,27.8c0-0.4,0-0.8,0-1.2C35,27,35,27.4,34.9,27.8z M32.9,34.2c-0.1-0.4-0.2-0.7,0.2-0.9
		C33.3,33.7,33.1,33.9,32.9,34.2z M35,25.5c-0.5-1.1-0.5-2.3-0.6-3.5C34.8,23.1,35,24.3,35,25.5z M34,18c0.5,0.8,0.5,0.8,0.6,1.7
		C34.3,19.1,34,18.7,34,18z M28.4,23.6c0.1-0.9,0.1-0.9,0.5-1.4C28.9,22.9,28.9,22.9,28.4,23.6z M29,21.2c0-0.2,0.1-0.3,0.2-0.4
		c0,0,0.1,0,0.1-0.1c0,0,0,0.1,0.1,0.1c0,0.2,0,0.3-0.1,0.5C29.1,21.3,29,21.3,29,21.2z M36.3,11c0.1,0.2,0.3,0.4,0.6,0.2
		c0.4-0.2,0.7-0.1,1.1,0.1c0.9,0.5,1.9,0.7,2.9,0.8c0.1,0,0.2,0.1,0.3,0.1c-0.1,0.3-0.4,0.3-0.6,0.3c-0.4,0-0.3,0.4-0.4,0.5
		c-0.2,0.3,0.1,0.4,0.3,0.5c0.8,0.3,1.5,0.7,2.4,0.4c0.2-0.1,0.4,0,0.5,0.2c-1.3,0.5-1.4,0.6-2.6-0.2c-1.1-0.7-2.3-1.1-3.3-1.9
		c-0.5-0.3-1.2-0.4-1.7-0.9c-0.2-0.3-0.7-0.4-0.3-0.9c0.3-0.4,0.8-0.4,1.2-0.1c0.1,0.1,0.2,0.2,0.2,0.3c0,0,0,0,0,0c0,0,0,0,0,0
		c0.6-0.1,1.2-0.1,1.8,0.4c-0.6-0.1-1.2-0.2-1.8-0.4c0,0,0,0-0.1,0c0,0,0,0,0,0C36.6,10.6,36.2,10.6,36.3,11z M44.7,16
		c0.3,0.5,0.4,0.4,1,0.2c0.6-0.2,1.3-0.2,1.8,0.3c0.3,0.2,0.7,0.5,0.8,1c-0.5,0.2-0.8-0.1-1.1-0.3c-0.5-0.3-0.9-0.3-1.2,0
		c-0.1,0.2-0.1,0.4,0,0.6c0.2,0.4,0.7,0.5,1.2,0.3c0.3-0.1,0.4-0.1,0.7,0c0.4,0.1,0.7,0.1,1-0.3c0.3-0.4,0-0.7-0.3-1
		c-0.2-0.3-0.5-0.7-0.8-0.8c-1-0.3-0.9-1.2-0.9-1.9c0-0.4-0.1-0.5-0.4-0.5c-0.9,0-1.6-0.6-2.6-0.5c0.1-0.4,0.2-0.7,0.1-1
		c0.2,0,0.3,0,0.3,0c1.1,0.4,2.2,0.9,3.3,1.5c0.7,0.4,1.3,0.9,1.6,1.7c0.4,1,1,1.9,1.4,2.9c0.4,0.9,0.6,1.8,0.3,3
		c-0.2-0.3-0.7-0.4-0.4-0.9c0.1-0.2,0-0.3-0.1-0.4c-0.7-0.5-1.4-1-2.2-1.2c-0.3-0.1-0.6,0-0.4,0.4c0.2,0.5,0,1.1,0.2,1.6
		c0.1,0.2,0,0.2-0.2,0.2c-0.3,0-0.4,0.2-0.5,0.3c-0.4,0.3-0.3,0.5,0,0.7c0.2,0.2,0.5,0.2,0.6,0.5c0,0.3-0.3,0.4-0.4,0.5
		c-0.2,0.3-0.2,0.7,0,1c0.3,0.4,0.7,0.7,1.2,0.9c0.8,0.2,1.2-0.1,1.1-1c-0.1-0.3-0.2-0.6,0-0.8c0.5-0.5,0.1-0.9-0.3-1.3
		c0.5-0.1,0.9,0.2,1.2-0.2c0.5,2.4,0.1,4.5-1.2,6.4c-0.4-0.3-0.4-0.3-0.1-0.7c0.1-0.2,0.2-0.4,0.1-0.6c-0.2-0.6-0.5-1-0.9-1.4
		c0,0-0.1-0.1-0.2-0.1c-0.2,0.7-1,0.1-1.4,0.7c-0.3,0.5-0.3,1-0.2,1.3c0.2,0.5,0.5,1.1,1,1.5c0.2,0.1,0.3,0.3,0.5,0.2
		c0.3-0.1,0.1-0.3,0-0.5c0-0.1,0-0.2,0-0.3c0.2-0.1,0.2,0.1,0.3,0.1c0.5,0.3,0.5,0.7,0.4,1.3c-0.5,3.4-1.7,6.6-3.4,9.7
		c-0.2,0.3-0.3,0.6-0.5,0.9c-0.1,0.1-0.2,0.1-0.2,0.2c-0.1-0.6-0.1-0.6-0.7-0.4c-0.1-0.1,0-0.2,0.1-0.4c0.1-0.3,0.1-0.5-0.4-0.4
		c-0.2,0-0.2,0-0.3-0.1c-0.3-0.5-0.7-0.6-1.1-0.1c-0.3,0.5-0.6,1-0.7,1.5c-0.1,0.3-0.2,0.6-0.5,0.9c0.1-0.4-0.5-0.7,0.2-1
		c0.1,0,0-0.3-0.1-0.3c-0.4-0.3-0.2-0.5,0.1-0.7c0.7-0.6,1.2-1.3,1.6-2.1c0.2,0.1,0.2,0.2,0.2,0.3c0.1,0.6,0.5,0.8,1,0.8
		c0.5,0,0.9-0.3,1-0.7c0.2-0.8,0.9-1.3,1.3-2c0.2-0.3,0.4-0.6,0.6-0.9c0.2-0.2,0-0.4-0.1-0.5c-0.2-0.6-0.4-1.2-0.5-1.7
		c-0.1-0.3-0.1-0.5,0.4-0.6c0.9,0,1.1-0.3,0.9-1.2c-0.1-0.8-0.7-1.4-1-2.1c0-0.1-0.1-0.2-0.2-0.1c-0.1,0.1-0.2,0.2-0.2,0.3
		c0,0.2,0.1,0.4,0.1,0.6c0,0,0,0,0,0c0,0,0,0,0,0c0.4,0.4,0.7,0.9,0.7,1.4c0,0.2,0.1,0.4-0.2,0.5c-0.2,0-0.5,0-0.6-0.3
		c-0.1-0.2-0.1-0.4-0.1-0.7c0.1-0.3,0.1-0.6,0.1-0.9c0,0,0,0,0,0c0,0,0,0,0,0c-0.2-0.1-0.4-0.1-0.4,0.2c-0.1,1.4-0.5,2.9,0,4.3
		c0,0.1,0.1,0.3,0,0.4c-0.7,0.3-0.5,0.9-0.5,1.4c0,0.5-0.2,0.8-0.5,1c-0.5-0.7-1.1-1.3-0.8-2.2c0.2-0.6,0-1.2-0.1-1.8
		c-0.4-1.7,0.1-3.1,1.4-4.3c0.7-0.6,0.8-1.2,0.5-2.1c-0.2-0.6-0.1-1.1,0.4-1.6c0.6-0.7,0.6-1,0.2-1.8c-0.4-0.6-0.8-1.2-1.3-1.6
		c-0.3-0.3-0.5-0.5-0.4-1c0.4-1.9-0.1-3.4-1.4-4.8c0,0,0-0.1,0-0.2C44,15.2,44.3,15.3,44.7,16z M44,14.7c0.2-0.1,0.5-0.2,0.9,0
		C44.4,14.7,44.2,14.7,44,14.7z M51.4,22.2c0.4,0.6,0.5,1.2,0.4,1.8c-0.2,2.2-1.2,4.2-2.1,6.3c-0.2-0.6,0-1,0.1-1.4
		c0.2-0.6,0.4-1.1,0.7-1.7C51.4,25.5,51.3,24,51.4,22.2z M49.2,24.4c-1.3-0.1-1.6-0.4-1-1.6C48.8,23.3,49.3,23.6,49.2,24.4z
		 M47.3,37.6c0,0.5,0,1-0.7,1.4C46.7,38.4,47,38,47.3,37.6z M42.2,41.4c0.1-0.1,0.3-0.2,0.4-0.3c0.1-0.1,0.3-0.2,0.4-0.3
		c-0.1,0.9,0.1,1.8-0.8,2.4c-0.2-0.1-0.3-0.4-0.4-0.6C41.5,41.9,41.5,41.9,42.2,41.4z M41.4,44.5c-0.8-0.9-0.8-1-0.1-1.6
		C41.8,43.7,41.8,43.7,41.4,44.5z M43.8,37.1c0-0.3,0.1-0.6,0.3-0.9c0.3,0.1,0.4,0.4,0.6,0.7c0.2,0.3,0,0.5-0.2,0.7
		c-0.1,0.1-0.2,0.1-0.4,0C43.8,37.6,43.8,37.4,43.8,37.1z M40.7,11.2c1-0.3,1.9,0,3,0.7C42.5,12,41.5,11.8,40.7,11.2z M42.7,13.4
		c-0.6,0.3-1-0.1-1.6-0.5C41.7,13,42.3,12.7,42.7,13.4z M37.1,49.9c0,0.2-0.1,0.3-0.3,0.3c-0.2,0-0.4-0.2-0.3-0.4
		c0-0.2,0.2-0.4,0.5-0.6C37.1,49.5,37.1,49.7,37.1,49.9z M26.3,57.8c-0.4,0.1-0.7,0.2-0.9-0.1c-0.2-0.2,0.1-0.4,0.2-0.6
		C25.8,57.3,26,57.5,26.3,57.8z M25,57.6c-0.1,0-0.2,0-0.3,0c-0.2,0-0.4,0-0.5-0.2c0-0.1,0.1-0.2,0.2-0.3c0.3-0.1,0.4,0,0.5,0.3
		C24.9,57.5,24.9,57.5,25,57.6z M23,56.4c-0.1,0.2-0.3,0.3-0.6,0.3c-0.1-0.2-0.1-0.4-0.1-0.6c0-0.2,0.1-0.4,0.2-0.4
		c0.2-0.1,0.3,0.1,0.4,0.2C23.1,56,23.1,56.3,23,56.4z M17.9,53.7c-0.1,0.1-0.2,0.1-0.2,0.1c-0.2,0-0.3-0.1-0.3-0.2
		c0-0.1,0-0.2,0-0.3c0.1-0.4,0.1-0.9,0.6-1.2c0,0,0.1,0,0.2,0.1C18.3,52.4,18.1,53.5,17.9,53.7z M13.6,47.9
		c-0.4,0.1-0.7-0.2-0.5-0.6c0.2-0.4,0.3-0.8,0.6-1.1c0.3,0.3,0.3,0.5,0.4,0.8C14.2,47.5,14,47.8,13.6,47.9z M9.2,45.3
		c-0.1,0-0.2-0.1-0.3-0.2c0-0.2,0.1-0.1,0.2-0.1c0.1,0,0.3,0,0.3,0.2C9.4,45.2,9.4,45.3,9.2,45.3z M6.7,39.2
		c0.2,0.4,0.4,0.8,0.5,1.2c0.1,0.3,0.1,0.5,0.4,0.8c0.4,0.4,0,0.8,0,1.2c0,0,0,0,0,0c0,0,0,0,0,0c0.2-0.1,0.5-0.1,0.7-0.2
		c0.2-0.1,0.4,0,0.4,0.2c-0.2,0.6,0.2,1.3,0.1,1.9c0,0.1-0.1,0.2-0.2,0.4c-0.6-0.7-0.5-1.6-1-2.3c0,0,0,0,0,0c0,0,0,0,0,0
		C7.2,41.3,6.7,40.3,6.7,39.2z M7.4,31.1c-0.2,0-0.3-0.1-0.2-0.3C7.3,30.4,7.5,30.1,8,30c0.2,0.2,0.3,0.4,0.1,0.6
		C7.9,30.9,7.7,31.1,7.4,31.1z M7.5,31.9c-0.1,0-0.1,0.1-0.2,0.1c-0.1,0-0.2-0.1-0.1-0.2c0-0.1,0.1-0.1,0.3-0.1
		C7.5,31.8,7.6,31.8,7.5,31.9z M4.7,26.2c-0.1,0.1-0.2,0.3-0.4,0.2c-0.3-0.1-0.1-0.3-0.1-0.4c0.1-0.7,0.3-1.3,0.3-2
		c0-0.2,0.1-0.5,0.4-0.6c-0.1,0.8-0.1,1.4-0.1,2.1C4.8,25.7,4.9,26,4.7,26.2z M2.6,33C2.6,33,2.6,33,2.6,33c0.5,0.7,0.4,1.4,0.5,2.1
		C2.9,34.4,2.4,33.8,2.6,33C2.6,33,2.6,33,2.6,33C2.6,33,2.6,33,2.6,33c-0.4-0.3-0.2-0.8-0.3-1.2C2.6,32.2,2.9,32.5,2.6,33
		C2.6,33,2.6,33,2.6,33z M2.6,27.5c-0.5-1.9,0.6-3.1,1.5-4.4C3.9,24.6,4,26.2,2.6,27.5z M4,28.5c0.1-0.4,0.1-0.9,0-1.3
		c0-0.2,0-0.4,0.3-0.4c0.2,0,0.4,0.2,0.3,0.4c0,0,0,0.1,0,0.1c-0.6,0.5-0.2,0.9,0,1.4c0.3,0.7,0.3,0.7-0.5,1.2C4,29.4,3.9,29,4,28.5
		z M6.2,28.2c0.1-0.2,0.3-0.3,0.4-0.5C6.6,28.1,6.4,28.2,6.2,28.2z M7.8,17.3c0,0,0.1,0.2,0.1,0.2c-0.1,0.4-0.5,0.3-0.8,0.5
		c0-0.1,0-0.2,0-0.2C7.3,17.6,7.4,17.3,7.8,17.3z M7.4,12.9c0.1-0.3,0.3-0.2,0.6-0.1c-0.1,0.2-0.2,0.4-0.5,0.3
		C7.4,13,7.4,12.9,7.4,12.9z M8.7,24.3c-0.5,0.1-1.1-0.1-1.1-0.4c0-0.4,0.3-0.7,0.7-0.8c0.6-0.2,1.2-0.2,1.9-0.2
		c-0.3,0.5-0.7,0.8-1,1.1C9.1,24.1,8.9,24.3,8.7,24.3z M8.7,25c0,0.1-0.2,0.1-0.3,0.1c-0.1,0-0.2-0.1-0.1-0.2c0-0.1,0.2-0.1,0.2-0.1
		C8.7,24.8,8.8,24.9,8.7,25z M14.2,11.4c0-0.3,0.3-0.2,0.4-0.3c0.1,0,0.2,0,0.2,0.1c0,0.3-0.3,0.3-0.5,0.4
		C14.2,11.6,14.2,11.5,14.2,11.4z M17,6.6c-0.6,0.1-0.1-0.6-0.7-0.6c0.8-0.5,1.2,0,1.7,0c0.6,0,0.8,0.5,1.1,0.9
		c0.4,0.6,0.9,1,1.6,1.1c-0.3,0.2-0.6,0.3-0.8,0.3c-0.4-0.1-1,0.3-1.1-0.5c-0.1-0.3-0.5-0.9-1.1-0.6c-0.1,0-0.2,0-0.3,0
		C17.3,7,17.7,6.5,17,6.6z M16.5,7.5c-0.6,0.7-0.7,0.7-1.8,0.9C15.3,7.9,15.9,7.7,16.5,7.5z M17.8,8c-0.5,0.5-1,0.4-1.4,0.5
		C16.8,8.3,17.2,8.1,17.8,8z M19.8,7.4c-0.2-0.4-0.4-0.6-0.5-1.3c0.5,0.7,1,0.3,1.6,0.4C20.5,6.9,19.9,6.8,19.8,7.4z M18.9,5.2
		c0.1,0.2,0.3,0.1,0.4,0.1c0.1,0,0.2,0,0.3,0.1c-0.4,0.3-0.8,0.3-1.3,0.2c-0.8-0.2-1.6-0.4-2.5-0.2c-0.4,0.1-0.9-0.2-1.4,0.1
		c0,0-0.2-0.1-0.2-0.1c-0.1-0.1,0-0.2,0.1-0.3c0.1,0,0.1-0.1,0.2-0.1c1-0.3,2-0.6,3-0.8c0.2,0,0.5-0.2,0.6,0.3c0,0.2,0.3,0,0.4,0
		c0.4,0,0.8-0.3,1.3,0c-0.3,0.1-0.5,0.2-0.7,0.3C19,4.9,18.8,5,18.9,5.2z M15.5,9.5c0,0.7,0.1,0.8,0.6,0.6c0.2-0.1,0.4-0.3,0.8-0.2
		c-0.2,0.4-0.5,0.7-0.9,0.9c-0.6-0.4-1.2-0.8-1.9-1.1c-0.1-0.1-0.3-0.1-0.2-0.3c0.1-0.1,0.2-0.1,0.3-0.1C14.7,9.6,14.7,9.6,15.5,9.5
		z M12.5,8c0.5-0.3,0.9-0.8,1.6-0.9C13.6,7.6,13.1,7.9,12.5,8z M12.7,9.8c0.7,0.1,1.5,0.4,2.2,0.9c-0.8,0.1-1.5,0.2-2.2,0.2
		c-0.5,0-0.9-0.3-0.9-0.6C11.7,10,12.2,9.7,12.7,9.8z M13.5,11.3c-0.3,0.4-0.7,0.5-1.1,0.7c-0.1,0-0.2,0.1-0.3,0
		c-0.3-0.5-0.7-0.2-1.2-0.1c-0.2,0-0.3,0.1-0.4-0.1c-0.1-0.2,0-0.3,0.1-0.5c0.1-0.2,0.3-0.3,0.5-0.6C11.8,11.8,12.7,11.2,13.5,11.3z
		 M11.2,14.3c-0.5,0.3-0.7,0.6-1.3,0.6C10.3,14.7,10.5,14.3,11.2,14.3z M11.6,16.6c-1,0.2-1.8,0.4-2.5,0.7c-0.3,0.1-0.6,0.1-0.8-0.2
		c-0.1-0.3,0.2-0.5,0.5-0.5C9.7,16.2,10.5,16,11.6,16.6z M7.9,16.1c0.4-0.5,0.4-0.5,1.6-0.4C8.9,16,8.5,16.2,7.9,16.1z M9.4,10.3
		c-0.6,0.5-0.9,1.4-1.7,1.8c0.1-0.8,0.6-1.4,1-1.9C8.8,10,9,9.9,9.2,10C9.3,10,9.6,10.2,9.4,10.3z M2,29.1c-0.2-0.6-0.3-1.1,0.1-1.6
		C2.2,28,2.3,28.5,2,29.1z M1.1,25.2c0,0.5-0.2,0.9-0.5,1.5C0.3,26,0.8,25.6,1.1,25.2z M2.6,36.5C2.1,35,1.4,33.6,1,32.2
		c-0.4-1.5-0.7-3.1,0-4.7c0-0.1,0.1-0.1,0.1-0.1c0.3,3.6,0.8,7.1,2.1,10.5C3,37.4,2.8,37,2.6,36.5z M3.5,31.8
		c-0.2,0.1-0.2-0.3-0.2-0.4c-0.2-0.5-0.3-1.1-0.4-1.6c-0.3-0.9,0-1.7,0.5-2.6c0.1,0.5,0.1,1,0,1.4c-0.1,0.5,0,0.9,0.1,1.4
		c0.1,0.4,0.2,0.7-0.1,1.1c-0.1,0.1-0.1,0.3,0,0.5C3.5,31.5,3.9,31.6,3.5,31.8z M4.8,36c-0.5-1.2-0.9-2.3-1-3.6
		C4.3,33.6,4.8,34.8,4.8,36z M3.9,35.5c0.5,1,0.9,2,1.1,3.1C4.4,37.7,4.2,36.6,3.9,35.5z M5.4,35.4c-0.1-0.4-0.1-0.8-0.2-1.1
		C5.8,34.5,5.8,34.5,5.4,35.4z M5.6,35.8c0.1,0,0.3,0,0.3,0c0.1,0.3-0.1,0.4-0.3,0.6C5.5,36.2,5.4,36,5.6,35.8z M5.8,42.8
		c-0.3-0.2-0.3-0.5-0.2-0.8C5.8,42.3,5.9,42.5,5.8,42.8z M6.8,37.2c-0.1,0.5-0.2,0.9-0.5,1.5c-0.2-0.6-0.3-0.9-0.4-1.4
		C6.2,37.5,6.5,37.3,6.8,37.2z M32.2,58.5c0.5-0.8,1.1-1.2,1.7-1.7c-0.5-0.2-0.7,0-0.9,0.2c-0.5,0.5-1,1.1-1.6,1.6
		c-0.8,0.8-1.8,1.1-3,1.1c0.4-0.6,1.1-0.6,1.6-0.8c0.5-0.3,1.1-0.4,1.5-1c-1.1,0.3-2.3,0.7-3.2,1.4c-0.9,0.7-1.7,0.7-2.7,0.6
		c-1.5-0.3-3.1-0.3-4.6-0.6c-1.4-0.3-2.6-1-3.6-1.9c-1.6-1.2-3-2.5-4.5-3.9c-0.4-0.4-0.7-0.8-1-1.3c-0.7-1.2-1.5-2.4-2.4-3.7
		c0.5,0.1,0.7,0.5,1.2,0.6c-2.1-2.1-3.7-4.3-4.8-6.9C6.1,42,6.2,42,6.3,42c0.5,0.7,1,1.5,1.4,2.2c0.6,1.1,1.4,2,2.1,3
		c0,0.1,0.1,0.1,0.1,0.2c1.5,1.5,2.8,3.2,4.4,4.7c0.1,0.1,0.1,0.2,0.2,0.2c1.4,0.5,2,1.8,2.8,2.8c0.8,1,1.7,1.8,2.8,2.2
		c1.1,0.4,2.1,0.9,3.4,0.8c0.6-0.1,1.3,0.1,1.9,0.3c1.7,0.3,3.3,0,4.9-0.6c1.5-0.6,2.8-1.6,4-2.6c1.3-1.1,2.6-2.3,3.9-3.4
		c1.2-1.1,2.3-2.3,3.2-3.8c0.2-0.3,0.4-0.7,0.9-0.9c-0.1,0.7-0.5,1.1-0.8,1.6c-0.3,0.6-0.8,1.1-1,1.7c-0.4,0.8-1,1.5-1.5,2.3
		c-0.1,0.2-0.4,0.4-0.5,0.4c-0.7,0-1.1,0.6-1.5,1c-0.9,1-1.8,1.9-2.5,3C33.8,57.7,33.2,58.2,32.2,58.5z M41,51.8
		c-0.5,0.6-1,1.2-1.5,1.8c-0.4,0.5-0.9,0.9-1.5,1.2c-0.5,0.3-1.1,0.7-1.6,1c0,0,0,0,0,0h0c-0.4,0.5-0.9,0.9-1.5,1.1
		c0.3-0.5,0.6-1,1.1-1.2c0,0,0,0,0,0c0,0,0,0,0,0c-0.1-0.6,0.4-0.7,0.8-1.1c0,0.7-0.5,0.8-0.8,1.1c0,0,0,0,0,0c0,0,0,0,0,0
		c0,0.2,0.3,0.1,0.4,0.1c0,0,0,0,0,0c0,0,0,0,0,0c1.9-1.6,3.2-3.7,5.2-5.4C41.6,51.1,41.2,51.5,41,51.8z M41.7,49.7
		c0.2-0.9,0.6-1.4,1.4-2.1C42.8,48.5,42.4,49.1,41.7,49.7z M45.1,46.8c-0.6,1.1-1,2.3-2.2,2.9c0-0.6,0.8-1.8,2.6-4.1
		C45.6,46.1,45.3,46.4,45.1,46.8z M43.4,46.5c0-0.5,0.2-0.7,0.5-0.9C44,46,43.7,46.2,43.4,46.5z M44.3,46.3c0.2-0.7,0.5-1.1,0.9-1.5
		C45.1,45.4,44.8,45.8,44.3,46.3z M52.7,28.5c-0.2,0.9-0.4,1.8-0.8,2.6c-0.3,0.6-0.4,1.3-0.5,2c-0.1,1.2-0.5,2.4-0.9,3.5
		c-0.5,1.4-1,2.9-1.5,4.3c-0.5,1.3-1.2,2.4-2.1,3.4c0.1-1,0.6-2,1-2.9c0.2-0.4,0.4-0.8,0.6-1.3c0.5-1.7,1.3-3.3,1.9-5
		c0.2-0.6,0.5-1.2,0.4-1.8c-0.2-1.6,0.4-3,0.9-4.4c0.3-0.7,0.5-1.5,0.8-2.2c0.2-0.4,0.3-0.9,0.1-1.5c-1.1,3.2-2.4,6.2-3.2,9.4
		c-0.4,1.4-0.8,2.7-1.6,3.9c0,0,0,0,0,0c0,0,0,0,0,0c-0.2,1.1-0.6,2.1-1.4,2.9c-0.4,0.4-0.7,1-1,1.5c-0.1,0.1-0.2,0.3-0.2,0.4
		c-0.5,0.9-0.5,0.9-1.8,1.8c0.5-1.4,1.2-2.5,2.1-3.6c0.5-0.5,0.9-1,1.2-1.7c0.2-0.5,0.7-0.9,1.1-1.3c0,0,0,0,0,0c0,0,0,0,0,0
		c-0.1-0.4,0.1-0.8,0.1-1.1c0.5-2.6,1.4-5,2.5-7.4c0.7-1.6,1.3-3.3,1.7-5c0.2-1,0.2-1.9-0.4-2.8c-0.2-0.4-0.3-0.7-0.3-1.1
		c0.2-1.5-0.3-2.9-1.1-4.2c-0.3-0.5-0.6-1-0.8-1.6c-0.3-1-1.1-1.6-2-2.1c-0.6-0.3-1.1-0.6-1.7-0.8c-0.8-0.2-1.5-0.6-2.2-1
		c-0.9-0.6-2-1-3.2-0.9c-0.5,0.1-1.1,0-1.6-0.3c-0.2-0.2-0.5-0.1-0.8-0.2c-0.5-0.1-1.1-0.1-1.6-0.3c-1.5-0.5-3.3,0.8-3.5,2.4
		c0,0.2,0,0.5,0,0.7c0,0.4,0.1,0.9-0.1,1.1c-0.6,0.4-0.6,1.2-1.3,1.4c-0.5,0.2-0.8,0.6-1.4,0.9c0.4-1.3,1.8-1.7,2.3-2.8
		c-0.8,0.4-1.4,1-2.1,1.5c-0.2-0.3-0.2-0.5,0-0.8c0.3-0.3,0.5-0.5,0.9-0.7c0.2-0.1,0.5-0.2,0.5-0.6c-0.7-0.1-1,0.7-1.6,0.8
		c0-0.5,0.6-0.6,0.6-1c-0.1-0.2-0.2-0.2-0.4-0.2c-0.3-0.1-0.4-0.2-0.1-0.4c0.2-0.1,0.3-0.3,0.1-0.4c-0.2-0.2-0.3,0.1-0.4,0.1
		c-0.2,0.1-0.4,0.2-0.6,0.3c-0.5-0.7-0.6-1.5-1.1-2.1c-1.2-1.9-2.8-3.3-4.6-4.5c-0.5-0.3-0.9-0.7-1.5-1c-0.7-0.3-1.4-0.3-2.1-0.5
		c-1.5-0.3-2.8-0.2-4.3,0.2c-1.2,0.3-2.4,1-3.6,1.3c-0.5,0.2-0.7,0.7-1.2,0.8C10.7,7,10,7.5,9.3,7.9C7.3,9,5.3,10.2,3.8,12
		c-0.3,0.3-0.6,0.7-0.9,1.1c-0.1,0.2-0.3,0.4-0.3,0.6c0.4,1-0.5,1.3-1,1.8c0.3-1.1,0.6-2.1,1-3.2c0.3-0.7,1-1.2,1.5-1.8
		c1.5-1.4,3.2-2.5,5.1-3.4c0.4-0.2,0.9-0.3,1.1-0.8C9.1,6.7,8,7.5,6.8,8.1c-1,0.6-1.9,1.3-2.9,2.1c0.3-0.7,0.7-1.2,1.2-1.6
		c1.6-1.3,3.4-2.4,5.3-3.1c1.2-0.5,2.5-0.9,3.7-1.3c0.5-0.2,0.9-0.6,1.5-0.9c-0.6,0.1-1.2,0.1-1.8,0.2c0.8-0.5,1.7-0.4,2.7-0.6
		c-0.6-0.3-1.1-0.1-1.7-0.2c1-0.4,2-0.4,3-0.4c0.9,0,1.8,0.4,2.7,0.6c1.5,0.4,3,1,4.4,1.7C25.3,4.7,25.7,5,26,5.3
		c0.5,0.5,1,0.9,1.7,1c0.6,0.1,0.9,0.4,1.1,0.9c0.8,1.4,2,2.1,3.5,2.1c1.1,0,2.3,0,3.4-0.3c0.6-0.2,1.4-0.4,2.1-0.1
		c0.1,0,0.1,0,0.2,0c1.6-0.1,3.1,0.3,4.7,0.6c0.8,0.1,1.6,0.4,2.3,0.8c1.8,0.8,3.5,1.8,4.6,3.6c0.1,0.2,0.3,0.4,0.5,0.6
		c1.5,1.5,2.2,3.4,2.4,5.4c0.1,0.7,0.1,1.4,0.3,2.1C53.4,24.2,53.2,26.3,52.7,28.5z"/>
	<path class="st0" d="M32.6,50.9c0.8-0.3,1.5-0.8,2-1.5c1.1-1.6,2.1-3.1,3.2-4.7c0.4-0.5,0.5-1.2,0.9-1.7c1.2-1.5,1.8-3.3,2.1-5.2
		c0.3-1.7,0.4-3.5,1.1-5.1c0.6-1.5,1-3,1.5-4.5c0.5-1.5,0.8-3,0.7-5.1c-0.1-0.5,0-1.6-0.3-2.6c-0.3-1.3-0.6-2.6-1.5-3.7
		c-0.6-0.8-1.2-1.7-2.2-1.8c-1.4-0.2-2.3-1.2-3.5-1.6c-0.2-0.1-0.2-0.7-0.6-0.4c-0.3,0.1-0.3,0.5-0.5,0.7c-0.2,0.3-0.3,0.7-0.3,1
		c-0.1,0.6-0.1,1.2-0.1,1.8c0,0.5,0.2,1,0.5,1.4c0.7,1.1,1.5,2.2,2,3.5c0.5,1.2,1,2.5,2,3.4c1,0.8,1.2,1.9,1,3c-0.2,1.4-0.4,2.8-1,4
		c-1.3,2.5-1.9,5.3-2.8,7.9c-0.2,0.6-0.4,1.2-0.6,1.8c-0.5,1.7-1.3,3.2-2.4,4.6c-0.4,0.6-0.9,1.1-1.4,1.6c-0.5,0.6-0.7,1.4-0.9,2.1
		C31.1,50.8,31.7,51.2,32.6,50.9z M39.7,24.5c-1-0.9-1.5-2.1-2-3.2c-0.5-1.3-1.3-2.4-2-3.6c-0.2-0.4-0.4-0.7-0.3-1.2
		c0.1-0.6,0.1-1.3,0.1-1.9c0.1-0.8,0.4-1,1.1-0.6c0.3,0.2,0.6,0.4,0.9,0.6c0.5,0.4,1.1,0.7,1.7,0.8c1.6,0.3,2.5,1.4,3.1,2.7
		c0.6,1.2,1.1,2.6,1.1,4c0.1,1.6,0.2,3.1-0.2,4.6c-0.5,1.9-1,3.7-1.8,5.5c0.3-1.3,0-2.6,0.3-3.9c0.1-0.3,0.1-0.7,0.1-1
		c0-1,0.2-2,0.7-2.9c0.7-1.2,0.5-2.4-0.1-3.5c-0.3-0.6-0.7-1.2-0.9-1.8c-0.3-0.7-0.8-1.3-1.5-1.7c-0.7-0.3-1.4-0.7-2-1.2
		c-0.3,0.7,0,1.2,0.3,1.6c0.5,0.7,1.1,1.4,1.6,2.2c1.2,1.7,1.7,3.5,1.1,5.6c-0.1,0.3-0.1,0.5-0.2,0.8C40.8,25.6,40.3,25,39.7,24.5z
		 M41.1,21.2c-0.7-1.2-1.4-2.3-2.3-3.4c-0.1-0.2-0.3-0.3-0.3-0.6c1,0.4,2.1,0.8,2.5,1.9c0.3,0.7,0.6,1.3,1,1.9
		c0.8,1.1,0.6,2.6-0.3,3.6c-0.1-0.1-0.1-0.2-0.1-0.4C41.9,23.2,41.7,22.2,41.1,21.2z M40.7,29.5c0,0.1-0.1,0.1-0.1,0.2
		c0-0.1,0-0.2,0-0.3c0-0.1,0.1-0.1,0.1-0.2C40.6,29.3,40.7,29.4,40.7,29.5z M41.4,26.1c0,2.6,0.1,5.3-0.9,7.8
		C40.5,31.2,41.5,28.7,41.4,26.1z M31.8,49.6c0.1-0.7,0.4-1.3,0.8-1.8c0.4-0.5,0.9-1,1.4-1.5c0.1-0.1,0.2-0.2,0.3-0.3
		c0.8-1.4,1.7-2.7,2.1-4.3c0.2-0.7,0.4-1.3,0.7-2c0.7-2.1,1.3-4.2,2.2-6.3c0.4-1,0.9-1.9,1.2-3.1c-0.1,2.6-0.8,5-1.2,7.4
		c-0.2,1-0.8,1.9-1.4,2.6c-0.3,0.3-0.4,0.7-0.3,1.1c0.1,0.4,0.5,0.5,0.8,0.1c0.2-0.2,0.3-0.5,0.4-0.8c0.5-1.4,0.9-2.9,1.3-4.3
		c0.2-0.6,0.4-1.2,0.8-1.7c-0.2,2-0.5,4.1-1.2,6c-0.2,0.5-0.3,1-0.9,1.3c-0.2,0.1-0.2,0.3-0.3,0.5c-0.5,1.3-1.2,2.5-2.1,3.7
		c-0.6,0.9-1.2,1.7-1.7,2.6c-0.4,0.7-1,1.3-1.7,1.6c-0.3,0.1-0.6,0.3-0.9,0.1C31.7,50.2,31.8,49.9,31.8,49.6z M38.3,40.8
		c-0.1,0.1-0.1,0.2-0.2,0.2c-0.1,0-0.1-0.1-0.1-0.2c0-0.1,0.1-0.1,0.2-0.2C38.2,40.7,38.2,40.7,38.3,40.8z"/>
	<path class="st0" d="M18,15.5c-0.9,1-1.7,2-2.4,3.1c-1.2,1.7-1.4,3.7-1.1,5.7c0.2,1.5,0.3,2.9-0.4,4.3c-0.4,0.8-0.5,1.7-0.7,2.6
		c-0.2,1.1,0,2.2-0.2,3.3C13,36,13.5,37,14.5,37.8c0.3,0.2,0.5,0.4,0.8,0.6c0.5,0.3,0.9,0.7,1.2,1.2c1.2,1.6,2,3.4,2.3,5.4
		c0.3,1.5,1,2.8,1.8,4.1c0,0,0.1,0,0.1-0.1c0-0.3-0.1-0.6-0.2-0.9c-0.7-1.5-1.2-3.1-1.6-4.6c-0.6-2.3-1.7-4.3-3.7-5.7
		c-1-0.7-1.7-1.6-1.5-2.8c0.1-0.7,0.1-1.5,0.1-2.2c0-1.1,0.2-2.2,0.4-3.3c0-0.2,0.1-0.4,0.2-0.6c0.3-0.4,0.4-0.9,0.5-1.3
		c0.3-1.2,0-2.4,0-3.6c-0.1-1.8,0-3.6,1.1-5.1c0.8-1.2,1.6-2.4,2.7-3.4c0.6-0.6,1-1.3,1.3-2c0.2-0.7,0.7-1.1,1.3-1.4
		c1.6-0.9,3.1-0.2,4.6,0.4c-0.3,0.3-0.4,0.6-0.1,1c0.2,0.3,0.5,0.7,0.3,1.1c-0.4,0.7-0.4,1.6-0.9,2.2c-0.6,1-0.9,2-1.1,3.1
		c-0.3,2.2-0.6,4.4-1.6,6.4c-0.5,1-0.4,2.1-0.6,3.2c-0.6,2.7-0.6,5.5-0.3,8.2c0.1,0.5,0.2,1,0.2,1.5c0.2,1.5,0.3,3,0.8,4.5
		c0.4,1,0.5,2,0.5,3.1c-0.3-0.1-0.5-0.2-0.5-0.4c-0.5-1-0.9-2.1-1.4-3.1c-0.8-1.9-1.8-3.7-2.5-5.7c-0.2-0.5-0.5-1-1-1.2
		c-0.9-0.4-1.1-1-1-1.9c0.1-0.5,0-0.9,0-1.4c0-0.8,0.1-1.6,0.4-2.4c0.6-1.4,0.7-2.9,0.5-4.5c-0.3-1.9,0.2-3.7,0.9-5.4
		c0.1-0.2,0.3-0.4,0.5-0.5c0.8-0.6,1.3-1.5,1.3-2.5c0-1.4,0.9-2.3,1.8-3.2c0.2-0.2,0.5-0.2,0.8-0.2c0.5,0,1-0.1,1.5,0.1
		c0.1,0,0.2,0,0.2-0.1c0.1-0.1,0-0.3-0.1-0.3c-0.9-0.4-1.8-0.4-2.5,0.1c-1.1,0.9-2.1,1.9-2.1,3.5c0,0.9-0.4,1.6-1.1,2.2
		c-0.4,0.3-0.5,0.6-0.7,1c-0.8,1.8-1,3.6-0.8,5.5c0.2,1.2,0.1,2.4-0.4,3.6c-0.6,1.7-0.6,3.4-0.7,5.2c0,0.6,0.2,1.1,0.8,1.3
		c0.5,0.2,1,0.5,1.2,1c0.5,1.5,1.2,3,1.9,4.4c0.7,1.4,1.3,3,1.9,4.4c0.1,0.3,0.3,0.6,0.5,0.9c0.1,0.2,0.3,0.2,0.5,0.2
		c0.2-0.1,0.3-0.2,0.4-0.4c0-0.1,0-0.3,0-0.4c-0.2-1.3-0.2-2.6-0.7-3.8c-0.2-0.5-0.3-1-0.3-1.6c0-0.8-0.2-1.7-0.3-2.5
		c-0.4-2.3-0.5-4.7-0.3-7c0.1-1.5,0.4-2.9,0.7-4.4c0.1-0.5,0.2-1.1,0.5-1.5c0.7-1.2,0.9-2.6,1.1-3.9c0.3-1.8,0.6-3.6,1.6-5.2
		c0.6-0.9,1.1-1.9,0.8-3.1c0-0.1,0.1-0.3,0.1-0.5c0.2-0.5,0-0.8-0.5-1c-0.7-0.3-1.5-0.6-2.3-0.8c-1.4-0.4-2.4,0.2-3.5,0.8
		c-0.4,0.2-0.6,0.6-0.8,1C19.2,14.1,18.6,14.9,18,15.5z"/>
	<path class="st0" d="M21,49.9c0.5,0.6,1.2,0.9,1.9,1.3c1,0.5,1.6,0.2,1.8-0.9c0.1-0.7,0.2-1.5,0.4-2.2c0.4-1.3,0.2-2.6-0.3-3.8
		c-0.4-0.8-0.9-1.6-1.2-2.4c-0.9-2.3-1.1-4.8-0.9-7.3c0.1-0.5,0.3-0.9,0.4-1.3c0.2-0.9,0.2-1.7,0.4-2.6c0.5-1.6,0.7-3.3,1-4.9
		c0.3-1.5,0.3-3.1,1.1-4.5c0.1-0.1,0.1-0.3,0.1-0.4c0-0.8,0.3-1.6,0.7-2.3c0.9-1.8,1-3.7,0.9-5.7c0-0.4-0.1-0.7-0.6-1
		c0.3,2.1,0.4,4.1-0.4,6c-0.7,1.5-1,3.2-1.6,4.8c-0.1,0.3-0.2,0.6-0.2,0.9c-0.4,3.2-1.2,6.3-1.8,9.4c-0.3,1.7-0.6,3.4-0.5,5.2
		c0.2,1.7,0.4,3.4,1.4,4.9c0.5,0.8,0.8,1.8,1.1,2.7c0.2,0.6,0.2,1.2,0.1,1.8c-0.2,0.9-0.4,1.8-0.5,2.7c-0.2,0.9-0.3,1-1.2,0.8
		c-0.3-0.1-0.5-0.2-0.7-0.3c-0.7-0.3-1-1-1.6-1.4c0,0-0.1,0-0.1,0.1C20.6,49.5,20.8,49.7,21,49.9z"/>
</g>
</svg>
