<?xml version="1.0" encoding="utf-8"?>
<!-- Generator: Adobe Illustrator 18.1.1, SVG Export Plug-In . SVG Version: 6.00 Build 0)  -->
<!DOCTYPE svg PUBLIC "-//W3C//DTD SVG 1.1//EN" "http://www.w3.org/Graphics/SVG/1.1/DTD/svg11.dtd">
<svg version="1.1" id="Layer_1" xmlns="http://www.w3.org/2000/svg" xmlns:xlink="http://www.w3.org/1999/xlink" x="0px" y="0px"
	 viewBox="0 0 349.9 270.3" style="enable-background:new 0 0 349.9 270.3;" xml:space="preserve">
<style type="text/css">
	.st0{fill-rule:evenodd;clip-rule:evenodd;fill:#4E4E4E;}
</style>
<g>
	<g>
		<path class="st0" d="M344.3,88.6C344.3,88.6,344.3,88.6,344.3,88.6C344.3,88.6,344.3,88.6,344.3,88.6L344.3,88.6z"/>
		<path class="st0" d="M282.6,28.2c-3-0.4-6.1-0.9-8.9,0.6c-2.2,1.2-4.4,1.5-6.7,1.4c-0.6,0-1.2,0.1-1.8,0.1
			c-2.7-0.1-4.5,1.4-6.2,3.2c-0.4,0.4-0.6,0.9-1.1,1.1c-1.6,0.8-1.6,2.1-1.4,3.6c0.2,1.2,1,2.2,1.2,3.4c0,0,0,0,0,0c0,0,0,0,0,0.1
			c0.9,0.6,1,1.6,1.7,2.3c-2.4,1.4-3.2,3.8-4.5,5.9c-1.3,2-1.1,4.6-2.8,6.5c-0.7-0.5-0.4-0.9-0.2-1.3c1-2.8,2.1-5.7,3.8-8.2
			c0.3-0.4,0.7-0.8,0.4-1.2c-0.5-0.8,0.1-1.1,0.5-1.5c0.7-0.7,1-1.6,1.1-2.6c0,0,0,0,0,0c0,0,0,0,0,0c-1.3,0-1.1,1.4-1.8,2
			c-3,2.5-5.7,5.4-9.4,7c-3.5,1.6-7,3.4-10.1,5.4c-4,2.6-8.4,4.7-12.3,7.6c-2.2,1.7-4.4,3.4-6.1,5.7c-1.1,1.5-2.2,3-3.5,4.4
			c-4.7,5-7.7,10.9-9.7,17.4c-1.3,4.5-2.1,9-0.6,13.6c0.2,0.6,0.3,1.3,0.3,2c0.1,5.5,2.8,9.7,6.3,13.7c2.1,2.5,4.9,4.2,7.1,6.6
			c3.9,4.2,8.7,6.7,14.2,7.9c3.8,0.8,7.6,2,11.4,3c3.5,0.9,7,1.9,10.7,1.8c1.2,0,2.4,0.2,3.6,0.2c3.2,0,6.3,0.4,9.5-0.1
			c2.6-0.4,5.3-0.5,7.9-0.2c1.7,0.2,3.3,0.3,4.9,0.1c0.5-0.1,1.1,0,1.6,0.1c4.4,0.3,8.9,0.5,13.3,0.1c4.8-0.4,9.6-1.2,14.2-2.6
			c2.5-0.8,5.1-1.2,7.4-2.5c2.7-1.6,5.6-2.6,8.6-3.4c0.7-0.2,1.3-0.4,1.9-0.8c2.7-2.1,5.6-3.8,8.2-6c2.5-2.1,4.4-4.8,6.7-7
			c0.2-0.2,0.5-0.6,0.5-0.8c-0.4-1.3,0.7-2.1,1.2-3c1.4-2.5,2.8-5.1,3.4-7.9c0.4-1.7,1.2-2.9,2.3-4c0.2-0.2,0.8-0.3,0.5-0.8
			c-0.7-0.5-0.9,0.7-1.7,0.3c0.2-0.5,0.4-1.1,0.9-1.5c0.3-0.2,0.5-0.6,0.3-0.7c-1.5-0.6-0.3-1.6-0.4-2.5c-0.1-0.6,0.3-1.3,0.2-2
			c-0.2-4-1-7.9-2.6-11.6c-0.3-0.7-0.7-1.4-0.7-2.1c0-1.1,0-1.8-1.2-2.2c-0.4-0.2-0.6-0.9-0.6-1.6c0-0.6,0.4-1.2,0-1.7
			c-0.5,0.2-0.9,1-1.5,0c-0.8-1.2-1.6-2.3-2.6-3.4c-2.2-2.3-4.6-4.4-6.8-6.6c-0.6-0.6-0.7-1.4-1.6-1.8c-2.8-1.2-5.1-3.3-7.5-5.2
			c-0.8-0.6-1.3-1.7-2.2-2.2c-3-1.5-5.6-3.4-8-5.7c-1.1-1.1-2.4-2-3.5-3.2c-1.6-1.7-3.4-3.3-5-5.1c-1.1-1.2-1-2.2,0.2-3.4
			c1.6-1.6,1.6-1.6,0.1-3.4c-0.4-0.5-0.9-1-1.4-1.4c-2-1.5-4-3-6-4.5c-1.5-1.2-3.2-1.1-4.6-0.1c-1.2,0.9-2.4,0.9-3.6,0.4
			C287.5,29.1,285.1,28.5,282.6,28.2z M266.1,34.2c-1.1,1.9-1.4,2.1-3.4,2.3C263.6,35.5,264.7,34.8,266.1,34.2z M277.7,37.1
			c-0.8-0.3-1.3-0.4-1.8-0.6c-0.8-0.3-1.3-0.8-0.8-1.7c0.4-0.8,0.3-1.6,0.2-2.4c1.6,0.2,1.8,0.2,1.4,1.6
			C276.5,35.3,277.5,35.8,277.7,37.1z M280.3,36.4c0.6,0.1,1,0.6,1,1.3c0,0.6-0.4,0.8-0.9,0.8c-0.9,0-0.7-0.7-0.9-1.3
			C279.5,36.6,279.9,36.3,280.3,36.4z M273.6,35c-0.2,1.8,0.9,2.2,2.1,2.7c1.2,0.5,2.5,0.6,3.6,1.6c1,0.9,2.8,0.1,3.2-1.3
			c0.2-0.9,0.6-1.5,1.3-2c1.9-1.2,1.9-1.3,3.6,0.1c0.3,0.3,0.6,0.6,0.9,1c0.3,0.3,1-0.2,1.1,0.4c0,0.3-0.2,0.7-0.3,0.8
			c-0.2,0.8,0.5,1.5-0.2,1.9c-0.9,0.5-1.7,1.2-2.9,1.3c-1.7,0.1-3.3,0-4.8-0.8c-1.5-0.8-1.8-0.6-2.6,0.9c-1,1.7-1.9,2.4-3.1,1.7
			c-1.1-0.6-2-1.5-2.9-2.4c-1-1-0.9-2.3-0.4-3.6c0.6-1.7-0.3-2.5-2.1-2.1c-0.5,0.1-1,0.2-1.5,0.4c-1.6,0.6-1.8,0.9-1.6,2.7
			c0.1,0.6,0,1-0.5,1c-1-0.1-2-0.3-3-0.5c-0.3-0.1-0.4-0.5-0.1-0.7c0.2-0.2,0.5-0.3,0.7-0.5c1.2-0.8,2.3-1.6,3.3-2.7
			c1-1.1,2.4-1.6,3.8-1.8C272.6,32.9,273.7,33.7,273.6,35z M293.4,63.7c-1.1,0.3-2.1,0.7-3.3,0.4c2-0.8,3.9-1.8,5.9-2.2
			c2.4-0.5,3.9-1.7,5-3.8c0.4-0.8,0.9-1.6,1.3-2.4c0.5,0.7,0.4,1.4,0.1,2c-0.5,0.9-1,1.7-0.8,2.7c0.1,0.4-0.3,0.7-0.6,0.9
			c-1.2,1-2.4,2.1-4,2.4c-0.7,0.1-1.5,1.2-2.2-0.2C294.7,63.2,293.9,63.5,293.4,63.7z M263.8,58.5c-0.1-0.2-0.2-0.4-0.2-0.6
			c0-0.1,0-0.3,0.1-0.7c1.2,0.6,2.5,1,3.6,1.7c1.3,0.7,2.7,1.2,4,2c1.2,0.8,2.8,0.2,4.1,1c1.3,0.7,2.8,0.7,4.2,0.8
			c1.5,0.1,3,0.2,4.5,0.3c1.1,0,2.2,0.3,3.4,0.2c-1.2,0.1-2.3,0.2-3.5,0.6c-0.8,0.3-1.6,0.2-2.5,0.1c-2.8-0.2-5.6-0.3-8.3-0.6
			c-2.3-0.3-4.5-1-6.1-3c-0.2-0.3-0.4-0.6-0.8-0.5C264.6,60.1,264.5,60,263.8,58.5z M279.3,42.7c0.7-1.4,1.1-1.5,2.7-0.9
			c1.1,0.5,2.2,1,3.6,0.8c-0.2,2.1-0.8,3.9-0.9,5.8c-0.2,2.8-0.2,5.6-0.2,8.4c0,1.5-0.3,1.7-1.7,1.6c-0.7-0.1-1-0.4-0.9-1
			c0.1-1,0.3-2.1,0.4-3.3c0.6,0.8,0,1.8,1,2.4c0.4-1.4,0.1-2.8,0.2-4.1c0.1-1.4,0-2.7,0.2-4.1c0.1-1.4,0.4-2.8,0.5-4.3
			c-0.3,1.1-1.5,0.6-1.9,1.3c-0.4,1-0.7,2-1,3c-0.2,1-0.3,2-0.3,2.9c0,2.3,0.2,4.7-0.4,7c-0.2,0.1-0.3,0.2-0.5,0.1
			c-3.1-0.8-2.4-0.3-2.5-3.2c-0.1-2.1,0.1-4.2,0.2-6.3c0-0.6,0.2-1.2-0.6-1.7c-0.9,2.9-0.1,5.9-0.7,8.7c-0.5-2.1-0.9-4.2-0.4-6.4
			c0.1-0.5,0.2-1,0.2-1.6c0-0.2-0.1-0.6-0.2-0.6c-2,0-1-1.6-1.6-2.4c0.5-0.4,1-0.3,1.4-0.2C277.5,44.7,278.6,44.1,279.3,42.7z
			 M292.2,56.8c-0.8,0.9-1.5,1.5-3,1.3C290.3,57.3,291,56.6,292.2,56.8z M300.5,52.5c0.3,4.2-3.3,7.6-8.4,7.8
			C295.6,58.6,298.6,56.3,300.5,52.5z M274.1,46.3c0.1,3,0.5,6,0.7,9c0,0.5,0.3,1-0.1,1.5c-1.9,0-1.9-0.1-2.2-2
			c-0.4-3.6-1-7.3-1.4-10.9c-0.2,0-0.4,0-0.5,0.1c0.3,2.8,0.6,5.5,0.9,8.3c0.1,0.9,0.2,1.8,0.2,2.7c0,0.4,0.3,1-0.4,1.1
			c-0.6,0.1-1-0.2-1.2-0.8c0-0.1,0-0.3-0.1-0.4c-0.9-4-1.9-7.9-1.9-12c0-1.3-0.3-2.7-0.2-4c0.2-1.9,0.3-2.2,2-2.5
			c0.4-0.1,0.9-0.2,1.3,0.2c0.2,0.7-0.3,1.3-0.4,2c-0.2,1.4,0,2.6,1.2,3.4C273.5,43,274.1,44.4,274.1,46.3z M266.9,41.3
			c0.1,4.7,1.1,9.3,2.2,14.2c-2.5-0.9-2.6-1-2.2-2.9c0.3-1.5-0.1-3-0.3-4.5c-0.3-2.2-0.7-4.4-1-6.7c-0.1-0.4-0.2-0.9,0.4-1.1
			C266.7,40.2,266.9,40.7,266.9,41.3z M265.1,55.2c1,1,3,0.7,3.5,2.7c-1.5-0.7-2.8-1.2-4.1-1.8c-0.4-0.2-0.6-0.5-0.4-0.9
			C264.4,54.8,264.8,54.9,265.1,55.2z M305.7,56.5c0.1,0.7,0.3,1.4,0.4,2.3C304.6,58.2,305.6,57.2,305.7,56.5z M306.3,54.2
			c2.1,1.7,3,4.7,2.6,8.1C306.4,60.1,306.5,57.3,306.3,54.2z M305.2,55.3c-1-0.8-0.6-1.7-0.7-2.7C305.4,53.4,305.4,54.2,305.2,55.3z
			 M303.1,52.7c-0.3-0.1-0.5-0.3-0.5-0.6c0-0.2,0.2-0.4,0.4-0.4c0.4,0.1,0.4,0.4,0.4,0.6C303.5,52.6,303.4,52.8,303.1,52.7z
			 M292.4,53.4c-0.4,1.4-0.9,2.3-2.7,2.8c0.1-4.9,1.4-9.6,1.6-14.4c-0.8,1.4-1.1,2.9-1.3,4.5c-0.5,3.2-1,6.4-1.4,9.6
			c-0.1,0.8-0.4,1.3-1.1,1.5c-0.9,0.3-1.6-0.3-1.6-1.2c0.3-4.2,0.6-8.4,0.9-12.6c0.1-1,0.8-1.3,1.4-1.5c1.2-0.5,2.1-1.2,2.2-2.6
			c0.1-1,0.7-1.3,1.5-1.3c1-0.1,1.1,0.6,1.2,1.5c0.2,1.6,1.6,1.7,3,2C294.2,45.3,293.4,49.4,292.4,53.4z M294.6,39.4
			c-0.2-0.6,0-1.2-0.6-1.6c-0.4-0.3-0.8-0.7-1.2-1c1.5-1.7,1.5-1.7,3.4-1c0.7,0.3,1.6,0.4,2.3,1.1c-0.4,0.8-0.9,1-1.5,1.2
			c-0.4,0.2-0.9,0.4-0.7,1c0.2,0.5,0.4,1-0.4,1.2C295.4,40.3,294.8,40,294.6,39.4z M258.1,38.6c-0.7-1.6-0.3-2,2.1-2.5
			c0.2,0.4,0,0.7,0,1.1c-0.1,1.1,0.3,1.9,1.4,2.2c1.2,0.4,2,1,1.2,2.4c-0.2,0.4,0.2,0.9,0.3,1.3c0.8,3.4,1.6,6.9,2.4,10.5
			c-1.1-0.2-1.5-0.9-1.6-1.6c-0.2-0.8-0.7-1.6-0.9-2.3C261.9,45.7,259.7,42.3,258.1,38.6z M260.4,47c-0.7,1.3-0.8,3.1-2.8,3.7
			c0.3-2.1,1.3-3.6,2-5.3C260.6,45.8,260.7,46.5,260.4,47z M257.5,47.4c-0.4,3.2-1.2,5-2.8,6.3C255,51.2,256.5,49.4,257.5,47.4z
			 M258.4,52.5c1.4-0.8,1.9-2.2,2.5-3.6c0.4,0.5,0,1.1,0.6,1.4c0.3,0.1,0.2,0.6-0.1,0.8c-1.8,1.4-2.4,3.3-2,5.6
			c-0.2,0-0.4,0-0.6,0.1c-0.3-0.8-0.7-1.6-1-2.4C257.6,53.6,257.8,52.8,258.4,52.5z M252.8,50.3C252.8,50.3,252.8,50.3,252.8,50.3
			c0,0.1,0,0.1,0,0.1c0.1,0.6-0.1,1.1-0.4,1.6c-0.8,1.7-1.4,3.5-1.8,5.3c-0.2,0.8-0.4,1.4-1.3,1.6c-0.5-0.5-0.1-1,0.1-1.4
			c1-2.4,1.7-5,3.4-7.1C252.7,50.4,252.7,50.3,252.8,50.3C252.7,50.3,252.7,50.3,252.8,50.3c-0.1-0.6,0.2-0.9,0.8-1.5
			C253.5,49.6,253.4,50.1,252.8,50.3z M255.1,45.8c0,0.9-0.2,1.6-1.3,1.6C254.2,46.8,254.6,46.3,255.1,45.8z M245.4,52.6
			c0,0,0-0.1,0.1-0.1c0,0,0,0,0.1,0.1c0.8-0.8,1.9-1.2,2.9-1.7c1.4-0.7,2.8-1.5,4.2-2.4c-0.6,1.3-1.2,2.6-1.9,3.8
			c-1.4,2.5-2.5,5.2-3.1,8c-0.3,1.5-1.1,2.4-2.8,2.8c0.3-2,1.4-3.6,2.1-5.3c0.7-1.8,1.6-3.4,2.9-5.4c-1.3,0.5-1.7,1.2-2,1.8
			c-1.5,2.7-2.9,5.5-3.8,8.4c-0.5,1.7-1.5,2.7-3.3,3.1c0.1-1.8,0.7-3.3,1.3-4.8c1-2.3,1.5-4.9,3.5-6.8c0.5-0.5,0.6-1,0-1.5
			c0,0,0,0,0,0C245.4,52.6,245.4,52.6,245.4,52.6c-1,1.6-2.2,3-3,4.8c-0.9,2.2-2,4.4-2.3,6.8c-0.3,2-1.3,2.8-3.2,3.2
			c0-1.2,0.5-2.3,0.8-3.3c1.4-3.7,3.2-7.1,5.5-10.3C243.7,53,244.6,52.9,245.4,52.6z M207.6,95.9c0.4,2.1-0.8,3.9-1,5.8
			C206.4,99.7,207,97.8,207.6,95.9z M209.5,96.2c0.2,1.3,0.3,2.5,0.4,3.7c-0.2,0-0.4,0-0.6,0.1C209,98.8,208.4,97.6,209.5,96.2z
			 M207.1,110.8c-0.2-1.2,0-2.4,0.1-3.6c0.2-2.2,0.5-4.4,0.7-6.6c1.2,1.2,0.9,2.5,0.7,3.7c-0.7,3.5-0.6,7,0,10.7
			C207,113.9,207.4,112.2,207.1,110.8z M210.3,102.3c0.4,0.5,0.7,1.1,0.3,1.3c-0.5,0.3-0.4-0.4-0.4-0.7
			C210.1,102.7,210.2,102.6,210.3,102.3z M223.9,130.6c-0.1-0.1-0.3-0.2-0.3-0.3c-0.1-2-2.2-2.8-2.8-4.9c1.8,1.2,3.1,2.4,4.4,3.7
			c1.2,1.3,2.6,2.4,4.5,3.8C227.2,132.5,225.6,131.4,223.9,130.6z M262.5,138.9c-2.1-0.2-4.2-0.3-6.3-0.2c-3.8,0.1-7.4-0.7-11.1-1.7
			c2.8,0.5,5.7,0.4,8.5,0.6c2.8,0.2,5.6,0.8,8.4,0.2c0-0.2,0-0.3-0.1-0.5c-1.5,0-3,0-4.5,0c6.7-0.1,13.1-2,19.5-3.8
			c-0.1,1.1-0.8,1.2-1.3,1.4c-2.1,1.2-4.3,2.3-6.5,3.1C267,138.9,264.8,139.2,262.5,138.9z M321.5,131.3c1-1.7,7.3-7.5,8.9-8
			C327.6,126.1,325.5,129.7,321.5,131.3z M327.4,128c2.3-2.4,4.6-4.9,6.9-7.3C332.7,123.7,331,126.8,327.4,128z M331.7,120.9
			c0.8-1.6,2.2-2.5,3.7-3.3C334.4,119,333.1,120,331.7,120.9z M336,121.1c1.3-2.1,2.6-4.2,4.4-5.9
			C339.2,117.4,338.2,119.7,336,121.1z M342.7,80.7c-0.7,3.9-1.1,7.9-2.4,11.7c-0.1,0.3-0.2,0.6,0.2,1c1.9-4.1,2.3-8.5,3.2-12.9
			c1,0.8,1.2,1.6,1,2.6c-1,4.8-2.6,9.4-4.8,13.8c-0.1,0.3-0.3,0.5-0.4,0.8c0.7,0.2,0.8-0.3,1-0.7c1.3-2.1,2.1-4.3,3-6.6
			c0.3-0.7,0.3-1.4,0.9-1.9c0-1.5,0.6-2.9,1-4.4c1.5,1.8,1.5,2.8,0.9,4.9c-1.1,3.4-2.2,6.7-3.8,9.9c-0.5,1.1-1.3,2-1.8,3.7
			c1.7-1.3,1.9-3.2,3.1-4.3c0.1-0.6,0.2-1.3,0.9-1.9c0.2,0.9-0.3,1.5-0.7,2c-0.2,1.9-1.4,3.5-2.3,5.1c-0.3,0.6-0.9,1.1-1.1,2.4
			c1.8-2.1,3.2-4,4-6.2c0.6-1.6,1.2-3.2,1.8-4.9c0.2-0.6,0.5-1.5,0.2-1.9c-0.7-1.2,0.1-2,0.1-3.2c1.1,1.7,1.5,3.8,1.1,6
			c-0.1,0.8-0.3,1.6-0.5,2.4c-0.1,0.7-0.2,1.5-1.2,1.7c-0.4,0.1-0.8,0.7-1,1.2c-1.6,3.2-4.2,5.5-6.7,7.9c-1.7,1.7-3.3,3.4-4.8,5.3
			c4.5-3.5,8.3-7.8,12.9-11.7c-0.2,1.5-1,2.3-1.9,3c-4.2,3.7-8,7.8-12.4,11.2c-0.1,0.1-0.1,0.3-0.3,0.7c1.1-0.4,1.8-1,2.6-1.6
			c2.4-1.9,4.6-3.9,6.8-6c0.8-0.8,1.4-1.7,2.6-1.9c0,0,0,0,0-0.1c0,0,0,0,0,0c-0.1-0.7,0.4-1,1-1.3c0,0.8-0.4,1.1-1,1.3
			c0,0,0,0,0,0.1c0,0-0.1,0-0.1,0c-0.9,1.9-2.6,3.2-4.1,4.6c-2.7,2.6-5.7,4.9-8.9,6.9c-0.6,0.4-1.2,0.6-1.2,1.5
			c0,0.2-0.3,0.5-0.5,0.7c-3.5,3.6-6.9,7.4-10.8,10.6c-1.1,0.9-2.5,1.1-3.7,1.7c-2,1-4,1.8-6.1,2.4c-0.6,0.2-0.6-0.1-0.6-0.6
			c0.9-0.1,1.6-0.5,2.3-1c6.2-4.1,12.1-8.6,17.5-13.7c0.2-0.2,0.7-0.4,0.3-0.9c-1,0.2-1.6,0.8-2.3,1.4c-3,2.8-6.1,5.3-9.4,7.8
			c-2.1,1.6-4.1,3.5-6.7,4.4c1.8-2,4-3.4,6.2-4.9c2.3-1.6,4.2-3.7,6.5-5.2c0.2-0.1,0.3-0.5,0.7-1.1c-1.6,0.5-2.5,1.5-3.4,2.2
			c-1.2,0.9-2.4,1.9-3.5,2.8c-0.3,0.2-0.6,0.4-0.9,0.2c0,0,0,0,0,0c0,0,0,0-0.1,0c0,0.8-0.7,0.9-1.4,1.6c0.2-1.2,0.9-1.3,1.4-1.6
			c0,0,0-0.1,0-0.1c0,0,0,0,0.1,0c0.2-0.7,1.2-0.8,1.3-1.9c-0.9,0.2-1.5,0.7-2.1,1.2c-4.8,3.8-9.6,7.6-14.9,10.6
			c-0.6,0.4-0.6,0.4-2.4,0.5c6.1-3.2,11.1-7.2,16.3-11.1c-0.8-0.5-1.1,0-1.5,0.2c-4.3,2.9-8.4,6.1-12.9,8.8
			c-0.9,0.5-1.8,1.1-2.8,1.6c-1.6,0.8-3.2,1.1-5,1.1c-2.5,0-4.9,0.1-7.9-0.2c5.4-3,10.4-5.9,15.1-9.2c-3.6,1.2-6.5,3.7-10,5
			c2.1-1.7,4.4-3.1,6.5-5.1c-1.1-0.4-1.6,0.4-2.3,0.8c-0.8,0.6-1.4,1.4-2.6,0.6c-0.6-0.4-1.2,0.3-1.8,0.7c-4.2,2.7-8.7,4.9-13.4,6.5
			c-1.3,0.5-2.6,0.8-4.1,0.5c3.5-1.7,6.9-3.6,10.3-5.6c-0.7-0.8-1.3-0.8-2-0.6c-1.8,0.6-3.5,0.9-5.5,0.7c-2-0.2-4.2,0.2-6.3,0.5
			c-2.7,0.3-5.4,0.4-8.1,0.4c-1.6,0-3.1,0.6-4.7,0.4c-1.1-0.1-2.2-0.5-3.6-0.3c0.9,1.2,2,1.1,3.1,1.2c2.3,0.1,4.6-0.2,7,0.8
			c-4.1,0-8-0.1-11.9-0.6c-2.1-0.3-3.9-1.2-5.8-1.6c-2.6-0.5-4.2-2.2-5.9-3.8c-0.2-0.2-0.4-0.3-0.5-0.4c0,0-0.1,0-0.2,0.1
			c-0.1,0.9,0.9,1.3,1.1,2.1c-1.1-0.4-4.1-2.5-5.2-3.5c-0.3-0.3-0.5-0.6-0.8-0.8c-0.3-0.3-0.7-0.3-1,0c-0.2,0.3-0.1,0.6,0.1,0.8
			c0.9,1,2,1.8,3.2,2.5c2.5,1.6,4.9,3.2,7.4,4.8c-0.8,0.4-1.3,0-1.8-0.2c-3.9-1.4-7.5-3.2-10.2-6.5c-0.2-0.2-0.7-1.9-1.5-0.2
			c-0.1,0.3-0.7-0.4-0.9-0.7c-0.7-0.7-0.7-1.9-1.7-2.6c-0.4,1,0.5,1.6,0.4,2.6c-1.3-0.9-1.7-2.3-2.4-3.4c-0.7-1.2-1.1-2.6-1.8-4.1
			c-0.7,1.9,0.4,3.1,0.7,4.6c-1.6-0.7-3.6-3-4-4.7c-0.4-1.6-1.3-3.3-0.1-5c0.2-0.2,0-0.6-0.3-0.7c-0.4-0.1-0.8-0.1-0.9,0.3
			c-0.3,0.9-0.4,1.9-0.2,2.9c0.7,4.2,2.3,8.1,5.1,11.4c-2.3-1.5-4-3.6-5.9-5.6c0,0,0,0,0,0c0,0,0,0,0-0.1c-2.7-1.5-4.6-3.7-6.3-6.2
			c-0.3-0.4-0.6-0.8,0.2-1.2c0.4-0.2,0-0.6-0.1-1c-0.8-3-0.7-5.9-0.2-8.9c0-0.1,0.2-0.2,0.6-0.5c0.2,4.5-0.2,8.9,1.6,13
			c-0.1-3.1-0.5-6.1-0.4-9.5c1.7,1.4,0.8,3.3,1.4,4.7c0.7,1.6,1.1,3.3,1.6,4.9c0.5,1.5,1.1,3,1.7,4.5c0,0,0,0,0.1,0c0,0,0,0,0,0
			c0.9-0.4,0.4-1.1,0.2-1.7c-0.8-2.1-1.3-4.3-2-6.5c-1-3.2-1.4-6.3-0.4-9.5c0.1-0.2-0.1-0.4-0.1-0.7c-1.2,0.7-1.1,2.1-1.5,3.3
			c-1.3-1.4-0.5-2.7-0.4-4.1c0.1-1.3,0.6-2.6,0.8-4c-1,0-0.7,1-1.3,1.2c-0.6-0.3-0.3-1.9,0.6-3.6c0.8,0.5,0.6,1.5,1.1,2.1
			c0.7-0.2,0.3-0.7,0.3-1.1c-1.2-5-1-10-0.8-15c0.1-1,0.9-1.9,1-3.4c-1.7,1.9-1.9,4-1.9,5.9c0,2.8-0.3,5.6,0.4,8.4
			c0.3,1,0.2,2-1.1,2.5c-0.8-1.4-0.8-2.9-0.1-4.4c0.2-0.5,0.6-1-0.2-1.5c-0.4-0.3-0.3-1.2,0-1.7c0.5-1.3,0.1-2.6,0.6-3.9
			c-3,4.6-4.8,9.7-5.8,15.1c-0.6-2.7-0.1-5.2,0.6-7.6c1.1-3.8,2.3-7.5,4.2-10.9c1.4-2.5,3-4.9,4.9-7c1.4-1.6,2.8-3.2,4-4.9
			c1.6-2.4,3.7-4.1,6-5.8c4.2-3.1,9.1-5.1,13.2-8.2c1-0.8,2.4-0.9,3.4-1.8c-0.8,1.5-1.6,2.9-2.3,4.4c-1.3,2.5-2.5,5-3.1,7.7
			c-0.3,1.2-0.8,1.9-2.3,2.1c0.9-4.3,2.4-8.1,5.2-11.7c-2.3,1-3.4,2.1-4.4,3.9c-1.4,2.5-2.4,5.2-3.3,7.9c-0.6,1.8-1.6,2.8-3.6,3
			c0.2-3.2,2.5-5.4,3.6-8.2c-1.6,1.2-2.3,2.9-3.2,4.5c-0.9,1.6-1,3.6-2.4,5.3c-0.8-2.1,1.2-3.4,0.8-5.5c-0.9,1.9-1.7,3.6-2.1,5.3
			c-0.2,0.8-0.4,1.4-1.5,1.4c0-1.2,0.4-2.2,0.7-3.3c0.3-1.1,1.3-1.9,1.7-3.4c-1.4,0.8-1.9,1.8-2.3,2.8c-0.4,1-0.7,2-0.9,3
			c-0.2,1.6-1,2.5-2.6,2.9c-0.6-1.5,0.6-2.7,0.9-4.4c-1.5,1.1-1.7,2.5-1.8,3.7c-0.1,1.7-1.1,2.6-2.3,3.4c-0.7,0.5-0.5-0.3-0.7-0.6
			c-1.5,1.8-1.5,4.1-1.9,6.1c-0.6,2.9-0.6,5.9,0.5,8.7c0.1,0.3,0.1,0.6,0.6,0.7c-0.1-1.9-0.7-3.7-0.5-5.5c0.5-0.2,0.8,0,1.1,0.2
			c0.5,0.3,1.2,0.5,1.7,0.3c0.3-0.1,0.6-0.2,0.7,0.2c0.1,0.2,0.4,0.7,0.4,0.3c-0.1-1.7,1.5-1.7,2.3-2.5c0.6-0.6,1.5-0.8,1.9-1.5
			c-0.4-0.6-0.8,0-1.1,0.1c-0.4,0.1-0.7,0.3-1,0.5c-0.6,0.3-1.2,0-1.7-0.4c-0.3-0.3-0.3-0.7-0.1-1.1c0.3-0.7,1-1,1.5-0.7
			c1.1,0.6,1.1,0,1.1-0.8c0-0.4,0-0.8,0-1.1c-0.1-1.3,0.4-2,1.8-2c0.4,0.6,0,1.3,0.4,2.1c0.7-0.8,0.5-1.7,0.6-2.5
			c0.1-0.5,0.3-0.8,0.8-1c0.7-0.2,0.3,0.8,0.8,0.9c0.1-0.2,0.2-0.4,0.2-0.6c0.1-2.7,1.9-3.3,4.1-3.7c0.2,0,0.5,0,0.7-0.1
			c0.3,0,0.6-0.1,0.7-0.4c0.1-0.5-0.5-0.4-0.8-0.8c0.9-0.6,2-0.6,2.9-1c0.3-0.2,0.7-0.2,1-0.4c0.7-0.5-0.3-0.7-0.2-0.7
			c0.4-0.2,0.9-0.5,1.4-0.6c1.9-0.3,3.6-1.2,5.4-1.8c0.2-0.1,0.5-0.1,0.6-0.2c1.2-2.1,3.6-2.2,5.4-3.2c0.7-0.4,1.8-0.6,0.7-1.7
			c-0.3-0.4,0.1-0.5,0.3-0.6c0.7-0.4,1.5-0.7,2.2-1.1c0.3-0.2,0.9-0.4,0.7-0.7c-1.1-1.5,0.4-1.9,1-2.6c1-1.2,1.8-2.4,3.1-3.3
			c0.3-0.2,0.3-0.4,0.4-0.7c0.2-0.8,0.3-0.8,1.4-1.5c0.4,0.9,0.6,1.9,1.1,2.7c1.4,2.1,1,3.9-0.4,5.9c-2.6,3.9-5,7.9-7.7,11.7
			c-3.9,5.4-8.1,10.5-12.3,15.6c-1.5,1.8-3.4,3.2-5,4.9c-2.4,2.3-4.8,4.6-6.6,7.4c-0.8,1.3-1.6,2.6-2,4c-0.5,2,0.6,3.6,2.7,3.9
			c0.3,0,0.7-0.1,0.9,0c1.4,1.4,1.9,0.1,2.6-0.7c0.8-0.9,1.6-1.8,2.4-2.7c0.4-0.4,0.7-0.9,0.4-1.4c-0.3-0.5-0.9-0.4-1.4-0.3
			c-0.4,0.1-0.7,0.5-1.3,0.1c1-0.8,2-1.6,3-2.3c0.4-0.3,1.3-0.6,0.9-1.3c-0.4-0.6-0.9,0-1.4,0.2c-0.3,0.1-0.6,0-1.1,0.1
			c2-2.1,4.7-2.8,6.6-4.6c-0.4-0.7-0.9-0.5-1.2-0.3c-1.1,0.6-2.1,1.1-3.1,1.8c-0.9,0.6-1.8,1.1-3.1,0.9c1.7-1.6,3.6-2.8,5.6-3.8
			c1-0.5,1.9-1.3,2.9-1.7c0.1-0.1,0.4-0.2,0.4-0.2c-0.2-1,0.1-1.6,1.1-2c0.9-0.4,1.8-0.9,2.6-1.3c0.5-0.2,1-0.4,1.3-0.9
			c-0.3-0.5-0.9,0.2-1.2-0.3c0.3-1.2,1.9-1.2,2.6-2.5c-1.8-0.1-2.6,1.3-3.7,1.9c-1.2,0.7-2.2,1.8-3.8,2.3c0.1-1.6,1.5-1.9,2.4-2.5
			c0.9-0.6,1.7-1.5,2.7-2c1.1-0.5,2.1-1.1,3.2-1.8c0.9-0.6,1.8-1.3,2.6-2.1c-1.8,0.2-3,1.8-4.8,2.1c-0.4-0.7,0-0.9,0.4-1.1
			c1.8-1,3.6-2.2,5.6-3c1.2-0.5,1.8-1.3,2.4-2.2c1.3-2.1,2.3-4.2,3.6-6.3c1.5-2.4,2.4-5.1,4-8c-1.1,0.5-1.9,0.8-2.9,0.7
			c0.3-1.7,1.6-2.8,2.3-4.1c0.8,0.1,1.2,0.6,1.6,0.9c2.1,1.5,2.1,1.5,0.6,3.7c-0.5-0.8,0.7-1.7-0.3-2.6c-1.1,1.5-0.9,3.4-1.5,5
			c-0.7,1.7-1.4,3.5-2.2,5.2c-0.8,1.6-1.9,3-2.8,4.6c3.2-1.6,5.8-3.7,7.3-7c0.8-1.7,1.5-3.5,2.1-5.2c0.4-1.1,0.9-1.2,1.8-0.9
			c1.5,0.4,3,1,4.5,1.9c-0.6,1.6-1.2,3.2-1.8,4.8c-1.7,4.2-2.8,8.6-4.1,12.9c-0.5,1.7-1.5,3.3-1.7,5.2c-0.2,1.9-1.5,3.6-2.4,5.3
			c-0.8,1.7-1.8,3.3-2.6,5c-1.8,3.7-3.5,7.5-5.2,11.3c-0.8,1.7-1,3.4-0.7,5.3c0.2,0.8,0.5,1.6,1,2.2c1.4,1.5,2.7,1.5,4,0
			c0.8-1,1.8-1.9,1.6-3.4c-0.1-0.7,0.3-1.3,0.8-1.8c0.3-0.4,0.8-0.7,0.7-1.4c-0.9-0.2-1.1,1-1.8,1c-0.2-0.6-0.6-0.5-1-0.2
			c-0.6,0.5-1.1,1-1.6,1.4c0.8-2,2.5-3.3,3.9-4.9c0.3-0.3,0.8-0.4,0.8-1c-0.8-0.6-1.2,0.7-2.1,0.3c1-1.5,2.1-2.7,3.2-4
			c0.2-0.2,0.3-0.5,0-0.8c-0.2-0.2-0.4-0.2-0.6,0c-0.3,0.2-0.6,0.4-0.9,0.6c-0.3,0.2-0.6,0.5-1.1,0.1c1.6-2.1,3.8-3.5,5.7-5.5
			c-1.1-0.6-1.6,0.2-2.5,0.6c0.7-1.3,1.6-2.2,2.4-3.2c0.4-0.5,0.7-1,0-1.5c-0.8,1-1.7,2-2.5,3c0.2-1.5,1.2-2.5,2.3-3.2
			c0.7-1.5,2.2-2.3,3.1-3.7c-0.4-0.8-0.9,0.2-1.4-0.1c0.6-0.7,1.1-1.3,1.7-1.9c0.9-1,0.3-1.4-0.6-1.6c0,0,0,0,0,0c0,0,0,0,0,0
			c0.1,0.7,0,1.4-1,1.6c-0.1-0.8,0.9-0.9,1-1.6c0,0,0,0,0,0c0,0,0,0,0,0c0.9-0.9,1.7-1.8,2.7-2.9c-1.4-0.1-1.9,0.9-2.6,1.6
			c-0.8,0.7-1.2,1.7-2.6,2.5c1.3-3.4,4.3-5,6.1-7.8c-1.3-0.3-1.7,0.9-2.5,1.1c-0.2-0.4,0.1-0.6,0.3-0.7c1.7-1.4,2.2-3.5,3.1-5.3
			c0.1-0.2,0.2-0.5-0.1-0.6c-1.3-0.3-0.4-1-0.2-1.4c0.3-0.6,1.2-1.4,1.1-1.6c-0.7-1.2,0.5-2.1,0.3-3.1c0-0.3,0.1-0.6,0.1-0.9
			c0.4-1.7,0.4-1.7,2.1-1.4c1,0.2,2.1,0.4,3.1,0.6c0.5,0.1,1,0.3,0.9,1c-0.1,0.7-0.5,0.9-1.1,0.7c-0.9-0.3-1.2,0-1.4,0.9
			c-0.1,0.7-0.5,1.3-0.6,1.9c-0.2,1-0.4,2,0.5,2.7c0.9,0.7,0.8,1.5,0.5,2.4c-0.5,1.9-0.9,3.8-1.2,5.7c1.4-1.9,1.5-4.3,2.7-6.3
			c-0.3,2.4-0.6,4.7-0.9,7.1c0.8,0,0.8-0.5,0.9-0.9c0.5-2.6,0.6-5.3,1.7-7.8c0.5-1.2,0.2-2.7-0.1-4c-0.1-0.6-0.3-1.2-0.2-1.8
			c0.2-0.9,0.5-1.5,1.6-1.5c1.9,0,3.8-0.4,5.8-0.2c4.1,0.5,8.1-0.6,11.7-2.6c0.5,1-0.2,1.9,0,2.7c0.1,0.3,0.1,0.9,0.6,0.6
			c1.2-0.9,1.1,0.2,1.1,0.8c0.1,1.5-0.4,3-0.6,4.6c1.1-0.6,0.6-1.9,1.6-2.9c0.4,1.8-0.1,3.5,0.8,4.9c0.7-0.7,0.1-1.5,0.8-2.5
			c0.1,2.5-0.2,4.7,0.8,6.7c0-1.4,0-2.7,0-4.2c0.9,0.9,0.9,0.9,0.9,4.2c0,1.5,0,3,0.2,4.5c0.9-1.8,0.5-3.8,0.9-5.9
			c1.4,2.1,0.3,4.4,1.4,6.4c0.6-1.1,0.1-2.2,0.4-3.2c1.3,0.8,1.3,0.8,1.2,2.1c-0.1,1.6-0.2,3.2-0.1,4.8c0.7-0.8,0.7-1.8,0.7-2.7
			c0-0.5,0-0.9,0.1-1.4c0-0.3,0.2-0.6,0.5-0.6c0.3,0,0.5,0.4,0.5,0.7c-0.1,1.5-0.1,3-0.2,4.5c0,0.3,0,0.6-0.1,1.2
			c0.9-0.8,0.7-1.7,0.9-2.5c0.2-0.8-0.2-1.7,1-2.6c0,2.9-0.9,5.4-0.4,8.2c0.9-1.6,0.7-3.3,1-4.8c0.2-0.9-0.3-1.9,1.1-2.2
			c0.4-0.1,0.1-0.5-0.1-0.7c-0.4-0.4-0.8-0.8-1.2-1c-1.1-0.5-1-1.3-0.6-2.7c1.6,2.4,3.9,3.9,4.7,6.7c-1.3,3.4-1.2,7-2.2,10.5
			c0.5-1.2,1-2.3,1.5-3.5c0.1,0,0.2,0,0.3,0.1c0,1.6,0,3.2,0,4.8c0.2,0,0.3,0,0.5,0c0.6-2.7,0.5-5.4,0.7-8.1c-1.3-1-0.2-2.2-0.3-3.3
			c1.7,1.6,1.7,3.5,1.2,5.7c-0.8,3.4-1.3,6.9-1.1,10.4c1.3-4.1,1.3-8.4,2.2-12.9c1.3,1.6,1.9,3.2,2.7,4.8c0.4,0.9,0.7,1.4,0,2.5
			c-0.8,1.1-0.9,2.8-1.4,4.2c-0.2,0.5-0.3,1.2-0.8,1.5c-0.1-0.7,0-1.3,0.1-1.9c0.6-2,0.7-4.1,1-6.2c0.1-0.5,0.1-0.9-0.7-1.1
			c-0.9,3.8-0.7,7.8-2.4,11.7c0.6-0.3,0.8-0.5,1.1-0.6c0.2-0.6,0.2-1.3,0.9-1.8c-0.1,0.6-0.2,1.1-0.2,1.7c1.8-1.5,2.1-3.8,2.9-5.7
			c0.2-0.5,0.1-1.2,0.7-1.7c0.9,1,1.1,2.2,1.6,3.4c0.3,0.7-0.5,1.1-0.5,1.4c-0.3,2.5-2,4-3.4,5.7c-0.1,0.1-0.1,0.4-0.2,0.6
			c2.1-1.1,3.3-2.9,4.4-5.2c1.3,1.6,0.1,3-0.2,4.2c-0.3,1.1-1.5,1.7-2.6,2.1c-0.6,0.2-0.8-0.9-1.6-0.7c-0.4,1.4-0.2,1.9,1.1,1.8
			c1.7-0.1,3.1-1.1,3.8-2.4c1-1.9,1.3-3.9,0.8-6.1c-1.2-5-3.7-9.4-6.5-13.5c-2-3.1-3.8-6.3-6.4-9c-2.5-2.6-4.8-5.4-6.7-8.5
			c-0.9-1.5-2-3-3-4.5c-0.7-0.9-1-2.1-1.9-3c-1-0.9-0.1-2.8,1.8-4.7c0.2,0.8,0.5,1.6,0.7,2.4c0.4,1.5,1.1,2.9,2.6,3.7
			c1.2,0.6,1.5,1.8,1.9,3c0.3-0.3,0.7-0.6,1,0c0.4,0.8,0.7,1.5,1.1,2.3c-1.2-0.2-1.6-1.3-2.1-2.2c-1.1-0.8-1.5-2.5-3.1-3.1
			c1.7,4.2,8,11,10.2,11.3c-0.1-0.4-0.5-0.5-0.8-0.8c-1.5-1.5-3.2-2.7-4-4.8c0.3,0,0.7-0.1,0.8,0c0.4,1.2,1.9,1.5,2.5,2.8
			c0.3,0.7,0.6-0.1,0.8-0.4c-1.2-1.6-1.9-3.7-2.1-5.7c0.8,1,1.7,3.3,2.2,5.6c0.7,0.7,0.6,1.9,1.3,2.6c0.6,0.5,0.2-0.4,0.7-0.6
			c0.5,0.9,0.5,2.3,1.6,3.4c-0.5-3.1-1.8-5.7-2.1-8.5c1,0,1.5,0.7,2.2,1c0.3,0.2,0.6,0.5,0.3,0.9c-0.1,0.1-0.1,0.4-0.2,0.4
			c-0.5,0.1-0.3-0.5-0.6-0.7c-0.2-0.1-0.2-0.5-0.8-0.2c1.1,3.4,1.2,7.3,4.7,10c-0.4-3.3-1.9-6.1-2-9.3c2,2.8,2,6.2,3.5,9.6
			c0.2-3-1.3-5.3-1-7.9c0.8,3.3,1.7,6.5,2.5,9.8c0.3-1.2,0-2.3,0.2-3.8c0.6,2.1,1.1,3.8,1.6,5.5c0.7-0.3,0.4-0.8,0.3-1.2
			c-0.4-1.8-0.7-3.6-1.2-5.3c-0.3-1-0.4-2.1-1.7-2.5c-0.6-0.2-0.6-0.9-0.4-1.6c2.1,0.5,2.8,1.9,3,4c0.2,2.4,0.7,4.8,1.1,7.1
			c0.1,0.6,0.1,1.3,1,1.2c0.8-0.1,0.9-0.8,0.9-1.4c-0.1-2.1-0.5-4.2-1-6.2c-0.1-0.4-0.3-0.9,0-1.5c1.4,1,2.9,1.6,3.9,3.3
			c0.9,1.6,0.4,3.5,1.5,5.2c0.5-1.3-0.1-2.5,0.4-3.7c0.7-0.2,0.2,0.8,0.9,1c1.5,0.4,2,1.4,1.8,2.8c-0.1,1-1,1.9-2.3,2.1
			c-0.7,0.1-1.5-0.2-2.2,0.3c0,1.1,1,0.8,1.5,0.8c3,0.5,4.8-1.3,4.4-4.3c-0.1-0.8-0.2-1.7-0.1-2.5c0.3-2.6,0.5-5.2,0.6-7.9
			c0-0.5,0.1-1,0.6-1.5C342.2,77.2,343.1,78.6,342.7,80.7z M311,130.9c0.4-0.2,0.8-0.4,1.4-0.7C312,131,311.5,131,311,130.9z
			 M277.4,138.5c2.9-1.9,6.1-2.9,9.1-4.6C283.6,135.8,281.1,138.4,277.4,138.5z M287.9,133.1c0.5-0.7,1.2-1.3,2.5-1.6
			C289.5,132.4,288.8,133,287.9,133.1z M209.1,93.8c-0.9-0.6,0-1.1-0.2-1.7C209.6,92.6,209.2,93.1,209.1,93.8z M232,70
			c-0.1-1.4,0.5-2.3,1-3.3C233,67.8,232.9,68.9,232,70z M233.2,71.3c-0.1-0.6,0.2-0.8,0.7-1c0.4-0.2,0.7-0.1,0.9,0.3
			c0.1,0.4-0.2,0.5-0.5,0.5C233.9,71.1,233.6,71.5,233.2,71.3z M232.1,71.5c0,0.4-0.3,0.4-0.7,0.5c-0.1-0.1-0.2-0.2-0.2-0.2
			c0.2-0.2,0.4-0.5,0.7-0.4C232.1,71.4,232.1,71.5,232.1,71.5z M222.3,78.6c0.2,0.1,0.3,0.1,0.4,0.1c-0.2,0.1-0.4,0.3-0.5,0.4
			c-0.2,0.1-0.4,0-0.3-0.1C222,78.8,222.2,78.7,222.3,78.6z M220.3,81.6c0.2,1.6,0.2,1.6-1.7,2.1C218.5,82.3,218.9,81.6,220.3,81.6z
			 M215.4,84.7c0.7-1.1,0.7-1.1,2.3-1.9C217.5,84.4,217.5,84.4,215.4,84.7z M216.2,82.3c-0.3-0.9,0.2-1.2,0.5-1.6
			c0.2-0.3,0.4-0.7,0.8-0.3c0.3,0.3,0.4,0.7,0,1C217.2,81.7,216.7,82,216.2,82.3z M217.4,85.8c0.1,0,0.2,0.3,0.2,0.3
			c-0.4,0.7-1.1,0.9-1.8,1c0-0.2-0.1-0.4-0.1-0.4C216.4,86.6,216.7,85.7,217.4,85.8z M256.8,67c-0.3,0.8-0.8,1.2-1.8,1.8
			C255.5,67.7,255.7,67,256.8,67z M256.7,69.1c0.1,0,0.1,0.3,0.1,0.4c-0.1,0.4-0.4,0.6-0.8,0.7c-0.1,0-0.1-0.1-0.2-0.1
			c0.1-0.2,0.1-0.4,0.3-0.5C256.1,69.3,256.3,69,256.7,69.1z M247.7,79.2c2.1-2.9,4.6-5.2,7.9-7.5c-0.8,1.5-0.8,2.9-2.5,3.2
			c-0.4,0.1-0.6,0.6-0.9,1C250.9,77.3,249.4,78.5,247.7,79.2z M252.3,77.5c-0.2,1.4-1,1.5-2.1,1.7C250.8,78.4,251.3,77.9,252.3,77.5
			z M242.8,85.3c0.1,0.1,0.4,0.1,0.4,0.2c0,0.4-0.3,0.6-0.7,0.6c-0.2,0-0.4-0.1-0.3-0.4C242.3,85.5,242.5,85.2,242.8,85.3z
			 M235.8,93.5c0,0.4-0.4,0.4-0.6,0.6c-0.2,0.1-0.3,0-0.2-0.2c0.1-0.2,0.3-0.3,0.4-0.5C235.7,93.3,235.8,93.3,235.8,93.5z
			 M228.9,102.3c-0.9,0.6-1.4,1.3-2.2,1.5C227,101.7,227.2,101.5,228.9,102.3z M229.4,104c0.1,0.8-0.6,0.7-1.1,0.9
			C228.5,104.5,228.8,104,229.4,104z M226.9,106.1c-0.6,0.7-1.1,1.3-1.7,2c-0.7-0.7-0.4-1.5-0.1-2.1
			C225.6,105.3,226.3,106.4,226.9,106.1z M231.3,106.3c-1.2,1.6-2.9,2.2-4.7,2.7C227.9,107.7,229.4,106.7,231.3,106.3z M288.3,64.6
			c-0.5,0.1-1,0.4-1.5,0C287.3,64.2,287.8,64.5,288.3,64.6z M255.9,114.3c-0.2,0.5-0.4,0.9-0.5,1.4c-0.1,0.4,0.1,0.8,0.5,0.8
			c0.4,0,0.5-0.2,0.5-0.6c-0.1-0.8,0.4-1.3,1-1.6c0.1,1.1-0.6,2-1,2.9c-0.5,1.2-1.6,1.3-2.3,0c-0.7-1.3-1-2.6-0.7-4.1
			c0.3-1.6,1.2-2.9,1.7-4.4c0.4-1.1,1.4-0.5,2-0.9c0.1,0.8-0.4,1.1-0.6,1.6c-0.4,0.8-1.6,1.3-0.6,2.5c0.3,0.3-0.3,0.8-0.6,1.1
			C254.7,113.9,255.4,114.1,255.9,114.3z M278.3,70.7c0.5,1.1-0.2,1.7-0.4,2.7C277.7,72.3,277.8,71.5,278.3,70.7z M304.6,71.4
			c0.6,0.5,0.9,0.9,0.5,1.5C304.6,72.6,304.5,72.1,304.6,71.4z M306.1,74.2c1,0.2,1,1,1.3,1.5C306.5,75.6,306.5,74.9,306.1,74.2z
			 M311.7,67.5c1.2,0.9,0.8,2.3,1.2,3.5C312.1,70,311.9,68.8,311.7,67.5z M315.7,70.6c0.8,0.9,0.9,1.9,1.1,3.3
			C315.7,72.7,315.8,71.6,315.7,70.6z M330,86c0.3,0.9,0.3,1.6,0,2.5C329.9,87.6,329.7,86.9,330,86z M340,75.1
			c-0.3,2.8-0.6,5.7-0.8,8.5c0,0.4,0,0.8-0.5,1c0-3.8,0-7.5,0-11.5C339.6,73.7,340.1,74.2,340,75.1z M337.7,72.1
			c0.2,3.9,0.4,7.7,0.2,11.5c-0.6,0.1-0.7-0.2-0.8-0.4c-0.4-1.3-0.6-10.5-0.3-12C337.4,71.2,337.7,71.6,337.7,72.1z M335.3,69.2
			c0.4,0.3,0.5,0.7,0.5,1.2c-0.2,3.9,0.1,7.8,0.2,11.7c-1.4-3.8-0.8-7.8-1.7-11.7c-0.6,1.8-0.2,3.7-0.6,5.5c-0.5-3-0.9-6-1.5-9.2
			C333.5,67.4,334.3,68.4,335.3,69.2z M334.2,79.9c-0.2-0.8-0.2-1.3,0-1.9C334.4,78.6,334.4,79.1,334.2,79.9z M331.4,66.2
			c0.2,1,0.3,2.1,0.4,3.1c0.5,3,1,6,1.4,8.9c0.1,0.6,0.4,1.2,0,1.8c-1.1-0.1-1-0.9-1-1.7c-0.1-3.7-0.9-7.3-1.6-11
			c-0.1-0.7-0.3-1.4-0.5-2.3C331.1,65.1,331.3,65.6,331.4,66.2z M324.4,61.8c1.1,4.1,2.1,8.2,3.2,12.3c0.1,0.2,0,0.5,0.5,0.6
			c-0.3-4.6-2.2-8.7-2.7-13.2c1,0,1.2,0.6,1.4,1.4c0.9,2.9,1.4,5.9,2.1,8.8c0.3,1.2,0.6,2.3,1,3.5c0.1-3.9-1.3-7.6-1.8-11.4
			c0.8-0.1,1.1,0.4,1.2,0.8c0.8,4.7,2,9.3,2.4,14.5c-1.6-0.9-3-1.6-4.2-2.4c-1-0.7-1.6-1.5-1.8-2.9c-0.5-3.9-1.4-7.9-2.3-11.7
			c-0.2-0.7-0.4-1.4-0.2-2.2C324.2,60.2,324.2,61.1,324.4,61.8z M318.2,56.9c0.7,4.1,1.5,8.2,2.2,12.2c0.1,0.5,0.2,1,0.4,1.5
			c-0.1-4.7-1.1-9.3-1.8-14.2c1.8,0.8,2.8,1.7,3.2,3.6c1.1,4.9,2.1,9.8,3.2,14.8c-0.5,0.1-0.9-0.1-1.2-0.3c-3.3-2.3-6.7-4.3-9.8-6.9
			c-1.1-0.9-2-2.1-3.3-2.8c-1.2-0.7-1.2-1.9-1.1-3.2c0-0.3,0.1-0.7,0.4-0.7c0.4-0.1,0.8,0.1,0.9,0.5c0.3,0.8,0.5,1.7,0.7,2.6
			c0.6-0.3,0.1-1,0.5-1.4c0.9,0.3,0.8,1.3,1.4,2.1c0.5-1.5-0.4-2.8,0-4.3c0.8,2.6,3,4.6,3.1,7.4c0.6-1.2-0.3-2.2,0.1-3.8
			c0.9,2,0.8,4,1.8,5.6c0.4-0.5,0.1-1,0-1.4c-0.3-1.7-0.7-3.3-0.6-5.1c0.1-1.4-0.1-2.8-0.9-4.1c-0.7-1.1-0.9-2.5-0.5-3.9
			C318.1,55.2,318,56.2,318.2,56.9z M315.9,58c-1.6-1.4-1.4-3.4-2.3-5.4C316.5,53.8,315.4,56.2,315.9,58z M313.8,56
			c0.1,0.3,0,0.6-0.4,0.6c-0.3,0-0.6-0.1-0.6-0.4c-0.3-1.7-1-3.4-0.7-5.2C313.1,52.6,313.3,54.3,313.8,56z M311.4,55.6
			c-1.5-2-1.6-4.6-2.3-6.9C311.3,50.4,310.9,53.2,311.4,55.6z M308.7,52.4c-1.1-1.8-1.5-3.9-1.7-6C308.6,48.1,308.8,50.2,308.7,52.4
			z M303.1,44c1,2.5,1.2,3.4,1,5.2C303.3,47.5,303.3,45.9,303.1,44z M302.6,47.5c-0.6-0.3-0.1-0.7-0.5-1.2
			C303,46.7,302.3,47.2,302.6,47.5z M298.8,50.6c0.4-1.8,0.4-3.6,1.4-5.2C299.9,47.2,299.7,49,298.8,50.6z M306.1,46.7
			c0.3,0.9,0.5,1.9,0.7,2.9c0.1,0.3,0,0.6-0.4,0.7c-0.3,0.1-0.6-0.1-0.8-0.3c-0.2-0.3-0.5-0.6-0.5-1c-0.3-1.7-0.5-3.4-0.8-5.2
			C305.8,44.4,305.7,45.7,306.1,46.7z M300.3,39.4c0.3,1.1,1.3,1,2.4,1.1c-3.2,2.5-4.1,6.1-5.1,9.6c-0.3,0.9-0.2,2.1-1.7,2.1
			c0.1-2.5,0.9-4.9,1.7-7.2c0.3-0.9,1-1.7-0.2-2.6c-0.4-0.3-0.3-1,0-1.5c0.3-0.4,0.8-0.7,0.7-1.3c-0.1-0.9,0.6-1.2,1.2-1.3
			C300.1,38.2,300.1,38.9,300.3,39.4z M303.7,35.5c0.5,0.7,1.4,1.1,1.5,2.1c0,0.1-0.2,0.3-0.3,0.3c-1.2,0-2,1.5-3.5,0.8
			c1.5-1.3,1.5-1.3,1.9-3.2C303.4,35.5,303.6,35.4,303.7,35.5z M301.7,36.9c-2-0.5-3.7-1.4-5-3.1C299.8,33.3,301.1,34.1,301.7,36.9z
			 M281.5,34.6c0.8-2.4,1-2.4,4-2.3C283.9,33,282.6,33.6,281.5,34.6z M294,30.8c1.9-1.1,3.4-0.5,5.2,1.6c-0.7,0.3-1.5,0.3-2.2,0.1
			c-0.7-0.2-1.3-0.3-1.9,0.3c-0.1,0.1-0.3,0.2-0.4,0.2c-0.9-0.6-1.6-0.7-2.6-0.1c-0.8,0.4-2.1,0.2-3.1,0.2c-0.7,0-1.3-0.3-1.8-0.8
			c-2.1-2.1-5.5-1.5-6.9,1.2c-0.6,1.1-0.6,1.1-2.1,1.6c-0.3-0.4-0.3-0.9-0.1-1.3c0.4-1.2-0.1-1.9-1.2-2.2c-1.4-0.4-2.7-1-4.1-0.1
			c-0.4,0.2-1,0.2-1.5,0.1c-2.1-0.3-4,0.4-5.8,1.5c-0.6,0.4-1,0.8-1.5-0.3c-0.4-1-1.3-0.6-2.1-0.3c0,0,0,0,0,0.1c0,0,0,0,0,0
			c0,0.1,0,0.1,0,0.2c-0.3,0.4-0.2,1.2-1,1.1c-0.1,0-0.2-0.1-0.2-0.1c0.1-0.7,0.4-1.1,1.2-1.2c0,0,0,0,0-0.1c0,0,0,0,0,0
			c0-0.5,0.3-0.7,0.8-0.8c1.8-0.5,3.7-0.7,5.6-0.5c1.7,0.2,3.4-0.1,4.8-0.9c2.9-1.7,5.9-1.5,9-1.2c2.5,0.3,4.9,1.1,7.2,1.9
			C290.9,31.6,292.4,31.8,294,30.8z"/>
		<path class="st0" d="M309.4,70.3C309.5,70.3,309.5,70.3,309.4,70.3C309.5,70.3,309.5,70.3,309.4,70.3
			C309.4,70.3,309.4,70.3,309.4,70.3C309.4,70.3,309.4,70.3,309.4,70.3z"/>
		<path class="st0" d="M298,117.6c-0.4-1.2,0.6-1.8,0.6-2.8c0-1.7-0.5-3.2-1.4-4.6c-0.2,2.2,0.9,4.5-1,6.4c-1.8-1-1.5-2.8-1.5-4.3
			c-0.6-0.1-0.9,0.2-1,0.6c-0.2,1.4-0.2,2.7,0.9,3.8c0.4,0.4,1.3,0.9,0.4,1.6c-0.7,0.6-1.5,0.5-2.1-0.4c-0.3-0.4-0.6-0.8-0.6-1.2
			c-0.2-2.3-0.6-4.7,0.7-6.8c0.3-0.5,0.5-1-0.1-1.4c-0.4,0.3-0.7,0.5-1.1,0.8c-0.7,2.5-1.2,4.9-0.5,7.8c-1.6-2.2-1.3-5.7,0.3-8
			c0-0.5,0.3-1.2-0.7-0.9c-0.3,0.1-0.4,0.8-1,0.5c-0.2-1.6,1.3-2.8,1.3-4.4c-0.9,0.1-0.9,1.1-1.8,1.2c0.3-0.9,0.5-1.8,1-2.6
			c0.9-1.4,1.1-2.8,0.2-4.2c-1.1,0.2-1.2,1.3-2,1.9c-0.1-1.9,1.5-3.2,1.8-5.3c-2.5,2.1-2.6,5-3.9,7.5c-0.3-0.7-0.1-1.1,0-1.5
			c0.9-2.8,1.7-5.6,3.2-8.2c0.2-0.3,0.6-0.9,0.2-1c-1.6-0.3-0.4-1.1-0.3-1.5c0.3-1.2,1.2-2.1,1.7-3.2c0.2-0.3,0.7-0.7,0.1-1.2
			c-0.7,0.1-0.9,0.7-1.4,1.1c0,1.1-0.8,1.7-1.2,2.5c0-1,0.5-1.9,1-2.7c0-0.9,0.9-1.6,0.6-2.7c-1.2,0.7-1.2,2-2.2,3
			c0.4-2.1,1.8-3.6,1.9-5.8c-1.7,0.9-1.5,2.8-2.8,4.3c0.2-1.8,0.8-3,1.3-4.1c0.4-1.1,1.2-2.2,1.1-3.5c-0.5-0.2-0.7,0-0.9,0.2
			c-0.2,0.2-0.4,0.6-1.1,0.1c1.3-2.3,0.6-4.9,1.3-7.4c-1.1,0.5-0.8,1.9-1.8,2.5c0.8-1.6,0.4-3.3,0.4-4.9c-0.5-0.5-0.7,0.6-1.1,0.2
			c-0.3-0.3,0-1.1-0.8-1.1c-0.7,0.7-0.6,1.5-0.6,2.3c0,2.1,0.6,4.2,0.8,6.3c0.9,6.7,0,13.4-0.6,20c-0.5,6.6,0.1,12.9,2.5,19.1
			c0.2,0.4,0.5,0.8,0.7,1.1c1.3,1.8,3.3,2.2,5.3,2.8C294.5,120.1,298.2,118.1,298,117.6z M286.9,92c0.1,0,0.1,0,0.2,0
			c0,0.7,0,1.4,0,2.1c-0.1,0-0.1,0-0.2,0C286.9,93.4,286.9,92.7,286.9,92z M288.6,105.5c-0.2,1.7-0.4,3.4-0.6,5.1
			c0,0.1-0.2,0.2-0.5,0.3C287,108.9,287.9,107.2,288.6,105.5z"/>
		<path class="st0" d="M269.8,124.1c0.5-1.6,1.5-2.4,2.6-3.3c0.1,0,0.1-0.1,0.2-0.1c0.5-0.2,0.9-0.4,0.6-1c-0.3-0.7-0.8-0.4-1.3-0.2
			c-0.8,0.3-1.4,0.8-2,1.4c-2,2-4.5,3.4-7.3,4.1c0.9-0.4,1-1.3,1.5-2.1c-1.4-0.1-2.7,0-4.1,0.2c-1.6,0.3-3.2,0.2-4.7-0.3
			c-0.5-0.2-1.3-0.3-0.9-1.2c0.3-0.7-0.3-0.9-0.8-1c-0.6-0.1-1.1,0.4-1.6,0.1c-0.5-0.8,0.4-1.7-0.4-2.7c-2,4.2-0.6,7.5,3.4,8.5
			c4,1,7.9,1,11.5-1.5c0.5-0.4,1.1-0.8,1.9-0.6c-2.7,3.5-6.8,3.5-10.4,5c2.6,0.1,5-0.5,7.3-1.4C267.3,127.1,269.2,126.1,269.8,124.1
			z M259.2,125.8c0.2-0.6,0.7-0.4,1.6-0.5C260,125.6,259.7,126.1,259.2,125.8z"/>
		<path class="st0" d="M284.2,119c-0.1,0.3-0.2,0.5-0.2,0.7c0.8,2.5,2.6,4.4,4.5,6.2c0.2,0.2,0.7,0.3,1.1,0.3
			c3.9,0.1,7.7-0.6,11-2.9c0.2-0.2,0.7-0.3,0.4-0.8c-0.9-0.2-1.4,0.8-2.3,0.6c0.1-0.5,0.3-0.8,0.5-1.7c-2.4,2.1-4.6,2.6-8.2,2.1
			c2.2-0.6,4.9-0.2,6.9-2.3c-0.7-0.3-1.1,0.2-1.6,0.3C292,122.3,287.6,123.2,284.2,119z"/>
		<path class="st0" d="M330.9,103.7c-0.4-0.8-0.7-0.3-0.8,0.2c-0.1,1.2-0.3,2.4-0.2,3.6c0,1.1-0.3,2-1,2.9c-1.4,1.5-2.8,3.1-4.1,4.6
			c1.9-0.5,3.1-2,4.9-3.4c-0.5,2.2-2,3-3,4.3c-0.9,1.3-2.2,2.2-3.7,3.5c5.8-1.5,11.2-8.2,10.3-12.7c-1.1,1.2-1,3-2.4,4.2
			c0.4-2.9,2.3-5.4,0.7-8.4c-0.5,0.4-0.5,0.7-0.5,1C331.1,103.5,331,103.6,330.9,103.7z"/>
		<path class="st0" d="M256.2,61c-0.2-0.5-0.8-0.1-1-0.4c0.2-1.3,1.4-2.2,1.4-3.8c-1.1,0.4-1.6,1-2.1,1.8c-1.8,2.7-3.6,5.6-6,7.9
			c-0.7,0.7,0.2,1.4-0.4,1.9c-0.6,0.5-1.2,1.2-1.8,1.7c-0.9,0.8-1.9,1.6-2.9,2.3C249,70,252.7,65.6,256.2,61z"/>
		<path class="st0" d="M292.7,70.2c0,0.3,0.3,0.5,0.4,0.8c0.7,2,1.4,3.9,1.9,6c0.4,1.7,0.9,3.3,1.4,5c0,0.1,0.2,0.1,0.3,0.2
			c0.5-0.2-0.2-0.9,0.4-1c0.5,0.3,0.5,0.9,0.9,1.3c0.4,0.5,0.7,0.9,1.1,1.4c0.1-0.1,0.2-0.1,0.3-0.2c-0.7-1.5-1.5-2.9-2.2-4.3
			c-1.4-3.1-2.1-6.4-3.2-9.6c-0.2-0.7-0.3-1.8-1.2-1.5C292.3,68.4,292.5,69.5,292.7,70.2z"/>
		<path class="st0" d="M227.6,119c1.2-0.5,2.5,0.1,3.4-1c-2.2-0.4-4.3,0.3-6.3-0.7c0.1-0.6,0.2-1.1,0.3-1.6
			c-0.2,0.1-0.3,0.2-0.5,0.3c-0.3,0.1-0.6,0.2-0.8,0c-0.2-0.3,0.3-0.3,0.3-0.6c0-0.2,0-0.4,0-0.6c-2.1,0.7-2.3,1.5-0.8,3.2
			c0.2,0.3,0.5,0.6,0.8,0.7c2.7,1.5,5.5,2.2,8.6,1.7C231.1,119.9,229.4,119.9,227.6,119z"/>
		<path class="st0" d="M304.8,128.5c-5.6,2.8-10.4,7-16.2,9.7C294.9,136.5,299.7,132.4,304.8,128.5z"/>
		<path class="st0" d="M295.3,70.7c0.6,1.6,1.1,3.3,1.6,4.9c1,2.9,2.2,5.7,4.6,7.8c-2.8-4.5-4.3-9.6-5.8-14.7
			C294.8,69.4,295,70,295.3,70.7z"/>
		<path class="st0" d="M224.2,114.7C224.2,114.7,224.2,114.7,224.2,114.7C224.1,114.7,224.1,114.7,224.2,114.7
			C224.2,114.8,224.2,114.8,224.2,114.7C224.2,114.7,224.2,114.7,224.2,114.7z"/>
		<path class="st0" d="M225.1,115.6C225.1,115.6,225,115.7,225.1,115.6C225.1,115.7,225.1,115.7,225.1,115.6L225.1,115.6
			c2.5,2,5.2,2.4,8.1,1.1c-1.2-0.1-2.5-0.1-3.7-0.1c-1.3,0-2.2-0.9-3.3-1.4c-1.3-0.6-0.8-2.3-2-2.9c-0.5,0.9,0.1,1.7,0,2.5
			C224.6,114.9,224.8,115.2,225.1,115.6z M225.1,115.6L225.1,115.6L225.1,115.6C225.1,115.6,225.1,115.6,225.1,115.6z"/>
		<path class="st0" d="M313.8,95.4c0.7-2.5,0.8-5,0.6-7.5C313.7,90.4,313.4,92.9,313.8,95.4z"/>
		<path class="st0" d="M215.6,78.9C215.5,78.9,215.5,78.9,215.6,78.9C215.5,78.9,215.5,78.9,215.6,78.9
			C215.6,78.9,215.6,78.9,215.6,78.9C215.6,78.9,215.6,78.9,215.6,78.9z"/>
		<path class="st0" d="M216.1,78.1c0-0.3,0.4-0.7-0.1-0.9c-0.5,0.5-0.5,1-0.4,1.6C216,78.9,216.1,78.5,216.1,78.1z"/>
		<path class="st0" d="M322.7,71.5c-0.3-2.2-0.6-4.5-1-6.7c-0.4-2.2-0.5-4.4-1.6-6.4c0.4,4.5,0.9,8.9,2.1,13.2
			C322.4,71.5,322.5,71.5,322.7,71.5z"/>
	</g>
	<g>
		<path class="st0" d="M122.2,230.4c0.5-4.6,0-9-0.9-13.4c-1-4.7-2.7-9-5.1-13.1c-1.5-2.5-3.6-4.4-5.5-6.5
			c-4.4-4.7-8.9-9.5-13.6-13.9c-3.7-3.4-6.7-7.3-10-10.9c-2-2.2-3.3-4.8-5.7-6.7c-2.4-1.9-4.8-3.8-7.7-4.9c-3.3-1.2-6.6-1.8-10-1.8
			c-1.9,0-3.9,0.4-5.5,1.6c-2.6,1.8-5.2,3.8-7.2,6.2c-2.7,3.2-6.1,5.4-9.6,7.7c-3.2,2.1-6.5,3.7-9.9,5.4c-3.4,1.7-6.7,3.4-10.1,5
			c-2.3,1.1-4.8,1.9-6.9,3.4c-2.7,2-5.6,3.6-8.3,5.7c-3,2.4-5,5.4-5.6,9c-0.9,4.7-0.4,9.3,1.5,13.7c1.1,2.4,2.5,4.6,3.9,6.7
			c2.3,3.6,5.4,6.4,9.3,8.2c0.8,0.4,1.6,0.9,2.4,1.2c0.9,0.3,1,1.1,1.4,1.7c0.7,0.9,1.4-0.6,2,0.1c0.3,0.4,0.7,0.9,1,1
			c2.4,0.2,4.4,1.6,6.7,2.2c1.6,0.5,3.3,0.7,5,0.5c2.6-0.3,5.1-0.3,7.7,0c1.5,0.2,3,0.3,4.6,0c1-0.2,2.1-0.2,3.1-0.1
			c3.1,0.4,6,1.2,8.5,3.2c0.6,0.5,1.2,1,2.2,0.8c-0.2-0.4-0.6-0.4-0.5-1c3.2,1.4,6.3,2.7,9.4,3.9c1.7,0.7,3.6,1.2,5.3,2.1
			c3.7,1.8,7.6,3.2,11.4,4.6c1.4,0.5,2.7,1.2,4.1,1.5c3.7,0.8,7.4,0.4,10.9-0.4c3.4-0.8,6.9-1.7,10.2-2.9c4.6-1.6,7.5-4.7,9.3-9
			C121.3,237.7,121.8,234.1,122.2,230.4z M120.8,231.4c0.5,0.8,0,1.5-0.1,2.2c-0.2,2.1-0.3,2.1-2.4,1.1c0.6-1,1.1-1.9,1.7-2.7
			C120.2,231.8,120.3,231.5,120.8,231.4z M119.7,236.4c-0.1,0.7-0.5,1.1-1.1,1.4c-0.7,0.3-1.5,0.4-2.1-0.1c-0.3-0.3,0-0.6,0.2-0.9
			c0.5-0.6,0.8-1.6,1.9-1C119,236,119.4,236,119.7,236.4z M107.7,196.3c2.9,2.9,6.2,5.4,8.1,9.2c0.4,0.8,0.7,1.6,0.3,2.5
			c-0.6,1.8-1,3.6-1.8,5.4c0-0.6,0-1.3-0.1-1.9c0-0.3-0.1-0.7-0.5-0.4c-0.9,0.6-1-0.2-0.9-0.7c0.2-1.6,0.4-3.2,0.7-4.7
			c0.2-0.8,0.6-0.1,1-0.1c-0.9-0.6-0.3-2-1.7-2.4c-0.8-0.2-1.2-1.6-2.1-2.2c-1.2-0.9-2.1-2.2-3.2-3.3c-0.4-0.4-0.3-0.9-0.3-1.4
			C107.5,196.3,107.6,196.3,107.7,196.3z M111.5,216.5c0.3-1.1,0.6-1.9,0.8-2.8C112.8,215.1,112.8,215.1,111.5,216.5z M110.3,212
			c0.7,0.2,1.1,0.4,1.1,0.9c0,1.4-0.5,2.7-0.6,4.1c0,0.3-0.2,0.3-0.4,0.3c-0.2-0.1-0.4-0.2-0.5-0.3c-0.3-0.6-0.2-1.2,0.1-1.8
			C110.5,214.2,110.6,213.2,110.3,212z M107.3,214.4c1.9,0.3,1.6,1.6,1.5,2.8c-0.5,0.2-0.9,0.1-1.5-0.2
			C108,216.1,108.1,215.3,107.3,214.4z M103.8,209.2c-0.4-1.1-0.4-1.1,0-2.5c0.5,0.1,0.7,0.5,1.1,0.8
			C104.5,208.1,104.2,208.6,103.8,209.2z M103.3,213c-0.1,0.2-0.5,0-0.7-0.2c-0.3-0.4-0.3-0.8,0-1.1c0.2-0.3,0.5,0,0.8,0.5
			C103.5,212.3,103.6,212.7,103.3,213z M104.4,204.5c0.8,0.8,0.8,0.8,0.8,2.1C104.3,206.2,104.4,205.3,104.4,204.5z M105,216.4
			c-1.1,0-1.6-0.6-1.9-1.3C103.8,215.3,104.4,215.6,105,216.4z M105.5,208.4c0.8,0.9,0.4,1.6-0.2,2.4
			C104.8,209.6,104.8,209.6,105.5,208.4z M106.3,206.1c1.2,0.7,1.4,1.5,1.3,2.6C106.5,208.1,106.1,207.4,106.3,206.1z M111.5,209.2
			c-0.9-0.5-1.1-1-1.2-1.7c-0.2-1.6-0.1-3.2-0.1-4.8c0-0.3,0-0.7,0.4-0.8c0.5-0.1,0.7,0.3,0.9,0.7c0,0.1,0.1,0.1,0.1,0.2
			C111.4,204.8,111.8,206.9,111.5,209.2z M112.5,203.5c0.7,0.9,0.4,1.6,0.1,2.5C112.2,205.1,112.2,204.5,112.5,203.5z M109.3,206.6
			c-0.6,0.2-0.9-0.1-0.9-0.6c-0.2-2.2-0.3-4.5-0.5-6.9c1.2,0.7,1.6,1.4,1.6,2.6C109.4,203.3,109.3,205,109.3,206.6z M107.2,210
			c0.1,0,0.4,0.1,0.5,0.3c0.4,0.7-0.1,1.1-0.5,1.6c-0.1,0.2-0.3,0.3-0.4,0.5c-0.4-0.2-0.6-0.5-0.6-0.7
			C106.2,210.9,106.6,210.3,107.2,210z M108.4,208.4c1,0.3,1.2,0.9,1,1.7C108.4,209.9,108.2,209.3,108.4,208.4z M109.3,211.2
			c0.5,1.2,0.6,2.2-0.1,3.2C107,213.3,107,213,109.3,211.2z M110.3,210.5c0-0.1,0.1-0.1,0.1-0.2c0.2,0,0.4,0.1,0.5,0.3
			c0.1,0.2,0.3,0.5,0.3,0.7c0,0.2-0.3,0.1-0.5,0C110.4,211.1,110.3,210.8,110.3,210.5z M107.3,205.3c-2.4-2.8-1.3-5.8-2.1-8.9
			C106.9,198.1,107.5,200.8,107.3,205.3z M105.6,194.8c0.4,0.3,1,0.4,0.6,1.4c-0.4-0.4-0.8-0.7-0.9-1.2
			C105.5,194.9,105.6,194.7,105.6,194.8z M103.5,194.2c1.6,2.5,1.1,5.3,1.3,8.5c-1.2-1.5-0.9-2.9-1.2-4.2c-0.3-1.3-0.4-2.7-0.6-4.1
			C103.3,194.3,103.4,194.3,103.5,194.2z M102.3,207.5c-0.3-0.9-0.3-1.5,0.2-1.9c0.1,0,0.3,0,0.3,0.1
			C103.1,206.3,102.8,206.8,102.3,207.5z M101.2,211.3c-0.4-0.1-0.4-0.5-0.3-0.8c0.1-0.3,0.2-0.5,0.3-0.8c0.5,0.3,0.5,0.6,0.5,0.8
			C101.6,210.8,101.8,211.4,101.2,211.3z M101.8,201c1.2,1.1,1.8,2.2,1.7,3.6C102.5,203.7,101.3,203,101.8,201z M101.4,205.7
			c0,0-0.4-0.2-0.4-0.3c-0.3-0.5,0-0.9,0.4-1.2c0.1-0.1,0.3,0.1,0.5,0.2C101.9,205,101.7,205.4,101.4,205.7z M102.7,199.7
			c-2.3-2.2-1.2-5.3-2.1-8C102.2,192.6,102.9,195.1,102.7,199.7z M97,196.6c-0.4-0.5-0.7-1.1-1.4-0.4c-0.4,0.4-0.6,0.1-0.7-0.2
			c-0.2-0.6-0.8-1.2,0-1.6c0.4-0.2,0.4,0.5,0.9,0.6c0-0.6,0-1.1,0-1.7c0.6,0.2,0.5,1.1,1.1,1.2c0.3,0.1,0.4-1.1,0.7-0.3
			c0.8,1.9,2.3,3.4,3,5.4c0.2,0.5,0.4,1.1,0,1.8C99.4,199.7,98.2,198.2,97,196.6z M99.5,202.3c-0.2,0.1-0.5,0.2-0.6-0.1
			c-0.1-0.3,0-0.5,0.3-0.6c0.2-0.1,0.4,0,0.5,0.1C99.8,201.9,99.7,202.2,99.5,202.3z M98.3,200.9c-0.1,0.1-0.2,0.2-0.4,0.1
			c-0.6-0.6-0.5-1.1,0-1.7C98.5,199.7,98.9,200.2,98.3,200.9z M96.8,198.9c-0.7-0.4-0.9-1-0.6-1.8C96.9,197.6,97.3,198,96.8,198.9z
			 M99.4,191c-0.1,0-0.1,0.1-0.1,0.1c-0.5-0.4-0.6-1-0.5-1.8C99.4,190,99.4,190.5,99.4,191z M98.6,193.8c-0.8-2.3-1.5-4.5-2.4-6.9
			C97.4,188,98.5,190.8,98.6,193.8z M95.2,186.4c0.4,0.9,0.8,1.8,1,2.7c0.2,0.8,0.6,1.7,0.5,2.9c-1.6-2.5-1.8-5.1-2.9-7.6
			C95.3,184.5,94.9,185.7,95.2,186.4z M93.6,194.2c0.1-1.2,0.2-1.8,0.8-2.5C95.1,192.7,94.6,193.3,93.6,194.2z M93.5,191.3
			C93.5,191.3,93.5,191.3,93.5,191.3c-0.2,0.4-0.5,0.8-0.9,0.2c-0.1-0.1-0.1-0.4-0.2-0.6c0.2,0.1,0.3,0.3,0.5,0.3
			C93.1,191.3,93.3,191.3,93.5,191.3C93.5,191.3,93.5,191.3,93.5,191.3C93.5,191.3,93.5,191.3,93.5,191.3c-0.6-0.7-0.5-1.5-0.2-2.6
			C93.7,189.8,94.9,190.4,93.5,191.3C93.5,191.3,93.5,191.3,93.5,191.3z M92.4,194.1c-0.7-0.3-0.7-0.8-0.6-1.4
			C92.7,192.9,92.5,193.5,92.4,194.1z M92.4,186c0.6,0.6,0.5,1.4,1,2.3C91.9,187.7,92.1,187,92.4,186z M91.5,187.8
			c0.5,0.7,0.5,1.3,0.3,2C91,189.2,91.1,188.6,91.5,187.8z M91.5,184.3c0.2-0.2,0.3-0.1,0.5,0c0.2,0.2,0.2,0.5,0,0.7
			c-0.2,0.3-0.3,0.1-0.5,0C91.4,184.8,91.3,184.5,91.5,184.3z M91.3,183.2c-0.8-0.6-0.7-1.1-0.7-2C91.2,181.9,91.6,182.4,91.3,183.2
			z M89,185.8c0.8,0.9,0.2,1.7-0.1,2.5C88.5,187.4,88.4,186.7,89,185.8z M88.3,182c0.3,1.3-0.1,2.1-0.5,3.3
			C87.2,184,87.5,183.1,88.3,182z M86.7,181.4c0.1-0.1,0.2-0.2,0.3-0.1c0.3,0.3,0.2,0.6,0,0.9c-0.1,0.1-0.2,0.2-0.4,0.1
			C86.4,182.1,86.5,181.7,86.7,181.4z M82.3,172.8c0.2-0.1,0.4,0,0.5,0.2c0.5,0.8,1.5,1.4,0.4,2.9c-0.2-1.1-1.1-1.5-1.2-2.4
			C81.9,173.2,81.9,172.9,82.3,172.8z M80.1,172.3c-1.2,0.3-2.4,0.3-3.7,0.3c-0.9,0-0.9-0.6-0.9-1.3c0-0.7,0.3-1,1-1
			c0.5,0,1.1,0,1.7,0C79.9,170.4,79.9,170.4,80.1,172.3z M73.7,163.1c-0.8,0.8-1.7,1.1-2.5,1.5c-1.3,0.6-2.7,1.1-3.4,2.5
			c0,0,0,0,0,0c0,0,0,0,0,0c2.7-1.3,5.3-2.6,8.1-3.9c0,1.2-1.1,1-1.4,1.7c0.2,0.2,0.4,0.1,0.5,0.1c2-1,3.1-0.7,4.4,1
			c0.6,0.8,0.6,1.7,0.3,2.6c-0.4,0.9-1.2,0.8-1.9,0.9c-2.7,0.1-5.2-0.4-7.8-1.6c1.1-0.9,2.6-1.2,4-2.3c-1.2-0.3-1.7,0.4-2.3,0.6
			c-1.2,0.6-2.3,1.5-3.9,1c0,0,0,0,0,0c0,0,0,0,0,0c-0.1-0.3-1-0.2-0.6-0.8C67.7,165.7,72.6,163.4,73.7,163.1z M72.2,175.1
			c-1.7-0.4-3.6-0.6-4.3-2.5c-1.1,0.1-0.5,1.5-1.4,1.6c0,0,0,0,0,0c0,0,0,0,0,0c1.2,2.2,3.3,2.9,5.5,3.4c-0.2,0.7-0.7,0.5-1,0.4
			c-1.5-0.3-2.9-0.9-4.3-1.5c-1.4-0.7-1.4-0.8-0.2-2.3c0,0,0,0,0,0c0,0,0,0,0.1,0c-0.1-0.8,0.3-1.6,0.7-2.3c0.1-0.3,0.1-0.5-0.2-0.7
			c-0.3-0.2-0.5,0.1-0.6,0.3c-0.2,0.4-0.4,0.8-0.6,1.2c0,0,0,0,0,0c0,0,0,0-0.1,0c-0.2,0.6-0.4,1.1-0.6,1.7
			c-0.1,0.2-0.2,0.6-0.5,0.4c-0.3-0.1-0.5-0.4-0.4-0.8c0.1-0.9,0.8-1.2,1.5-1.3c0,0,0,0,0,0c0,0,0,0,0,0c-0.5-0.5-0.7-1.1-0.3-1.8
			c0.6-0.9,0.4-2.5,1.3-3c1-0.5,2,0.6,3.1,0.8c1.5,0.4,2.7,1.3,4.2,1.5c0.2,0.6-0.2,0.9-0.3,1.3c-0.1,0.9-0.7,1-1.3,0.7
			c-1.3-0.5-2.8-0.4-3.7-1.7c-0.2-0.3-0.6-0.4-0.9-0.1c-0.4,0.4-0.2,0.8,0.2,1c1.4,1,3,1.3,4.7,1.8c0.8,0.2,1.1,0.9,0.7,1.5
			C73,175.2,72.6,175.2,72.2,175.1z M72.4,176.3c-1.2,0.5-2.1-0.1-3-0.7C70.5,175.5,71.4,176.2,72.4,176.3z M39.1,205.1
			c0.4-0.5,0.6-0.8,0.9-1.1C40.2,204.6,39.8,204.8,39.1,205.1z M39.2,209.3c-0.2,1-0.2,1.9-1.6,2.1C38,210.4,38.2,209.6,39.2,209.3z
			 M38.3,212.1c0.2,1,0.1,1.6-0.7,1.7c-0.3,0-0.3-0.2-0.4-0.4C37,212.5,37.8,212.6,38.3,212.1z M36.6,215.6c0.7-0.5,1.3-1.1,2.2-0.5
			c0.3-0.7,0.6-1.3,1.4-1.6c1-0.4,1.9-0.5,2.8,0.1c0-0.1,0-0.2-0.1-0.3c-0.2-1.2,0.2-2.3,0.3-3.4c0.1-0.6,0.6-0.9,1.1-1.2
			c0.4-0.2,1-0.1,1.1-0.8c0-0.2,0-0.3-0.2-0.2c-0.4,0-0.8,0.5-1.1,0.1c-0.4-0.4-0.1-1,0.3-1.3c0.8-0.8,1.8-1.3,2.9-1.7
			c0.5-0.2,0.9-0.4,0.3-1c-0.4-0.4,0.1-0.6,0.3-0.8c0.4-0.3,0.8-0.5,1.2-0.8c0.1-0.1,0.1-0.3,0.1-0.4c-0.1-0.2-0.3-0.3-0.5-0.2
			c-0.8,0.4-1.6,0.8-2.4,1.1c1.9-1.2,3.8-2.4,6.2-3.2c-1.4-1-2.2-0.1-3.1,0.3c-0.9,0.4-1.7,1.2-3.2,1.1c2-1.7,4.2-2.5,6.2-4
			c-1.1-0.4-1.8,0.3-2.5,0.7c-0.8,0.4-1.5,0.8-2.3,1c2.3-2.3,5.3-3.7,8-5.6c-2.1-0.1-3.4,1.6-5.2,2.3c0.2-1,0.9-1.5,1.6-1.9
			c1.4-0.7,2.5-1.8,4.1-2.1c0.3-0.1,0.5-0.3,0.3-0.6c-0.1-0.2-0.3-0.2-0.5-0.2c-1.1,0.1-1.9,1-3.3,1.3c1.5-2.2,4.1-2.6,5.9-4.6
			c-1.6-0.1-2.3,1-3.4,1.3c0.3-1.2,1.4-1.5,2.2-2.1c0.8-0.6,1.6-1.1,2.5-1.7c-1.2-0.5-1.8,0.4-3.1,0.6c1.6-1.8,3.3-2.7,5.3-3.6
			c-0.5,2.9-1.7,5.4-2.5,8c-1.4,4.5-3,9-4.1,13.6c-1.2,4.8-3.4,9-8,11.7c-2.8,1.7-5.5,2.6-8.6,2.1c-0.8-0.1-1.5-0.3-2-0.9
			C36.5,215.9,36.5,215.7,36.6,215.6z M43.9,203.6c0.1-0.1,0.2,0.1,0.2,0.3c-0.1,0.5-0.4,0.7-0.9,0.7
			C43.3,204.2,43.5,203.8,43.9,203.6z M44.9,198.1c0.5-0.4,0.5-1,1.2-1.1C45.7,197.4,45.7,197.9,44.9,198.1z M40.4,209.8
			c0.2-1.4,1-1.9,2-2.3C42.4,208.8,42.4,208.8,40.4,209.8z M41.7,210.2c0.3-0.2,0.5,0,0.5,0.4c0,0.6,0,1.1-0.6,1.5
			c-0.7,0.4-1.3,0.8-2.2,0.7C39.4,211,40.7,210.7,41.7,210.2z M40.4,206.2c-0.1-0.6,0.3-0.8,1-1.1C41.2,205.8,41,206.2,40.4,206.2z
			 M53.7,186.5c-0.1,0.6-0.2,1-0.7,1.1C52.7,187,53.1,186.8,53.7,186.5z M61.1,167.4c0.6,0.3,1,0.8,0.5,1.5c-0.1,0-0.3,0-0.3-0.1
			c-0.2-0.4-0.8-0.6-0.6-1.2C60.7,167.4,60.9,167.2,61.1,167.4z M61.7,165.4c0.6-0.2,1,0.3,1.3,0.8c0.2,0.2-0.1,0.5-0.5,0.7
			c-0.5,0.2-0.7-0.3-1-0.6C61.3,165.9,61.3,165.5,61.7,165.4z M59.9,174.9c0.1,0.4-0.2,0.9-0.5,0.8c-0.4-0.1,0.1-0.4,0.2-0.7
			C59.6,175,59.8,174.9,59.9,174.9z M61.7,180.6c-1.2-0.1-1.9,1-3.3,1.6c1-2.3,3.1-2.7,4.7-3.8c0.3,0.8-0.3,1.1-0.4,1.6
			C62.6,180.5,62.4,180.7,61.7,180.6z M61.9,177c0.3,1.2-0.8,1.1-1.4,1.9C60.7,177.7,61.1,177.2,61.9,177z M63.5,167.4
			c0.2-0.3,0.2-0.7,0.7-0.8c0.3,0.4,0.1,0.7,0.1,1.1c-0.1,0.3-0.2,0.7-0.7,0.5C63.2,168,63.3,167.6,63.5,167.4z M65.6,167.1
			c0.4,0.9,0,1.4-0.7,2C64.8,168.1,65,167.7,65.6,167.1z M63,176.9c0-0.4,0.2-0.8,0.6-1c0.2-0.1,0.4-0.1,0.5,0.2
			c0.1,0.4,0,0.8-0.4,1C63.4,177.1,63,177.2,63,176.9z M72.8,162.4c-2.3,1.2-4.6,2.4-6.9,3.6c-0.3,0.1-0.7-0.1-1-0.6
			c2.7-0.9,4.8-3.1,7.7-3.4C72.7,162.1,72.8,162.2,72.8,162.4z M70,161.7c-2.1,1.3-4.2,2.3-6.6,3.4C64.5,163.4,67.6,162,70,161.7z
			 M62.9,163.7c1.7-1.1,3.3-2.3,5.3-2.6C66.4,161.8,64.7,162.9,62.9,163.7z M65.5,160.7c-1.1,0.8-2.1,1.7-3.8,2.1
			C62.8,161.2,64.1,160.9,65.5,160.7z M60.8,170c-0.6-0.3-1.2-0.4-1.3-1.2C60.5,168.7,60.5,169.6,60.8,170z M60.2,171.5
			c-0.9,0-1.1-0.4-1.2-1.3C59.9,170.4,60.1,170.9,60.2,171.5z M59.8,160.9c0.4-0.1,0.8,0.4,0.5,0.5c-1,0.4-0.2,1.5-1.1,2
			c-0.3-0.5-1.1-0.8-0.8-1.6C58.6,161.2,59.2,161,59.8,160.9z M57.7,162.4c0.2,0.6,0.4,1.3,0.7,2c-0.9,0.1-0.9-0.7-1.4-0.7
			c-0.2,0.5,0.4,0.9,0,1.4c-0.4,0.1-0.4-0.3-0.5-0.4C55.9,163.4,55.9,163.4,57.7,162.4z M56.3,166.6c-0.9-0.5-1.2-1.1-1.5-2.3
			C55.8,165,56.1,165.7,56.3,166.6z M118.1,242.2c-1.6,3-4.2,5.1-7.3,6.6c-2.7,1.3-5.3,0.7-7.8-0.3c-3.1-1.2-5.9-2.8-8-5.5
			c-0.4-0.5-0.7-1.2-1.6-1.2c2.4,4,5.4,6.1,12.3,8.6c-3,0.5-5.8,2.2-9,1.9c-0.4,0-0.9-0.1-1.3,0c-2.8,0.9-5.4,0.1-8-0.8
			c-2.7-0.9-5.3-2-8-3.1c-2.3-0.9-3.9-2.7-5.6-4.4c-2.6-2.6-5.1-5.4-6.8-8.7c-0.1-0.2-0.2-0.3-0.4-0.5c-0.1-0.1-0.2,0-0.6-0.1
			c0.9,2.4,2.6,4.1,3.9,6c1.4,1.9,3,3.6,4.8,5.3c-0.8,0.1-1.6-0.2-2-0.8c-3.5-4-7.2-7.7-10-12.3c-0.5-0.8-1-1.7-1.6-2.6
			c-0.5,1,0.2,1.6,0.5,2.2c2.5,4.3,5.7,8.1,9.3,11.5c0.3,0.3,0.8,0.4,0.8,1.2c-6.5-3.3-10.5-8.7-13.9-14.9c0,2.4,3.6,7.6,8.4,12.3
			c-1.2-0.2-1.8-0.7-2.4-1.1c-3.7-3.2-6.5-7.2-9-11.5c-0.2-0.3,0-0.9-0.5-1.1c-0.1,1.3,0,1.3,2.4,5.4c1,1.7,2.4,3.2,3.4,5
			c-3.7-2.9-6.3-6.7-8.8-10.7c1.4,4.1,4.2,7.3,7.1,10.7c-1.8-0.1-2.9-1-3.9-2.2c-1.8-2.1-3.7-4.2-4.8-6.8c-0.2-0.4-0.4-0.7-0.9-0.9
			c0.8,3.3,3.1,5.6,5.1,8.2c-1.5,0.1-2.6-0.2-3.7-1.2c-1.5-1.3-2.8-2.7-3.9-4.4c-0.4-0.5-0.7-1.2-1.8-1.6c1.5,2.5,3,4.5,5,6.4
			c-2.1-0.4-4.1-2.2-10.2-9.1c1.7,3.9,5,6.4,8.4,9.2c-1.9,0.5-3.6,0.3-5.2,0.3c-0.8,0-1.5-0.3-2.3-0.2c-2.6,0.3-4.4-1.1-6.1-2.6
			c-2.7-2.4-5.2-5-7.3-8.2c-0.5,0.7-0.2,1.2,0.1,1.5c2.5,3.2,5.1,6.5,8.7,8.7c0.1,0.1,0.2,0.2,0.4,0.4c-0.9,0.2-1.6,0.2-2.5-0.4
			c-4.2-2.6-7.3-6.2-9.6-10.6c-0.2-0.3-0.4-0.7-1.3-1c2.4,5,5.2,9.2,9.9,11.9c-0.1,0.5-0.5,0.5-0.8,0.4c-2.2-0.2-4.4-1-6.4-1.9
			c-1.1-0.5-1.5-1.8-2.1-2.8c-2.3-3.8-4-7.9-5.5-12.3c-0.5,1.9,1.1,6,5.4,13.8c-1.2,0.1-1.8-0.6-2.2-1.5c-1.8-3.8-3.8-7.5-4.9-11.6
			c-0.1-0.5-0.1-1-0.6-1.3c-0.2,1.4,0.4,3.8,1.5,6.4c0.9,2.1,2.1,4.1,3.1,6.2c-1.2,0.2-1.5-0.5-1.9-1.1c-2-3.5-3.5-7.3-4.6-11.2
			c-0.5-1.9-1.2-3.7-1.7-5.7c0.4,5.9,2.6,11.2,5.2,16.8c-1.8-1.1-2.4-2.7-3.1-4.1c-1.5-3.2-2.5-6.7-3.2-10.2
			c-0.1-0.5-0.3-0.9-0.5-1.4c-0.1,0-0.2,0-0.2,0c0,2.4,0.7,4.7,1.3,6.9c0.7,2.3,1.5,4.6,2.6,6.9c-1.1,0-1.5-0.8-1.9-1.5
			c-1.8-3.1-2.5-6.5-3.1-9.9c-0.4-2.1-1.2-4.1-1.2-6.3c0-0.2-0.2-0.3-0.6-0.7c0.1,4,1.3,7.5,1.7,11.2c-0.9-1.3-1.2-2.8-1.7-4.2
			c-0.5-1.6-0.7-3.3-1-4.9c-0.2-1.5-0.4-3.1-0.7-4.7c-0.5,1.9-0.1,3.7,0.1,5.5c0.3,2.9,1.2,5.7,2.2,8.5c0.4,0.9,0.7,1.8,1.6,2.4
			c0.6,0.4,0.8,1.1,0.9,2.2c-2-1.5-3.2-3.3-4.2-5c-2-3.3-2.5-6.9-2.7-10.6c-0.1-2.4-0.4-4.8,0.1-7.2c-0.9,1.2-0.9,1.2-0.9,5.3
			c0,1.8,0.1,3.7,0.2,5.5c-1-2.4-0.8-4.9-1-7.4c-0.1-1.4-0.1-2.8-0.2-4.2c-0.1-1.7,0.9-3.1,1.6-4.4c0.9-1.6,2.2-3.1,3.7-4.2
			c5.2-3.8,10.5-7.3,16.5-9.7c2.6-1.1,5.1-2.6,7.7-3.8c1.4-0.7,2.7-1.5,4.1-2c4.2-1.6,7.5-4.8,11.4-7c1.2-0.7,2.1-1.8,3.1-2.8
			c0.9-0.9,1.7-1.9,2.5-2.8c1.2-1.2,1.8-1,2.3,0.6c0.2,0.5,0,0.8-0.4,1c-2.3,1.8-4.5,3.9-6.6,6c-3.1,3-6.5,5.7-10,8.1
			c-3.1,2.2-6.5,4-10,5.6c-5.4,2.4-10.3,5.5-14.9,9.2c-0.2,0.1-0.3,0.3-0.4,0.4c-1.1,1.1-2.1,2.3-1.5,4c0.7,1.9,1.8,3.4,4.1,3.7
			c2.5,0.4,4.7-0.5,6.7-1.7c4.6-2.7,8.8-5.9,12.8-9.4c1.5-1.3,2.9-2.6,4.4-3.9c0.6-0.5,1.1-1,1.4-1.8c-7.2,5.4-13.7,12-22.3,15.6
			c-0.4-1.2,0.5-1.7,1-2.3c0.9-1.3,2.1-2.4,3.1-3.6c0.6-0.8,1.6-1.3,2.6-1.6c0.8-0.2,2.1,0,2.2-1.5c0-0.3,0.6-0.3,0.9-0.3
			c1.3-0.3,2.6-0.6,3.9-0.9c0.4-0.1,0.6-0.2,0.8-0.7c-1.4-0.6-2.7,0.6-4.4,0.1c2.5-0.8,4.6-1.5,6.7-2.2c0-0.2-0.1-0.3-0.1-0.5
			c-1.8-0.1-3.4,1.1-5.2,1.1c0.8-0.6,3.9-2,5.1-2.3c1.8-0.5,3.6-0.8,5.3-1.7c-2.3-0.4-4.3,1-6.9,1.1c1.8-1.2,3.7-1.4,5.4-2
			c1.7-0.6,3.3-1.3,5-2.1c-2.4-0.2-4.3,1.4-7,1.6c3.4-1.9,7.1-2.4,10.3-4.4c-1.8-0.6-2.9,1.2-4.5,0.8c2.5-1.5,5.2-2.1,7.6-3.4
			c-0.1-0.7-0.9-0.2-1.2-0.6c0,0,0,0-0.1,0c0,0,0,0,0,0c-0.3,0.4-0.7,0.6-1.2,0.7c0.3-0.5,0.7-0.6,1.2-0.7c0,0,0,0,0.1-0.1
			c0,0,0,0,0,0c1.2-0.5,2.5-0.5,3.6-1.7c-1.4-0.5-2.4,0.8-3.7,0.5c1.4-0.9,3.1-1.1,4.6-2.1c-1.1-0.6-1.9,0.1-3.1,0.3
			c2.3-1.9,4.9-2.3,7.1-3.6c-1.3-0.4-2.2,0.3-3.4,0.5c0.8-0.7,1.8-0.7,2.5-1.2c0.9-0.6,1.5-0.2,2.2,0.4c1.1,1,1.1,1,0,2
			c-0.2,0.2-0.6,0.4-0.6,0.6c-0.1,2.4-1.9,4-3,5.8c-1.9,3.2-4.2,6.2-6.2,9.4c-1.9,2.9-4.5,5.2-6.6,7.8c-2.4,3-4.9,5.9-7.3,8.9
			c-0.9,1-1.6,2.1-1.6,3.6c0,0.1-0.1,0.3-0.1,0.4c0.1,0.8-1.2,1.5-0.8,2c0.6,0.6,0.7,1.3,1.1,1.9c0.6,0.7,0,1.9,0.8,2.3
			c2.1,1.1,4.2,2.1,6.6,1.8c3.9-0.5,7-2.3,9.9-4.9c3.4-3.1,4.6-7.1,5.6-11.4c0.4-2,1-3.9,1.7-5.8c1.3-3.5,2.1-7.1,3.5-10.5
			c0.7-1.7,0.9-3.5,1.7-5.1c0.5-1.1,1-2.3,1.8-3.4c1.8,0.5,3.4,1.4,5.3,1.8c0.2,0,0.5,0.2,0.5,0.3c-0.3,1.6,1,2.9,0.6,4.7
			c-0.7,3.1-0.8,6.3-1.1,9.5c-0.1,0.5-0.1,1-0.3,1.4c-0.4,0.9-1,1.7-0.1,2.6c-0.3,2.4,0.1,4.9-0.6,7.2c-0.2,0.5-0.5,0.9,0.3,1.4
			c0.5,0.3,0.3,1,0.2,1.6c-0.4,3.1,0.5,6.1,0.7,9.2c0,0.8,0.5,1.5,1.1,2c2.9,2.6,6.5,4.4,11.1,2.6c2.5-0.9,3.5-2.7,2.9-5.2
			c-0.1-0.5-0.2-1.1-0.5-1.6c-1.7-3.3-1.9-7-2.7-10.5c-0.7-3.2-2-6.2-3.1-9.3c-0.2-0.6-0.5-1.2-0.5-1.8c-0.2-3.5-1.4-7-0.9-10.8
			c-1.3,0.5-0.7,1.9-1.4,2.6c0,0,0,0,0,0c0,0,0,0,0,0c0.1,0.1,0.1,0.2,0.1,0.3c0.1,1.1,0.1,2.2,0.2,3.3c-1.3,0.3-2.1,1.4-3.6,2.2
			c0.9-1.3,1.7-2.1,2.4-3c-1.3,0-1.8,1.1-2.8,1.7c0.4-1.2,0.6-1.4,1.7-2.6c0.6-0.6,1.5-1,1.8-1.9c0,0,0,0,0,0c0,0,0,0,0,0
			c-0.6-0.2-1,0.2-1.4,0.5c-0.5,0.5-0.9,1-1.7,1.3c0.5-1.9,2.4-2.6,3.4-4c-0.5-0.6-0.8,0.2-1.3-0.2c0.4-1.2,1.9-1.2,2.6-2.3
			c-1-0.5-1.6,0.5-2.4,0.7c-0.2-0.9,0.6-1.1,1.1-1.5c0.4-0.4,1.2-0.6,0.7-1.4c0,0,0,0,0,0c0,0,0,0,0,0c-0.3,0.2-0.5,0.3-0.8,0.5
			c-0.3,0.2-0.6,0.6-1,0.2c0,0-0.1-0.1-0.1-0.2c0-0.5,0.4-0.7,0.8-0.7c0.4,0,0.8-0.1,1.1,0.2c0,0,0,0,0.1,0c0,0,0,0,0,0
			c0.2-0.5,0.9-0.4,1.1-0.8c-1.8-0.8-1.8-0.8-3.2-0.5c0.8-1.4,2.7-0.9,3.6-2.4c-1.4,0.5-2.5,0.5-3.4-0.5c1.5-0.1,2.9-0.3,4.2-0.4
			c1-0.1,1.4,0.5,1.1,1.3c-0.4,1,0,1.7,0.4,2.5c3,6.5,6,13,8.7,19.7c1.5,3.8,3.5,7.4,5.8,10.8c0.4,0.6,0.8,1.3,1.4,1.8
			c1.5,1.3,2.5,3,3.5,4.7c1.7,3.2,4.5,4.4,7.9,4.3c1.5,0,3.1,0.3,4.3-1c0.3,0.6-0.3,1-0.1,1.5c0.2,0.1,0.4,0,0.5-0.2
			c1.5-3.2,2.5-6.7,3.2-10.1c0.1-0.3,0-0.6,0.3-0.8c0.7,1.2,0.9,2.4,0.5,3.9c-1.1,4.1-3,8-4.9,11.8c-0.5,0.9-0.9,1.9-1.2,2.9
			c1.8-2.1,2.8-4.7,4-7.1c1.3-2.5,2.1-5.1,3-7.8c0.9,1.4,0.9,1.4,0.5,2.6c-1.4,4.3-3.2,8.5-5.4,12.5c-0.1,0.2-0.1,0.4-0.1,0.6
			c2.8-3.6,4.3-7.8,6-12.3c0.7,1.6,1,2.7,0.5,4.2c-1.3,3.7-3.4,7-5.4,10.4c-0.1,0.2-0.4,0.4-0.3,1.1c2.7-3.6,4.9-7,6.3-11.2
			c0.6,1.3,0.5,2.3,0,3.4c-1,2.1-2,4.3-3,6.4c-0.3,0.6-0.7,1.2-0.7,1.9c-0.9,1.1-1.7,2.2-2.2,3.9c1.4-1.2,2.1-2.4,2.5-3.8
			c1.6-2.3,2.5-4.9,3.9-7.7c0.8,2.9,0.4,5.2-1.1,7.5c-1.3,1.9-2.5,3.8-3.6,5.8c-0.6,1.1-0.8,1.2-1.9,0.6c-0.9-0.5-1.8-1.1-2.4-2.3
			c-0.3,1.2,0.2,1.9,1,2.3c1.4,0.6,2,1.5,1.5,3c0,0,0,0,0,0c1-1.7,1.1-1.7,3.4-1.1c-0.3,0.5-0.5,1.1-1.3,1c-0.7-0.1-1.4,0.1-2,0.2
			c0,0,0,0,0,0c0,0,0,0,0,0c0,0,0,0,0,0c-0.7-0.1-1.5-0.2-2.2-0.5c-1.3-0.4-2.8-0.6-3.4-2.1c-0.1-0.3-0.3-0.3-0.5-0.2
			c-0.2,0.1-0.3,0.3-0.3,0.5c0.1,0.7,0.5,1.1,1.1,1.4c1.6,0.8,3.2,1.4,5,1.4c0.7,0,1.4-0.2,2.1,0.1c-0.8,1.8-0.9,1.9-2.7,1.6
			c-2-0.3-3.9-1-5.8-1.8c-0.9-0.4-1.9-0.9-1.8-2.5c-1,2.1-1,2.1,0.5,2.8c2.4,1,4.7,2.1,7.4,2.3c0.5,0,0.7,0.3,1.1,0.5
			c0.9-0.6,1.7-1.2,2.2-2.3c0.5-1.2,1.5-2.1,2.7-3.2C119.6,239.9,118.7,241.1,118.1,242.2z M47.1,176.7c-0.1,0.1-0.1,0.2-0.2,0.3
			c-0.1,0.1-0.2,0.1-0.4,0.2c0.1-0.1,0.1-0.2,0.2-0.3C46.9,176.8,47,176.7,47.1,176.7z M24.6,192.7c-0.3,0.4-0.7,0.6-1.2,0.7
			C23.7,193.1,24.1,192.9,24.6,192.7z M18.9,196.1c1.4-1.2,2.8-1,4.1-1.4C21.9,195.6,20.6,195.8,18.9,196.1z M21.2,197.7
			c-0.3,0.8-0.6,1.4-1.6,1.4C19.8,198.2,20.5,198.1,21.2,197.7z M12.9,199.2c0.7-1.6,1.7-2.2,3-2.5
			C15.4,197.9,14.6,198.8,12.9,199.2z M12.8,201.1c-0.1,0.2-0.3,0.3-0.5,0.1c-0.3-0.4-0.2-0.8,0-1.1c0-0.1,0.4,0,0.5,0.1
			C13.2,200.5,13,200.8,12.8,201.1z M18.2,198.4c-0.8,1.8-2.3,1.8-3.9,2.5C15.2,199.1,16.8,199.1,18.2,198.4z M15,202.9
			c1.1-1,1.9-2.4,3.8-2.4c-0.4,1.3-1.4,2.2-1.9,3.3c-0.3,0.6-0.8,0.5-1.3,0.5c-0.3,0-0.7,0-0.9-0.4C14.6,203.4,14.8,203.1,15,202.9z
			 M37,210.3c-0.3,1.1-0.3,1.9-1.2,2.3c-0.4,0.2-0.8,0.8-1.2,0.3c-0.4-0.5-0.3-1.2,0.3-1.6C35.5,211,36.1,210.8,37,210.3z M37,209.1
			c0.1-0.1,0.2,0,0.4-0.1c-0.2,0.3-0.5,0.4-0.8,0.5C36.5,209.2,36.8,209.2,37,209.1z M35.8,213.7c0.2-0.1,0.4-0.1,0.5,0.2
			c0,0.3,0,0.7-0.4,0.9c-0.3,0.1-0.6,0-0.7-0.3C35.1,214,35.5,213.8,35.8,213.7z M37.2,207.9c0-0.6,0.2-1,0.6-1.2
			c0.2-0.1,0.4-0.1,0.5-0.1c0.2,0.2,0.1,0.5-0.1,0.6C38,207.5,37.7,207.6,37.2,207.9z M80.2,218.1c-1.6-1-1.7-3-2.7-4.3
			c-0.5-0.7,0.6-1.1,0.7-1.9c-0.5-0.2-0.9,0.5-1.2,0c-0.2-0.3-0.1-0.6,0.1-1c0.4-0.6,0.9-1.1,1.4-1.6c0.3-0.3,0.7-0.5,0.5-1.1
			c-1-0.2-1.3,1.1-2.2,1.2c0-1.5,1.6-1.9,2.3-3c-1.1-0.1-1.1-0.1-2.3,0.6c-0.3-0.9,0.4-1.4,0.9-1.9c0.4-0.5,1.3-0.5,1.5-1.4
			c-0.9-0.3-1.5,0.5-2.3,0.7c0-1.5,1.4-2,1.8-3.2c-1.3-0.4-1.6,0.8-2.2,1.4c-0.6,0.7-1.2,1.5-1.9,2.1c0.7-2.6,2.9-4.2,4.6-6.7
			c-2.5,0.8-3.1,3.1-4.8,4.1c-0.2-0.9,0-1.5,0.4-2.1c0.8-1.1,1.5-2.2,2.5-3.1c1.3-1.2,1.7-1.1,2.3,0.5c1.5,3.8,2.4,7.7,3.1,11.7
			c0.2,1.5,0.6,2.8,1.2,4.2c0.6,1.3,0.9,2.7,0.7,4.3c-0.3,2.1-2.3,3-3.9,1.8c-0.3-0.2-0.2-0.5-0.1-0.7
			C80.6,218.6,80.5,218.3,80.2,218.1z M76.5,218.1c-0.1-0.2-0.2-0.2-0.2-0.3c0-0.5,0-1.1,0.6-1.3c0.1,0,0.3,0.1,0.3,0.2
			C77.4,217.4,77.1,217.7,76.5,218.1z M76.1,215.9c-0.1,0.1-0.3,0.1-0.3,0.1c-0.3-0.3-0.2-0.6,0-0.9c0.1-0.2,0.3-0.2,0.5,0
			C76.6,215.4,76.4,215.7,76.1,215.9z M74.8,219.2c-1.3-0.4-1.3-0.4-1.8-1.8C73.4,218.2,74.6,218.2,74.8,219.2z M78,195.5
			c-1.3,0.8-2,2.3-3.4,3.1c-0.3-2.2,1.5-3.1,2.6-4.6c-0.7-0.6-1.3-1.2-1.9-1.9c-1.1,0.5-1.8,1.5-2.8,2.3c0.1-1.9,1.9-3.9,4.6-5.4
			c0.6,2,0.4,3.9,1.1,5.7C78.3,195,78.3,195.3,78,195.5z M73.1,204.3c-0.1,0-0.2-0.1-0.3-0.1c-0.1-0.2-0.2-0.5-0.1-0.8
			c0.2-0.3,0.4-0.2,0.5,0.1C73.3,203.7,73.3,204,73.1,204.3z M73.1,200.8c-0.1-0.1-0.3-0.1-0.3-0.2c-0.1-0.6-0.2-1.2,0.6-1.5
			C73.4,199.8,73.4,200.3,73.1,200.8z"/>
		<path class="st0" d="M114.7,243.7C114.7,243.6,114.7,243.6,114.7,243.7C114.7,243.6,114.7,243.6,114.7,243.7L114.7,243.7z"/>
		<path class="st0" d="M90.9,251.1c-5.4-3-9.6-7.2-13.5-11.8C80.6,244.7,85,248.8,90.9,251.1z"/>
		<path class="st0" d="M81.2,241c4,4,7.6,8.5,13.6,9.8c-5.5-2.5-9.9-6.3-13.5-11.3C81,240.2,80.9,240.6,81.2,241z"/>
		<path class="st0" d="M95.6,240c2,4.1,10.1,8.1,14.3,7C104.3,246,99.5,244,95.6,240z"/>
		<path class="st0" d="M85.2,239.6c3.4,5.1,8.2,8.4,14.1,10.1c-2.5-1.4-5.1-2.7-7.5-4.3C89.3,243.7,87.4,241.5,85.2,239.6z"/>
		<path class="st0" d="M82.6,248.3c-4.2-3.4-8.3-7-11.2-12.1C71.8,239.5,79.1,247.3,82.6,248.3z"/>
		<path class="st0" d="M114.7,243.7C114.7,243.7,114.7,243.6,114.7,243.7C114.7,243.7,114.6,243.7,114.7,243.7
			C114.7,243.7,114.7,243.7,114.7,243.7z"/>
		<path class="st0" d="M101,240.3c0.6,1.7,2.2,2.2,3.4,3c1.9,1.2,4,1.9,6.3,1.8c1.4-0.1,2.9,0.1,3.8-1.4
			C109.5,245.3,105.1,243.4,101,240.3z"/>
		<path class="st0" d="M44.7,236.4c-1.5-1.5-3.1-2.7-4.7-4.1c-1.6-1.4-2.4-3.4-4.3-4.5C38.1,231.4,40.6,234.8,44.7,236.4z"/>
	</g>
	<g>
		<path class="st0" d="M277.5,225.5c-0.2-3.7-1.2-7.1-2.9-10.2c-2-3.7-4.2-7.3-6.8-10.6c-2.1-2.7-4.7-5.1-6.9-7.8
			c-2.8-3.3-5.8-6.4-9.8-8.3c-3-1.5-5.9-3.5-7.2-6.5c-2.5-5.9-4.5-12-3.5-18.5c0.2-1.2-0.1-2.4-0.9-3.4c-2.3-3-9.4-5.5-13.6-4.5
			c-3.1,0.7-5.9,0.2-8.6-1.4c-1.1-0.6-2-1.4-2.9-2.2c-2-1.9-4.3-2.4-7-1.9c-1.9,0.4-3.6,1-5.1,2.3c-0.5,0.4-0.9,1.1-1.7,0.8
			c-2-0.8-3.9,0-5.8,0.1c-2.5,0.1-4.6,1-6.2,3.1c-0.8,1.1-0.9,1.8,0,2.6c1.9,1.8,2.1,4.1,2.3,6.4c0.2,2-0.5,3.9-1,5.8
			c-1.2,4.9-3.2,9.4-6,13.6c-3.6,5.4-8,10.2-12.8,14.8c-1.4,1.6-2.8,3.4-4.5,4.9c-4.1,3.7-6.9,8.3-9.4,13.2
			c-3.6,7.2-3.2,14.1,0.4,21c3.5,6.8,9,11.4,15.7,14.8c2.8,1.5,5.9,2.5,8.6,4.3c4.6,3,10.1,4,15,6.2c2.5,1.1,5.2,1.5,7.8,2.2
			c3.4,0.9,6.8,1.8,10.4,1.7c8-0.3,15.6-2,23-5c4.1-1.6,8.1-3.4,12.2-5c1.7-0.6,3.3-1.4,4.9-2.2c4.5-2.1,8.1-5.4,12.1-8.2
			c2.8-1.9,5.3-4.1,7.5-6.8c1-1.3,1.7-2.6,2.1-4.2C277.8,232.9,277.7,229.3,277.5,225.5z M236.3,160.8c0.9,0.7,1.4,1.6,1.1,2.6
			c-0.2,0.8-1.3,0.5-2,0.6c-1.6,0.2-3.1-0.1-4.6-0.9c-1.9-0.9-3.9-1.6-5.8-2.4c1.6-0.7,3,0.2,4.5,0c1.4-0.2,2.8-0.5,4.1-0.7
			C234.7,160,235.5,160.2,236.3,160.8z M233.1,179.7c0.3,1.1-0.7,2.8,1.5,3c0.4,1.6,0.6,3.2,0.2,4.7c-0.6,2.5-0.3,5.1-0.5,7.6
			c-0.1,2.3,0.6,4.6,0.9,6.9c0.1,0.6,0.4,1.3-0.1,2.2c-2.1-5-3.3-18.5-2.5-26.2C233.5,178.4,233,179.1,233.1,179.7z M233.6,165.6
			c1.5,0.8,0.7,1.7,0.2,2.6C233.4,167.4,233.2,166.6,233.6,165.6z M235.5,194.4c1.3,1.9,2,6.2,1.4,9
			C236,200.5,235.8,197.6,235.5,194.4z M222.2,157.3c1.5,0.3,2.9-0.2,4.4-0.5c2.6-0.6,4.9,0.4,7.7,1.5c-2.9,0.7-5.2,1.4-7.7,0.5
			c-2-0.7-4,0-6.1-0.3C220.7,157.6,221.3,157.1,222.2,157.3z M219.8,156.6c-0.6,1.2-1.1,2-2.6,2.2
			C217.7,157.5,218.1,156.6,219.8,156.6z M217.3,155.6c0,0.6,0,0.7,0,0.8c-0.3,0.7-0.8,1.2-1.5,1.4c-0.1,0-0.3-0.3-0.3-0.4
			C215.6,156.5,216.2,156.1,217.3,155.6z M215.3,160.3c0.2-0.3,0.5-0.5,0.9-0.2c0.2,0.2,0.2,0.5,0,0.7c-0.3,0.3-0.7,0.4-1,0.2
			C215,160.9,215.2,160.6,215.3,160.3z M215,162.5c0.4,0.3,0.8,0.4,0.8,0.5c0,1.7,0.5,3.5,0.2,5.1c-0.8,4.3-2.1,8.5-3.2,12.8
			c-0.1,0.3-0.1,0.8-0.7,0.9C212.6,175.4,215.7,169.3,215,162.5z M213,154.2c0.3-0.1,0.4-0.6,0.8-0.4c0.3,0.1,0.1,0.5-0.1,0.7
			c-0.2,0.2-0.5,0.6-0.9,0.4C212.6,154.6,212.7,154.4,213,154.2z M214.4,158.6c0.2,1.5-0.9,1.9-2,3.1
			C212.5,159.8,213.3,159.2,214.4,158.6z M210.2,152c0.3-0.2,0.6-0.4,1-0.2c0,0.2,0,0.3,0,0.4c-0.2,0.3-0.6,0.5-0.9,0.4
			C209.8,152.4,210,152.2,210.2,152z M209.3,158.6c0.7-0.9,0.9-2.4,2.8-2.7c-0.6,1.3-1,2.3-1.5,3.2c-0.2,0.3-0.2,1-0.9,0.6
			C209.3,159.5,208.9,159,209.3,158.6z M189.4,178.1c0.1-0.1,0.2-0.1,0.3-0.1c0,0.1,0.1,0.1,0.1,0.2c0,0.5,0,1-0.4,1.3
			c-0.2,0.2-0.6,0.1-0.6-0.2C188.7,178.8,189.1,178.4,189.4,178.1z M176.4,251.9c-0.2-0.1-0.3-0.1-0.4-0.2c-0.2-0.4-0.5-0.8-0.6-1.2
			c-0.1-0.2,0.2-0.4,0.3-0.2c0.3,0.3,0.5,0.7,0.8,1.1C176.6,251.5,176.5,251.6,176.4,251.9z M178.6,252.8c1.9,0.3,4.1-0.1,5.2,2.3
			C181.7,254.8,179.9,254.4,178.6,252.8z M182.8,256.4c1.5,0.1,2.2,0.4,2.8,1.2C184.7,257.7,183.9,257.3,182.8,256.4z M185,253.7
			c1.4,0.1,2.8-0.1,3.2,1.8C185.6,255.7,185.6,255.7,185,253.7z M187.2,257.2c1.8,0.4,2.6,1.5,4.3,2.1
			C189.1,259.9,188.8,259.7,187.2,257.2z M189.5,254.5c1.3,0.3,2.6,0.2,3.1,2C190.8,256.7,189.9,256.2,189.5,254.5z M192.7,259.9
			c1.8-0.4,2.8,0.5,3.6,1.8C195,261.4,193.5,261.4,192.7,259.9z M194.3,255.9c0.1-0.1,0.5,0.1,0.7,0.1c0.3,0.3,0.5,0.6,0.2,0.9
			c-0.1,0.1-0.5-0.1-0.6-0.2C194.3,256.5,193.8,256.3,194.3,255.9z M196.8,256.6c1.4-0.3,2.5,0,3.7,0.7
			C198.4,257.8,198.4,257.8,196.8,256.6z M200.7,263.5c-1.5-0.3-2.8-0.8-3-3.1c1.3,1,2.3,1.8,3.4,2.6
			C201,263.2,200.8,263.4,200.7,263.5z M200.6,255.8c1.3-0.2,2-0.5,2.6,0.6C202.3,256.7,201.7,256.4,200.6,255.8z M201.3,261.3
			c1.3-0.3,1.7,0.7,2.3,1.5C202,262.6,202,262.6,201.3,261.3z M204.5,256.8c-0.1-0.2,0-0.5-0.1-0.7c0.9,0.1,2-0.3,2.9,0.6
			c-0.3,0.3-0.4,0.4-0.4,0.4C206.2,256.9,205.2,257.9,204.5,256.8z M205.2,262.4c1.4,0.8,1.4,0.8,2,2.4
			C206.1,264.3,205.6,263.4,205.2,262.4z M205.8,259.6c0-0.3,0.2-0.5,0.5-0.5c0.8-0.3,1.6-0.5,2.2,0.5c0.2,0.4,0.5,0.8,0.3,1.6
			c-0.6-0.1-1.1-0.2-1.5-0.2C206.5,260.9,206,260.4,205.8,259.6z M208.2,263.1c2.3-0.4,3.2,1.4,4.5,2.7
			C210.2,266.3,209.9,266.1,208.2,263.1z M210.6,255.1c0.2-0.2,0.5-0.1,0.8-0.2c6.5-0.6,12.8-2.1,19.1-3.3c0.8-0.2,1.6-0.2,3-0.4
			c-3,2.8-5.4,5.4-9.5,5.4c-4.1,0-8.2,0.4-12.2-0.8c-0.4-0.1-0.7,0.2-1,0.4c0,0,0,0,0,0c0,0,0,0-0.1,0c-0.1,0.4-0.2,0.7-0.6,0.8
			c-0.3,0.1-0.7,0-1.1-0.3c0.6-0.2,1.1-0.3,1.7-0.5c0,0,0,0,0,0c0,0,0,0,0,0C210.6,255.8,209.7,255.7,210.6,255.1z M237.9,250
			c-1.1,3.2-4.1,5.3-7.8,5.5C232.8,253.8,234.6,250.9,237.9,250z M228.4,258.4c-0.7,0.5-1.3,0.3-2.3,0.2
			C227,258,227.6,257.7,228.4,258.4z M223.4,258.7c-1.5,0.2-3,1.1-4.5,0.1C220.4,258.7,221.9,258.7,223.4,258.7z M213.7,258.6
			c1.5,0,2.8,0,4.3-0.1c-0.6,1.3-1.5,0.9-2,1.4c0.3,0.6,0.8,0.4,1.2,0.4c0.7,0,1.4,0.2,1.4,1c0,1-0.9,1-1.7,1
			C214.7,262.3,214.6,260.3,213.7,258.6z M213.7,261.6c-3,0.1-3,0.1-4-3C212.9,258.3,212.9,258.3,213.7,261.6z M213,264
			c1.7,0.1,2.6,1.2,4.2,1.6C214.2,266.4,214.2,266.4,213,264z M218.9,266c-0.4,0-0.8-0.2-0.8-0.6c-0.1-0.5,0.3-0.6,0.7-0.6
			c0.9,0,1.8,0,3.2,0C220.8,265.6,219.9,266.1,218.9,266z M220.5,262.1c2.2-2.8,5-2.1,8-2.3C226.2,262.7,223.5,262.3,220.5,262.1z
			 M224.3,264.8c1.6-0.9,3.3-1.3,5.6-1.3C228,265,226.2,265.1,224.3,264.8z M228.7,261.6c1.6-2.3,3.5-2.5,5.5-2.2
			C232.7,260.5,231.2,261.4,228.7,261.6z M233.3,257.7c1.1-0.8,2.2-1.3,3.8-1.3C236.1,258.2,234.5,257.7,233.3,257.7z M236.5,254
			c2.3-1.9,3.4-5.3,7.4-5.7C241.9,251.2,240.5,254.2,236.5,254z M239.1,256.5c0.7-1.5,1.9-1.4,3.4-2.1
			C241.5,256.1,240.4,256.2,239.1,256.5z M242.5,259.2c0.9-0.7,1.6-1.3,2.8-1.2C244.6,258.7,243.9,259.4,242.5,259.2z M245.7,254.1
			c0.4-1.2,1.4-1.5,2.8-2C247.8,253.3,247.2,254.1,245.7,254.1z M249.9,256.5c0.3-0.9,1-0.8,1.6-1
			C251.2,256.3,250.6,256.2,249.9,256.5z M250.7,252.1c0.4-1.5,1.6-1.7,2.7-2C252.8,251.4,252.1,252.2,250.7,252.1z M253.6,253.1
			c0.7-1.2,1.3-1.5,2.1-1.4C255.5,252.7,254.6,252.6,253.6,253.1z M256,250.1c1.6-2.7,3.6-3.9,5.9-5.4
			C261.3,247.9,258.9,248.8,256,250.1z M268.1,244.7C268.1,244.7,268.1,244.7,268.1,244.7c-1,1.6-1.5,2-4.4,3.6
			C265.4,246.7,266.1,245,268.1,244.7C268,244.7,268,244.7,268.1,244.7C268.1,244.7,268.1,244.6,268.1,244.7c-0.4-1-0.1-1.8,0.5-2.6
			c0.8-1.2,1.5-2.4,2.2-3.6c0,0,0,0,0,0c0,0,0,0,0.1,0c0.6-1.1,1.2-2.2,2-3.7c0.2,2.1-0.3,3.2-2,3.7c0,0,0,0,0,0c0,0,0,0,0,0
			c0.4,0.2,1.2,0.2,0.8,1c-0.5,1.1-1.1,2.1-1.9,3C269.1,243.2,268.4,243.7,268.1,244.7C268.1,244.6,268.1,244.7,268.1,244.7z
			 M263.3,245.9c0.8-1.9,1.6-3.6,4-4.3C266.4,243.7,265.4,245.2,263.3,245.9z M276,234.3c-0.5,3.3-1.8,6.1-5.1,8.2
			c1.4-2,2.7-3.8,3.2-5.9c0.5-2,1-4.1,1.6-6.4c-2.8,2-4.4,4.4-5.5,7.2c-0.6,1.5-1.7,2.7-3.5,3.2c0.6-2.2,2.2-3.7,3-6.2
			c-1.7,1-2.2,2.4-3,3.4c-0.7,1-1.3,2.1-1.9,3.2c-0.6,1.1-1.4,1.6-2.6,2c0.1-1.6,1.7-2.6,1.5-4.7c-1.3,1.8-2.4,3.2-3.4,4.7
			c-1,1.5-2.2,2.7-4.5,3.1c1.7-1.8,2.8-3.5,3.8-5.3c-0.8-0.5-1.1,0.2-1.4,0.6c-1.3,2-3.1,3.6-4.6,5.4c-1,1.2-2.2,2-4.1,2.4
			c1.4-2.1,3.3-3.5,4.1-5.7c-1.7,1.2-3.1,2.6-4.4,4.2c-1.5,1.9-2.9,4-5.5,4.6c-0.2,0.1-0.5,0-1.2,0c2-2.3,3.1-5,5.8-6.3
			c0.5-0.2,0.5-0.3,0.3-0.9c-0.3-0.7-0.4-0.6-0.9-0.3c-2.2,1.7-4.9,1.9-7.4,2.6c-4.6,1.2-9.3,2.2-13.9,3.5c-1.4,0.4-3,0.4-4.4,0.7
			c-3.9,0.8-7.7,2.3-11.8,2.4c-1.6,0-3,0.2-3.7-1.9c-0.3,1,0,2.1-1.6,2c-1.1-0.1-1.8-0.3-2.1-1.4c-0.2-0.7-0.5-1.4-0.8-2.2
			c2.3-0.6,4.6-0.4,6.8-0.5c6.4-0.3,12.7-0.7,19-2.1c1.6-0.4,3-1.2,4.4-2c-0.6-0.8-1.1-0.6-1.5-0.5c-6.7,1.1-13.5,1.3-20.2,1.8
			c-2.5,0.2-5,0.2-7.3,1.6c-1.3,0.8-3.3,0.6-4.8,1.3c-0.9,0.4-0.3,0.6,0.2,0.7c0,0,0,0,0-0.1c0,0,0,0,0,0.1c2.9-0.3,2.9-0.3,3.5,3.2
			c-1.1,0.4-2.2,0.5-2.6-1c-0.2-0.8-1-1.3-0.9-2.2c0,0,0,0,0,0c0,0,0,0,0,0c-0.3,1-0.5,1.9,0.1,2.9c-3.8,0-4.1-0.2-4.8-3.8
			c-0.2-1-0.5-1.9-1.5-3.1c0.1,2.2,0.8,3.7,1.1,5.3c0.1,0.3,0.2,0.8-0.2,1c-0.5,0.3-1,0-1.3-0.3c-1-1.4-1.5-3-1.9-4.6
			c-0.4-1.4-0.8-2.8-1.3-4.2c-0.5,3.1,0.9,5.7,1.7,8.5c-2.2,0.3-2.2,0.3-2.9-1.6c-0.8-2.2-1.4-4.4-2.9-6.9c0.1,3.1,1.8,5.4,2.1,8.2
			c-2-0.6-3.6-0.8-4.4-2.9c-0.6-1.6-0.9-3.4-1.7-5c-0.3,1.8,0.3,3.4,0.4,5.1c-2.3-4.1-3.7-8.4-4.9-12.9c-0.5,2.4,0.4,4.7,1.1,6.9
			c0.6,2.2,1.6,4.3,2.5,6.6c-2.1,0.1-2.9-1-3.6-2.6c-1.8-4.3-2.9-8.8-4.3-13.3c-0.1,5.1,2.2,9.8,3.6,14.6c-1.3-0.1-1.9-0.6-2.4-1.5
			c-0.7-1.2-1.3-2.5-1.6-3.9c-0.9-3.2-2.1-6.2-2.5-9.6c-1.4,2.4,0.8,9.8,5.4,18.4c-2.3-0.6-3.4-2.1-4.1-3.9
			c-1.9-4.8-3.9-9.6-4.4-14.7c0-0.5-0.1-0.9-0.2-1.6c-1,1.2-0.7,2.3-0.6,3.3c0.6,4,1.8,7.9,3.4,11.6c0.2,0.4,0.3,0.9,0.5,1.4
			c-1.6-1.4-3.2-4.7-4.3-9.1c-0.9-3.3-2.3-6.6-2-10.1c-1.4,6.3,1.8,11.7,3.4,17.5c-3.4-2.5-5.5-5.8-7.3-9.4
			c-0.4-0.8-1.3-1.7-0.4-2.8c0,0,0,0-0.1,0c0,0,0,0,0-0.1c-0.5-0.3-1-0.7-1-1.4c0.8,0.2,1,0.7,1,1.4c0,0,0.1,0,0.1,0.1c0,0,0,0,0,0
			c1.1,0.4,1.6,1.3,1.9,2.4c0.3,1.1,0.5,2.4,2,3.3c-1.7-5.3-2.6-10.3-3.1-15.5c-0.8,2.6-0.1,5.1-0.2,7.7c-0.5-0.9-0.9-1.7-1.1-2.7
			c-0.2-1.2,0.1-2.6-0.9-3.7c-0.5-0.6,0-1.6,0.2-2.4c1.8-6.9,5.4-12.7,10.4-17.7c4.5-4.4,8.8-9,13-13.7c1.6-1.8,2.7-4,4.9-5.8
			c-0.8,2.5-1.9,4.4-3.3,6.2c-2.6,3.3-4.9,6.9-7.3,10.3c-1.7,2.5-4,4.6-6.2,6.5c-2.5,2.1-2.7,5-3.7,7.7c-0.2,0.5,0.1,0.9,0.7,1
			c0.4,0.1,0.8-0.2,0.9-0.6c0.5-3.2,3.2-4.2,5.4-5.6c1.4-0.9,2.6-2.1,3.6-3.5c2.1-2.9,4.4-5.7,6.6-8.4c5.5-6.6,9.6-13.8,12-22.1
			c0.9-3.1,0.3-6.2,0.2-9.3c0-2.2,0-4.3-0.3-6.5c-0.3-2,0.7-3,2.3-3.5c1-0.3,1.9-0.8,2.9-0.8c0,0.2,0.1,0.5,0,0.5
			c-2,1.1-2.4,3-2.7,5c-0.6,4.8-0.8,9.5-0.5,14.3c0.2,4,0.4,8.1,0.1,12.1c-0.3,4-2.2,7.5-4.9,10.2c-2,2-3.9,4.1-5.5,6.4
			c-2,2.7-4.3,4.9-7.4,6.3c-2.4,1.1-4.2,3.1-6,5.1c-2.1,2.3-1,6,2.2,6.8c2.4,0.7,4.8,0.7,7.1-1.3c7.3-6.5,12.7-14.2,15.9-23.5
			c1.3-3.9,2.6-7.9,3.2-11.9c0.3-2.2,0-4.5-0.5-6.8c-1.4-7.1-1.4-14.2,0.2-21.2c0.8-3.5,2.8-3.5,5.4-1.6c0.7,0.5,1.1,1.3,1.7,1.9
			c0.4,0.5,0.6,0.8,0.2,1.5c-1.6,3.2-1.7,6.7-2.4,10.1c-1.3,6.6-1.1,13.3-2.1,19.9c-0.3,2.1-0.9,4.2-0.8,6.4c0,0.6-0.2,1-0.7,1.4
			c-1.7,1.5-2.3,3.6-2.9,5.7c-1.1,4.4-1.6,8.9-3,13.2c-1,2.9-2.3,5.6-4,8c-0.6,0.8-1.2,1.4-0.5,2.5c1.4-0.6,1.8-2.2,3.7-2.8
			c-1.3,2.5-2.5,4.6-3.7,7c2.2,0.2,3.6-0.7,4.5-2.3c2.3-4.1,4.2-8.5,4.9-13.2c0.8-5.6,1.9-11.1,2.8-16.7c1.2-7.5,2.2-15.1,2.6-22.7
			c0.2-4.8,1.3-9.5,2.2-14.2c0.1-0.6,0.4-1.2,0.7-1.8c0.1-0.2,0.4-0.6,0.6-0.5c1.3,0.5,2.6,0.9,3.9,1.5c0.7,0.3,0.5,1.1,0.5,1.8
			c0.4,2.6-0.7,5-1.1,7.5c-1.1,6.2-2.6,12.2-3.9,18.4c-1.3,6.3-1.8,12.6-2.9,18.9c-0.6,3.9-0.9,7.9-0.7,11.8c0.3,5.1,1.6,10,5,14
			c1.3,1.6,3.1,2.3,5.1,2.7c2.4,0.4,3.8-1.4,5.2-2.8c1.5-1.4,2.4-3.4,3.1-5.3c0.8-2.1,0.5-4.2-1.2-6c-3-3.1-5.5-6.5-5.8-11
			c-0.1-2.6,0.1-5.2,0.1-7.8c-2.2,4.2-4.8,8.4-5.6,13.3c-0.1,0.5-0.4,1-0.6,1.4c0,0,0,0.1,0,0.1c0,0,0,0.1,0,0.1
			c0,1.4,0.2,2.8-0.2,4.2c-0.9-1.4-0.8-2.2,0.2-4.2c0,0,0-0.1,0-0.1c0,0,0-0.1,0-0.1c-0.5-2.5,0.4-4.9,1.1-7.2
			c0.7-2.3,1.6-4.6,2.4-6.9c-1.2-0.5-1.8,0.5-2.8,1c0.7-2.8,2.2-5,3.2-7.6c-1.6,0.5-1.4,2.3-3.1,3.3c1.7-4.3,3.1-8.2,5-12.1
			c-1.2-0.2-1.1,1.3-2.1,1.3c1-3.9,3.5-7.1,4.7-10.9c-2.1,2-2.9,4.8-4.7,7c1.1-4.2,3.4-7.8,5.1-11.7c-2.6,2.8-4.1,6.3-5.6,9.7
			c-1.6,3.4-2.6,6.9-4,10.4c-0.5-2.2,0.3-4.2,1.1-6.1c2.6-6.2,5.1-12.4,8.2-18.4c-0.9-0.2-0.8,0.9-1.7,0.7c0.2-3.1,2-5.7,2.6-8.7
			c-0.8-0.2-0.8,0.5-1.2,0.7c0-2.4,0-2.5,2.2-2.5c0.5,0,0.9,0,1.4,0.1c2.7,0.2,3,0.5,3.4,3.1c0.8,4.9,0.8,9.9,0,14.8
			c-0.5,3.2-0.4,6.5-0.9,9.8c-0.3,1.6-0.3,3.2-0.7,4.7c-1.4,5.5-0.7,11-0.7,16.5c0,2.6,0.6,5.2,1.6,7.7c0.6,1.6,0.9,3.2,1.3,4.9
			c0.8,3.4,2.5,6.1,5.6,7.8c0.8,0.4,1.3,1,1.7,1.8c0.2,0.5,0.5,1.1,1.3,0.9c0.3-0.6,0.1-1.3,0.3-2c0.5-1.7,0.8-3.3-1.4-4.6
			c-1.3-0.8-1.9-2.6-3.3-3.6c-0.5-0.4-0.3-1.4-0.2-2.2c0.1-1,0.5-2,0.1-2.9c-1.4-0.1-1,1.3-1.7,1.7c-0.3-1.1,0.2-2.1,0.3-3.1
			c0.1-1,0.9-2-0.3-3.1c-0.6-0.5,0-1.6,0.3-2.4c0.5-1.6,0-3.5-1.4-4.9c-0.5-0.5-0.3-0.8-0.2-1.2c0.3-1,0.7-2,0.9-2.9
			c0.2-0.7,0.7-1.4,0-2.1c-1.1,0.6-0.8,2-1.8,2.9c0.2-1.9,0.5-3.4,1.2-4.9c0.3-0.6,1.1-1.5-0.6-1.3c-0.7,0.1-0.2-0.5-0.2-0.8
			c0.1-0.7,0.3-1.5,0.5-2.2c0.2-0.8,0.7-1.8-1-1.4c-0.6,0.1-0.3-0.5-0.3-0.7c0-1.3-0.1-2.7,0.2-3.9c1-4.3,0.5-8.8,1.3-13.1
			c0.6-3.2,0-6.4-0.5-9.5c-0.1-0.6-0.4-1.3-0.1-1.9c2.7,0.3,3.6,1,3.9,3.6c0.6,5.8,0.6,11.7,0.4,17.5c-0.3,6.1,0.3,12,1.9,17.9
			c1.1,4.2,1.4,8.5,2.7,12.7c2.1,6.5,5.9,11.7,11,16c2.9,2.4,6.4,3.1,10.1,2.1c1.9-0.5,3.5-1.4,3.9-3.5c0.2-0.7,0.5-1.4,0.8-2.1
			c1.1-2.4,0.6-5-1.6-6.3c-2.8-1.8-5.7-3.6-8.8-4.9c-3.4-1.4-4.6-4.6-5.9-7.6c-0.6-1.3-0.7-2.7-1-4.1c-0.1-0.5,0-1.3-0.9-1
			c-0.6,0.2-0.7,0.9-0.3,1.4c0,0.1,0.1,0.2,0.1,0.2c0.8,1.3,1,2.6,0.3,4.2c-0.6,1.4-0.8,2.9-1.4,4.3c-0.7-2.4,0.8-4.7,0-7.1
			c-1.2,3.4-1.7,7-1.8,10.7c-0.9-2-0.7-4.2-1-6.2c-0.3-2.2,1.2-4.1,1-6.3c-1.1,0.4-1.3,1.2-1.7,1.9c-0.4,0.7-0.3,1.6-0.9,2.2
			c-0.5-0.4-0.3-0.8-0.2-1.1c1.1-4.3,0.5-8.6-0.3-12.8c-0.9-4.6-1-9.3-1-14.4c1.4,1.3,1.8,2.6,2.3,4c0.8,2.4,1.4,4.9,2.3,7.2
			c1.5,4.1,4.4,7.4,6.9,10.9c2.8,1,4.7,3.3,6.8,5.2c3.3,2.9,6.9,5.5,10.5,8c0.7,0.5,1.3,1.1,2,1.6c1.3,0.8,2.4,0.3,2.7-1.2
			c0.4-1.7-0.7-3.8-2.4-4.2c-1.1-0.3-1.9-0.6-2.3-1.7c0-0.1-0.1-0.2-0.2-0.2c-3.1-0.9-2.7-3.8-3.5-6c0-0.1-0.1-0.1-0.2-0.2
			c-0.6,0.8-0.6,0.8-0.1,5.6c-1.8-2-1.3-4.7-2.3-6.7c-1.4,0.1-0.9,1.4-1.4,2.3c-0.7-1.4-0.8-2.7-0.9-3.9c0-0.5-0.1-1-0.8-0.9
			c-0.6,0.1-0.5,0.7-0.5,1.1c0,0.9,0.2,1.8,0.3,3c-1.2-1.1-1.1-2-1.2-2.9c-0.1-0.7-0.1-1.5-1-1.4c-0.7,0.1-0.4,0.9-0.4,1.4
			c0,0.4-0.1,0.7-0.3,1.1c-0.6-1.1-0.7-2.3-0.8-3.5c-0.1-0.5-0.2-0.9-0.3-1.4c-0.1-0.3-0.4-0.4-0.7-0.4c-0.3,0-0.5,0.2-0.5,0.5
			c-0.1,0.8,0.3,1.6-0.1,2.5c-0.9-0.8-0.6-1.9-1-2.8c-0.4-0.7,0.4-2.6-1.6-1.9c0,0-0.3-0.4-0.4-0.7c-0.2-0.5,0-1.3-0.9-1.1
			c-0.7,0.1-0.4,0.9-1.2,1.8c0.7-3.1-2.6-4.3-2.2-7c0.1-0.6-0.5-0.4-0.8-0.2c-0.5,0.3-0.9,0.4-1-0.2c-0.6-2.9-2.3-5.4-3-8.2
			c-1-3.9-3-7.6-2.5-11.8c0.1-0.7-0.2-1.4-0.4-2.3c0.9-0.7,2-0.2,3.1-0.6c0.6,2.8,0.1,5.5,1,8.1c0.4,1.2,0.7,2.5,0.9,3.8
			c1.2,6.1,5.1,10.2,10.3,13c3,1.6,5.7,3.7,7.8,6.4c1.8,2.4,4,4.5,6.1,6.6c3.4,3.5,5.7,7.7,8.1,11.8c1.8,3.1,3.2,6.3,3.4,10.3
			C276.3,228.3,276.4,231.3,276,234.3z M220,248.2c0-0.1,0.1-0.3,0.1-0.4c0.4-0.2,0.9-0.3,1.2,0c0.1,0.1,0,0.4-0.3,0.4
			C220.7,248.2,220.4,248.2,220,248.2z M180.9,196.2c-0.1,0.9-0.4,1.6-1.1,2.2C180,197.6,179.9,196.6,180.9,196.2z M174.5,206
			c-0.9,2.8-3.1,4.5-5.6,5.8C170.3,209.4,172.4,207.6,174.5,206z M198.7,184.1c-0.5-0.9-0.7-1.8-0.4-2.8
			C198.8,182.2,199,183.1,198.7,184.1z M198,177.6c-0.7-0.3-0.7-0.8-0.6-1.3C198.4,176.3,197.7,177.2,198,177.6z M191.1,209.6
			c-0.4,0.5-0.8,1.1-1.3,1.8C189.3,210,190.5,210,191.1,209.6z M188.8,212.8c-0.8,1.1-1.3,1.8-1.8,2.5c-0.2,0.2-0.5,0.2-0.7-0.1
			c-0.2-0.2-0.2-0.6,0-0.8C187,214,187.7,213.6,188.8,212.8z M186.9,208c0.2-0.4,0.3-0.8,0.9-0.8C187.6,207.6,187.4,207.9,186.9,208
			z M175.7,219.4c-0.1-0.1,0.1-0.5,0.2-0.7c0.5-0.2,1-0.8,1.5-0.2c0.1,0.1-0.1,0.6-0.2,0.7C176.7,219.4,176.2,220,175.7,219.4z
			 M175.7,222.6c-1.2,0.7-2,0.1-2.6-0.7c-0.7-0.9-0.3-1.6,0.6-2C174.4,221.6,174.4,221.6,175.7,222.6z M177.2,216.1
			c0.6,0.2,0,0.7-0.3,0.9c-0.1,0.1-0.3,0.1-0.5,0.2C176.3,216.6,176.8,215.9,177.2,216.1z M177.1,220.4c0.3-0.4,0.8-0.4,1.2-0.3
			c0.1,0.2,0.2,0.4,0.2,0.5c-0.3,0.5-0.8,0.4-1.2,0.2C177,220.8,176.9,220.6,177.1,220.4z M181,221.1c-1.1,1.7-1.1,1.7-3.1,1.7
			C178.9,222,179.8,221.4,181,221.1z M179.7,219.7c-0.2-0.1-0.3-0.2-0.1-0.4c0.3-0.5,0.8-0.6,1.4-0.5c0.1,0,0.1,0.1,0.4,0.3
			c-0.1,0.2-0.1,0.3-0.2,0.3C180.7,219.6,180.3,219.9,179.7,219.7z M198.8,210.4c0.6-3.1,0.8-5.8,2.4-8.1
			C200.7,204.9,201,207.7,198.8,210.4z M198.8,217.2c-0.3,3.1-1.4,5.9-2.6,8.7C196,223.5,197.2,219.9,198.8,217.2z M208.3,220.7
			c0.7,0.5-0.6,1.6-0.8,2.5c-1.2-4-0.8-7.9,0.5-11.7c0,2,0.1,4-0.2,6C207.7,218.5,206.8,219.6,208.3,220.7z M209.1,230
			c-0.7-0.4-0.7-0.9-0.8-1.3C209.1,228.7,209.2,229.2,209.1,230z M207.8,207.9c0.1-1.4,0.2-2.6,0.3-3.8c0-0.5,0.5-0.5,0.9-0.5
			c0.6,0,0.5,0.6,0.4,0.8C208.8,205.5,208.7,206.8,207.8,207.9z M209.4,227c0.1-0.1,0.6,0,0.7,0.2c0.1,0.2,0.2,0.6,0.1,0.8
			c-0.1,0.3-0.5,0.2-0.7,0C209.4,227.6,209.1,227.3,209.4,227z M214.7,213.4c0.7,1.5,0.7,1.5-0.9,3
			C213.9,215,214.2,214.2,214.7,213.4z M214.6,211.4c0.1-0.7,0.1-1.2,0.6-1.4C215.3,210.4,215.3,210.9,214.6,211.4z M215.3,215.4
			c0.6,1.5,0.9,2.4,1.3,3.2c1,2.2,2.6,4,4.4,5.6c1.2,1.1,1.7,2.5,1.6,4c-0.1,0.9-1.4,1.6-1.7,1c-0.5-1.1-1.1-0.6-1.8-0.6
			c-0.6,0-1.4,0.1-1.6-0.8c-0.1-0.8,0.3-1.2,1-1.4c0.4-0.1,0.7-0.3,0.9-1c-1.4,0-1.8-0.8-1.2-2.3c-1.2,1.4-1.3,3.5-3.6,2.8
			c-0.4-2.3,1.1-4.3,1.3-6.6c-1.2,0.3-1,1.8-2.2,2C212.9,219.1,214.8,217.8,215.3,215.4z M217.3,233.1c-0.2,0.1-0.5,0.2-0.7,0.3
			c0-0.1,0-0.3,0-0.4c0.2-0.1,0.4-0.2,0.6-0.3C217.5,232.9,217.5,233,217.3,233.1z M216,228.4c-0.5,0.2-1,0.4-1.4-0.1
			c-0.3-0.3-0.1-0.7,0.2-0.9c0.5-0.3,1-0.6,1.4,0C216.4,227.6,216.3,228,216,228.4z M225.2,211.2c-0.6-1-0.4-1.7,0.2-3.1
			C225.7,209.5,225.8,210.3,225.2,211.2z M229.7,226.1c0.2-0.1,0.5,0.1,0.8,0.2c0,0.3,0.1,0.7,0,0.8c-0.4,0.2-0.6-0.2-0.8-0.4
			C229.5,226.5,229.3,226.2,229.7,226.1z M248.8,217.7c-0.6,1.2-1.6,1.7-3,1.7c-0.3-1.8-0.4-3.5,0.7-5c0.7,0.1,0.9,0.5,1,0.9
			C248,216.2,249.6,216.3,248.8,217.7z M250,219.3c-0.1,0.9-0.3,1.8-1.3,2.3C248.2,220.2,249.3,219.9,250,219.3z M247,221.9
			c-0.2,0.4-0.6,0.4-0.9,0.2c-0.2-0.2-0.2-0.5,0-0.7c0.2-0.3,0.5-0.5,0.9-0.4C247.2,221.2,247.2,221.6,247,221.9z M245.7,213.3
			c-1.1,1.7-1,3.7-1.6,5.6c-0.5-2.4-0.7-4.9-0.1-7.3c0.1-0.3,0.2-0.8,0.6-0.8c0.5-0.1,0.7,0.3,0.8,0.7
			C245.6,212.1,246.1,212.6,245.7,213.3z M258.7,227.5c-0.8,1.9-2.2,2.8-4.3,2.8C255.7,229.2,257,228,258.7,227.5z M256.5,221.2
			c3.2,0.8,3.2,1.3,0.1,4.6C255.9,224.1,256.3,222.7,256.5,221.2z M253.6,226.3c-0.2-0.2-0.3-0.5,0.3-0.8c0.1-0.1,0.5-0.5,0.9-0.1
			c0.3,0.3,0.2,0.7,0,1C254.4,226.6,253.9,226.7,253.6,226.3z M255.7,221c-0.7,0.8-1.3,1.7-2.7,2.1c0.2-1.6,1.2-2.2,2-2.9
			c0.2-0.1,0.5-0.2,0.7,0.1C255.9,220.5,255.9,220.8,255.7,221z M253.1,219.9c-0.5,0.8-1.2,1.2-2.2,1.3c-0.4-0.9,0-1.6,0.2-2.3
			c0.4-1.1,1.2-0.6,1.8-0.3C253.6,218.8,253.4,219.4,253.1,219.9z M252.4,231.4c-0.3,0-0.6-0.1-0.7-0.2c-0.2-0.4,0.2-0.4,0.4-0.5
			c0.2-0.1,0.5-0.3,0.7,0.1C252.8,231.2,252.8,231.5,252.4,231.4z M251.7,222.2c-0.2,1,0,1.7-0.9,1.9c-0.4,0.1-0.6-0.3-0.6-0.7
			C250.2,222.5,251.1,222.9,251.7,222.2z M262.6,211.4c1.1,0.6,1.7,0.9,2,1.8C263.9,212.8,263.3,212.4,262.6,211.4z"/>
		<path class="st0" d="M226,241.5c-5.4,0-10.9,0-16,2.4C215.3,242.7,220.7,242.4,226,241.5z"/>
		<path class="st0" d="M240.9,201.4c0,0.1,0,0.3,0.1,0.4c0.1,0.1,0.3,0.2,0.4,0.3c0-0.2,0-0.5-0.1-0.8
			C241.1,201.3,240.9,201.3,240.9,201.4z"/>
	</g>
	<g>
		<path class="st0" d="M185.1,83.7c-1.7-2.8-3.7-5.4-6-7.7c-6.5-6.4-12.9-12.8-20.3-18.1c-3.4-2.4-6.3-5.4-8.6-8.8
			c-3.4-5-6.7-10.1-9.3-15.6c-0.4-0.9-0.9-1.8-1.9-2.5c-1.7-1.2-1.7-3-0.2-4.6c0.6-0.6,1.5-1.3,1.1-2.2c-0.8-1.8-0.6-4-1.7-5.5
			c-0.6-0.8-0.8-1.3-0.6-2.1c0.6-2.7-0.2-5.4-0.3-8.1c0-1.1-0.8-2-1.8-2.5c-2.9-1.7-6.1-2.4-9.4-1.6c-0.9,0.2-1.6,0.5-2.1-0.7
			c-0.7-1.8-2.2-2.2-4-2.1c-1.5,0.1-3-0.1-4.5,0.5c-0.6,0.3-1.3,0.3-1.7-0.4c-1.1-2-3.1-1.9-4.9-1.7c-1.9,0.2-3.6,1.1-3,3.7
			c0.1,0.5-0.6,0.9-1.1,1.1c-0.8,0.4-0.8-0.3-0.9-0.8c-0.4-1.4-1.5-1.7-2.8-1.6c-2.5,0.1-4.6,1.1-5.8,3.5c-0.4,0.8-0.7,1.5-1.6,1.9
			c-1.3,0.5-1.9,1.7-2.7,2.8c-1.4,1.9-2.2,3.9-0.5,6.2c1.1,1.5,1.2,3.1,0.2,4.9c-0.7,1.2-1.4,2.5-1.2,4c0.1,0.8-0.4,1.4-0.8,2.1
			c-4.6,6.7-10.1,12.7-16.6,17.7C67.4,49.1,62.8,53,59,57.8c-2.2,2.8-4.5,5.5-6.8,8.3c-2.4,2.9-4.1,6-4.6,9.8
			c-0.3,2.2-1,4.4-1.3,6.7c-1,7.4-0.9,14.7,4,21c0.5,0.6,0.7,1.4,1,2c1.2,2.2,2.2,4.8,3.9,6.6c3.1,3.3,6.2,6.6,10.2,9.2
			c7.5,4.7,15.7,7.7,23.8,11c3.6,1.3,7.3,2.2,11,2.7c7.2,1.1,14.3,2,21.6,0.6c4.5-0.8,9-1.5,13.4-2.2c0.6-0.1,1.3-0.3,1.9-0.2
			c3.6,0.6,6.8-0.4,9.9-2.1c7.3-3.9,14.1-8.6,20.8-13.3c9-6.3,14.9-14.9,18.2-25.4C187.2,89.4,186.7,86.4,185.1,83.7z M178.2,85
			c0.1-0.3,0.3-0.5,0.5-0.7c0.4,0.3,0.7,0.7,0.5,1.4c-0.1,0.1-0.4,0.6-0.5,0.5C178.2,86,178.1,85.5,178.2,85z M180.6,89.7
			c0.5,1.5-0.4,1.8-0.8,2.3c-0.3,0.3-0.7,0.4-1,0c-0.2-0.2-0.2-0.6,0.1-0.8C179.3,90.7,179.9,90.3,180.6,89.7z M177.2,93.4
			c-0.3,0.6-0.7,1.2-1.6,1.1c-0.2-1,0.6-1.2,1.2-1.4C176.9,93,177.2,93.4,177.2,93.4z M177.3,98.3c-0.5,1.3-1,1.8-2.4,1.8
			C175.3,98.8,176.1,98.5,177.3,98.3z M145.2,46.3c1.8,1.4,3.2,3.1,3.9,6.1c-2.2-1.9-3.1-4-4.3-5.8
			C144.6,46.5,144.8,46.3,145.2,46.3z M132,7c0.3-0.9,1-1,1.7-0.5c0.7,0.4,1.4,0.9,1.7,2.1c-0.9,0.2-1.7,0.4-2.6,0.1
			C132,8.5,131.8,7.8,132,7z M126.2,6.2c0.7-0.3,1.4-0.6,2.1-0.7c0.8-0.1,1.2,0.4,0.9,1.3c-0.1,0.2-0.2,0.4-0.3,0.5
			c-1.8,1.6-0.3,2.2,1.2,2.9c-1.8,1.4-3.1,0.9-4.4,0.2c0.3-0.9,2.1-1.7,0.1-2.7C125.3,7.5,125.4,6.5,126.2,6.2z M119.8,3.4
			c0.7,0.2,0.7,0.5,0.4,0.9c-0.2,0.3-0.5,0.8-0.9,0.6c-0.2-0.1-0.3-0.8-0.3-1.2C119.1,3,119.6,3.4,119.8,3.4z M108.4,1.7
			c1.2-0.7,2.3-0.3,3.3,0.5c2.4,1.9,2.4,1.9,5.3,1.9c0.5,0.7-0.3,1.2-0.3,1.8c0.2,2.1-1.1,3.3-3.1,2.9c-0.4-0.1-1-0.2-0.9-0.7
			c0.4-2.3-1.4-2.3-2.5-2.1c-2.1,0.5-1.9-1.1-2.4-2.1C107.3,3,107.5,2.2,108.4,1.7z M104.4,9.9c1-1.4,2.6-1.8,4.2-2.1
			c0.8-0.1,1.4,0,1.9,0.8c1.4,2.3,3.5,2.2,5.7,1.4c0.9-0.3,1.8-0.9,2.7-1.2c2.5-0.9,2.6-0.9,4.2,1.5c1.6,2.4,4.1,3.2,6.8,2.2
			c0.6-0.2,1.1-0.7,1.8-0.6c0.2,4.3-2.3,8.7-6,10.8c-1-0.9,1.4-1.8-0.2-2.9c-0.8,0.9-1.3,2.3-2.8,3.3c0.7-2.7,1.8-4.7,3.1-7.2
			c-1.3,0.5-1.6,1.2-2.1,1.9c-1.3,1.9-2,4.2-4.2,5.5c-0.4,0.2-0.3,1,0,1.5c0.2,0.5,0.8,0.4,1.1,0.2c0.9-0.7,1.5-0.4,2.1,0.4
			c0,0,0,0,0,0c0,0,0.1,0,0.1,0c1.2-1.6,1.3-1.6,3,0c0,0,0,0,0,0c0,0,0,0,0,0c0.1-0.3,0.1-0.7,0.3-0.8c4-2.4,5.8-6.1,6.6-10.5
			c0.1-0.5,0.2-1.1,0.4-1.6c0.2-0.7,0.7-1.1,1.4-1c0.9,0.1,0.6,0.8,0.9,1.3c0.7,1.8,0.4,3-1.1,4.2c-1.4,1.1-2.6,2.7-3.2,4.4
			c-1,2.6-2.7,3.6-5.2,4c0,0,0,0,0,0c0,0,0,0,0,0c-1-0.4-2,0.5-3,0c0,0,0,0,0,0c0,0,0,0-0.1-0.1c-1.8,0.9-3.7,0.3-6.1,0.6
			c2.1-4.5,5.1-8.1,5.7-12.9c-1.2,0.7-1.6,1.8-2,2.9c-0.5,1.3-1.4,2.5-1.8,3.8c-0.6,1.8-1.8,1-2.6,0.8c-1.4-0.2-0.4-1.3-0.4-2
			c0-0.3,0.2-0.7-0.4-0.9c-0.9,2.2-1.9,4.5-2.6,6.8c-0.4,1.5-1.2,0.8-1.9,0.7c-1-0.1-1-0.7-0.9-1.6c0.5-3.9,2-7.7,1.8-11.8
			c-0.5,1.7-1.2,3.3-1.6,5c-0.6,2.5-1.7,4.7-3.1,6.9c-0.2,0.3-0.3,0.6-0.6,0.7c-1.8,0.7-3.6,0.1-5.4-0.4c-1.4-0.4-1.8-1.6-1.9-3.3
			c1.2,0.7,1.3,1.8,2,2.4c0.5,0.4,1.1,0.9,1.7,0.6c0.5-0.2,0.6-0.8,0.8-1.4c0.3-1.3-0.2-2.6-0.1-3.9c0.1-1.3,0.1-2.6,0.2-4.1
			c-1.2,0.8-0.8,2.2-1.5,3c-1.5-1.1-1.5-1.1-2.5,1.2c-1.1-1.8-1.2-2.3-1.3-5.3C100.6,12.9,102.8,12.1,104.4,9.9z M134.9,21.2
			c-0.5-0.1-0.4-0.4-0.3-0.7c0.1-0.3-0.1-0.9,0.5-0.8c0.1,0,0.1,0.6,0.2,0.9C135.5,21,135.3,21.1,134.9,21.2z M95,57
			c0.3,0.8-0.2,1.4-0.6,2.1c-2.2,3.9-4.8,7.4-6.6,11.5c-0.6,1.3-1.4,1.6-2.4,0.4c-0.1-0.1-0.1-0.2-0.2-0.2c-4.9-4.5-5-4.5-1.8-10.3
			c4.1-7.4,7.9-14.9,11.3-22.6c0.2-0.4,0.4-0.8,0.6-1.1c0.2-0.3,0.5-0.4,0.8-0.3c0.5,0.1,0.8,0.4,0.7,0.9c-0.1,0.5-0.2,1.1-0.4,1.6
			c-1.2,3.3-2.5,6.7-3.7,10c-1.6,4.2-3.2,8.4-4.8,12.6c0.2,0.1,0.4,0.2,0.7,0.3c3.9-9,7.8-18,10.9-27.6c0.6,0.7-1,2.8,1.3,2.2
			c0.9-0.2,0.3,0.5,0.3,0.7c-1.2,5.7-2.1,11.5-5.2,16.6C95.2,54.8,94.5,55.7,95,57z M90.6,74c-0.1,0.1-0.3,0.4-0.4,0.4
			c-0.3-0.1-0.6-0.3-0.4-0.7c0.1-0.2,0.3-0.4,0.4-0.4C90.6,73.3,90.7,73.6,90.6,74z M78.7,78.2c-2.7-2.3-5.2-4.9-7.3-7.7
			c-0.7-0.9-0.8-1.6,0.1-2.5c0.9-0.9,1.8-1.9,2.6-2.9c1.3-1.6,3-2.7,3.2-5.3c0.1-1.5,2-2.9,3.3-4.6c0.3,1.5-0.6,2.1-1,2.9
			c-0.2,0.4-0.3,0.9,0.1,1.2c0.3,0.3,0.8,0.2,1.2,0.1c0.9-0.2,1.1-0.9,1.5-1.5c1.5-2.6,3.1-5.2,4.6-7.8c0.2-0.3,0.4-0.7,0.8-0.8
			c0,0,0-0.1,0-0.1c0,0,0.1-0.1,0.1-0.1c0.4-1.2,0.6-2.6,1.6-3.5c0-0.1,0-0.1,0-0.2c0.1-0.1,0.2-0.2,0.2-0.3
			c0.4-0.9,0.9-1.7-0.1-2.7c-0.5-0.4-0.1-1,0-1.5c1.4-3.3,3.2-6.3,5-9.4c0.2,3-2.6,10.4-5,13.6c-0.1,0.1-0.1,0.3-0.2,0.4
			c0,0-0.1,0.1-0.1,0.1c-0.3,1.3-0.5,2.6-1.6,3.5c0,0.1,0,0.1-0.1,0.2c0,0,0,0-0.1,0c-0.6,2.3-1.8,4.4-3.1,6.3
			c-2,3.1-2.6,7.1-5.8,9.5c0.4,2.7-2.2,4.4-2.4,7.4c1.2-2,2.2-3.6,3.2-5.3c2.3,1.4,3.6,3.8,5.7,5.3c0.7,0.6,0.4,1.2,0,2
			c-1.3,1.9-2.4,3.8-3.7,5.8C80.3,80.2,79.6,78.9,78.7,78.2z M81.3,82.2c-1.5,1.3-1.6,3.4-3.4,4.8c-3.5-4.2-6.9-8.2-9.6-12.9
			c-1.1-1.9,0.5-2.7,1.5-4.3C72.8,75,77.4,78.1,81.3,82.2z M82.9,50.4c0.2-0.3,0.4-0.5,0.7-0.6c0.2-0.1,0.4,0,0.3,0.4
			c-0.3,0.2-0.6,0.5-0.9,0.8C82.9,50.8,82.8,50.5,82.9,50.4z M92.6,27c-0.3-0.2-0.5-0.7-0.2-1.3c4.5,3.4,9.9,2.8,15,3.3
			c4.3,0.4,8.6,0.9,12.9,1.3c0,0,0.1,0,0.1-0.1c0.1,0,0.2,0,0.3,0c3.6-1.5,7.5-2,11.3-2.9c-3.5,2.1-7.2,3.1-11.3,2.9
			c-0.1,0-0.2,0.1-0.2,0.1c-0.1,0-0.1,0-0.2,0c-0.7,0.5-1.5,0.5-2.3,0.5c-5.1,0.2-10.2,0.7-15.3,0.5C99,31.1,95.6,29.2,92.6,27z
			 M93.9,24c2.6-0.3,4.6,1.1,6.7,1.9c2.3,0.9,4.7-0.2,7,0.9C102.4,27.8,96.3,26.6,93.9,24z M131.2,23.7c0.6-1.3,1-2.2,2.2-2.9
			C133.1,22.8,133.1,22.8,131.2,23.7z M101.8,4.1c0.2,1.6-0.2,3.2,0.2,4.8c0.4,1.6-0.8,1.9-1.8,2.1c-1,0.2-1.7,0.1-1.7-1.5
			c0.1-1.1-1.8-1.4-2.7-2.6C97.4,5,99.2,3.6,101.8,4.1z M91.4,12.9c0.5-1.4,2.6-3.5,3.6-3.5c0.3,0,0.7,0.1,0.8,0.3
			c0.3,0.4,0.7,0.9,0.8,1.4c0.4,3.5,1.1,6.9,0.5,10.7c-1.3-0.6-1.4-1.4-1.7-2.1c-0.5-1.3-1.1-2.3-2.5-3C91.3,16,90.9,14.4,91.4,12.9
			z M49.3,81.2c-0.6-1.2-0.3-2,0.3-3.2C50.2,79.5,49.8,80.3,49.3,81.2z M53.2,96c-2.1-2.3-2.3-4.6-1.1-9.3
			C54.2,89.8,53,92.8,53.2,96z M55.4,101.1c-1.3-1.7-1.3-1.7-0.4-7.6C55.7,96,55.6,98.4,55.4,101.1z M55.3,90.4
			c-0.7-1.3-0.5-2.5-0.5-4C56.2,88.1,56.2,88.1,55.3,90.4z M55.5,82.6c0.5-1.4-0.5-1.8-1.5-2.4c-0.4,1.9,1.6,3.9-0.3,5.6
			c-1.4-1.4-1.3-3.2-0.6-4.9c0.6-1.5,1.2-2.9,1.1-4.7c-3,3.9-2.9,8.6-4,12.9c-0.1-5.6,0.9-11,2.8-16.3c-1.5,1.1-1.5,1.1-2.3,3.7
			c-0.7-2.9,1-5.1,2.2-7.3c4.6-8.9,11.5-15.8,19.3-22c4.1-3.3,8.2-6.8,11.8-10.7c1.8-1.9,3.1-4.1,4.7-6.2c0.4-0.5,0.8-1,1.3-1.5
			c0.3-0.3,0.6-0.6,1.1-0.4c0.7,0.3,0.5,1,0.2,1.4c-1.4,2.5-2.9,5.1-4.9,7.2c-4.7,4.9-9.5,9.8-14.2,14.6c-1.2,1.2-2.3,2.5-2.9,4.2
			c1.7-1.8,3.5-3.5,5.1-5.3c3.6-3.9,8-7,11.6-10.9c2.6-2.9,5-5.9,7.2-9.8c-0.9,4.1-3,7.2-4.8,10.1c-5.1,8-10.7,15.7-16.3,23.4
			c-0.8,1-1.1,3.2-3.4,2.6c-0.4-0.1-0.1,0.7-0.1,1.1c0.1,2-0.2,2.3-2.5,2.3l-0.3,0.1c-0.2,2.7-2.2,3.7-4.2,4.8l0.1,0
			c-0.3,1.5-1.6,2.3-2.1,3.8c-1.6-1.3-0.7-3.5-2.3-4.9c-0.2,4.1,2.9,8.3-0.6,12.2C55.7,84.4,55.2,83.6,55.5,82.6z M57.1,90.7
			c1.9,2,2.2,4.3,1.7,6.8C56.8,95,56.6,94.1,57.1,90.7z M57.2,98.3c1.9,3.1,2.1,3.8,2,9.1C56.9,105.5,56.3,102.8,57.2,98.3z
			 M60.4,114.9c-1-0.3-1.3-1.3-2-1.9c0,0-0.1,0-0.1,0c0-0.1,0.1-0.1,0.1-0.1c0.3-1.2-0.6-2.3-0.4-4.1c0.9,1.3,1.5,2.2,2.1,3.1
			c-0.2,0.9-1.2,0.5-1.6,1c0,0,0,0.1,0,0.1c0,0,0,0,0,0C59.7,113,60.7,113.2,60.4,114.9z M61.4,102c-1.4-1.5-1.2-3.2-1-5.4
			C62.5,98.5,61.1,100.3,61.4,102z M62.2,112.9c-1.1-2.5-1.3-5.2-1.6-8C62,106.3,62.3,107.6,62.2,112.9z M62.2,115.5
			c1,0.7,1.5,1.3,2.1,2.4C63,117.5,62.3,117.1,62.2,115.5z M64.9,107c-2.4-1.4-2-3.6-1.6-5.9C65.6,102.7,64.5,105,64.9,107z
			 M63.7,108.3c2.1,1.6,3.4,5.2,4.5,12C65,117.3,63.9,114.3,63.7,108.3z M73.9,123.8c-2-0.4-3.4-1.3-4-3.5c-0.8-2.9-2.6-5.7-1.8-8.9
			c-1.2-1.3-1.4-3.1-1.7-4.7c-0.1-0.5-0.3-1,0.1-1.7c1.2,1.1,2.5,2,2.7,3.8c0.6,4.9,2.5,9.3,4.7,13.7
			C74,122.8,74.2,123.3,73.9,123.8z M166,117.1c-2.6,1.7-5,3.7-8.7,5c2.2-3.9,5.4-4.4,8.5-5.2c0.8-2,2.1-3.4,4.9-3.9
			C169.3,115.1,167.5,116,166,117.1z M161.2,109c0,0.8-0.5,1.1-1,1.3c-0.4,0.2-0.8,0.5-1.1,0.1c-0.4-0.5,0-1,0.5-1.3
			C160,108.9,160.5,108.6,161.2,109z M160,107.4c0-1,0.3-1.6,1.7-1.8c0.1,1.1,0,1.9-1.1,2C160.4,107.7,160,107.5,160,107.4z
			 M160.4,111.8c-0.2,1.6-1.4,1.9-2.6,2.3C158,112.2,158,112.2,160.4,111.8z M167.5,108.8c-0.5,1.1-1.5,1.5-2.8,1.9
			C165.4,109.1,166.4,108.9,167.5,108.8z M167.1,104.6c0.9-1.9,2.3-1.8,3.5-2.1C169.9,103.7,168.9,104.1,167.1,104.6z M164.8,105.6
			c-0.2,0.6-0.6,1-1.2,0.9c-0.5,0-0.7-0.5-0.5-1c0.2-0.6,0.7-0.8,1.3-0.7C164.9,104.9,164.9,105.2,164.8,105.6z M171.4,97.5
			c-0.6,1.2-1.7,1.3-2.7,1.7c-0.4-0.8-0.4-1.5,0-1.9c0.6-0.6,1.4-1,2.3-1C171.8,96.3,171.6,97,171.4,97.5z M171.5,85
			c-0.2,2.6,0.9,5.2-0.5,7.8c-0.8,1.5-0.2,1.8-1.9,2.8c0.5-3.7,1.2-7.1,1.4-10.9c-1.4,1.1-1.5,2.4-1.6,3.6
			c-0.3,3.7-1.8,7.1-2.1,10.8c-0.1,1.4-1,2.3-2.6,2.6c-0.1-4.1,1.6-8,1.4-12.5c-1.1,1.3-1.1,2.4-1.3,3.6c-0.6,3.7-1,7.5-2.2,11.1
			c-0.2,0.6-0.4,1-1.1,0.8c-0.6-0.2-0.2-0.7-0.1-1.1c1.4-3.3,1.8-6.8,2-10.4c-1.1,1.7-2,3.2-2,5.6c0,3.4-1.6,6.7-3,9.9
			c-0.2,0.4-0.7,0.3-1.1,0.1c0,0,0,0,0,0c0,0,0,0,0,0c0.5,0.8,0.9,1.6,0.2,2.6c-1.3,1.9-1.4,4.6-4.1,6.2c0.7-3.6,2.6-6.1,3.9-8.8
			c0,0,0,0,0-0.1c0,0,0,0,0.1,0c1-3.4,2.7-6.5,3.3-10.4c-1.8,1.6-1.5,3.9-3.3,5.4c0.1-1.9,2-2.9,1.4-4.7c-1.3,0.5-1.4,1.8-1.9,2.9
			c-2.2,5.3-4.8,10.4-7.6,15.4c-1.3,2.2-3.4,3.9-4.5,6.2c-0.4,0.8-0.7,1.5-1.1,2.3c0,0,0,0,0,0c1.4-0.9,2.6-2.3,4.3-2.8
			c0,0,0-0.1,0-0.1c-1.6-2.1,0.5-1.2,1.3-1.8c0,1.3-1.1,1.1-1.3,1.8c0,0,0,0.1,0.1,0.1c0,0-0.1,0-0.1,0c0,0,0,0,0,0
			c0.3,0.2,0.7,0.5,1.1,0.6c0.1,0,0.3-0.3,0.4-0.5c1.1-1.4,2.8,0.4,3.9-0.8c1.1-1.2,2.6-1.4,4-1.9c0,1.6-0.8,2.3-2,2.7
			c-3.4,1.2-6.9,2.3-10.3,3.5c-0.9,0.3-1.5,0.2-1.3-1c0,0-0.1,0-0.1,0c0,0,0,0,0,0c0,0,0,0,0,0c-1.4,0.7-2.4,2.4-4.4,1.8
			c-0.7-0.3-0.6-0.6-0.3-1.1c-1.2,0.3-2.4,1.6-4,0c5.8-6.5,10.1-14,14.9-21.7c-1.9,0.7-2.3,1.9-3,3c-3.8,5.7-7.4,11.5-11.8,16.7
			c-1.8,2.2-1.9,2.2-4.2,0.7c-1.2-0.8-2.4-1.7-3.8-2.7c-0.2,2.1,2.1,2.3,2.3,3.7c-1.9-0.1-2.3-0.3-4.1-1.6c-1.3-0.9-2.2-2.3-3.8-3.1
			c0.2,2.4,2.2,3.3,3.6,4.5c1.8,1.6,4.3,2,5.8,3.9c0.3,0.4,0.5,0.1,0.8,0.1c6.1,0.1,12-0.9,17.7-3.1c0.2-0.1,0.4,0,0.6,0
			c0.7-0.3,1.5-0.5,2.6-0.9c-0.8,1.1-1.5,1.4-2.4,1.3c-3.8,3.2-7.9,5-13,4.6c-1.7-0.1-3.4,0.3-5.1,0.6c-4.8,0.7-8.7-0.8-11.7-4.6
			c-0.9-1.2-1.8-2.4-3.3-3.2c0.6,2.1,0.9,2.5,2.8,4.8c1.2,1.5,3.1,2.3,4.4,3.9c-1.5,0.8-2.6,1-4.2,0c-1.5-0.9-3.3-1.6-4.8-2.6
			c-1.8-1.3-3-3-3.9-5.1c-0.5-1.1-1.1-2.2-1.9-3.1c0.4,5.7,3.8,9.3,8.8,11.7c-5.3-0.8-8.5-2.7-14.4-13.1c-1,2.9,3.2,8.8,9.2,13.2
			c-1,0.4-1.9,0.7-2.7-0.2c-0.6,0.6-1.4,0.5-2.1,0.4c-3.6-0.5-7.3-1-10.9-1.7c-1.3-0.3-2.6-0.5-3.8-1.5c-4.1-3.4-8.4-6.4-9.2-12.3
			c-0.1-1-0.4-1.9-0.6-2.8c0-0.1-0.1-0.2-0.2-0.2c-1.8,4.1,2.5,12.4,7.5,14.4c-2.8,0.3-5.4-0.8-6.8-2.8c-2.5-3.5-3.5-7.6-4.6-11.6
			c-0.4-1.6-0.5-3.4-1.8-4.7c0.1,5.4,2,10.3,3.8,15.3c-4.9-6-6.3-13.4-7.9-20.8c-1.5,0.1-1.1,1.1-1,2c0.1,0.7,0.5,1.7-0.9,1.3
			c1.1,0.8,1.6,2,1.9,3.3c1.1,4.9,2.7,9.5,5.8,13.7c-2.1,0.1-3.1-0.8-3.8-2.3c-2-4.4-3.7-8.9-5-13.5c-0.2-0.5-0.6-1.7,0.9-1.5
			c-1.2-1-1.7-2.2-1.7-3.7c0-1.2,0.2-2.4-0.3-3.5c-1.4,0.7-0.4,2.2-1.1,3.2c-3.8-1.5-1.6-5.1-2.6-7.6c-1.7,0.5-0.5,2.1-1.3,2.9
			c-1-1.2-1.8-2.3-1.7-4c0-0.6,0.6-2.5-1.5-1.4c-0.4,0.2-0.6-1-0.7-1.6c-0.1-1.4,0.6-2.8,0-4.3c-1,0.5-0.5,1.8-1.4,2.4
			c-1.2-1.7-2.7-3.3-1.2-5.7c2.4,0.6,3.9,2,5.1,4.3c2.5,4.8,5.7,9.1,10,12.5c0.9,0.7,1.7,1.7,3.3,1.8c-1.6-1.5-3-2.8-4.4-4.1
			c-4.1-3.5-6.3-8.5-9.3-12.9c-0.6-0.9-0.6-1.7,0.1-2.7c0.4-0.6,0.6-1.2-0.3-1.9c-1.9-1.6-1.8-1.7,0-4.6c2,3.2,3.9,6.3,6,9.2
			c2.1,2.9,4,5.9,6.8,8.1c0,0,0,0,0-0.1c0,0,0,0,0,0c-0.2-1.5-1.3-2.4-2.1-3.4c-3.4-3.9-5.8-8.3-8.5-12.6c-0.5-0.8-1.3-1.6-0.8-2.7
			c0.5-1.1,1.3-2.2,2.5-2.3c1-0.1,1.2,1.1,1.7,1.8c2.3,3.6,4.8,6.9,7.5,10.2c0.6,0.7,1.1,1.5,1.5,2.5c1,2.6,0.4,4.8-1.6,6.6
			c0,0,0,0.1,0,0.1c0,0,0,0,0,0c0.1,0.7,0.1,1.5,0.8,2c0.9,0.7,1.9-0.1,2.7,0c0.8,0.1,1,1.7,2.1,1.8c1.1,0.1,1.8-0.6,2.1-1.6
			c0.4-1.2,1.2-1.8,2.5-1.1c0.5,0.9,1.3,1,2.8,0.9c-1.2-0.5-1.9-0.8-2.5-1.1c-0.4-2.2,1.9-2.2,3-3.5c-1.3-0.6-2.2,0.2-3,0.7
			c-1.8,1-2.8-0.1-3.8-1.2c-1-1.1-1.5-2.1-0.3-3.4c0.4-0.4,0.6-0.9,0.8-1.4c1.5-2.6,1.9-2.8,4.4-1.2c0.6,0.4,1.3,0.9,2.1,0.8
			c-0.5-1.4-1.9-1.7-2.9-2.6c-1-0.9-1.4-1.5-0.6-3c0.8-1.3,1.5-2.6,2.3-3.9c1-1.6,2.1-1.3,3.2-0.5c2,1.4,4,3,6,4.5
			c0.5,0.4,0.9,1,1.9,0.9c-1.8-2.5-4.1-4-6.3-5.6c-1.4-1-1.9-1.9-1.2-3.5c1.8-4,2.2-8.6,5.1-12.2c0.4-0.5,0.4-1.1,0.4-1.8
			c-0.1-1.6,0.4-3,1.5-4.2c1.9-1.9,1.7-4.3,1.8-6.6c0-1,0-1.9,0.2-2.8c1-3.8,2-7.5,2.5-11.4c0.1-0.4,0-0.9,0.4-1.1
			c0.2-0.1,0.4-0.1,0.6-0.1c0.3,0,0.7,0.2,0.6,0.5c-0.4,3.3,0.9,6.5,0.4,9.8c-0.5,3.3-0.4,6.7-1,10c-0.3,1.6-0.5,3.1-0.4,4.8
			c2.9-8.1,2.5-16.7,3.4-25.2c1.8,0.2,2.4,1.1,2.4,2.6c0.5,7.1,0.5,14.3,0.2,21.4c-0.1,2.2-0.1,4.3-0.1,6.5c0,2.4-0.4,4.7-1.3,7
			c-0.6,1.5-0.9,2.9-0.3,4.7c0.5,1.6-0.6,3.3-1.2,4.8c-0.6,1.3-1.4,2.5-0.2,3.9c0.5,0.5,0.3,1.1,0,1.5c-1.5,2.3-1.5,4.7-0.3,7.2
			c0.2,0.5-0.1,1-0.3,1.5c-0.2,0.5-0.5,1.3-0.3,1.5c1.8,1.8,0.9,4.1,1.4,6.2c0.5,2.5,2.7,3.8,5.2,2.9c1.3-0.5,3-1.9,5.1-4.4
			c-1.4-0.1-2.4,0.6-3.4,0.9c-1.8,0.5-4.5-1.9-3.6-3.4c1.4-2.4,0.3-4.8,0.7-7.1c0.2-1.3-0.2-2.8,0.7-4c0.1-0.2,0.2-0.5,0.2-0.6
			c-2-1.7,0-2.9,0.6-4.3c0.2-0.4,0.5-1.1,0.4-1.2c-2.7-1.8-0.1-3.2,0.4-4.7c0.2-0.6,0.6-1.2,0.3-2c-1.9-0.3-1.6,2.2-3,2.3
			c-0.7-3.7,3.1-5.8,3.7-9.1c-1-0.5-1.4,0.1-1.8,0.6c-0.4,0.5-0.6,1.1-1.7,1.4c0.1-1.8,0.9-3.3,1.6-4.8c0.7-1.4,1.8-2.6,2.3-4.5
			c-2.1,0.9-2.2,3-3.8,4.4c0.1-10.7,0.8-21-0.3-31.5c0.7,0.1,1.1,0.2,1.5,0.2c-0.4,1.7,1.5,2.5,1.6,4.1c1,8,2,16.1,3.2,24.1
			c0.4,3.2,1.1,6.4,2.3,9.7c0.7-1,0.2-1.7,0.1-2.3c-1.7-8.1-2.2-16.3-3.4-24.4c-0.5-3.2-0.8-6.4-0.4-9.7c0.1-0.8-0.2-1.9,1.1-2
			c1.2-0.1,1.5,0.8,1.5,1.7c0.1,5.8,2.2,11.2,3.5,16.8c1.3,5.7,2.8,11.3,4.7,16.9c0.6,1.9,1.3,3.7,1,5.7c-0.1,1.1,0.3,2.1,0.7,3.1
			c0.4,1,0.5,1.8,0.3,2.8c-0.3,1.1-0.7,2,0.8,3c0.7,0.5,0.8,2.7,0.7,3.8c-0.1,3.1,1.4,5.8,1.9,8.7c0.3,1.6,2.3,1,2.7,2.3
			c0.9,0,1-0.6,1.2-1c0.2-0.4,0.4-0.7,1.1-0.7c0,0.8-0.1,1.7-0.1,2.5c0,0.5,0.1,0.9,0.7,0.9c0.5,0,0.8-0.3,0.8-0.8
			c0.1-1.4,0.3-2.8,0.2-4.2c-0.1-1.5-0.3-3-0.6-4.4c-0.4-1.6-1.1-1.6-2.6-0.3c0.1-1.9,1.1-3.5,1.5-5.2c0.3-1.4-0.5-1.4-1.5-0.8
			c-0.4-1.3,1.8-2,0.7-3.6c-1.4-0.3-1.4,1.5-2.6,2c0.4-1.6,1-2.9,1.8-4.2c0.3-0.4,0.5-1.1,0-1.5c-0.8-0.5-1.2,0.3-1.4,0.8
			c-0.5,0.9-1,1.9-1.7,2.8c0.2-1,0.5-1.9,0.7-2.9c0.3-1.4,1.8-3-0.6-4c0.2-2.2-0.9-3.7-2.5-4.9c-0.7-0.6,0.6-1.3,0-2
			c-1.3,0.2-1,1.6-1.8,2.4c-1.4-2-1.7-4.4-2.4-6.6c-1.4-5.1-2.6-10.3-3.9-15.4c-0.2-0.6-0.6-1.4-0.1-1.8c1.7-1.7,0.5-3.4,0-5
			c-0.5-1.5-1.4-2.9-0.7-4.7c3.1,9.4,6.7,18.6,10.3,27.8c0.3,1.2,0.7,2.5,1.6,3.4c-0.2-1.3-0.3-2.6-1.1-3.6c-0.4-3-2-5.7-2.8-8.6
			c-1.7-6.1-3.9-12.1-5-18.4c-0.1-0.6-0.1-1.3-0.2-1.9c-0.2-1,0.3-1.2,1.2-1.4c2.1-0.5,4.2-1.1,6.4-1.7c1.3,2.3,1.3,5.2,2.7,7.5
			c1.4,2.3,2.8,4.7,4,7.1c0.5,1,2.5,2.2,0.2,3.4c-0.1,0-0.1,0.4,0,0.6c1.3,3.5,1.4,7.4,3.5,10.6c1.8,2.8,3.4,5.8,5.1,8.7
			c0.8,1.4,1.6,2.8,2.1,4.4c0.8,2.9,2.9,5.1,4.5,7.4c1.3,1.8,4,2.2,6.2,2.7c0.5,0.1,1.2-0.2,1.3,0.4c0.1,0.9,0.1,1.6,1.2,1.4
			c0.9-0.1,1.7-0.6,1.9-1.5c0.6-2.2-0.2-4.3-1.1-6.2c-0.3-0.6-1-0.5-1.2,0.2c-0.2,0.7-0.3,1.5-0.3,2.2c0,1-0.5,1.2-1.4,1.3
			c-0.9,0.1-1.5,0.1-1.8-0.9c-0.3-1.1-0.6-2.3-1-3.4c-0.2-0.6-0.3-1.6-0.7-1.7c-1.8-0.5-1.8-1.9-2-3.2c0-0.3-0.3-0.8-0.5-0.8
			c-2.6-0.2-2-2.2-2.1-3.8c-0.1-1.2-0.4-2-2-2.3c-2.2-0.5-4-2-5-4.3c-1.2-2.8-2.8-5.4-4.3-8c-0.5-0.9-0.7-1.7-0.5-3.4
			c4.9,5.6,7.8,12.4,15.1,15.5c-2.8-3-4.9-5.9-6.6-9.1c4.4,4,7.9,9,13.5,11.6c-2.2-2.3-4.7-4.3-6.7-6.8c-0.5-0.6-1.5-1-0.9-2.1
			c0,0,0,0,0,0c0,0-0.1-0.1-0.1-0.1c-1.6-0.6-1.7-0.7-3-2.4c1.8-0.2,2,1.6,3,2.4c0,0,0.1,0,0.1,0c0,0,0,0,0,0c2.4,1.1,4.3,2.8,6,4.8
			c3.5,4.3,8,7.6,11.1,12.2c0.8,1.2,0.9-0.4,1.1-0.4c1,0.2,1.7,0.9,2,1.9c1.1,3.4,2.1,6.8,2.2,10.4c0,1,0,1.9-1.3,2.5
			c-0.9-3.8-0.3-7.8-2.4-11.5c-0.8,2.5,0.5,4.5,0.5,6.5c0,2,0.1,4,0,6.1c-1.3-2.1-0.3-4.7-1.4-6.9C171.4,83.7,171.6,84.5,171.5,85z
			 M149.4,118.1c1.9-2.7,3.4-5.1,4.6-7.6c0,1.6-0.6,3-1.5,4.3C151.8,116,152,117.9,149.4,118.1z M152,120.7
			c-0.4,0.2-0.7,0.5-1.1,0.3c-0.2-0.1-0.2-0.4,0-0.5c0.4-0.1,0.8-0.3,1.1-0.2C152.3,120.4,152.3,120.6,152,120.7z M155.9,105.9
			c0.1-0.2,0.3-0.4,0.5-0.6c0,0.2,0,0.4,0,0.7c-0.1,0.2-0.3,0.4-0.5,0.7C155.6,106.5,155.8,106.2,155.9,105.9z M174.7,109
			c-0.3,0.8-0.5,1.7-1.8,1.9c-0.1-1.3,0.4-2,1.6-2.2c0-0.8-0.7-1.7,0.4-2.2c1.8-0.9,3.6-1.8,3.6-4.2c0-0.2,0.7-0.4,1.3-0.1
			C179,105.1,177,107.1,174.7,109z M178.5,100.5c0.8-1.1,1.8-1.4,3-2.1C180.6,100,180.6,100,178.5,100.5z M179,97.9
			c-0.3-2,0.9-2.3,2.5-2.7C181.1,96.9,180.2,97.4,179,97.9z M180.5,80.9c0.9,0.1,1.1,0.7,1.1,1.6C180.8,82.2,180.5,81.7,180.5,80.9z
			 M183.4,88.8c-0.4-1.6-1.2-3.1-0.6-4.9C185.1,86,185.2,87.2,183.4,88.8z"/>
		<path class="st0" d="M138.6,126.3c0,0-0.1,0.1-0.1,0.1C138.6,126.4,138.6,126.3,138.6,126.3L138.6,126.3z"/>
		<path class="st0" d="M143.3,70.6c-1.7-6.9-5.3-13-8-19.4c-2.7-6.4-4.9-12.9-7.3-19.9c-1.4,1.7-3,2.4-2.5,4.5
			c0.8,3.5,1.2,7,2.4,10.4c2,6.1,4.1,12.1,6.6,17.9c1.5,3.4,3.5,6.5,6.4,8.9c-1.2-2.3-2.9-4.2-4-6.6c-3.4-7.5-6.2-15.2-8.5-23.1
			c-0.8-2.7-1.8-5.4-1.1-8.4C131.9,47.2,137.2,59,143.3,70.6z"/>
		<path class="st0" d="M108.6,132.3c-3.4-2.6-6.1-5.8-7.5-9.9c-0.3-1-0.5-2.2-1.7-3.4c0.1,5.5,2.8,9.1,5.8,12.6
			c-4.9-3.1-8.8-6.8-9.2-13.1c-1.7,3.3,0.5,5.7,1.3,8.5c-2.8-3-4.1-6.8-5.4-10.5c-0.5,5.4,2.5,9.4,5.5,13.4c-5.8-3.2-8.2-8.6-8.9-15
			c-0.4,0.4-0.5,0.4-0.6,0.5c-0.1,0.2-0.3,0.4-0.2,0.6c0.3,6.2,3,11.2,8.2,14.6c0.6,0.4,1.4,0.7,2.1,0.8c4.1,0.4,8.1,1.6,12.1,2.6
			C109.7,133.3,109.2,132.8,108.6,132.3z"/>
		<path class="st0" d="M110.1,133.9C110.1,133.9,110.1,133.9,110.1,133.9C110.2,134,110.2,133.9,110.1,133.9
			C110.2,134,110.2,134,110.1,133.9c0.1,0.1,0.1,0.1,0.1,0C110.2,133.9,110.2,133.9,110.1,133.9z"/>
		<path class="st0" d="M138.6,126.2C138.6,126.3,138.6,126.3,138.6,126.2C138.6,126.3,138.6,126.3,138.6,126.2
			C138.6,126.2,138.6,126.2,138.6,126.2z"/>
		<path class="st0" d="M152,105.2c-4.2,6.4-8,13.1-12.9,19.1c-0.5,0.6-0.7,1.2-0.5,2c6-6.6,10.6-14.2,14.7-22.1
			C152.8,104.4,152.3,104.7,152,105.2z"/>
	</g>
</g>
</svg>
