<?xml version="1.0" encoding="utf-8"?>
<!-- Generator: Adobe Illustrator 18.1.1, SVG Export Plug-In . SVG Version: 6.00 Build 0)  -->
<!DOCTYPE svg PUBLIC "-//W3C//DTD SVG 1.1//EN" "http://www.w3.org/Graphics/SVG/1.1/DTD/svg11.dtd">
<svg version="1.1" id="Layer_1" xmlns="http://www.w3.org/2000/svg" xmlns:xlink="http://www.w3.org/1999/xlink" x="0px" y="0px"
	 viewBox="0 0 133.3 43.2" style="enable-background:new 0 0 133.3 43.2;" xml:space="preserve">
<style type="text/css">
	.st0{fill:#656565;}
	.st1{fill:#8068AE;}
</style>
<g id="logo_5_">
	<g>
		<g>
			<path class="st0" d="M31.1,39.9c0,0.1,0,0.2-0.1,0.3c0,0.1-0.1,0.2-0.1,0.4c-0.1,0.1-0.1,0.2-0.2,0.4c-0.1,0.1-0.2,0.2-0.3,0.3
				c-0.1,0.1-0.3,0.2-0.5,0.2c-0.2,0.1-0.4,0.1-0.6,0.1c-0.1,0-0.3,0-0.4,0c-0.1,0-0.3-0.1-0.4-0.2c-0.1-0.1-0.3-0.2-0.4-0.3
				c-0.1-0.1-0.2-0.3-0.3-0.4c-0.1-0.2-0.2-0.4-0.2-0.6c-0.1-0.2-0.1-0.5-0.1-0.8c0-0.4,0.1-0.7,0.2-1c0.1-0.3,0.2-0.5,0.4-0.7
				c0.2-0.2,0.4-0.4,0.6-0.5C28.8,37,29,37,29.3,37c0.2,0,0.4,0,0.6,0.1c0.2,0,0.3,0.1,0.5,0.2c0.1,0.1,0.2,0.2,0.3,0.3
				c0.1,0.1,0.2,0.2,0.2,0.3c0.1,0.1,0.1,0.2,0.1,0.4c0,0.1,0,0.2,0.1,0.3h-0.7c0-0.3-0.1-0.5-0.3-0.7s-0.4-0.3-0.7-0.3
				c-0.2,0-0.4,0-0.5,0.1c-0.2,0.1-0.3,0.2-0.4,0.4c-0.1,0.1-0.2,0.3-0.2,0.5c0,0.2-0.1,0.4-0.1,0.7c0,0.3,0,0.5,0.1,0.7
				c0.1,0.2,0.1,0.4,0.2,0.5c0.1,0.1,0.2,0.2,0.4,0.3c0.1,0.1,0.3,0.1,0.5,0.1c0.1,0,0.3,0,0.4-0.1c0.1,0,0.2-0.1,0.3-0.2
				c0.1-0.1,0.2-0.2,0.2-0.3c0.1-0.1,0.1-0.3,0.1-0.4H31.1z"/>
			<path class="st0" d="M32,38.4c0-0.3,0.1-0.5,0.1-0.7c0.1-0.2,0.2-0.3,0.4-0.4c0.2-0.1,0.3-0.2,0.6-0.2c0.2,0,0.4-0.1,0.7-0.1
				c0.2,0,0.4,0,0.6,0.1c0.2,0,0.4,0.1,0.5,0.2c0.2,0.1,0.3,0.2,0.4,0.4c0.1,0.2,0.1,0.3,0.1,0.6v2.5c0,0.1,0,0.1,0.1,0.2
				c0,0,0.1,0.1,0.2,0.1c0,0,0.1,0,0.1,0s0.1,0,0.1,0v0.5c-0.1,0-0.1,0-0.2,0c-0.1,0-0.1,0-0.2,0c-0.1,0-0.2,0-0.3,0
				s-0.2-0.1-0.2-0.1c-0.1-0.1-0.1-0.1-0.1-0.2c0-0.1-0.1-0.2-0.1-0.3c-0.1,0.1-0.2,0.2-0.3,0.3s-0.2,0.2-0.3,0.2
				c-0.1,0.1-0.3,0.1-0.4,0.1c-0.2,0-0.3,0.1-0.5,0.1c-0.2,0-0.3,0-0.5-0.1c-0.2-0.1-0.3-0.1-0.4-0.2c-0.1-0.1-0.2-0.2-0.3-0.4
				c-0.1-0.2-0.1-0.3-0.1-0.5c0-0.2,0-0.4,0.1-0.6c0.1-0.2,0.2-0.3,0.3-0.4c0.1-0.1,0.3-0.2,0.4-0.3c0.2-0.1,0.3-0.1,0.5-0.1
				l1.2-0.1c0.1,0,0.2-0.1,0.3-0.1c0.1-0.1,0.1-0.2,0.1-0.4c0-0.3-0.1-0.4-0.3-0.6c-0.2-0.1-0.4-0.2-0.7-0.2c-0.3,0-0.6,0.1-0.7,0.2
				c-0.2,0.1-0.3,0.3-0.3,0.6H32z M34.6,39.2c-0.1,0-0.1,0.1-0.2,0.1c-0.1,0-0.2,0.1-0.3,0.1c-0.1,0-0.2,0-0.3,0.1
				c-0.1,0-0.2,0-0.4,0c-0.1,0-0.3,0-0.4,0.1c-0.1,0-0.2,0.1-0.3,0.1c-0.1,0.1-0.1,0.1-0.2,0.2c0,0.1-0.1,0.2-0.1,0.3
				c0,0.1,0,0.2,0.1,0.3c0,0.1,0.1,0.2,0.2,0.2c0.1,0.1,0.2,0.1,0.2,0.1c0.1,0,0.2,0,0.3,0c0.1,0,0.2,0,0.3,0s0.2,0,0.3-0.1
				c0.1,0,0.2-0.1,0.3-0.1c0.1-0.1,0.2-0.1,0.3-0.2c0.1-0.1,0.1-0.2,0.2-0.3c0-0.1,0.1-0.2,0.1-0.3V39.2z"/>
			<path class="st0" d="M39.7,37.7H38l0,1c0,0.5-0.1,1-0.1,1.3c-0.1,0.4-0.2,0.6-0.3,0.8c-0.1,0.2-0.2,0.4-0.4,0.5
				c-0.2,0.1-0.3,0.1-0.5,0.1c-0.1,0-0.1,0-0.2,0c-0.1,0-0.1,0-0.1-0.1v-0.7c0.1,0,0.2,0.1,0.3,0.1c0.1,0,0.1,0,0.2,0
				c0.1,0,0.1-0.1,0.1-0.1c0-0.1,0.1-0.1,0.1-0.2c0-0.1,0.1-0.2,0.1-0.4c0-0.2,0.1-0.4,0.1-0.6c0-0.2,0-0.5,0-0.8l0-1.6h3.1v4.3
				h-0.7V37.7z"/>
			<path class="st0" d="M45.4,39.3c0,0.4,0,0.7-0.1,1c-0.1,0.3-0.2,0.5-0.4,0.7c-0.2,0.2-0.4,0.4-0.6,0.5c-0.2,0.1-0.5,0.2-0.8,0.2
				s-0.6-0.1-0.8-0.2c-0.2-0.1-0.5-0.3-0.6-0.5c-0.2-0.2-0.3-0.4-0.4-0.7c-0.1-0.3-0.1-0.6-0.1-1c0-0.4,0-0.7,0.1-1
				c0.1-0.3,0.2-0.5,0.4-0.7c0.2-0.2,0.4-0.4,0.6-0.5c0.2-0.1,0.5-0.2,0.8-0.2s0.6,0.1,0.8,0.2c0.2,0.1,0.5,0.3,0.6,0.5
				c0.2,0.2,0.3,0.4,0.4,0.7C45.4,38.6,45.4,38.9,45.4,39.3z M44.7,39.3c0-0.2,0-0.5-0.1-0.7c-0.1-0.2-0.1-0.4-0.2-0.5
				c-0.1-0.1-0.2-0.3-0.4-0.3c-0.2-0.1-0.3-0.1-0.5-0.1c-0.2,0-0.4,0-0.5,0.1c-0.2,0.1-0.3,0.2-0.4,0.3c-0.1,0.1-0.2,0.3-0.2,0.5
				c-0.1,0.2-0.1,0.4-0.1,0.7c0,0.2,0,0.5,0.1,0.7c0.1,0.2,0.1,0.4,0.2,0.5c0.1,0.1,0.2,0.3,0.4,0.3c0.2,0.1,0.3,0.1,0.5,0.1
				c0.2,0,0.4,0,0.5-0.1c0.2-0.1,0.3-0.2,0.4-0.3c0.1-0.1,0.2-0.3,0.2-0.5C44.7,39.7,44.7,39.5,44.7,39.3z"/>
			<path class="st0" d="M46.4,37.1h0.7v1.7h2v-1.7H50v4.3h-0.7v-1.9h-2v1.9h-0.7V37.1z"/>
			<path class="st0" d="M56.3,39.7c-0.2,0-0.3,0.1-0.5,0.1c-0.2,0-0.4,0-0.5,0c-0.6,0-1-0.1-1.3-0.3c-0.3-0.2-0.4-0.6-0.4-1.1v-1.4
				h0.7v1.2c0,0.2,0,0.3,0.1,0.4c0,0.1,0.1,0.2,0.2,0.3c0.1,0.1,0.2,0.1,0.4,0.2c0.1,0,0.3,0.1,0.5,0.1c0.1,0,0.1,0,0.2,0
				c0.1,0,0.2,0,0.2,0c0.1,0,0.2,0,0.2-0.1c0.1,0,0.1,0,0.2-0.1v-2h0.7v4.3h-0.7V39.7z"/>
			<path class="st0" d="M58.3,38.4c0-0.3,0.1-0.5,0.1-0.7c0.1-0.2,0.2-0.3,0.4-0.4c0.2-0.1,0.3-0.2,0.6-0.2c0.2,0,0.4-0.1,0.7-0.1
				c0.2,0,0.4,0,0.6,0.1c0.2,0,0.4,0.1,0.5,0.2c0.2,0.1,0.3,0.2,0.4,0.4c0.1,0.2,0.1,0.3,0.1,0.6v2.5c0,0.1,0,0.1,0.1,0.2
				c0,0,0.1,0.1,0.2,0.1c0,0,0.1,0,0.1,0s0.1,0,0.1,0v0.5c-0.1,0-0.1,0-0.2,0c-0.1,0-0.1,0-0.2,0c-0.1,0-0.2,0-0.3,0
				s-0.2-0.1-0.2-0.1c-0.1-0.1-0.1-0.1-0.1-0.2c0-0.1-0.1-0.2-0.1-0.3c-0.1,0.1-0.2,0.2-0.3,0.3s-0.2,0.2-0.3,0.2
				c-0.1,0.1-0.3,0.1-0.4,0.1c-0.2,0-0.3,0.1-0.5,0.1c-0.2,0-0.3,0-0.5-0.1c-0.2-0.1-0.3-0.1-0.4-0.2c-0.1-0.1-0.2-0.2-0.3-0.4
				c-0.1-0.2-0.1-0.3-0.1-0.5c0-0.2,0-0.4,0.1-0.6c0.1-0.2,0.2-0.3,0.3-0.4c0.1-0.1,0.3-0.2,0.4-0.3c0.2-0.1,0.3-0.1,0.5-0.1
				l1.2-0.1c0.1,0,0.2-0.1,0.3-0.1c0.1-0.1,0.1-0.2,0.1-0.4c0-0.3-0.1-0.4-0.3-0.6c-0.2-0.1-0.4-0.2-0.7-0.2c-0.3,0-0.6,0.1-0.7,0.2
				c-0.2,0.1-0.3,0.3-0.3,0.6H58.3z M61,39.2c-0.1,0-0.1,0.1-0.2,0.1c-0.1,0-0.2,0.1-0.3,0.1c-0.1,0-0.2,0-0.3,0.1
				c-0.1,0-0.2,0-0.4,0c-0.1,0-0.3,0-0.4,0.1c-0.1,0-0.2,0.1-0.3,0.1c-0.1,0.1-0.1,0.1-0.2,0.2c0,0.1-0.1,0.2-0.1,0.3
				c0,0.1,0,0.2,0.1,0.3c0,0.1,0.1,0.2,0.2,0.2c0.1,0.1,0.2,0.1,0.2,0.1c0.1,0,0.2,0,0.3,0c0.1,0,0.2,0,0.3,0s0.2,0,0.3-0.1
				c0.1,0,0.2-0.1,0.3-0.1s0.2-0.1,0.3-0.2c0.1-0.1,0.1-0.2,0.2-0.3c0-0.1,0.1-0.2,0.1-0.3V39.2z"/>
			<path class="st0" d="M66.5,39.9c0,0.1,0,0.2-0.1,0.3c0,0.1-0.1,0.2-0.1,0.4c-0.1,0.1-0.1,0.2-0.2,0.4c-0.1,0.1-0.2,0.2-0.3,0.3
				c-0.1,0.1-0.3,0.2-0.5,0.2c-0.2,0.1-0.4,0.1-0.6,0.1c-0.1,0-0.3,0-0.4,0s-0.3-0.1-0.4-0.2c-0.1-0.1-0.3-0.2-0.4-0.3
				c-0.1-0.1-0.2-0.3-0.3-0.4c-0.1-0.2-0.2-0.4-0.2-0.6c-0.1-0.2-0.1-0.5-0.1-0.8c0-0.4,0.1-0.7,0.2-1c0.1-0.3,0.2-0.5,0.4-0.7
				c0.2-0.2,0.4-0.4,0.6-0.5c0.2-0.1,0.5-0.2,0.7-0.2c0.2,0,0.4,0,0.6,0.1c0.2,0,0.3,0.1,0.5,0.2c0.1,0.1,0.2,0.2,0.3,0.3
				c0.1,0.1,0.2,0.2,0.2,0.3c0.1,0.1,0.1,0.2,0.1,0.4c0,0.1,0,0.2,0.1,0.3h-0.7c0-0.3-0.1-0.5-0.3-0.7s-0.4-0.3-0.7-0.3
				c-0.2,0-0.4,0-0.5,0.1c-0.2,0.1-0.3,0.2-0.4,0.4c-0.1,0.1-0.2,0.3-0.2,0.5c0,0.2-0.1,0.4-0.1,0.7c0,0.3,0,0.5,0.1,0.7
				c0.1,0.2,0.1,0.4,0.2,0.5c0.1,0.1,0.2,0.2,0.4,0.3c0.1,0.1,0.3,0.1,0.5,0.1c0.1,0,0.3,0,0.4-0.1c0.1,0,0.2-0.1,0.3-0.2
				c0.1-0.1,0.2-0.2,0.2-0.3c0.1-0.1,0.1-0.3,0.1-0.4H66.5z"/>
			<path class="st0" d="M71.2,39.3c0,0.4,0,0.7-0.1,1c-0.1,0.3-0.2,0.5-0.4,0.7c-0.2,0.2-0.4,0.4-0.6,0.5c-0.2,0.1-0.5,0.2-0.8,0.2
				s-0.6-0.1-0.8-0.2s-0.5-0.3-0.6-0.5c-0.2-0.2-0.3-0.4-0.4-0.7c-0.1-0.3-0.1-0.6-0.1-1c0-0.4,0-0.7,0.1-1c0.1-0.3,0.2-0.5,0.4-0.7
				c0.2-0.2,0.4-0.4,0.6-0.5c0.2-0.1,0.5-0.2,0.8-0.2s0.6,0.1,0.8,0.2c0.2,0.1,0.5,0.3,0.6,0.5c0.2,0.2,0.3,0.4,0.4,0.7
				C71.1,38.6,71.2,38.9,71.2,39.3z M70.4,39.3c0-0.2,0-0.5-0.1-0.7c-0.1-0.2-0.1-0.4-0.2-0.5c-0.1-0.1-0.2-0.3-0.4-0.3
				c-0.2-0.1-0.3-0.1-0.5-0.1c-0.2,0-0.4,0-0.5,0.1c-0.2,0.1-0.3,0.2-0.4,0.3c-0.1,0.1-0.2,0.3-0.2,0.5c-0.1,0.2-0.1,0.4-0.1,0.7
				c0,0.2,0,0.5,0.1,0.7c0.1,0.2,0.1,0.4,0.2,0.5c0.1,0.1,0.2,0.3,0.4,0.3c0.2,0.1,0.3,0.1,0.5,0.1c0.2,0,0.4,0,0.5-0.1
				c0.2-0.1,0.3-0.2,0.4-0.3c0.1-0.1,0.2-0.3,0.2-0.5C70.4,39.7,70.4,39.5,70.4,39.3z"/>
			<path class="st0" d="M72.2,37.1H74c0.5,0,0.9,0.1,1.2,0.3s0.4,0.5,0.4,0.9c0,0.2,0,0.4-0.1,0.5c-0.1,0.1-0.2,0.3-0.4,0.4
				c0.2,0.1,0.4,0.2,0.5,0.4c0.1,0.2,0.2,0.4,0.2,0.6c0,0.2,0,0.4-0.1,0.5c-0.1,0.2-0.2,0.3-0.3,0.4c-0.1,0.1-0.3,0.2-0.5,0.3
				c-0.2,0.1-0.5,0.1-0.8,0.1h-2V37.1z M72.9,38.9h1.1c0.3,0,0.4-0.1,0.6-0.1c0.1-0.1,0.2-0.3,0.2-0.5c0-0.1,0-0.2-0.1-0.3
				c0-0.1-0.1-0.1-0.2-0.2c-0.1,0-0.1-0.1-0.2-0.1c-0.1,0-0.2,0-0.3,0h-1.2V38.9z M72.9,40.8h1.1c0.2,0,0.4,0,0.5,0s0.2-0.1,0.3-0.1
				c0.1-0.1,0.1-0.1,0.2-0.2c0-0.1,0-0.2,0-0.3c0-0.1,0-0.2,0-0.3c0-0.1-0.1-0.2-0.2-0.2c-0.1-0.1-0.2-0.1-0.3-0.1s-0.3,0-0.5,0
				h-1.1V40.8z"/>
			<path class="st0" d="M80.7,39.3c0,0.4,0,0.7-0.1,1c-0.1,0.3-0.2,0.5-0.4,0.7c-0.2,0.2-0.4,0.4-0.6,0.5c-0.2,0.1-0.5,0.2-0.8,0.2
				s-0.6-0.1-0.8-0.2s-0.5-0.3-0.6-0.5c-0.2-0.2-0.3-0.4-0.4-0.7c-0.1-0.3-0.1-0.6-0.1-1c0-0.4,0-0.7,0.1-1c0.1-0.3,0.2-0.5,0.4-0.7
				c0.2-0.2,0.4-0.4,0.6-0.5c0.2-0.1,0.5-0.2,0.8-0.2s0.6,0.1,0.8,0.2c0.2,0.1,0.5,0.3,0.6,0.5c0.2,0.2,0.3,0.4,0.4,0.7
				C80.6,38.6,80.7,38.9,80.7,39.3z M79.9,39.3c0-0.2,0-0.5-0.1-0.7c-0.1-0.2-0.1-0.4-0.2-0.5c-0.1-0.1-0.2-0.3-0.4-0.3
				c-0.2-0.1-0.3-0.1-0.5-0.1c-0.2,0-0.4,0-0.5,0.1c-0.2,0.1-0.3,0.2-0.4,0.3c-0.1,0.1-0.2,0.3-0.2,0.5c-0.1,0.2-0.1,0.4-0.1,0.7
				c0,0.2,0,0.5,0.1,0.7c0.1,0.2,0.1,0.4,0.2,0.5c0.1,0.1,0.2,0.3,0.4,0.3c0.2,0.1,0.3,0.1,0.5,0.1c0.2,0,0.4,0,0.5-0.1
				c0.2-0.1,0.3-0.2,0.4-0.3c0.1-0.1,0.2-0.3,0.2-0.5C79.9,39.7,79.9,39.5,79.9,39.3z"/>
			<path class="st0" d="M81.7,37.1h2.7v0.6h-1.9v3.7h-0.7V37.1z"/>
			<path class="st0" d="M88.9,39.3c0,0.4,0,0.7-0.1,1c-0.1,0.3-0.2,0.5-0.4,0.7c-0.2,0.2-0.4,0.4-0.6,0.5c-0.2,0.1-0.5,0.2-0.8,0.2
				s-0.6-0.1-0.8-0.2c-0.2-0.1-0.5-0.3-0.6-0.5c-0.2-0.2-0.3-0.4-0.4-0.7c-0.1-0.3-0.1-0.6-0.1-1c0-0.4,0-0.7,0.1-1
				c0.1-0.3,0.2-0.5,0.4-0.7c0.2-0.2,0.4-0.4,0.6-0.5c0.2-0.1,0.5-0.2,0.8-0.2s0.6,0.1,0.8,0.2c0.2,0.1,0.5,0.3,0.6,0.5
				c0.2,0.2,0.3,0.4,0.4,0.7C88.9,38.6,88.9,38.9,88.9,39.3z M88.2,39.3c0-0.2,0-0.5-0.1-0.7c-0.1-0.2-0.1-0.4-0.2-0.5
				c-0.1-0.1-0.2-0.3-0.4-0.3c-0.2-0.1-0.3-0.1-0.5-0.1c-0.2,0-0.4,0-0.5,0.1c-0.2,0.1-0.3,0.2-0.4,0.3c-0.1,0.1-0.2,0.3-0.2,0.5
				c-0.1,0.2-0.1,0.4-0.1,0.7c0,0.2,0,0.5,0.1,0.7c0.1,0.2,0.1,0.4,0.2,0.5c0.1,0.1,0.2,0.3,0.4,0.3c0.2,0.1,0.3,0.1,0.5,0.1
				c0.2,0,0.4,0,0.5-0.1c0.2-0.1,0.3-0.2,0.4-0.3c0.1-0.1,0.2-0.3,0.2-0.5C88.2,39.7,88.2,39.5,88.2,39.3z"/>
			<path class="st0" d="M92.4,37.1h0.7v3.3h0l2.1-3.3h0.9v4.3h-0.7v-3.3h0l-2.1,3.3h-0.9V37.1z"/>
			<path class="st0" d="M100.8,39.9c0,0.1,0,0.2-0.1,0.3c0,0.1-0.1,0.2-0.1,0.4c-0.1,0.1-0.1,0.2-0.2,0.4c-0.1,0.1-0.2,0.2-0.3,0.3
				c-0.1,0.1-0.3,0.2-0.5,0.2c-0.2,0.1-0.4,0.1-0.6,0.1c-0.1,0-0.3,0-0.4,0s-0.3-0.1-0.4-0.2c-0.1-0.1-0.3-0.2-0.4-0.3
				c-0.1-0.1-0.2-0.3-0.3-0.4c-0.1-0.2-0.2-0.4-0.2-0.6c-0.1-0.2-0.1-0.5-0.1-0.8c0-0.4,0.1-0.7,0.2-1c0.1-0.3,0.2-0.5,0.4-0.7
				c0.2-0.2,0.4-0.4,0.6-0.5c0.2-0.1,0.5-0.2,0.7-0.2c0.2,0,0.4,0,0.6,0.1c0.2,0,0.3,0.1,0.5,0.2c0.1,0.1,0.2,0.2,0.3,0.3
				c0.1,0.1,0.2,0.2,0.2,0.3c0.1,0.1,0.1,0.2,0.1,0.4c0,0.1,0,0.2,0.1,0.3h-0.7c0-0.3-0.1-0.5-0.3-0.7s-0.4-0.3-0.7-0.3
				c-0.2,0-0.4,0-0.5,0.1c-0.2,0.1-0.3,0.2-0.4,0.4c-0.1,0.1-0.2,0.3-0.2,0.5c0,0.2-0.1,0.4-0.1,0.7c0,0.3,0,0.5,0.1,0.7
				c0.1,0.2,0.1,0.4,0.2,0.5c0.1,0.1,0.2,0.2,0.4,0.3c0.1,0.1,0.3,0.1,0.5,0.1c0.1,0,0.3,0,0.4-0.1c0.1,0,0.2-0.1,0.3-0.2
				c0.1-0.1,0.2-0.2,0.2-0.3c0.1-0.1,0.1-0.3,0.1-0.4H100.8z"/>
			<path class="st0" d="M101.7,37.1h0.7v2.1l2.2-2.1h1l-2,1.9l2.1,2.4h-1l-1.7-2l-0.5,0.5v1.5h-0.7V37.1z"/>
			<path class="st0" d="M106,37.1h0.8l1.2,3.5h0l1.2-3.5h0.8l-1.7,4.5c-0.1,0.2-0.2,0.4-0.2,0.6c-0.1,0.2-0.1,0.3-0.2,0.4
				c-0.1,0.1-0.1,0.2-0.2,0.3c-0.1,0.1-0.1,0.1-0.2,0.2c-0.1,0-0.2,0.1-0.3,0.1c-0.1,0-0.2,0-0.4,0c-0.1,0-0.2,0-0.3,0
				c-0.1,0-0.1,0-0.2,0v-0.7c0,0,0.1,0,0.2,0c0.1,0,0.2,0,0.2,0c0.1,0,0.2,0,0.3-0.1c0.1-0.1,0.2-0.2,0.2-0.3l0.2-0.6L106,37.1z"/>
			<path class="st0" d="M114.2,39.9c0,0.1,0,0.2-0.1,0.3c0,0.1-0.1,0.2-0.1,0.4c-0.1,0.1-0.1,0.2-0.2,0.4c-0.1,0.1-0.2,0.2-0.3,0.3
				c-0.1,0.1-0.3,0.2-0.5,0.2c-0.2,0.1-0.4,0.1-0.6,0.1c-0.1,0-0.3,0-0.4,0s-0.3-0.1-0.4-0.2c-0.1-0.1-0.3-0.2-0.4-0.3
				c-0.1-0.1-0.2-0.3-0.3-0.4c-0.1-0.2-0.2-0.4-0.2-0.6c-0.1-0.2-0.1-0.5-0.1-0.8c0-0.4,0.1-0.7,0.2-1c0.1-0.3,0.2-0.5,0.4-0.7
				c0.2-0.2,0.4-0.4,0.6-0.5c0.2-0.1,0.5-0.2,0.7-0.2c0.2,0,0.4,0,0.6,0.1c0.2,0,0.3,0.1,0.5,0.2c0.1,0.1,0.2,0.2,0.3,0.3
				c0.1,0.1,0.2,0.2,0.2,0.3c0.1,0.1,0.1,0.2,0.1,0.4c0,0.1,0,0.2,0.1,0.3h-0.7c0-0.3-0.1-0.5-0.3-0.7s-0.4-0.3-0.7-0.3
				c-0.2,0-0.4,0-0.5,0.1c-0.2,0.1-0.3,0.2-0.4,0.4c-0.1,0.1-0.2,0.3-0.2,0.5c0,0.2-0.1,0.4-0.1,0.7c0,0.3,0,0.5,0.1,0.7
				c0.1,0.2,0.1,0.4,0.2,0.5c0.1,0.1,0.2,0.2,0.4,0.3c0.1,0.1,0.3,0.1,0.5,0.1c0.1,0,0.3,0,0.4-0.1c0.1,0,0.2-0.1,0.3-0.2
				c0.1-0.1,0.2-0.2,0.2-0.3c0.1-0.1,0.1-0.3,0.1-0.4H114.2z"/>
			<path class="st0" d="M118.5,39.9c0,0.1,0,0.2-0.1,0.3c0,0.1-0.1,0.2-0.1,0.4c-0.1,0.1-0.1,0.2-0.2,0.4c-0.1,0.1-0.2,0.2-0.3,0.3
				c-0.1,0.1-0.3,0.2-0.5,0.2c-0.2,0.1-0.4,0.1-0.6,0.1c-0.1,0-0.3,0-0.4,0c-0.1,0-0.3-0.1-0.4-0.2c-0.1-0.1-0.3-0.2-0.4-0.3
				c-0.1-0.1-0.2-0.3-0.3-0.4c-0.1-0.2-0.2-0.4-0.2-0.6c-0.1-0.2-0.1-0.5-0.1-0.8c0-0.4,0.1-0.7,0.2-1c0.1-0.3,0.2-0.5,0.4-0.7
				c0.2-0.2,0.4-0.4,0.6-0.5c0.2-0.1,0.5-0.2,0.7-0.2c0.2,0,0.4,0,0.6,0.1c0.2,0,0.3,0.1,0.5,0.2c0.1,0.1,0.2,0.2,0.3,0.3
				c0.1,0.1,0.2,0.2,0.2,0.3c0.1,0.1,0.1,0.2,0.1,0.4c0,0.1,0,0.2,0.1,0.3h-0.7c0-0.3-0.1-0.5-0.3-0.7s-0.4-0.3-0.7-0.3
				c-0.2,0-0.4,0-0.5,0.1c-0.2,0.1-0.3,0.2-0.4,0.4c-0.1,0.1-0.2,0.3-0.2,0.5c0,0.2-0.1,0.4-0.1,0.7c0,0.3,0,0.5,0.1,0.7
				c0.1,0.2,0.1,0.4,0.2,0.5c0.1,0.1,0.2,0.2,0.4,0.3c0.1,0.1,0.3,0.1,0.5,0.1c0.1,0,0.3,0,0.4-0.1c0.1,0,0.2-0.1,0.3-0.2
				c0.1-0.1,0.2-0.2,0.2-0.3c0.1-0.1,0.1-0.3,0.1-0.4H118.5z"/>
			<path class="st0" d="M120.5,37.7H119v-0.6h3.7v0.6h-1.5v3.7h-0.7V37.7z"/>
			<path class="st0" d="M123.7,37.1h1.8c0.5,0,0.9,0.1,1.2,0.3c0.3,0.2,0.4,0.5,0.4,0.9c0,0.2,0,0.4-0.1,0.5
				c-0.1,0.1-0.2,0.3-0.4,0.4c0.2,0.1,0.4,0.2,0.5,0.4c0.1,0.2,0.2,0.4,0.2,0.6c0,0.2,0,0.4-0.1,0.5c-0.1,0.2-0.2,0.3-0.3,0.4
				c-0.1,0.1-0.3,0.2-0.5,0.3c-0.2,0.1-0.5,0.1-0.8,0.1h-2V37.1z M124.4,38.9h1.1c0.3,0,0.4-0.1,0.6-0.1c0.1-0.1,0.2-0.3,0.2-0.5
				c0-0.1,0-0.2-0.1-0.3c0-0.1-0.1-0.1-0.2-0.2c-0.1,0-0.1-0.1-0.2-0.1c-0.1,0-0.2,0-0.3,0h-1.2V38.9z M124.4,40.8h1.1
				c0.2,0,0.4,0,0.5,0c0.1,0,0.2-0.1,0.3-0.1c0.1-0.1,0.1-0.1,0.2-0.2c0-0.1,0-0.2,0-0.3c0-0.1,0-0.2,0-0.3c0-0.1-0.1-0.2-0.2-0.2
				c-0.1-0.1-0.2-0.1-0.3-0.1c-0.1,0-0.3,0-0.5,0h-1.1V40.8z"/>
			<path class="st0" d="M128.4,38.4c0-0.3,0.1-0.5,0.1-0.7c0.1-0.2,0.2-0.3,0.4-0.4c0.2-0.1,0.3-0.2,0.6-0.2c0.2,0,0.4-0.1,0.7-0.1
				c0.2,0,0.4,0,0.6,0.1c0.2,0,0.4,0.1,0.5,0.2c0.2,0.1,0.3,0.2,0.4,0.4c0.1,0.2,0.1,0.3,0.1,0.6v2.5c0,0.1,0,0.1,0.1,0.2
				c0,0,0.1,0.1,0.2,0.1c0,0,0.1,0,0.1,0s0.1,0,0.1,0v0.5c-0.1,0-0.1,0-0.2,0c-0.1,0-0.1,0-0.2,0c-0.1,0-0.2,0-0.3,0
				s-0.2-0.1-0.2-0.1c-0.1-0.1-0.1-0.1-0.1-0.2c0-0.1-0.1-0.2-0.1-0.3c-0.1,0.1-0.2,0.2-0.3,0.3s-0.2,0.2-0.3,0.2
				c-0.1,0.1-0.3,0.1-0.4,0.1c-0.2,0-0.3,0.1-0.5,0.1c-0.2,0-0.3,0-0.5-0.1c-0.2-0.1-0.3-0.1-0.4-0.2c-0.1-0.1-0.2-0.2-0.3-0.4
				c-0.1-0.2-0.1-0.3-0.1-0.5c0-0.2,0-0.4,0.1-0.6c0.1-0.2,0.2-0.3,0.3-0.4c0.1-0.1,0.3-0.2,0.4-0.3c0.2-0.1,0.3-0.1,0.5-0.1
				l1.2-0.1c0.1,0,0.2-0.1,0.3-0.1c0.1-0.1,0.1-0.2,0.1-0.4c0-0.3-0.1-0.4-0.3-0.6c-0.2-0.1-0.4-0.2-0.7-0.2c-0.3,0-0.6,0.1-0.7,0.2
				c-0.2,0.1-0.3,0.3-0.3,0.6H128.4z M131.1,39.2c-0.1,0-0.1,0.1-0.2,0.1c-0.1,0-0.2,0.1-0.3,0.1c-0.1,0-0.2,0-0.3,0.1
				c-0.1,0-0.2,0-0.4,0c-0.1,0-0.3,0-0.4,0.1c-0.1,0-0.2,0.1-0.3,0.1c-0.1,0.1-0.1,0.1-0.2,0.2c0,0.1-0.1,0.2-0.1,0.3
				c0,0.1,0,0.2,0.1,0.3c0,0.1,0.1,0.2,0.2,0.2c0.1,0.1,0.2,0.1,0.2,0.1c0.1,0,0.2,0,0.3,0c0.1,0,0.2,0,0.3,0c0.1,0,0.2,0,0.3-0.1
				c0.1,0,0.2-0.1,0.3-0.1c0.1-0.1,0.2-0.1,0.3-0.2s0.1-0.2,0.2-0.3c0-0.1,0.1-0.2,0.1-0.3V39.2z"/>
		</g>
		<path class="st0" d="M45.5,30.2c-1.4,1.6-2.8,2.4-4.1,2.4c-0.8,0-1.8-0.4-1.8-2c0-0.5,0.1-1,0.2-1.4l0-0.1l0.1,0
			c3.3-0.4,6.9-1.8,6.9-4c0-1.2-1.1-1.9-2.9-1.9c-3.9,0-7.6,3.5-7.6,7.2c0,2,1.5,3.3,3.9,3.3c2.1,0,3.9-1,5.7-3L45.5,30.2z
			 M40.1,28.4c0.6-2.2,2.2-4.8,3.5-4.8c0.2,0,0.8,0.1,0.8,1.1c0,1.5-1.7,3.5-4.2,3.8l-0.2,0L40.1,28.4z"/>
		<path class="st0" d="M56.5,33.6c1.3,0,2.6-0.8,3.9-2.5L60,30.8c-0.4,0.5-1.2,1.2-1.8,1.2c-0.2,0-0.5-0.1-0.5-0.5
			c0-0.2,0-0.3,0.1-0.5l1.6-4.2c0.2-0.6,0.5-1.3,0.5-2c0-1.6-1.2-1.8-1.8-1.8c-1.7,0-3.4,1.3-5.1,3.9l0,0.1L52.6,27l0.5-1.4
			c0.1-0.2,0.2-0.8,0.2-1.1c0-0.3-0.1-1.4-1.7-1.4c-1.3,0-2.6,0.8-3.9,2.5l0.5,0.3c0.6-0.8,1.2-1.2,1.6-1.2c0.2,0,0.5,0.1,0.5,0.5
			c0,0.2,0,0.3-0.1,0.5l-2.5,7.7h2.8l0.7-2.2c0.6-1.3,3.6-6.2,5.1-6.2c0.2,0,0.5,0.1,0.5,0.6c0,0.2,0,0.4-0.1,0.6l-1.9,5
			c-0.2,0.4-0.2,0.8-0.2,1.1C54.7,33.6,56.2,33.6,56.5,33.6z"/>
		<path class="st0" d="M69.8,33.6c1.3,0,2.6-0.8,3.9-2.5l-0.5-0.3c-0.3,0.5-1,1.2-1.6,1.2c-0.2,0-0.5-0.2-0.5-0.6
			c0-0.1,0-0.3,0.1-0.4l2.5-7.7h-2.8l-0.2,0.5l-0.1-0.1c-0.4-0.5-0.9-0.6-1.7-0.6c-3.5,0-7.8,3.6-7.8,7.7c0,1.8,1,2.8,2.7,2.8
			c1.4,0,2.8-0.8,4.3-2.6l0-0.1l0.3,0.1l0,0.1c0,0.2-0.2,0.7-0.2,1.1C68.2,33.3,69,33.6,69.8,33.6z M65.4,32c-0.8,0-1.1-0.4-1.1-1.2
			c0-2.7,2.7-7.2,4.8-7.2c0.9,0,1.3,0.6,1.3,1.1c0,0.2,0,0.3-0.1,0.5l-1,2.9C69,29.1,66.9,32,65.4,32z"/>
		<path class="st0" d="M81.7,23.1c-5.3,0-7.3,4-7.3,6.6c0,2.3,1.8,3.9,4.4,3.9c2.2,0,3.9-1,5.3-3.2l-0.5-0.3
			c-1.2,1.7-2.4,2.5-3.6,2.5c-0.5,0-2.3-0.2-2.3-2.4c0-3.1,2-6.6,3.8-6.6c1,0,1,0.7,1,1.4l0,0.1c0,0.5,0.2,1.1,1.1,1.1
			c0.8,0,1.4-0.5,1.4-1.2C85,24.1,84.1,23.1,81.7,23.1z"/>
		<path class="st0" d="M92.4,23.1c-5.3,0-7.3,4-7.3,6.6c0,2.3,1.8,3.9,4.4,3.9c2.2,0,3.9-1,5.3-3.2l-0.5-0.3
			c-1.2,1.7-2.4,2.5-3.6,2.5c-0.5,0-2.3-0.2-2.3-2.4c0-3.1,2-6.6,3.8-6.6c1,0,1,0.7,1,1.4l0,0.1c0,0.5,0.2,1.1,1.1,1.1
			c0.8,0,1.4-0.5,1.4-1.2C95.7,24.1,94.8,23.1,92.4,23.1z"/>
		<path class="st0" d="M104.5,33.6c1.3,0,2.6-0.8,3.9-2.5l-0.5-0.3c-0.3,0.5-1,1.2-1.6,1.2c-0.2,0-0.5-0.2-0.5-0.6
			c0-0.1,0-0.3,0.1-0.4l2.5-7.7h-2.8l-0.2,0.5l-0.1-0.1c-0.4-0.5-0.9-0.6-1.7-0.6c-3.5,0-7.8,3.6-7.8,7.7c0,1.8,1,2.8,2.7,2.8
			c1.4,0,2.8-0.8,4.3-2.6l0-0.1L103,31l0,0.1c0,0.2-0.2,0.7-0.2,1.1C102.8,33.3,103.7,33.6,104.5,33.6z M100.1,32
			c-0.8,0-1.1-0.4-1.1-1.2c0-2.7,2.7-7.2,4.8-7.2c0.9,0,1.3,0.6,1.3,1.1c0,0.2,0,0.3-0.1,0.5l-1,2.9C103.7,29.1,101.5,32,100.1,32z"
			/>
		<path class="st0" d="M132.3,24.6c0-0.4-0.2-1.4-1.9-1.4c-2.9,0-5.4,1.9-6.4,4.6l0,0.1h-1.8l1.5-4.5h-2.7l-1.5,4.5h-1.9l0-0.1
			c0.1-0.5,0.2-1,0.2-1.3c0-2.9-1.9-3.2-2.7-3.2c-2.1,0-3.8,1.1-5,3.3l0.6,0.3c1.4-2.3,2.7-2.6,3.2-2.6c1.2,0,1.2,1.5,1.2,2
			c0,4.2-2.1,7-3.5,7c-0.3,0-0.6-0.1-0.6-0.7V32c0-0.1-0.1-0.7-0.8-0.7c-0.5,0-1.1,0.3-1.1,0.9c0,0.4,0.2,1.4,1.9,1.4
			c3.1,0,5.7-2.1,6.5-5.2l0-0.1h1.9l-1.7,5h2.7l1.7-5h1.8l-0.1,0.2c-0.2,0.6-0.3,1.2-0.3,1.9c0,2.1,1,3.2,2.8,3.2
			c2.1,0,3.8-1.1,5-3.3l-0.6-0.3c-1.4,2.3-2.7,2.6-3.2,2.6c-0.8,0-1.3-0.7-1.3-2c0-3.7,2-7,3.6-7c0.3,0,0.6,0.1,0.6,0.7v0.4
			c0,0.1,0.1,0.7,0.8,0.7C131.7,25.4,132.3,25.1,132.3,24.6z"/>
		<path class="st0" d="M2.5,39.9c1,0.9,2.3,1.6,4.1,2c1.6,0.4,3.4,0.5,5.2,0.4c1.9-0.1,3.9-0.7,5.7-1.7c0.5-0.3,1-0.6,1.4-0.9
			c0.2-0.1,0.3-0.2,0.4-0.3c0.1-0.1,0.1-0.1,0.2-0.2c0.2-0.1,0.3-0.2,0.4-0.4c0.1-0.1,0.1-0.1,0.2-0.2c0.7-0.7,1.4-1.4,2.2-2.3
			c1.3-1.5,2.4-3.3,3.4-5.2c0.2-0.4,0.4-0.8,0.6-1.1l0.1-0.3l0.6-1.4c0.3-0.7,0.6-1.4,0.9-2l0-0.1l0.1,0c0.6,0.1,1.3,0.2,1.9,0.2
			c1.4,0,2.8-0.2,4.2-0.7c1.4-0.5,2.7-1.3,3.8-2.3c0.3-0.2,0.6-0.5,0.9-0.9c0.1-0.1,0.2-0.2,0.2-0.3c0,0,0.1-0.1,0.1-0.1l0.2-0.2
			l0.2-0.2c0.5-0.7,0.9-1.3,1.2-2c0.4-0.7,0.7-1.6,0.9-2.3c0-0.1,0.1-0.2,0.1-0.2c0.1-0.1,0.1-0.2,0.1-0.4l0.1-0.7
			c0.1-0.4,0.1-0.9,0.1-1.3c0-1.8-0.6-3.7-1.6-5.2c-0.5-0.7-1.1-1.3-1.8-1.9l-0.1-0.1l0.1-0.1c0.3-0.4,0.7-0.7,1-1
			c0.6-0.6,1.1-1.1,1.5-1.3l0.5-0.4C42,4.6,42,4.3,41.9,4.1c-0.1-0.2-0.5-0.3-0.7-0.2L41.1,4l-0.5,0.3C40,4.6,39.4,5,38.8,5.4
			c-0.5,0.4-1,0.8-1.5,1.2l-0.1,0.1l-0.2-0.1c-0.2-0.1-0.4-0.3-0.6-0.4c-1.6-0.8-3.3-1.3-5.1-1.5c-0.7-0.1-1.4-0.1-2-0.1
			c-2.7,0-5.4,0.5-8.4,1.5c-3.3,1.1-6.4,2.8-9.1,5c-3,2.3-5.2,5-6.4,7.9c-0.8,1.9-1.1,3.5-0.9,5.1c0.1,0.9,0.5,1.8,1.1,2.5
			c0.3,0.3,0.7,0.8,1,0.9c0.4,0.3,0.8,0.5,1.1,0.7c0.9,0.5,2,0.7,3.1,0.7c0.6,0,1.1-0.1,1.7-0.2c1.4-0.3,2.7-0.8,4-1.6
			c2.1-1.3,3.8-3,5.3-5.1c1.3-1.8,1.8-3.6,2.1-5.2c0.3-1.5,0.4-2.6,0.5-3.5c0.1-0.8,0.1-1.2,0.1-1.2c0-0.2-0.1-0.4-0.3-0.4
			c-0.2-0.1-0.5,0.1-0.5,0.3c0,0-0.1,0.4-0.3,1.1c-0.3,1-0.7,2.1-1.1,3.2l-0.1,0.2c-0.2,0.6-0.5,1.3-0.8,1.9L20.8,19
			c-0.1,0.2-0.2,0.4-0.3,0.6c-0.2,0.4-0.5,0.8-0.7,1.2c-0.8,1.3-2.3,3.1-4.6,4.5C14.1,26,13,26.5,12,26.7c-1.3,0.3-2.5,0.2-3.5-0.3
			c-0.1,0-0.1-0.1-0.2-0.1c-0.1,0-0.2-0.1-0.2-0.1c0,0-0.1-0.1-0.2-0.1C7.8,26,7.7,26,7.7,25.9c-0.3-0.2-0.4-0.3-0.6-0.5l-0.1-0.1
			c-0.4-0.5-0.6-1-0.7-1.6c-0.2-1.4,0.3-3,0.7-4c0.6-1.3,1.4-2.6,2.4-3.8c0.5-0.6,1-1.2,1.6-1.7c0.3-0.3,0.6-0.5,0.9-0.8l1-0.8
			c2.6-2,5.6-3.6,8.5-4.6c1.6-0.6,3.2-0.9,4.7-1.1c0.7-0.1,1.5-0.2,2.4-0.2c0,0,0,0,0,0c0.1,0,0.2,0,0.2,0c0.1,0,0.3,0,0.4,0
			l0.9,0.1c0.3,0,0.6,0.1,0.9,0.1c1.5,0.2,3,0.7,4.3,1.5l0.1,0.1l-0.1,0.1c-0.7,0.7-1.2,1.3-1.8,2c-0.9,1-1.8,2.3-2.9,4
			c-1,1.6-1.9,3.1-2.7,4.7l-0.2,0.4l-0.1-0.1c-0.1-0.1-0.3-0.1-0.4-0.2c-0.6-0.2-1.2-0.2-1.7-0.1c-0.4,0.1-0.8,0.3-1.1,0.5
			c-0.4,0.3-0.7,0.7-0.9,1.1c-0.2,0.5-0.4,1-0.4,1.6c0,0.3,0.1,0.6,0.2,0.9l0.1,0.2c0,0.1,0.1,0.1,0.1,0.2l0,0.1
			c0.1,0.2,0.1,0.3,0.3,0.4c0.3,0.4,0.6,0.7,1,1l0.1,0.1l-0.9,1.7l-0.7,1.3l-0.7,1.2c-0.9,1.5-1.9,3.2-3.1,4.7
			c-0.6,0.8-1.1,1.4-1.7,2c-0.1,0.1-0.1,0.1-0.2,0.2c-0.1,0.1-0.2,0.2-0.3,0.3c-0.1,0.1-0.1,0.1-0.2,0.2c-0.1,0.1-0.2,0.2-0.3,0.3
			c-0.3,0.3-0.6,0.5-0.9,0.7c-1.2,0.9-2.6,1.5-4.3,1.9C10,40,8.5,40.1,7,39.8c-1.3-0.2-2.5-0.7-3.2-1.3c-0.1-0.1-0.1-0.1-0.2-0.2h0
			l-0.1-0.2c0-0.1-0.1-0.1-0.1-0.2c-0.2-0.2-0.3-0.4-0.4-0.6l-0.2-0.4l0.3,0.1c0.3,0.1,0.5,0.1,0.7,0.1c1,0.1,1.7,0,2.1-0.5
			c0.3-0.3,0.5-0.8,0.4-1.5c0-1.2-1.2-2.2-2.5-2.2c-0.4,0-0.8,0.1-1.2,0.3c-0.1,0-0.2,0.1-0.3,0.1l0,0c0,0,0,0,0,0l-0.1,0.1
			C1.6,34,1.3,34.5,1.2,35C1,35.5,0.9,36,1,36.6c0,0.5,0.2,1,0.5,1.7c0.1,0.1,0.1,0.2,0.2,0.3c0.1,0.2,0.2,0.4,0.3,0.5
			c0,0.1,0.1,0.1,0.1,0.2l0.2,0.2C2.3,39.6,2.4,39.8,2.5,39.9z M29.1,24.1c0.5-1,1.1-2.2,1.7-3.3c0.7-1.2,1.3-2.4,1.9-3.6l0.9-1.7
			c0.6-1.3,1.3-2.4,1.9-3.5c0.4-0.7,0.9-1.4,1.5-2.2L37,9.7l0.1,0.1c0.5,0.5,0.9,0.9,1.2,1.4c0.7,1.1,1,2.4,0.9,3.6
			c0,0.3,0,0.5-0.1,0.8l0,0.1c0,0.1,0,0.2-0.1,0.2c-0.1,0.2-0.1,0.4-0.1,0.7l0,0l0,0c-0.2,0.7-0.5,1.3-0.7,1.8
			c-0.3,0.5-0.6,1-0.9,1.4l-0.4,0.6c0,0-0.1,0.1-0.1,0.1c-0.1,0.1-0.1,0.2-0.2,0.3c-0.1,0.2-0.3,0.4-0.6,0.6
			c-0.8,0.8-1.7,1.5-2.8,1.9c-1.2,0.5-2.6,0.8-3.9,0.8l-0.3,0L29.1,24.1z M25.1,21.7c0.1-0.2,0.2-0.4,0.4-0.5
			c0.1-0.1,0.3-0.3,0.5-0.4c0.3-0.2,0.7-0.4,1.1-0.4l0.3-0.1l-0.1,0.2l-1.5,2.9l-0.1-0.1c-0.1-0.1-0.2-0.2-0.3-0.3
			c0,0-0.1-0.1-0.1-0.1l0,0l0,0c0,0,0,0,0,0l0,0l0.1-0.1l-0.1,0L25,22.7c0-0.1-0.1-0.2-0.1-0.3C24.9,22.1,25,21.9,25.1,21.7z"/>
		<path class="st1" d="M98.2,0.3L97.9,0l-3.8,3.4c-0.2-0.1-0.4-0.2-0.6-0.2c-0.7,0-1.3,0.6-1.3,1.3c0,0.2,0,0.3,0.1,0.5L80.1,16.2
			c-0.7-0.3-1.6-0.2-2.2,0.3l-8.3-5c0.1-0.2,0.1-0.3,0.1-0.5c0-0.8-0.7-1.5-1.5-1.5c-0.4,0-0.7,0.1-1,0.4l-5.1-3.2l-0.2,0.3l4.9,3.5
			c-0.1,0.2-0.1,0.3-0.1,0.5c0,0.8,0.7,1.5,1.5,1.5c0.3,0,0.7-0.1,0.9-0.3l8.1,5.7c0,0.1,0,0.2,0,0.2c0,1.1,0.9,2,2,2s2-0.9,2-2
			c0-0.3-0.1-0.5-0.2-0.8L92.9,5.6c0.2,0.1,0.4,0.1,0.6,0.1c0.7,0,1.3-0.6,1.3-1.3c0-0.2,0-0.4-0.1-0.6L98.2,0.3z M68.2,11.6
			c-0.3,0-0.6-0.3-0.6-0.6s0.3-0.6,0.6-0.6c0.3,0,0.6,0.3,0.6,0.6S68.6,11.6,68.2,11.6z M79.3,19c-0.5,0-0.9-0.4-0.9-0.9
			s0.4-0.9,0.9-0.9c0.5,0,0.9,0.4,0.9,0.9S79.8,19,79.3,19z M93.5,4.9c-0.3,0-0.5-0.2-0.5-0.5C93,4.2,93.2,4,93.5,4s0.5,0.2,0.5,0.5
			C93.9,4.7,93.7,4.9,93.5,4.9z"/>
	</g>
</g>
</svg>
