<?xml version="1.0" encoding="utf-8"?>
<!-- Generator: Adobe Illustrator 18.1.1, SVG Export Plug-In . SVG Version: 6.00 Build 0)  -->
<!DOCTYPE svg PUBLIC "-//W3C//DTD SVG 1.1//EN" "http://www.w3.org/Graphics/SVG/1.1/DTD/svg11.dtd">
<svg version="1.1" id="Layer_1" xmlns="http://www.w3.org/2000/svg" xmlns:xlink="http://www.w3.org/1999/xlink" x="0px" y="0px"
	 viewBox="0 0 338.6 173.5" style="enable-background:new 0 0 338.6 173.5;" xml:space="preserve">
<style type="text/css">
	.st0{fill-rule:evenodd;clip-rule:evenodd;fill:#B0B0B0;}
	.st1{fill:#B0B0B0;}
</style>
<path class="st0" d="M317.6,36.1c3.2-4.4,6.4-8.8,9.7-13.1c2.1-2.7,4.4-5.5,6.4-8.3c-0.9-0.6-2.2,0.1-3.2-0.1
	c-5.1,6.4-10.8,15.1-15.8,21c-0.6-1.7-2.3-2-3.6-2.1c-4.6-0.3-10.7,6.5-11.7,9.3c-3.9,3.8-7.5,3.9-5.1,0.8c1-1.3,3.9-4.8,4.4-6.6
	c0.6-2.2-1.6-2.9-2.7-4.1c-0.6-0.6,0.9-1.6-0.5-2.8c-0.6-0.5-2.1-0.1-2.3,0.9c-0.2,1.1,1.4,1.8,0.8,2.6c-1.3,1.8-2.4,3.5-3.8,5.4
	c-2,2.6-4,5.3-6.8,7.1c-0.7,0.4-1.5,0-1.2-0.9c1.7-4.2,4.5-7.2,7.6-10.9c0.2-0.2,0.4-0.6,0.2-0.7c-0.2-0.1-0.8,0.2-1.2,0.1
	c-0.6,0-1.4,0-1.8,0c-0.4,0.6-1.1,1.4-1.6,1.2c-0.3-0.1-0.5-0.5-0.7-0.7c-4.4-4.2-12.3,4-13.7,7.5c-1.3,0.9-2.5,2-3.7,2.9
	c-0.9,0.7-1.8,1.3-2.9,1.4c-0.6,0.1-0.7-0.8-0.6-1.4c0.5-1.4,3.4-4.7,5.1-7.5c1.6-2.6,1.2-4.9-1.5-3.7c-2.1,1-5.1,3.8-5.4,3.1
	c-0.5-1.1,4.3-5.3,4.7-6.8c-1.1,0-2.1-0.1-3,0c-3,4.2-7.3,7.3-11.3,10c-0.3,0.2-1.1,0.4-1-0.2c0.5-2.4,1.3-4.1,0.3-5.4
	c-0.8-1.1-3-1.8-5.8-0.5c-2.4,1-5.1,3.9-7.5,7c-2.6,3.4-6.5,5.9-7.5,6c-1.8,0.2,0-1.9,3.5-6.8c1.9-2.7,3.3-5.5,1.2-6.5
	c-3.2-1.5-5.6,2.5-7.5,2.9c1.4-2.8,4.6-4.2,6.8-5.9c1.5-1,6.7-5.3,9.6-9.7c2.9-4.3,2.8-8.2-0.6-6.4c-5.7,4.2-9.5,10.1-13.6,15.5
	c-1.5,2-2.7,3.6-4.5,5.3c-2.1,2-4.9,3.5-7.4,5.1c2.7-6.6,1-9.4-2-9.3c-4,0.2-10.2,5-12,9.1l0.4,0.2c2.8-3.6,6.3-7,9.2-8
	c4.4-1.4,7.2,1.8,0.6,9.1c-3.6,3.9-8.7,7-12.3,5.8c-5.1-1.8,2-13.1,3.7-15.9c8.4-1.9,16.7-4.3,23.4-10.7c1.8-1.7,6.1-8.1,3.4-9.3
	c-0.5-0.2-1.5-0.6-2.7-0.3c-10.9,2.7-20.3,10.2-27.9,19.6c-3.9,0.1-7.6-0.7-10-3.8c-1.8-2.3-1.9-6.4-0.2-8.5
	c5.9-7.3,14.9-8.3,24.3-8l0.5-0.4c-8.7-1.2-21.4,0.7-26.5,8.5c-1.4,2.2-1.6,6,0.1,8.3c2.6,3.7,7,4.5,11.2,4.8
	c-3,5.1-6.2,14.7,0.7,16.6c8.4,2.3,14.8-6.9,21.6-10.3c-0.9,1-6.9,9.1-7.2,9.5c1.2,0.1,2.5-0.2,3.6-0.3c0.1-0.1,2.6-3.8,5.7-7.1
	c4-4.2,7.3-6,8.2-5.4c1.2,0.9-1.7,3.9-3.8,7c-2.4,3.6-2.7,5.5-1.2,6c1.8,0.7,3.3-0.1,7.2-3.4c0.5-0.4,0.6-0.2,0.7,0.2
	c0.2,0.7,0.1,2.4,1.2,2.9c1,0.5,2.4,0.6,4,0c3.3-1.1,4.5-2.5,6.6-4.2c0.3-0.2,0.5-0.6,0.8-0.8c0.5-0.4,1.1-0.6,1.7-0.9
	c1.9-1.1,3.6-2.1,5.5-3.6c0.3-0.3,0.8,0,0.6,0.4c-2.4,3.6-5.1,6.8-7.8,10.3c-3.1,3.9-6,8-9,11.8c1,0.3,3,0.2,3.5-0.3
	c1.6-1.7,8.2-11.5,14.3-18.2c3.5-3.9,7.2-6.3,8.1-6.2c0.9,0-0.4,1.8-4.4,7.3c-0.9,1.2-1.6,3.8,0,4.6c2.2,1,5.7-2.1,8-3.8
	c0.8-0.6,0,2.5,1.3,3.2c2.8,1.6,5.4-0.7,7.6-2c0.5-0.3,0.6,1.1,1.5,2.2c3.5,4.1,13.6-12,14.7-13.2c1.1,0.3,1.5,0.9,1.4,1.7
	c-0.1,1.8-3.2,4.7-4.7,7.3c-1.7,2.8-0.8,4.4,0.5,4.7c1.8,0.4,5-2,6.7-3.2c0.1,6,7,1.9,9.6,0.2c0.3,2.6,1.3,3.1,2.5,3.1
	c3-0.1,7.7-6.1,9.9-9.6l-0.7,0c-2,2.8-4.7,6.5-7.8,8.1c-0.9,0.5-1.8-0.2-1.1-1.3C313.3,41.8,315.5,39,317.6,36.1z M243.7,16.3
	c3.3-3.2,1.9,0.9,0.9,2.6c-2.8,4.4-7.9,9.8-12.6,12.5C235.7,26.3,239.2,20.7,243.7,16.3z M219,18.4c1.1-0.8,7.6-5,11.1-6.2
	c0.8-0.3,1.4-0.5,1.8-0.4c0.6,0.2,0.2,0.8,0,1.7c-0.5,1.8-2.2,4.8-6.8,8.6c-4.4,3.6-12,7.3-18.1,7.6C209.9,26.3,214.4,21.9,219,18.4
	z M250.5,38c-0.4,0.9-2.5,0.2-3.1,0.7c-0.7,0.5-1.3,1.6-1.2,2.6c0,0.6,1,1.4,0.5,1.8c-3.7,3.5-6.2,4.3-7.5,3.8c-1-0.4-0.7-2.3,2-5.9
	c1.1-1.6,7.8-9.3,9.8-6.3C251.2,35.1,251.2,36.3,250.5,38z M279.6,43.4c-2.7,2.2-5.6,3.8-6.8,3.1c-1.7-1,1-5.3,4.4-8.5
	c2-1.9,4.3-3.7,5.9-3.8c2.1,0,1.4,2.9,0.9,3.9C283.1,40.1,281.4,41.9,279.6,43.4z M301.1,46.1c-0.5-2.5,6-10,10-11.5
	c2.5-0.9,3,0.6,2.3,2.6C311.5,42.7,301.6,49.2,301.1,46.1z"/>
<g>
	<path class="st1" d="M55.5,5.8c0-1.1,0-2.2,0-3.3c6.1,0,12.1,0,18,0c0,6.1,0,12,0,18c-6,0-12,0-18,0c0-1.3,0-2.5,0-3.6
		c0-0.2-0.4-0.4-0.6-0.7c-0.2,0.2-0.6,0.4-0.6,0.6c-0.1,1.6,0,3.2,0,4.8c6.9,0,13.7,0,20.6,0c0-6.1,0-12,0-17.9
		c0-0.8-0.1-1.7-0.1-2.5c-6.8,0-13.7,0-20.5,0c0,1.8,0,3.6,0,5.4C55.1,6.8,55.5,6.7,55.5,5.8z"/>
	<path class="st1" d="M56,14.3c-0.3-0.2-0.6-0.3-0.8-0.4c-1-0.6-1.3-1.6-0.9-2.7c0.4-1.1,1.3-1.3,2.4-1.3c0.5,0,1.1,0.1,1.6,0.3
		c0.8,0.2,1.4,0.7,1.3,1.7c-0.1,1.4-0.1,2.8,0,4.1c0.1,1.4-0.1,2.5-1.8,2.7c2.4,0,4.7,0,6.8,0c-0.5-0.5-1.4-1-1.5-1.6
		c-0.2-1.5-0.1-3-0.1-4.4c1.4,0.1,2.7,0.3,3.9,0.2c3.1-0.2,5.1-2.2,4.9-4.8c-0.2-1.9-1.6-3.9-3.9-4.1c-3.3-0.3-6.7-0.1-9.9-0.1
		c0.6,0.6,1.4,1,1.5,1.6c0.2,1.3,0.1,2.7,0.1,4.1c-0.8-0.3-1.4-0.5-2.1-0.7C56.7,9,56,9,55.3,9.1c-1.7,0.2-2.5,1.3-2.4,2.9
		C53,13.4,54.3,14.5,56,14.3z M64.6,4.7c1.6-0.1,3.2,0.7,3.7,2c0.6,1.4,0.7,2.9-0.4,4.1c-1.1,1.3-2.6,1.4-4.1,1.2
		c-0.7-0.1-0.9-0.5-0.9-1.2c0.1-0.8,0-1.6,0-2.4c0-0.7,0.1-1.3,0-2C62.7,5.1,63.5,4.7,64.6,4.7z"/>
	<path class="st1" d="M12.4,36.7c-0.2-1.8-1.5-3.2-3.7-3.4c-2.9-0.2-5.8-0.1-8.7-0.1c2.5,0.2,2.1,2,2.1,3.5c0,3.4,0,6.8,0,10.3
		c0,1.3,0.2,2.7-1.7,3c2.3,0,4.7,0,7,0c0-0.1,0-0.2,0-0.2c-0.1-0.1-0.1-0.1-0.2-0.1c-1.6,0.2-2-0.8-2-2.2C5.1,43.7,5,40,5,36.2
		c0-2.2,0.9-2.7,2.7-1.5c0.7,0.4,1.3,1.1,1.6,1.8c1.2,2.7,0,4.9-3.2,6c0,0.2,0.1,0.3,0.1,0.5c1.1-0.3,2.3-0.4,3.4-0.9
		C11.6,41.2,12.7,38.9,12.4,36.7z"/>
	<path class="st1" d="M41.7,40.5c0.5-0.7,1.2-1.2,1.6-1.9c1.4-2.1,0.7-5-1.6-5.4c-2.6-0.5-5.3-0.4-8-0.5c0,0.1-0.1,0.3-0.1,0.4
		c1.3,0,1.7,0.7,1.6,1.8c0,3.6,0,7.2-0.1,10.8c0,0.6-0.7,1.1-1,1.6c1.6,0,3.4,0,5.1,0c-0.5-0.4-1.4-0.7-1.4-1.1
		c-0.2-1.6-0.1-3.1-0.1-4.7c1.4-0.4,2.2,0.1,2.9,1.3c0.6,1,1.4,1.9,2.1,2.9c1.5,1.9,3.5,1.9,5.6,1.6C46.3,46.5,42.6,42.9,41.7,40.5z
		 M39.1,40.5c-1.1,0-1.6-0.4-1.6-1.6c0.1-1.4,0-2.8,0-4.2c0-0.9,0.4-1.2,1.2-1c1.3,0.2,2.3,0.8,2.6,2.1c0.4,1.5,0.4,2.9-0.7,4.1
		C40.3,40.2,39.6,40.3,39.1,40.5z"/>
	<path class="st1" d="M51.3,47.2c1.5,0,3.3,0,4.9,0c-0.4-0.4-1.3-0.8-1.3-1.3c-0.2-1.5-0.1-3-0.1-4.6c1.9-0.1,1.9-0.1,2.9,1.3
		c0.6,0.9,1.3,1.8,2,2.7c1.5,2.1,3.5,2.2,5.7,1.8c-3.4-1.1-4.6-4.3-7-6.7c0.5-0.4,1-0.7,1.4-1.1c1.1-1.2,1.7-2.6,1.1-4.3
		c-0.6-1.7-2-2.3-3.7-2.3c-0.3,0-0.5-0.1-0.8-0.1c-1.9,0-3.8,0-5.7,0c1.1,0.3,1.6,0.8,1.6,1.9c0,3.5,0,7-0.1,10.5
		C52.3,45.9,51.6,46.6,51.3,47.2z M54.7,34.7c-0.1-1,0.5-1.2,1.3-1.1c1.3,0.2,2.3,0.9,2.6,2.3c0.3,1.4,0.4,3-0.9,3.9
		c-0.6,0.4-1.7,0.4-2.5,0.3c-0.2,0-0.4-1-0.4-1.6c-0.1-0.6,0-1.2,0-1.7C54.7,36.2,54.8,35.5,54.7,34.7z"/>
	<path class="st1" d="M112.5,33c-0.2,0.9-0.4,2-0.6,3c1.7-2.5,4.3-1.1,6.5-1.8c0,4.1,0,8,0,11.8c0,1.5,0.7,3.4-1.7,3.9
		c2.3,0,4.7,0,7.4,0c-0.5-0.2-0.6-0.4-0.8-0.4c-1.6,0.1-1.9-0.8-1.9-2.2c0-3.3-0.1-6.6-0.1-9.8c0-1.1,0-2.1,0-3.1
		c3.9-0.3,4.9,0,6.1,2.1c0-1.4,0-2.4,0-3.6C122.6,33,117.7,33,112.5,33z"/>
	<path class="st1" d="M77.9,44.6c-0.8,1.7-3.8,2.4-5.3,1.2c-0.2-0.2-0.5-0.5-0.5-0.7c0-1.7,0-3.3,0-5.2c1.8,0.5,3.9-0.9,5,1.7
		c0.1-1.1,0.2-2,0.3-2.8c-1.8,0-3.5,0-5.3,0c0-1.6,0-3.3,0-5.1c1.8,0.7,4.1-1,5.3,1.9c0.1-1.1,0.2-2,0.3-2.8c-3.4,0-6.6,0-9.8,0
		c1.4,0.2,1.6,1.1,1.6,2.2c0,3.4,0,6.7,0,10.1c0,1-0.2,1.8-1.4,2.1c2.8,0.2,5.5,0.2,8.1,0.2C77.9,47.4,78.6,46.3,77.9,44.6z"/>
	<path class="st1" d="M19.6,35.2c0,3.2,0,6.5,0,9.7c0,1,0.1,2.1-1.4,2.4c2.7,0.2,5.2,0.2,7.8,0.2c2.2,0,2.6-0.5,2.2-2.8
		c-0.1,0-0.2,0.1-0.2,0.1c-0.7,1.6-4.1,2.2-5.4,0.9c-0.2-0.1-0.3-0.4-0.3-0.6c0-1.7,0-3.4,0-5.3c1.8,0.6,3.9-0.9,5,1.9
		c0.1-1.3,0.2-2.2,0.3-3c-1.9,0-3.5,0-5.2,0c0-1.6,0-3.3,0-5.1c1.8,0.7,4.1-1,5.3,2.1c0.1-1.3,0.2-2.2,0.2-3c-3.4,0-6.6,0-10.2,0
		C19.6,33.5,19.6,33.5,19.6,35.2z"/>
	<path class="st1" d="M107.7,44.6c-0.1,0.1-0.2,0.2-0.3,0.3c-0.7,1.5-4.1,2.1-5.3,0.9c-0.2-0.2-0.4-0.5-0.4-0.7c0-1.7,0-3.3,0-5.1
		c1.8,0.5,3.9-0.8,5,1.7c0.1-1.1,0.2-2,0.2-2.8c-1.8,0-3.5,0-5.3,0c0-1.6,0-3.2,0-5.1c1.9,0.6,4.1-1.1,5.4,1.9
		c0.1-1.2,0.2-2.1,0.3-2.9c-3.4,0-6.6,0-9.8,0c1.2,0.2,1.7,0.9,1.6,2.1c0,3.4,0,6.8,0,10.3c0,1-0.2,1.9-1.5,2.1
		c0.3,0.1,0.5,0.2,0.7,0.2c2.4,0,4.8,0.1,7.2,0.1C107.8,47.5,108.1,47,107.7,44.6z"/>
	<path class="st1" d="M93,44.4c-0.4,2-1.8,1.9-3.2,1.8c-2,0-2.3-0.3-2.3-2.3c0-2.9,0-5.8,0-8.6c0-1.2,0-2.3,1.6-2.5
		c-1.8,0-3.7,0-5.5,0c1.4,0.1,1.5,1.1,1.5,2.2c0,3.4,0,6.8,0,10.2c0,0.9-0.2,1.8-1.4,2.1c2.6,0.2,5.1,0.2,7.6,0.2
		C93.1,47.4,93.8,46.4,93,44.4z"/>
	<path class="st1" d="M72,17.5c0-1-0.9-1.9-1.9-1.9c-1,0-2,1-1.9,2c0,1,1,1.9,2,1.9C71.2,19.4,72,18.5,72,17.5z"/>
	<path class="st1" d="M65.7,58.4c1.3-1.7,1.3-4.1,2.7-5.8c-3.1-0.7-4.1-0.4-3.9,1c0.8-0.1,1.7-0.2,2.7-0.4c-0.8,1.8-1.4,3.3-2.1,4.8
		C65.2,58.2,65.5,58.3,65.7,58.4z"/>
	<path class="st1" d="M69.8,58.2c1.1-0.2,2.5-2.9,3.2-5.7c-3-0.6-3.8-0.3-3.7,1.1c0.8-0.1,1.7-0.2,2.7-0.4c-0.5,1.1-0.9,1.8-1.2,2.6
		C70.4,56.6,70.1,57.3,69.8,58.2z"/>
	<path class="st1" d="M60.8,52.3c-1.3,0-1.3,0.1-1.1,1.2c0.8-0.1,1.6-0.2,2.6-0.3c-0.8,1.8-1.4,3.3-2.1,4.8c0.2,0.1,0.4,0.2,0.6,0.3
		c1.5-1.6,1.4-4.1,3.1-6C62.5,52.3,61.6,52.3,60.8,52.3z"/>
	<path class="st1" d="M57.1,52.2c-0.8,0.5-1.5,1-2.1,1.4c0,0.1,0.1,0.1,0.1,0.2c0.3,0,0.6,0,1.1,0c-0.1,1.5-0.3,2.9-0.4,4.4
		c0.4,0,1.3,0,2,0C56.7,56.3,57.6,54.2,57.1,52.2z"/>
	<path class="st1" d="M109.1,66.9c-0.4-0.9-0.8-1.6-1.2-2.5c-0.4,0.9-0.6,1.6-1,2.6c-0.8-2.4-0.8-2.4-1.5-2.4
		c0.4,1.2,0.8,2.3,1.3,3.7c0.5-1.1,0.8-1.8,1.2-2.7c0.4,0.9,0.7,1.6,1.2,2.7c0.5-1.4,0.9-2.6,1.3-3.8c-0.1,0-0.2-0.1-0.4-0.1
		C109.7,65.2,109.5,66,109.1,66.9z"/>
	<path class="st1" d="M32.1,65.4c-0.5-0.3-1.1-0.4-1.8-0.5c-0.2,2.8-0.2,3,0.5,3.2c0-0.4,0.1-0.8,0.1-1.3c0.7,0.5,1.2,1,1.8,1.4
		c0.1-0.1,0.1-0.2,0.2-0.2c-0.3-0.4-0.7-0.8-0.9-1C32.1,66.3,32.3,65.6,32.1,65.4z"/>
	<path class="st1" d="M83.9,67.2c-0.4-0.8-0.8-1.5-1.1-2.1c-0.1,0-0.2,0.1-0.3,0.1c-0.1,1-0.3,2-0.4,3c0.1,0,0.2,0,0.3,0.1
		c0.1-0.5,0.3-1.1,0.4-1.7c0.4,0.6,0.6,1.1,1,1.7c0.4-0.6,0.7-1.1,1.1-1.6c0.2,0.7,0.4,1.2,0.6,1.8c0.1-0.1,0.3-0.1,0.4-0.2
		c-0.2-1-0.4-1.9-0.6-3.2C84.7,65.8,84.3,66.5,83.9,67.2z"/>
	<path class="st1" d="M126.7,65.1c0,0.4,0,0.8-0.1,1.2c-0.5,0-1,0-1.4,0c-0.2-0.5-0.3-0.9-0.5-1.3c-0.1,0-0.2,0.1-0.3,0.1
		c0,1,0,2,0,3.1c0.1,0,0.2,0.1,0.4,0.1c0.1-0.5,0.3-1,0.4-1.6c0.5,0,0.9,0,1.3,0c0.2,0.6,0.3,1.1,0.5,1.5c0.1,0,0.2-0.1,0.4-0.1
		C127.2,65.3,127.2,65.3,126.7,65.1z"/>
	<path class="st1" d="M54.6,66.3c-0.5,0-0.9,0-1.4,0c-0.1-0.5-0.2-0.9-0.2-1.3c-0.1,0-0.2,0-0.4,0c0,1,0,2.1,0,3.1
		c0.1,0,0.2,0.1,0.3,0.1c0.1-0.5,0.2-1,0.4-1.6c0.5,0,0.9,0,1.2,0c0.7,0.4-0.3,1.5,0.9,1.5c0-1.1,0-2.1,0-3.1
		c-0.1,0-0.2-0.1-0.3-0.1C54.9,65.4,54.7,65.9,54.6,66.3z"/>
	<path class="st1" d="M63.5,68.1c0.1,0.1,0.3,0.2,0.4,0.4c0-0.2,0-0.4,0.1-0.5c0.2-0.4,0.5-0.7,0.8-1c0.4,0.3,0.7,0.6,1.1,0.9
		c0.2,0.2,0.5,0.3,1,0.7c-0.7-1.6-1.2-2.8-1.8-4.3C64.5,65.7,64,66.9,63.5,68.1z"/>
	<path class="st1" d="M38.5,65c-1.2,0-1.9,0.6-1.8,1.6c0.1,1,0.7,1.6,1.7,1.6c1,0,1.9-0.8,1.9-1.7C40.2,65.5,39.5,65,38.5,65z
		 M39.5,66.7c-0.1,0.5-0.6,0.9-1,1.3c-0.5-0.4-0.9-0.8-1.7-1.5c0.7-0.6,1.1-1.1,1.5-1.2C39.3,65.2,39.7,65.9,39.5,66.7z"/>
	<path class="st1" d="M77.9,65.2c-0.5,0.3-0.9,1.3-0.9,1.9c0.1,1,1,1.3,2.2,0.9c0,0,0,0,0,0c1.2-0.2,1.4-1,1.2-2.1
		C80.1,65.1,78.8,64.6,77.9,65.2z M79.2,68c-0.9,0.1-1.4-0.3-1.6-1.2c-0.1-0.7-0.1-1.5,0.8-1.4c0.5,0,1.1,0.7,1.2,1.2
		C79.8,66.9,79.4,67.5,79.2,68z"/>
	<path class="st1" d="M25.8,65.2c-0.9,0.3-1.1,1.2-0.7,2.1c0.5,1,1.3,1.3,2.2,0.7c0,0,0,0,0,0c1.2-0.3,1.4-1.3,0.9-2.2
		C27.8,64.7,26.7,64.9,25.8,65.2z M27.3,68c-1.1,0.1-1.7-0.4-1.7-1.4c0-0.4,0.5-0.8,0.8-1.3c0.4,0.3,1.1,0.6,1.2,1
		C27.8,66.8,27.5,67.4,27.3,68z"/>
	<path class="st1" d="M18.5,67.1c-0.7-0.8-1.3-1.5-1.9-2.2c-0.2,0.1-0.3,0.2-0.5,0.2c-0.1,1-0.1,2-0.2,3c0.1,0,0.2,0,0.4,0
		c0-0.6,0-1.3,0-2.2c0.9,0.9,1.6,1.5,2.5,2.3c0.1-1.3,0.1-2.2,0.2-3.2c-0.1,0-0.3,0-0.4,0C18.5,65.7,18.5,66.3,18.5,67.1z"/>
	<path class="st1" d="M5.4,67c-0.1,0.1-0.3,0.2-0.4,0.2c-0.5-0.7-1.1-1.5-1.6-2.2c-0.1,0.1-0.2,0.1-0.3,0.2c0,1,0,2,0,3
		c0.1,0,0.2,0,0.2,0c0-0.6,0-1.3,0-2.2c0.9,0.9,1.6,1.5,2.5,2.4c0-1.3,0-2.3,0-3.3c-0.1,0-0.2,0-0.2,0C5.5,65.7,5.5,66.3,5.4,67z"/>
	<path class="st1" d="M111.4,68.1c0.1,0.3,0.1,0.5,0.2,0.8c0.8-3.5,1.7-0.9,2.8-0.6c-0.6-1.3-1-2.3-1.6-3.5
		C112.3,66.1,111.9,67.1,111.4,68.1z"/>
	<path class="st1" d="M87.4,68.1c0.1,0.3,0.2,0.6,0.2,0.9c0.7-3.7,1.7-0.7,2.7-0.7c-0.5-1.2-1-2.2-1.6-3.4
		C88.3,66.1,87.8,67.1,87.4,68.1z"/>
	<path class="st1" d="M57.8,65.1c0,1.1,0,2.1,0,3c0.6,0,1.1,0,1.6,0c-0.3-0.3-0.9-0.5-0.9-0.7c0-0.3,0.4-0.6,0.6-0.9
		c-0.1-0.1-0.4-0.4-0.7-0.6c0.3-0.3,0.6-0.5,0.9-0.8C58.8,65.1,58.3,65.1,57.8,65.1z"/>
	<path class="st1" d="M70.6,67.1c-0.1,0.3-0.6,0.6-0.8,0.8c-0.2-0.3-0.6-0.5-0.7-0.8c-0.1-0.7,0-1.3,0-2c-0.2,0-0.3,0-0.5,0
		c-0.5,0.8-0.4,1.7,0,2.5c0.2,0.4,1.1,0.7,1.6,0.6c0.9-0.1,1.1-1.5,0.4-3C70.6,65.8,70.7,66.5,70.6,67.1z"/>
	<path class="st1" d="M122.3,65.3c-0.9-0.3-1.9-0.6-2.5,0.4c-0.3,0.5-0.1,1.5,0.2,2c0.6,0.7,1.5,0.7,2.3,0.4
		c-0.7-0.3-1.5-0.4-1.9-0.8c-0.3-0.3-0.3-1.4,0-1.6C120.9,65.4,121.7,65.4,122.3,65.3z"/>
	<path class="st1" d="M99.4,65.8c0.5-0.4,1.2-0.4,1.7-0.5c-0.8-0.4-2-0.4-2.3,0.4c-0.2,0.6-0.2,1.5,0.1,2c0.5,0.8,1.5,0.8,2.3,0.5
		c-0.6-0.3-1.4-0.4-1.8-0.8C99.2,67,99.1,66,99.4,65.8z"/>
	<path class="st1" d="M43.3,65.1c-0.4,0-0.8,0-1.2,0c-0.3,2.7-0.2,2.9,0.6,3c0-0.4,0-0.9,0-1.4c0.3,0,0.7-0.1,0.9-0.1
		c-0.3-0.3-0.6-0.5-0.9-0.8c0.3-0.2,0.6-0.5,0.9-0.7C43.6,65.1,43.4,65.1,43.3,65.1z"/>
	<path class="st1" d="M20.8,65.1c0,0.1,0,0.1,0,0.2c0.3,0,0.6,0.1,1,0.1c0,1,0,1.9,0,2.7c0.2,0,0.3,0.1,0.5,0.1
		c0.4-0.9-0.1-2,0.3-2.9c0.3,0,0.6-0.1,0.9-0.1c0,0,0-0.1,0-0.1C22.5,65.1,21.7,65.1,20.8,65.1z"/>
	<path class="st1" d="M91.8,65.1c0.2,0.4,0.5,0.7,0.6,1.1c0.1,0.5,0,1,0,1.4c0,0.2,0.3,0.4,0.5,0.6c0.1,0,0.2-0.1,0.3-0.1
		c0-0.9,0-1.8,0-2.7c0.4,0,0.7-0.1,1-0.1c0-0.1,0-0.1,0-0.2C93.2,65.1,92.3,65.1,91.8,65.1z"/>
	<path class="st1" d="M48.1,65.1c1.8,0.4,0,2.5,1.4,3.3c0-1.1,0-2,0-2.9c0.4-0.1,0.7-0.1,1.1-0.2c0-0.1,0-0.1,0-0.2
		C49.8,65.1,48.9,65.1,48.1,65.1z"/>
	<path class="st1" d="M13.7,66.5c-0.2-0.2-0.5-0.4-0.7-0.7c0.3-0.2,0.6-0.5,0.9-0.7c-0.5,0-1,0-1.5,0c0,1,0,2,0,3c0.6,0,1.2,0,1.6,0
		c-0.3-0.3-0.6-0.6-1-0.8C13.2,67,13.5,66.7,13.7,66.5z"/>
	<path class="st1" d="M9.4,67c-0.9-0.4-0.4-1.9-1.8-2c0.5,1.1,1,2.1,1.5,3.3c0.6-1.2,1-2.2,1.4-3.2c-0.1-0.1-0.2-0.1-0.3-0.2
		C9.9,65.7,9.6,66.3,9.4,67z"/>
	<path class="st1" d="M115.3,65.1c0,0,0,0.1,0,0.1c0.4,0.1,0.7,0.1,1.1,0.2c0,1,0,1.8,0,2.7c0.1,0,0.3,0.1,0.4,0.1
		c0.8-0.8-0.1-2,0.4-2.9c0.3-0.1,0.5-0.1,0.8-0.2c0,0,0-0.1,0-0.1C117.1,65.1,116.2,65.1,115.3,65.1z"/>
	<path class="st1" d="M72.8,65.1c0,0.1,0,0.1,0,0.2c0.3,0,0.7,0.1,1,0.1c0.4,1-0.3,2.1,0.3,2.9c0.1,0,0.3-0.1,0.4-0.1
		c0-0.9,0-1.8,0-2.7c0.4-0.1,0.7-0.1,1-0.2c0,0,0-0.1,0-0.1C74.5,65.1,73.6,65.1,72.8,65.1z"/>
	<path class="st1" d="M96.4,68.1c0-1,0-2,0-3.4C95.6,66.2,95.8,67.9,96.4,68.1z"/>
	<path class="st1" d="M0.2,64.5C-0.1,68-0.1,68,0.7,68.1C0.5,66.9,0.9,65.6,0.2,64.5z"/>
</g>
<g>
	<path class="st1" d="M198,153.9c0.7-0.4,1.2-0.8,1.6-1.3c0.3-0.5,0.5-1.1,0.5-1.8c0-1.2-0.5-2.2-1.4-2.8c-1-0.7-2.3-1-4-1h-10.3
		v0.4c0.3,0.1,0.5,0.2,0.6,0.3c0.1,0.1,0.1,0.3,0.1,0.6v12.7c0,0.3,0,0.4-0.1,0.6c-0.1,0.1-0.3,0.2-0.6,0.3v0.4h9.9
		c2,0,3.5-0.4,4.6-1.2c1.1-0.8,1.6-1.9,1.6-3.3c0-0.8-0.2-1.6-0.6-2.2C199.5,154.9,198.9,154.3,198,153.9z M188.5,149.4h5.3
		c1.2,0,2,0.1,2.4,0.4c0.5,0.2,0.7,0.7,0.7,1.3c0,0.6-0.2,1-0.7,1.2c-0.4,0.3-1.1,0.4-2,0.4h-5.8V149.4z M196.4,159
		c-0.6,0.3-1.6,0.5-3.1,0.5h-4.9v-4.1h5c1.4,0,2.4,0.2,3,0.5c0.6,0.3,0.9,0.9,0.9,1.6C197.3,158.2,197,158.7,196.4,159z"/>
	<path class="st1" d="M219.9,160.2l-3.2-4.5c1.4-0.4,2.4-0.9,3.1-1.7c0.7-0.7,1-1.7,1-2.8c0-1.4-0.5-2.5-1.6-3.2
		c-1.1-0.8-2.6-1.2-4.6-1.2h-9.5v0.4c0.3,0.1,0.5,0.2,0.6,0.3c0.1,0.1,0.1,0.3,0.1,0.6v12.7c0,0.3,0,0.5-0.1,0.6
		c-0.1,0.1-0.3,0.2-0.6,0.3v0.4h4.8v-0.4c-0.3-0.1-0.5-0.1-0.6-0.3c-0.1-0.1-0.1-0.3-0.1-0.6v-5h4.1l3.2,4.6
		c0.1,0.1,0.2,0.3,0.2,0.4c0.1,0.2,0.1,0.3,0.1,0.3c0,0.1-0.1,0.2-0.2,0.3c-0.1,0.1-0.3,0.1-0.5,0.2v0.4h5.6v-0.4
		c-0.5-0.3-0.9-0.5-1.2-0.7C220.3,160.8,220.1,160.5,219.9,160.2z M213.8,153.7h-4.7v-4.2h4.6c1.5,0,2.5,0.2,3.1,0.5
		c0.6,0.3,0.9,0.8,0.9,1.6c0,0.8-0.3,1.3-0.9,1.6C216.2,153.5,215.2,153.7,213.8,153.7z"/>
	<path class="st1" d="M239.7,159.2c-0.1,0.1-0.3,0.1-0.6,0.1h-9.7v-3.9h6.1c0.3,0,0.5,0,0.6,0.1c0.1,0.1,0.2,0.3,0.2,0.6h0.4v-3.8
		h-0.4c-0.1,0.3-0.2,0.5-0.3,0.6c-0.1,0.1-0.3,0.1-0.6,0.1h-6.1v-3.3h9.6h0.1c0.2,0,0.4,0,0.5,0.1c0.1,0.1,0.2,0.3,0.2,0.6h0.4v-4.1
		h-0.4c-0.1,0.3-0.1,0.5-0.2,0.6c-0.1,0.1-0.3,0.1-0.6,0.1h-13.6v0.4c0.3,0.1,0.5,0.2,0.6,0.3c0.1,0.1,0.1,0.3,0.1,0.6v12.7
		c0,0.3,0,0.4-0.1,0.6c-0.1,0.1-0.3,0.2-0.6,0.3v0.4h13.8c0.3,0,0.5,0,0.6,0.1c0.1,0.1,0.2,0.3,0.3,0.6h0.4v-4.1H240
		C239.9,158.9,239.8,159.1,239.7,159.2z"/>
	<path class="st1" d="M245.1,147.3c0.3,0.1,0.5,0.1,0.6,0.2c0.1,0.1,0.1,0.3,0.1,0.6v12.7c0,0.3,0,0.5-0.1,0.6
		c-0.1,0.1-0.3,0.2-0.6,0.3v0.4h4.7v-0.4c-0.3-0.1-0.5-0.2-0.6-0.3c-0.1-0.1-0.1-0.3-0.1-0.6v-12.7c0-0.3,0-0.5,0.1-0.6
		c0.1-0.1,0.3-0.2,0.6-0.2v-0.4h-4.7V147.3z"/>
	<path class="st1" d="M259.4,149.6v11.3c0,0.3-0.1,0.5-0.2,0.6c-0.1,0.1-0.3,0.2-0.6,0.3v0.4h4.7v-0.4c-0.3-0.1-0.5-0.1-0.6-0.2
		c-0.1-0.1-0.1-0.3-0.1-0.6v-11.3h4.7c0.3,0,0.5,0,0.6,0.1c0.1,0.1,0.2,0.3,0.3,0.6h0.4v-4.1h-0.4c-0.1,0.3-0.1,0.5-0.2,0.6
		c-0.1,0.1-0.3,0.1-0.6,0.1h-12.7c-0.3,0-0.5,0-0.6-0.1c-0.1-0.1-0.2-0.3-0.3-0.6h-0.4v4.1h0.4c0.1-0.3,0.1-0.5,0.2-0.6
		c0.1-0.1,0.3-0.1,0.6-0.1H259.4z"/>
	<path class="st1" d="M286.7,159.2c-0.1,0.1-0.3,0.1-0.6,0.1h-9.5v-11.2c0-0.3,0-0.5,0.1-0.6c0.1-0.1,0.3-0.2,0.6-0.3v-0.4h-4.8v0.4
		c0.3,0.1,0.5,0.2,0.6,0.3c0.1,0.1,0.1,0.3,0.1,0.6v12.7c0,0.3,0,0.4-0.1,0.6c-0.1,0.1-0.3,0.2-0.6,0.3v0.4h13.6
		c0.3,0,0.5,0,0.6,0.1c0.1,0.1,0.2,0.3,0.3,0.6h0.4v-4.1l-0.4,0C286.8,158.9,286.7,159.1,286.7,159.2z"/>
	<path class="st1" d="M290.9,147.3c0.3,0.1,0.5,0.1,0.6,0.2c0.1,0.1,0.1,0.3,0.1,0.6v12.7c0,0.3,0,0.5-0.1,0.6
		c-0.1,0.1-0.3,0.2-0.6,0.3v0.4h4.7v-0.4c-0.3-0.1-0.5-0.2-0.6-0.3c-0.1-0.1-0.1-0.3-0.1-0.6v-12.7c0-0.3,0-0.5,0.1-0.6
		c0.1-0.1,0.3-0.2,0.6-0.2v-0.4h-4.7V147.3z"/>
	<path class="st1" d="M313.1,147.3c0.3,0.1,0.5,0.2,0.6,0.3c0.1,0.1,0.1,0.3,0.1,0.6v8.7l-7.9-8.4c-0.1-0.1-0.2-0.3-0.3-0.4
		c-0.1-0.1-0.1-0.2-0.1-0.3c0-0.1,0.1-0.2,0.1-0.3c0.1-0.1,0.2-0.1,0.3-0.2v-0.4h-5.2v0.4c0.3,0.1,0.5,0.2,0.6,0.3
		c0.1,0.1,0.1,0.3,0.1,0.6v12.7c0,0.3,0,0.4-0.1,0.6c-0.1,0.1-0.3,0.2-0.6,0.3v0.4h4.2v-0.4c-0.3-0.1-0.4-0.1-0.5-0.2
		c-0.1-0.1-0.1-0.3-0.1-0.6v-9.1l8.3,8.8c0.1,0.1,0.2,0.3,0.3,0.4c0.1,0.1,0.1,0.2,0.1,0.3c0,0.1,0,0.2-0.1,0.3
		c-0.1,0.1-0.2,0.1-0.3,0.2v0.4h4.8v-0.4c-0.3-0.1-0.4-0.1-0.5-0.2c-0.1-0.1-0.1-0.3-0.1-0.6v-12.7c0-0.3,0-0.5,0.1-0.6
		c0.1-0.1,0.3-0.2,0.5-0.3v-0.4h-4.2V147.3z"/>
	<path class="st1" d="M338,155.1c0.1-0.1,0.3-0.2,0.6-0.3v-0.4h-7.2c-0.3,0-0.5,0-0.6-0.1c-0.1-0.1-0.2-0.3-0.3-0.6h-0.4v3.5h0.4
		c0.1-0.3,0.2-0.5,0.3-0.6c0.1-0.1,0.3-0.1,0.6-0.1h3.8v2.1c-0.9,0.3-1.7,0.6-2.4,0.7c-0.8,0.2-1.5,0.2-2.2,0.2
		c-1.8,0-3.3-0.5-4.5-1.5c-1.2-1-1.8-2.2-1.8-3.7c0-1.6,0.5-2.8,1.6-3.8c1.1-1,2.5-1.5,4.2-1.5c1.2,0,2.4,0.2,3.5,0.7
		c1.1,0.5,1.7,0.9,1.7,1.3c0,0,0,0.1,0,0.1c0,0,0,0,0,0.1l0.3,0.2l1.9-3.6l-0.3-0.2c0,0-0.1,0-0.2,0c-0.3,0.1-0.5,0.1-0.6,0.1
		c0,0-0.7-0.2-2-0.6c-1.3-0.4-2.7-0.6-4-0.6c-2.7,0-4.9,0.7-6.6,2.2c-1.7,1.5-2.6,3.4-2.6,5.7c0,2.3,0.8,4.1,2.5,5.7
		c1.7,1.5,3.8,2.3,6.3,2.3c1.3,0,2.8-0.2,4.3-0.7s2.9-1,4.3-1.8v-0.4c-0.3-0.1-0.5-0.1-0.6-0.3c-0.1-0.1-0.1-0.3-0.1-0.6v-3
		C337.8,155.4,337.9,155.2,338,155.1z"/>
	<path class="st1" d="M251.2,166.5c0.1,0,0.2,0.1,0.2,0.1c0,0,0.1,0.1,0.1,0.2v0.2l-0.4,0.1c0,0-0.1,0-0.1,0c0,0,0,0,0,0
		c-0.1,0-0.1,0-0.1-0.1c0,0-0.1-0.1-0.1-0.2l-0.1,0v1.6l0.1,0c0-0.2,0.1-0.3,0.3-0.3c0,0,0,0,0,0l0.4-0.1v3.7c0,0.1,0,0.2-0.1,0.2
		c0,0-0.1,0.1-0.2,0.1v0.1h1.8v-0.1c-0.1,0-0.2-0.1-0.2-0.1c0,0-0.1-0.1-0.1-0.2v-4.9c0-0.1,0-0.2,0.1-0.2c0,0,0.1-0.1,0.2-0.1v-0.1
		h-1.8V166.5z"/>
	<path class="st1" d="M258.6,169.1c0.4-0.1,0.6-0.3,0.8-0.5c0.2-0.2,0.2-0.4,0.2-0.7c0-0.5-0.2-0.9-0.7-1.2
		c-0.5-0.3-1.1-0.4-1.9-0.4c-0.8,0-1.4,0.1-1.9,0.4c-0.5,0.3-0.7,0.7-0.7,1.2c0,0.3,0.1,0.6,0.3,0.8c0.2,0.2,0.5,0.4,0.8,0.5
		c-0.5,0.1-0.8,0.3-1,0.5c-0.2,0.2-0.3,0.5-0.3,0.9c0,0.6,0.3,1,0.8,1.4c0.5,0.3,1.2,0.5,2.1,0.5c0.9,0,1.6-0.2,2.1-0.5
		c0.5-0.3,0.7-0.8,0.7-1.4c0-0.4-0.1-0.7-0.3-0.9C259.3,169.4,259,169.2,258.6,169.1z M256.1,167.4c0.2-0.1,0.6-0.2,1-0.2
		c0.4,0,0.7,0.1,1,0.2c0.2,0.1,0.4,0.3,0.4,0.5c0,0.2-0.1,0.4-0.3,0.5c-0.2,0.1-0.6,0.2-1,0.2c-0.4,0-0.8-0.1-1-0.2
		c-0.2-0.1-0.3-0.3-0.3-0.5C255.7,167.7,255.8,167.5,256.1,167.4z M258.2,171.2c-0.3,0.2-0.6,0.2-1.1,0.2s-0.9-0.1-1.1-0.2
		c-0.3-0.2-0.4-0.4-0.4-0.7c0-0.3,0.1-0.5,0.4-0.6c0.3-0.2,0.7-0.2,1.1-0.2c0.5,0,0.9,0.1,1.1,0.2c0.3,0.2,0.4,0.4,0.4,0.6
		C258.6,170.8,258.5,171,258.2,171.2z"/>
	<path class="st1" d="M265.4,169.1c0.4-0.1,0.6-0.3,0.8-0.5c0.2-0.2,0.2-0.4,0.2-0.7c0-0.5-0.2-0.9-0.7-1.2
		c-0.5-0.3-1.1-0.4-1.9-0.4c-0.8,0-1.4,0.1-1.9,0.4c-0.5,0.3-0.7,0.7-0.7,1.2c0,0.3,0.1,0.6,0.3,0.8c0.2,0.2,0.5,0.4,0.8,0.5
		c-0.5,0.1-0.8,0.3-1,0.5c-0.2,0.2-0.3,0.5-0.3,0.9c0,0.6,0.3,1,0.8,1.4c0.5,0.3,1.2,0.5,2.1,0.5c0.9,0,1.6-0.2,2.1-0.5
		c0.5-0.3,0.7-0.8,0.7-1.4c0-0.4-0.1-0.7-0.3-0.9C266.1,169.4,265.8,169.2,265.4,169.1z M262.9,167.4c0.2-0.1,0.6-0.2,1-0.2
		c0.4,0,0.7,0.1,1,0.2c0.2,0.1,0.4,0.3,0.4,0.5c0,0.2-0.1,0.4-0.3,0.5c-0.2,0.1-0.6,0.2-1,0.2c-0.4,0-0.8-0.1-1-0.2
		c-0.2-0.1-0.3-0.3-0.3-0.5C262.5,167.7,262.6,167.5,262.9,167.4z M265,171.2c-0.3,0.2-0.6,0.2-1.1,0.2c-0.5,0-0.9-0.1-1.1-0.2
		c-0.3-0.2-0.4-0.4-0.4-0.7c0-0.3,0.1-0.5,0.4-0.6c0.3-0.2,0.7-0.2,1.1-0.2c0.5,0,0.9,0.1,1.1,0.2c0.3,0.2,0.4,0.4,0.4,0.6
		C265.4,170.8,265.3,171,265,171.2z"/>
	<path class="st1" d="M272.4,170.2c0,0-0.1,0.1-0.2,0.1h-0.3v-3.4c0-0.1,0-0.2,0.1-0.2c0,0,0.1-0.1,0.2-0.1v-0.1h-2.2v0.1
		c0.1,0,0.1,0,0.2,0.1c0,0,0,0.1,0,0.1c0,0,0,0.1,0,0.1c0,0-0.1,0.1-0.1,0.1l-3,3.3v1.3h0.1c0-0.1,0.1-0.2,0.1-0.2
		c0,0,0.1-0.1,0.2-0.1h3.2v0.5c0,0.1,0,0.2-0.1,0.2c0,0-0.1,0.1-0.2,0.1v0.1h1.8l0-0.1c-0.1,0-0.2-0.1-0.2-0.1c0,0-0.1-0.1-0.1-0.2
		v-0.5h0.3c0.1,0,0.2,0,0.2,0.1c0,0,0.1,0.1,0.1,0.2h0.1V170h-0.1C272.5,170.1,272.4,170.2,272.4,170.2z M270.7,170.3h-2.5l2.5-2.7
		V170.3z"/>
	<path class="st1" d="M261.4,142c0.1-0.9,0.4-1.6,1.2-1.9c2.3-0.2,4.6-1.5,6.9-3.8c0.3,0.1,0.6,0.3,1,0.4c1.6-2.3,1.8-4.8,1-7.1
		c-0.7,1.8-2.1,3.5-3.6,4.4c0.2,0.4,0.6,0.7,0.7,1.1c-1.4,1.2-2.9,2.1-4.5,2.5c-0.2-0.6-0.8-1.1-1.6-1.2v-5c4.7,3.1,10.1-3.2,6-8.2
		c4.3-4.5,0.6-8.1-6-5.3v-1.2c0.6-0.4,1-1.1,1-1.8c0-1.2-1-2.2-2.2-2.2c-1.2,0-2.2,1-2.2,2.2c0,0.8,0.4,1.5,1,1.8v2.3c0,0,0,0,0,0
		c-13.9,8.8-6.8,18.8,0,10.1v7.1c-0.8,0-1.5,0.5-1.8,1.2c-1.6-0.4-3-1.3-4.3-2.4c0.2-0.4,0.6-0.7,0.7-1.1c-1.6-1-2.9-2.6-3.6-4.4
		c-0.8,2.3-0.6,4.8,1,7.1c0.3-0.1,0.6-0.3,1-0.4c2.3,2.3,4.6,3.6,6.9,3.8C260.8,140.4,261.2,141.1,261.4,142z M262.4,119.4
		c3.4-1.6,7.5-1.2,4.7,3c-6.5-1.7-4.3,4.6-0.1,2c1.9,2.4-2.3,8.9-4.6,4.4V119.4z M265.9,123.4L265.9,123.4
		C264,124.4,264,122.4,265.9,123.4z M260,121c0.1-0.1,0.1-0.1,0.2-0.2v6.7C253.5,134.7,251.4,126.7,260,121z"/>
	
		<ellipse transform="matrix(0.9037 -0.4282 0.4282 0.9037 -29.3173 130.292)" class="st1" cx="274.9" cy="130.3" rx="0.3" ry="0.2"/>
	
		<ellipse transform="matrix(0.6705 0.7419 -0.7419 0.6705 186.7813 -163.4397)" class="st1" cx="277.4" cy="128.6" rx="0.3" ry="0.5"/>
	<path class="st1" d="M295.8,122.1c-1.4,0.4-14.8,0.2-19.6-0.6c-4.8-0.8-7.2,1.1-5.1,5.2c1,1.6,1.5,3.4,1.5,5.5
		c-0.6,3.7,3.6,4.5,6.7,1.6c1.4,0,2.4-0.2,2.8-1.2c1.3,0.3,2.4-0.2,3-1.2c1.6,0.3,2.6-0.1,3.4-1.4c1.4,0.1,2.6-0.3,3.3-1.6
		c1.5-0.5,2.3-1.2,2.3-2.2c1.6-0.6,2.4-1.4,2.2-2.4C297.7,123.8,297.2,121.8,295.8,122.1z M293.6,126.1c0,0.8-1,1.7-2.3,2.1
		c-0.6,1-1.7,1.6-3,1.5c-0.7,1-2.2,1.6-3.6,1.4c-0.5,0.8-1.8,1.4-2.9,1.2c-0.3,0.7-1.5,1.1-2.8,1.1c-2.7,2.2-6.1,1.8-5.6-1
		c0-1.6-0.2-3.4-0.7-4.5c-1.8-3.4,0.1-4.3,4.3-3.6c4.2,0.7,15.8,0.4,17-0.1C296,123.7,295.2,125.6,293.6,126.1z M295.4,123.5
		c-0.3,0.2-6.5,0.8-12.2,0.6c-5-0.2-8.3-0.9-9.9-0.6c-0.7,0.1-1.5-0.3-0.1-0.7c3.2-0.3,6.5,0.7,9.7,0.7c4.1,0.1,8.2,0,12.3-0.5
		C296,123.1,296.3,123.3,295.4,123.5z"/>
	
		<ellipse transform="matrix(0.7857 -0.6186 0.6186 0.7857 -20.7884 198.748)" class="st1" cx="276.5" cy="129.4" rx="0.3" ry="0.2"/>
	
		<ellipse transform="matrix(0.4703 0.8825 -0.8825 0.4703 260.7795 -174.4941)" class="st1" cx="275.7" cy="130" rx="0.2" ry="0.3"/>
	<path class="st1" d="M284.6,125.2c-3.2-0.2-6.4-0.3-9.7-0.5c-2.3-0.2-2.4,1.1-1.6,2.4c-0.2,0.7-0.2,1.3-0.1,2.2
		c0.7,1.4,3.2,0.3,3.1-0.9c0.9-0.2,1.2-0.7,1.2-1.4c0.6-0.1,1.1-0.6,1.3-1.5c0.4,0.4-0.6,1.4,0.4,1c0.3-0.1,0.5-0.4,0.4-0.9
		c0.7,0,1.4,0.1,2.1,0.1c0.3,0.3,0.3,0.4-0.1,0.5c-0.6,0-1.2,0.1-1.8,0.1c-0.3,0.1-0.3,0.3-0.4,0.6c0.6,0.1,1.1,0.1,1.7,0.1
		c0.3,0.2,0.6,0.3-0.1,0.7c-0.7,0-1.4,0-2.1,0c-0.3,0.2-0.4,0.4-0.3,0.6c0.5,0,0.9,0.1,1.4,0.1c0.1,0,0.1,0.4-0.3,0.5
		c-0.2,0.1-1.7-0.2-1.7-0.2c-0.2,0-0.4,0.1-0.3,0.4c0.4,0.1,0.9,0.3,1.3,0.4c-0.2,0.2-0.3,0.3-0.5,0.5c-0.5-0.1-1.1-0.2-1.6-0.3
		c-0.3,0-0.5,0.2-0.5,0.4c0.4,0.1,0.8,0.3,1.2,0.4c0.2,0.2-0.1,0.3-0.6,0.3c-0.3-0.2-0.7-0.3-1-0.5c-0.4,0-0.6,0.1-0.5,0.3
		c0.3,0.2,0.5,0.4,0.8,0.5c0,0.2-0.2,0.3-0.6,0.2c-0.3-0.2-0.5-0.4-0.8-0.7c-0.3-0.1-0.5,0.1-0.5,0.3c0.9,1.2,2.2,2,3.5,2.6
		c0.4-0.1,0.7-0.2,0.5-0.4c-0.8-0.4-1.6-0.8-2.2-1.3c0.6,0.1,1-0.1,1-0.6c1,0.5,2.4,0.8,3.9,1.1c0.4-0.1,0.5-0.3,0.3-0.4
		c-1.2-0.3-2.4-0.5-3.3-1c0.3-0.1,0.4-0.3,0.4-0.6c1.6,0.5,3.4,0.8,5.3,0.9c0.4-0.2,0.6-0.4,0.2-0.5c-1.7-0.1-3.3-0.4-4.7-0.8
		c0.5-0.1,0.5-0.4,0.4-0.7c2.2,0.4,4.6,0.6,7.2,0.7c0.5-0.1,0.8-0.3,0.6-0.5c-2.4-0.1-4.7-0.3-6.8-0.6c0.3-0.1,0.4-0.3,0.2-0.6
		c3,0.3,6.1,0.4,9.3,0.4c0.4-0.3,0.6-0.6,0.3-0.8c-3,0-5.9,0-8.7-0.2c0.6,0,0.6-0.3,0.3-0.9c3.5,0.1,7,0.1,10.5-0.1
		c0.4-0.3,0.6-0.6,0.3-0.8c-3.5,0.2-7,0.3-10.6,0.2c0.2-0.2,0.2-0.4,0-0.6c3.7,0.1,7.6,0,11.4-0.2c0.5-0.4,0.6-0.6,0.4-0.7
		C291.2,125.1,287.9,125.2,284.6,125.2z M275.1,129.4c-0.5,0.1-0.7,0.1-0.9,0c-0.4-0.3-0.3-0.7,0.3-0.7c0.4-0.1,0.8-0.1,1.2-0.1
		C276,128.6,275.3,129.4,275.1,129.4z M276.1,127.8c-0.6,0-1.1,0-1.3,0c-0.5-0.2-0.3-0.5,0.4-0.5c0.5,0,0.9,0,1.4,0
		C276.9,127.3,276.3,127.8,276.1,127.8z M277,126.4c-0.9,0.1-1.6,0-2-0.1c-0.7-0.2-0.5-0.6,0.6-0.7c0.7,0,1.4,0,2.1,0
		C278.2,125.7,277.3,126.5,277,126.4z"/>
	
		<ellipse transform="matrix(0.6705 0.7419 -0.7419 0.6705 186.2452 -164.5277)" class="st1" cx="278.4" cy="127.4" rx="0.3" ry="0.6"/>
	
		<ellipse transform="matrix(-0.7857 -0.6186 0.6186 -0.7857 359.5378 383.3157)" class="st1" cx="246.2" cy="129.4" rx="0.3" ry="0.2"/>
	
		<ellipse transform="matrix(-0.8825 -0.4702 0.4702 -0.8825 403.6888 360.7953)" class="st1" cx="246.9" cy="130" rx="0.3" ry="0.2"/>
	
		<ellipse transform="matrix(-0.7421 -0.6703 0.6703 -0.7421 341.1077 388.3461)" class="st1" cx="245.3" cy="128.6" rx="0.5" ry="0.3"/>
	
		<ellipse transform="matrix(-0.9038 -0.428 0.428 -0.9038 415.8003 354.1066)" class="st1" cx="247.7" cy="130.3" rx="0.3" ry="0.2"/>
	<path class="st1" d="M251.6,126.8c2.1-4.1-0.4-6-5.1-5.2c-4.8,0.8-18.1,0.9-19.6,0.6c-1.4-0.4-1.9,1.7-0.4,1.9
		c-0.3,1,0.6,1.8,2.2,2.4c0,1,0.8,1.7,2.3,2.2c0.7,1.4,1.9,1.7,3.3,1.6c0.8,1.3,1.8,1.6,3.4,1.4c0.6,1,1.7,1.4,3,1.2
		c0.4,0.9,1.4,1.2,2.8,1.2c3,2.8,7.3,2,6.7-1.6C250.1,130.2,250.6,128.4,251.6,126.8z M227.4,123.1c4.1,0.5,8.2,0.6,12.3,0.5
		c3.3-0.1,6.5-1.1,9.7-0.7c1.5,0.3,0.6,0.8-0.1,0.7c-1.7-0.3-5,0.4-9.9,0.6c-5.7,0.2-11.8-0.4-12.2-0.6
		C226.3,123.3,226.7,123.1,227.4,123.1z M249.3,132.5c0.5,2.8-2.9,3.2-5.6,1c-1.2,0-2.4-0.4-2.8-1.1c-1.1,0.2-2.4-0.4-2.9-1.2
		c-1.4,0.2-2.9-0.4-3.6-1.4c-1.2,0.1-2.4-0.5-3-1.5c-1.4-0.4-2.3-1.3-2.3-2.1c-1.7-0.6-2.5-2.5-0.3-1.8c1.2,0.4,12.9,0.8,17,0.1
		c4.2-0.7,6,0.2,4.3,3.6C249.5,129.1,249.3,130.9,249.3,132.5z"/>
	<path class="st1" d="M247.7,124.8c-3.2,0.2-6.4,0.3-9.7,0.5c-3.3,0-6.5-0.1-9.7-0.3c-0.2,0.1-0.1,0.3,0.4,0.7
		c3.9,0.2,7.7,0.3,11.4,0.2c-0.2,0.2-0.2,0.4,0,0.6c-3.5,0.1-7,0-10.6-0.2c-0.3,0.3,0,0.5,0.3,0.8c3.5,0.2,7,0.2,10.5,0.1
		c-0.3,0.5-0.3,0.8,0.3,0.9c-2.8,0.2-5.7,0.3-8.7,0.2c-0.3,0.2-0.1,0.5,0.3,0.8c3.2,0,6.3-0.1,9.3-0.4c-0.2,0.3-0.1,0.5,0.2,0.6
		c-2.1,0.3-4.4,0.5-6.8,0.6c-0.3,0.2,0,0.4,0.6,0.5c2.6-0.1,5-0.3,7.2-0.7c-0.1,0.3-0.1,0.6,0.4,0.7c-1.4,0.4-3,0.6-4.7,0.8
		c-0.4,0.1-0.2,0.3,0.2,0.5c2-0.1,3.8-0.4,5.3-0.9c0,0.3,0.2,0.5,0.4,0.6c-0.9,0.4-2.1,0.7-3.3,1c-0.2,0.1-0.1,0.3,0.3,0.4
		c1.5-0.3,2.9-0.6,3.9-1.1c0,0.5,0.4,0.6,1,0.6c-0.7,0.5-1.4,0.9-2.2,1.3c-0.1,0.2,0.1,0.4,0.5,0.4c1.3-0.7,2.6-1.4,3.5-2.6
		c0-0.3-0.1-0.4-0.5-0.3c-0.3,0.2-0.5,0.4-0.8,0.7c-0.5,0.1-0.7,0-0.6-0.2c0.3-0.2,0.5-0.4,0.8-0.5c0.1-0.2-0.1-0.3-0.5-0.3
		c-0.3,0.2-0.7,0.3-1,0.5c-0.6,0-0.8-0.1-0.6-0.3c0.4-0.1,0.8-0.3,1.2-0.4c0-0.3-0.2-0.4-0.5-0.4c-0.5,0.1-1.1,0.2-1.6,0.3
		c-0.2-0.2-0.3-0.3-0.5-0.5c0.4-0.1,0.9-0.3,1.3-0.4c0-0.3-0.1-0.4-0.3-0.4c0,0-1.5,0.3-1.7,0.2c-0.4-0.1-0.4-0.5-0.3-0.5
		c0.5,0,0.9-0.1,1.4-0.1c0.1-0.2,0-0.4-0.3-0.6c-0.7,0-1.4,0-2.1,0c-0.7-0.3-0.5-0.5-0.1-0.7c0.6-0.1,1.1-0.1,1.7-0.1
		c-0.1-0.2-0.1-0.5-0.4-0.6c-0.6,0-1.2-0.1-1.8-0.1c-0.3-0.1-0.4-0.2-0.1-0.5c0.7,0,1.4-0.1,2.1-0.1c-0.1,0.5,0.1,0.8,0.4,0.9
		c1,0.4,0-0.6,0.4-1c0.2,0.9,0.6,1.4,1.3,1.5c0,0.7,0.4,1.2,1.2,1.4c-0.1,1.2,2.4,2.3,3.1,0.9c0.1-0.9,0.1-1.5-0.1-2.2
		C250,125.9,249.9,124.6,247.7,124.8z M245,125.7c0.7,0,1.4,0,2.1,0c1.1,0.1,1.3,0.4,0.6,0.7c-0.4,0.1-1.1,0.1-2,0.1
		C245.4,126.5,244.4,125.7,245,125.7z M246.6,127.8c-0.2,0-0.8-0.5-0.5-0.6c0.5,0,0.9,0,1.4,0c0.7,0,0.9,0.3,0.4,0.5
		C247.6,127.8,247.2,127.9,246.6,127.8z M248.5,129.3c-0.2,0.1-0.4,0.1-0.9,0c-0.2,0.1-1-0.8-0.7-0.8c0.4,0,0.8,0,1.2,0.1
		C248.7,128.7,248.8,129,248.5,129.3z"/>
	
		<ellipse transform="matrix(-0.7422 -0.6702 0.6702 -0.7422 340.1883 385.7184)" class="st1" cx="244.3" cy="127.4" rx="0.6" ry="0.3"/>
</g>
<g>
	<path class="st1" d="M50.5,126.4c0-6.4,4.4-12.2,11.5-12.2c7.1,0,11.5,5.8,11.5,12.2c0,6.2-3.5,11.2-8.3,14.8l0.2,0.4h11.3L79,137
		h-1.2l-1.6,2.3h-5.8c4-2.8,7.3-7.3,7.3-12.8c0-8.7-7.9-13.8-15.9-13.8c-8,0-15.9,5.1-15.9,13.8c0,5.5,3.3,9.9,7.3,12.8h-5.8
		l-1.5-2.3h-1.2l2.4,4.7h11.3l0.2-0.4C54,137.7,50.5,132.6,50.5,126.4z"/>
	<polygon class="st1" points="41.7,163.8 34.9,148 27.4,171.7 31,171.7 35.4,157.7 41.7,172.4 48,157.7 52.3,171.7 56,171.7 
		48.5,148 	"/>
	<path class="st1" d="M14.5,148.1c-6.6,0-12,5.4-12,12c0,6.6,5.4,12,12,12c6.6,0,12-5.4,12-12C26.6,153.5,21.1,148.1,14.5,148.1z
		 M14.5,168.8c-4.8,0-8.6-3.8-8.6-8.7c0-4.9,3.8-8.7,8.6-8.7s8.6,3.8,8.6,8.7C23.1,165,19.3,168.8,14.5,168.8z"/>
	<path class="st1" d="M112.6,147.3l-12.4,24.4h3.9l2.4-4.8h12.3l2.4,4.8h3.9L112.6,147.3z M108.2,163.6l4.4-8.7l4.4,8.7H108.2z"/>
	<polygon class="st1" points="58.9,171.7 73,171.7 73,168.4 62.4,168.4 62.4,161.8 72.6,161.8 72.6,158.5 62.4,158.5 62.4,152 
		73,152 73,148.6 58.9,148.6 	"/>
	<path class="st1" d="M100.5,159.3H88.7v3.4h8.1c-1,3.6-4.4,6.2-8.3,6.2c-4.8,0-8.6-3.8-8.6-8.7c0-4.9,3.8-8.7,8.6-8.7
		c3,0,5.5,1.5,7.1,3.7l2.8-2c-2.2-3.1-5.8-5.1-9.8-5.1c-6.6,0-12,5.4-12,12c0,6.6,5.4,12,12,12c6.6,0,12-5.4,12-12
		C100.5,159.9,100.5,159.6,100.5,159.3z"/>
</g>
</svg>
