<?xml version="1.0" encoding="utf-8"?>
<!-- Generator: Adobe Illustrator 18.1.1, SVG Export Plug-In . SVG Version: 6.00 Build 0)  -->
<!DOCTYPE svg PUBLIC "-//W3C//DTD SVG 1.1//EN" "http://www.w3.org/Graphics/SVG/1.1/DTD/svg11.dtd">
<svg version="1.1" id="Layer_1" xmlns="http://www.w3.org/2000/svg" xmlns:xlink="http://www.w3.org/1999/xlink" x="0px" y="0px"
	 viewBox="0 0 255.1 255.1" style="enable-background:new 0 0 255.1 255.1;" xml:space="preserve">
<style type="text/css">
	.st0{fill:#FFFFFF;}
</style>
<g>
	<path class="st0" d="M168.1,74.4c0.9,0,1.6-0.7,1.6-1.6c0-0.9-0.7-1.6-1.6-1.6H71.9c-0.9,0-1.6,0.7-1.6,1.6c0,0.9,0.7,1.6,1.6,1.6
		H168.1z"/>
	<path class="st0" d="M168.1,93.7c0.9,0,1.6-0.7,1.6-1.6s-0.7-1.6-1.6-1.6H71.9c-0.9,0-1.6,0.7-1.6,1.6s0.7,1.6,1.6,1.6H168.1z"/>
	<path class="st0" d="M168.1,113.8c0.9,0,1.6-0.7,1.6-1.6c0-0.9-0.7-1.6-1.6-1.6H71.9c-0.9,0-1.6,0.7-1.6,1.6c0,0.9,0.7,1.6,1.6,1.6
		H168.1z"/>
	<path class="st0" d="M168.1,132.3c0.9,0,1.6-0.7,1.6-1.6c0-0.9-0.7-1.6-1.6-1.6H71.9c-0.9,0-1.6,0.7-1.6,1.6c0,0.9,0.7,1.6,1.6,1.6
		H168.1z"/>
	<path class="st0" d="M134.9,151.7c0.9,0,1.6-0.7,1.6-1.6c0-0.9-0.7-1.6-1.6-1.6h-63c-0.9,0-1.6,0.7-1.6,1.6c0,0.9,0.7,1.6,1.6,1.6
		H134.9z"/>
	<path class="st0" d="M187.3,18.1h-136c-4.5,0-8.2,3.7-8.2,8.2v186c0,4.5,3.7,8.2,8.2,8.2h136c4.5,0,8.2-3.7,8.2-8.2v-186
		C195.5,21.7,191.8,18.1,187.3,18.1z M192.4,212.3c0,2.8-2.3,5.1-5.1,5.1h-136c-2.8,0-5.1-2.3-5.1-5.1v-186c0-2.8,2.3-5.1,5.1-5.1
		h136c2.8,0,5.1,2.3,5.1,5.1V212.3z"/>
	<path class="st0" d="M64.5,237.1h142.7c2.7,0,4.9-2.2,4.9-4.9V39.5c0-2.7-2.2-4.9-4.9-4.9h-14.8v3.1H209v196.1H62.8v-15h-3.1v13.3
		C59.6,234.9,61.8,237.1,64.5,237.1z"/>
	<path class="st0" d="M176.6,152.1l-3.4-1.2v-3.6c0-1.1-1.1-1.8-2.1-1.5l-3.4,1l-2.2-2.8c-0.7-0.9-2.2-0.7-2.7,0l-2.2,2.8l-3.4-1
		c-1-0.3-1.8,0.2-2.1,1.1c-0.1,0.2-0.1,0.3-0.1,0.5v3.6l-3.4,1.2c-0.4,0.1-0.8,0.4-1,0.8s-0.2,0.8-0.1,1.2c0.1,0.2,0.1,0.3,0.2,0.4
		l2,3l-2,2.9c-0.3,0.4-0.4,0.8-0.3,1.3c0.1,0.4,0.3,0.8,0.7,1.1c0.1,0.1,0.3,0.2,0.4,0.2l3.4,1.2v3.6c0,0.5,0.2,0.9,0.5,1.2
		c0.3,0.3,0.7,0.5,1.1,0.5c0,0,0.2,0,0.3,0l2.5-0.4l-3.3,21.4l7.9-3.8l7.8,3.9c0,0,0.1,0,0.1-0.1l-3.6-21.7l2.7,0.7
		c0.9,0.2,1.8-0.3,2-1.2c0-0.1,0-0.3,0-0.4v-3.6l3.4-1.2c0.4-0.1,0.8-0.4,1-0.8s0.2-0.8,0.1-1.2c-0.1-0.2-0.1-0.3-0.2-0.4l-1.7-3
		l1.9-2.8c0.5-0.8,0.4-1.8-0.4-2.3C176.9,152.2,176.7,152.1,176.6,152.1z"/>
</g>
</svg>
