<?xml version="1.0" encoding="utf-8"?>
<!-- Generator: Adobe Illustrator 18.1.1, SVG Export Plug-In . SVG Version: 6.00 Build 0)  -->
<!DOCTYPE svg PUBLIC "-//W3C//DTD SVG 1.1//EN" "http://www.w3.org/Graphics/SVG/1.1/DTD/svg11.dtd">
<svg version="1.1" id="Layer_1" xmlns="http://www.w3.org/2000/svg" xmlns:xlink="http://www.w3.org/1999/xlink" x="0px" y="0px"
	 viewBox="0 0 255.1 255.1" style="enable-background:new 0 0 255.1 255.1;" xml:space="preserve">
<style type="text/css">
	.st0{fill:#FFFFFF;}
</style>
<g>
	<path class="st0" d="M32.9,216.1h189.3c5,0,9-4,9-9v-81.9h11.3V93.5c0-13.3-10.8-24.2-24.2-24.2h-28.9V48c0-5-4-9-9-9h-106
		c-5,0-9,4-9,9v21.3H36.7c-13.3,0-24.2,10.8-24.2,24.2v31.7h11.4v81.9C23.9,212.1,27.9,216.1,32.9,216.1z M228.3,207.1
		c0,3.4-2.8,6.1-6.1,6.1H32.9c-3.4,0-6.1-2.8-6.1-6.1v-81.9h27.4v37.8h25.6v-37.8h95.6v37.8h25.6v-37.8h27.4V207.1z M76.9,147.9
		v12.3H57v-12.3H76.9z M57,145.1v-19.9h19.9v19.9H57z M198.1,147.9v12.3h-19.9v-12.3H198.1z M178.2,145.1v-19.9h19.9v19.9H178.2z
		 M68.4,48c0-3.4,2.8-6.1,6.1-6.1h106c3.4,0,6.1,2.8,6.1,6.1v21.3H68.4V48z M15.4,122.3V93.5c0-11.7,9.6-21.3,21.3-21.3h181.8
		c11.7,0,21.3,9.6,21.3,21.3v28.9H15.4z"/>
	<path class="st0" d="M121.4,91.2v12.3h12.3V91.2H121.4z M131.3,101.1h-7.6v-7.6h7.6V101.1z"/>
	<path class="st0" d="M136.6,91.2v12.3h12.3V91.2H136.6z M146.5,101.1h-7.6v-7.6h7.6V101.1z"/>
	<path class="st0" d="M106.3,91.2v12.3h12.3V91.2H106.3z M116.2,101.1h-7.6v-7.6h7.6V101.1z"/>
</g>
</svg>
