<?xml version="1.0" encoding="utf-8"?>
<!-- Generator: Adobe Illustrator 18.1.1, SVG Export Plug-In . SVG Version: 6.00 Build 0)  -->
<!DOCTYPE svg PUBLIC "-//W3C//DTD SVG 1.1//EN" "http://www.w3.org/Graphics/SVG/1.1/DTD/svg11.dtd">
<svg version="1.1" id="Layer_1" xmlns="http://www.w3.org/2000/svg" xmlns:xlink="http://www.w3.org/1999/xlink" x="0px" y="0px"
	 viewBox="0 0 255.1 255.1" style="enable-background:new 0 0 255.1 255.1;" xml:space="preserve">
<style type="text/css">
	.st0{fill:#FFFFFF;}
</style>
<g>
	<rect x="80.6" y="86.9" transform="matrix(0.7072 0.707 -0.707 0.7072 88.5943 -36.6986)" class="st0" width="16.1" height="3.5"/>
	
		<rect x="105.3" y="72.6" transform="matrix(0.2588 0.9659 -0.9659 0.2588 155.8042 -54.3265)" class="st0" width="16.1" height="3.5"/>
	
		<rect x="133.8" y="72.6" transform="matrix(0.2587 -0.966 0.966 0.2587 33.3119 192.1103)" class="st0" width="16.1" height="3.5"/>
	
		<rect x="72.6" y="105.3" transform="matrix(0.2589 -0.9659 0.9659 0.2589 -54.3521 155.7943)" class="st0" width="3.5" height="16.1"/>
	<polygon class="st0" points="192.5,129.6 192.5,126.1 138.4,125.9 136.7,121.8 128.7,125.2 120.4,100.1 117.1,101.2 125.5,126.6 
		88.2,142.6 89.6,145.8 126.6,129.9 129.1,137.2 132.3,136.1 130.1,129.3 	"/>
	
		<rect x="72.6" y="133.8" transform="matrix(-0.2588 -0.9659 0.9659 -0.2588 -43.416 250.3459)" class="st0" width="3.5" height="16.1"/>
	
		<rect x="179" y="105.3" transform="matrix(0.2588 0.9659 -0.9659 0.2588 243.4516 -90.6266)" class="st0" width="3.5" height="16.1"/>
	
		<rect x="105.3" y="179.1" transform="matrix(-0.2588 0.9659 -0.9659 -0.2588 317.2583 118.1402)" class="st0" width="16.1" height="3.5"/>
	<rect x="208.1" y="124.5" class="st0" width="0" height="0"/>
	
		<rect x="80.6" y="164.8" transform="matrix(-0.7071 0.7072 -0.7072 -0.7071 269.0162 221.6205)" class="st0" width="16.1" height="3.5"/>
	
		<rect x="133.8" y="179" transform="matrix(0.2588 0.9659 -0.9659 0.2588 279.7349 -2.9948)" class="st0" width="16.1" height="3.5"/>
	
		<rect x="158.5" y="86.9" transform="matrix(0.7071 -0.7071 0.7071 0.7071 -13.888 143.699)" class="st0" width="16.1" height="3.5"/>
	<path class="st0" d="M181.1,198.9c0,0.5,0.2,0.9,0.5,1.2l5.3,5.3c0.6,0.7,1.8,0.7,2.5,0l16-16c0.3-0.3,0.5-0.8,0.5-1.2
		c0-0.5-0.2-0.9-0.5-1.2l-5.3-5.3c-0.3-0.3-0.8-0.5-1.2-0.5c-0.5,0-0.9,0.2-1.2,0.5l-16,16C181.3,198,181.1,198.4,181.1,198.9z
		 M198.9,185.3l2.9,2.9l-13.6,13.6l-2.9-2.9L198.9,185.3z"/>
	<path class="st0" d="M234.4,96l-5-5l-18.8,18.8l-0.3-1.4c-3.6-15.5-11.4-29.6-22.7-40.9c-11.3-11.3-25.4-19.1-40.9-22.7l-1.4-0.3
		l18.8-18.8l-5-5c0,0-0.2,0-0.7,0c-3.6,0-13.8,3.1-15.1,3.5c-1.3,1-13.8,10.8-22.3,18.5l-0.2,0.2l-0.3,0c-20,1.7-38.8,10.4-53,24.6
		c-14.2,14.2-22.9,33-24.6,53l0,0.3l-0.2,0.2c-7.7,8.5-17.5,21-18.5,22.3c-2.1,6.8-4,14.7-3.5,15.8l5,5l18.8-18.8l0.3,1.4
		c3.6,15.5,11.4,29.6,22.7,40.9c11.3,11.3,25.4,19.1,40.9,22.7l1.4,0.3L91,229.4l5,5c0,0,0,0,0,0c0,0,0.2,0.1,0.7,0.1
		c3.6,0,13.8-3.1,15.1-3.5c1.3-1,13.8-10.8,22.3-18.5l0.2-0.2l0.3,0c20-1.7,38.8-10.4,53-24.6c14.2-14.2,22.9-33,24.6-53l0-0.3
		l0.2-0.2c7.7-8.5,17.5-21,18.5-22.3C233.1,105,235,97.1,234.4,96z M25.7,159.2l-1.5-1.5l0.1-0.4c0.3-2.4,1.6-7.4,3.1-12.2l0.1-0.3
		c1.7-2.2,7.9-10,13.9-16.9l1.4-1.6l0,2.1c0,4.1,0.4,8.3,1,12.4l0.1,0.4L25.7,159.2z M127.9,41.3c7-6,14.7-12.1,16.9-13.9l0.3-0.1
		c3.9-1.2,9.4-2.7,12.2-3.1l0.4-0.1l1.5,1.5l-18,18l-0.4-0.1c-4.1-0.6-8.3-1-12.4-1l-2.1,0L127.9,41.3z M127.2,213.9
		c-6.9,5.9-14.7,12.1-16.9,13.9l-0.3,0.1c-3.9,1.2-9.4,2.7-12.2,3l-0.4,0.1l-1.5-1.5l18-18l0.4,0.1c4.1,0.6,8.3,1,12.4,1l2.1,0
		L127.2,213.9z M208.4,136.8c-2.1,18.5-10.1,35.2-23.3,48.4c-13.2,13.2-29.8,21.2-48.2,23.3l-0.4,0l0,0c-3,0.3-6,0.5-9,0.5
		c-4.9,0-9.9-0.4-14.7-1.3l0,0l-0.4-0.1c-16.1-3-30.7-10.8-42.4-22.4c-11.6-11.6-19.4-26.3-22.4-42.5c-0.3-1.8-0.6-3.6-0.8-5.5
		l-0.1-0.7c-0.2-2-0.4-3.9-0.4-5.8l0-0.3c-0.1-4,0-8.1,0.5-12C48.8,99.8,56.8,83.1,70,70c13.2-13.2,29.8-21.2,48.2-23.3l0.4,0l0,0
		c7.9-0.9,16-0.6,23.8,0.8v0l0.4,0c16.1,3,30.7,10.8,42.4,22.4c11.7,11.7,19.4,26.4,22.4,42.6c0.3,1.7,0.6,3.5,0.8,5.5l0.1,0.7
		c0.2,2,0.4,3.9,0.4,5.8l0,0.3C209.1,128.8,208.9,132.9,208.4,136.8z M227.8,110.1l-0.1,0.3c-1.7,2.2-7.9,10-13.9,16.9l-1.4,1.6
		l0-2.1c0-4.1-0.4-8.3-1-12.4l-0.1-0.4l18-18l1.5,1.5l-0.1,0.4C230.6,100.3,229.3,105.3,227.8,110.1z"/>
	<path class="st0" d="M65.5,250.9l25-25c1.3-1.3,2-3,2-4.8c0-1.8-0.7-3.5-2-4.8l-51.7-51.7c-1.3-1.3-3-2-4.8-2c-1.8,0-3.5,0.7-4.8,2
		l-25,25c-2,2-2.5,5.1-1.3,7.7l0.1,0.2c0,0.1,0.1,0.2,0.1,0.3c5.8,9.9,14.1,20.3,24,30.2c9.9,9.9,20.4,18.3,30.3,24.1l0.2,0.1
		C60.2,253.4,63.5,253,65.5,250.9z M59.2,249l-0.5-0.2c-9.5-5.7-19.6-13.7-29.2-23.3C20,216,12,206,6.4,196.6L6,195.8
		c-0.5-1.1-0.5-2.6,0.6-3.7l25-25c0.8-0.8,1.8-1,2.3-1c0.5,0,1.5,0.1,2.3,1L88,218.8c0.8,0.8,1,1.8,1,2.3c0,0.5-0.1,1.5-1,2.3
		l-25,25c-0.8,0.8-1.8,0.9-2.3,0.9C60.2,249.4,59.7,249.3,59.2,249z"/>
	
		<rect x="158.5" y="164.8" transform="matrix(-0.707 -0.7072 0.7072 -0.707 166.4582 402.0302)" class="st0" width="16.1" height="3.5"/>
	<path class="st0" d="M252.2,57.9c-0.1-0.3-0.1-0.4-0.2-0.5c-5.8-9.9-14.1-20.3-24-30.2c-9.9-9.9-20.4-18.3-30.3-24.1
		c0,0-0.1,0-0.2,0c-1-0.5-2.1-0.8-3.2-0.8c-1.8,0-3.5,0.7-4.8,2l-25,25c-2.6,2.6-2.6,6.9,0,9.6l51.7,51.7c2.5,2.5,7,2.5,9.6,0l25-25
		C252.9,63.5,253.4,60.4,252.2,57.9z M248.5,63l-25,25c-0.8,0.8-1.8,1-2.3,1s-1.5-0.1-2.3-1l-51.7-51.7c-1.3-1.3-1.3-3.4,0-4.7
		l25-25c0.8-0.8,1.8-0.9,2.3-0.9c0.5,0,1.1,0.1,1.6,0.4l0.4,0.2C205.9,12,216,20,225.6,29.6c9.5,9.5,17.5,19.5,23.1,28.9l0.3,0.7
		C249.6,60.4,249.6,61.9,248.5,63z"/>
	
		<rect x="179" y="133.8" transform="matrix(-0.2588 0.9659 -0.9659 -0.2588 364.5533 3.9126)" class="st0" width="3.5" height="16.1"/>
	<path class="st0" d="M127.6,52.7c-20,0-38.8,7.8-52.9,21.9c-29.2,29.2-29.2,76.7,0,105.9c14.1,14.1,32.9,21.9,52.9,21.9
		c20,0,38.8-7.8,52.9-21.9c29.2-29.2,29.2-76.7,0-105.9C166.4,60.5,147.6,52.7,127.6,52.7z M178,178c-13.5,13.5-31.4,20.9-50.5,20.9
		c-19.1,0-37-7.4-50.5-20.9c-27.8-27.8-27.8-73.1,0-101c13.5-13.5,31.4-20.9,50.5-20.9s37,7.4,50.5,20.9
		C205.9,104.9,205.9,150.2,178,178z"/>
</g>
</svg>
