<?xml version="1.0" encoding="utf-8"?>
<!-- Generator: Adobe Illustrator 18.1.1, SVG Export Plug-In . SVG Version: 6.00 Build 0)  -->
<!DOCTYPE svg PUBLIC "-//W3C//DTD SVG 1.1//EN" "http://www.w3.org/Graphics/SVG/1.1/DTD/svg11.dtd">
<svg version="1.1" id="Layer_1" xmlns="http://www.w3.org/2000/svg" xmlns:xlink="http://www.w3.org/1999/xlink" x="0px" y="0px"
	 viewBox="0 0 100 100" enable-background="new 0 0 100 100" xml:space="preserve">
<g>
	<circle fill="none" stroke="#66469B" stroke-miterlimit="10" cx="50" cy="50" r="49.5"/>
	<g>
		<g>
			<circle fill="#66469B" cx="34.7" cy="66.3" r="1.8"/>
			<path fill="#FFFFFF" d="M34.7,68.4L34.7,68.4c-0.6,0-1.1-0.2-1.5-0.6c-0.8-0.8-0.8-2.2,0-3.1c0.8-0.8,2.3-0.8,3.1,0
				c0.4,0.4,0.6,1,0.6,1.5c0,0.6-0.2,1.1-0.6,1.5C35.9,68.2,35.3,68.4,34.7,68.4z M34.7,64.8c-0.4,0-0.7,0.1-1,0.4
				c-0.5,0.5-0.5,1.4,0,2c0.3,0.3,0.6,0.4,1,0.4l0,0c0.4,0,0.7-0.1,1-0.4c0.3-0.3,0.4-0.6,0.4-1c0-0.4-0.1-0.7-0.4-1
				C35.5,65,35.1,64.8,34.7,64.8z"/>
		</g>
		<g>
			<circle fill="#66469B" cx="57.9" cy="43" r="1.8"/>
			<path fill="#FFFFFF" d="M57.9,45.2L57.9,45.2c-0.6,0-1.1-0.2-1.5-0.6c-0.8-0.8-0.8-2.2,0-3.1c0.8-0.8,2.3-0.8,3.1,0
				c0.4,0.4,0.6,1,0.6,1.5c0,0.6-0.2,1.1-0.6,1.5C59.1,45,58.5,45.2,57.9,45.2z M57.9,41.6c-0.4,0-0.7,0.1-1,0.4
				c-0.5,0.5-0.5,1.4,0,2c0.3,0.3,0.6,0.4,1,0.4l0,0c0.4,0,0.7-0.1,1-0.4c0.3-0.3,0.4-0.6,0.4-1c0-0.4-0.1-0.7-0.4-1
				C58.7,41.8,58.3,41.6,57.9,41.6z"/>
		</g>
		<g>
			<path fill="#66469B" d="M56.8,33.2l-3-3L32.7,51.3l3,3L20.3,69.7l11,11l15.4-15.4l3,3l21.1-21.1l-3-3l11.9-11.9l-11-11L56.8,33.2
				z M31.3,78.6l-8.9-8.9l14.2-14.2l7.7,7.7l1.1,1.1L31.3,78.6z M65.6,44.3L50.4,59.5l-4-4l0.5-0.6l1.1-1.1c0.7,0.4,1.7,0.3,2.3-0.3
				c0.7-0.7,0.7-1.9,0-2.7c-0.7-0.7-1.9-0.7-2.7,0c-0.6,0.6-0.7,1.5-0.3,2.2l-1.7,1.7l-4-4l15.2-15.2L65.6,44.3z M55.6,34.4
				L39.4,50.6l5.1,5.1L44.3,56l0,0L42,58.2l0.8,0.8l2.5-2.5l5.1,5.1l16.2-16.2l1.8,1.8L49.7,66l-6.3-6.3l-0.6,0.6l-2-2l0.6-0.6
				L35,51.3l18.8-18.8L55.6,34.4z M77.6,32.3l-1.1,1.1l-9.7,9.7l-8.9-8.9l10.9-10.9L77.6,32.3z"/>
			<path fill="#FFFFFF" d="M31.3,81.2L19.7,69.7l15.4-15.4l-3-3l21.6-21.6l3,3l11.9-11.9l11.5,11.5L68.3,44.2l3,3L49.7,68.8l-3-3
				L31.3,81.2z M20.8,69.7l10.4,10.4l15.4-15.4l3,3l20.5-20.5l-3-3l11.9-11.9L68.7,21.8L56.8,33.8l-3-3L33.3,51.3l3,3L20.8,69.7z
				 M31.3,79.1l-9.4-9.4l14.8-14.8l9.4,9.4L31.3,79.1z M23,69.7l8.3,8.3L45,64.3L36.7,56L23,69.7z M49.7,66.5l-6.3-6.3l-0.6,0.6
				l-2.5-2.5l0.6-0.6l-6.3-6.3L53.8,32l2.4,2.4L39.9,50.6l5.1,5.1l-2.5,2.5l0.2,0.2l2.5-2.5l5.1,5.1l16.2-16.2l2.4,2.4L49.7,66.5z
				 M43.3,59.1l6.3,6.3l18.2-18.2l-1.3-1.3L50.4,62.1L45.3,57l-2.5,2.5l-1.3-1.3l2.5-2.5l-5.1-5.1l16.2-16.2l-1.3-1.3L35.6,51.3
				l6.3,6.3l-0.6,0.6l1.4,1.4L43.3,59.1z M50.4,60l-4.6-4.6l0.7-0.9l1.3-1.3l0.3,0.2c0.6,0.3,1.3,0.3,1.8-0.2
				c0.3-0.3,0.4-0.7,0.4-1.1S50.2,51.3,50,51c-0.6-0.6-1.5-0.6-2.1,0c-0.5,0.5-0.6,1.2-0.3,1.8l0.1,0.3l-2.2,2.2L41,50.6l15.7-15.7
				l9.4,9.4L50.4,60z M46.9,55.4l3.5,3.5L65,44.3L56.7,36L42.1,50.6l3.5,3.5l1.2-1.2c-0.3-0.8-0.1-1.8,0.5-2.4
				c0.9-0.9,2.3-0.9,3.2,0c0.4,0.4,0.7,1,0.7,1.6c0,0.6-0.2,1.2-0.7,1.6c-0.6,0.6-1.7,0.8-2.5,0.5l-0.9,0.9L46.9,55.4z M66.7,43.7
				l-9.4-9.4l11.4-11.4l9.4,9.4L66.7,43.7z M58.4,34.3l8.3,8.3L77,32.3L68.7,24L58.4,34.3z"/>
		</g>
		<g>
			<circle fill="#66469B" cx="67.4" cy="33.6" r="1.8"/>
			<path fill="#FFFFFF" d="M67.4,35.8L67.4,35.8c-0.6,0-1.1-0.2-1.5-0.6c-0.8-0.8-0.8-2.2,0-3.1c0.8-0.8,2.3-0.8,3.1,0
				c0.4,0.4,0.6,1,0.6,1.5c0,0.6-0.2,1.1-0.6,1.5C68.5,35.5,68,35.8,67.4,35.8z M67.4,32.2c-0.4,0-0.7,0.1-1,0.4
				c-0.5,0.5-0.5,1.4,0,2c0.3,0.3,0.6,0.4,1,0.4l0,0c0.4,0,0.7-0.1,1-0.4c0.3-0.3,0.4-0.6,0.4-1c0-0.4-0.1-0.7-0.4-1
				C68.1,32.3,67.8,32.2,67.4,32.2z"/>
		</g>
	</g>
</g>
</svg>
