<?xml version="1.0" encoding="utf-8"?>
<!-- Generator: Adobe Illustrator 18.1.1, SVG Export Plug-In . SVG Version: 6.00 Build 0)  -->
<!DOCTYPE svg PUBLIC "-//W3C//DTD SVG 1.1//EN" "http://www.w3.org/Graphics/SVG/1.1/DTD/svg11.dtd">
<svg version="1.1" id="Layer_1" xmlns="http://www.w3.org/2000/svg" xmlns:xlink="http://www.w3.org/1999/xlink" x="0px" y="0px"
	 viewBox="0 0 100 100" enable-background="new 0 0 100 100" xml:space="preserve">
<path d="M95.6,80.1L65.5,50l30.1-30.1c4.3-4.3,4.3-11.2,0-15.5c-4.3-4.3-11.2-4.3-15.5,0L50,34.5L19.9,4.4c-4.3-4.3-11.2-4.3-15.5,0
	c-4.3,4.3-4.3,11.2,0,15.5L34.5,50L4.4,80.1c-4.3,4.3-4.3,11.2,0,15.5c4.3,4.3,11.2,4.3,15.5,0L50,65.5l30.1,30.1
	c4.3,4.3,11.2,4.3,15.5,0C99.9,91.3,99.9,84.4,95.6,80.1z"/>
</svg>
