<?xml version="1.0" encoding="utf-8"?>
<!-- Generator: Adobe Illustrator 18.1.1, SVG Export Plug-In . SVG Version: 6.00 Build 0)  -->
<!DOCTYPE svg PUBLIC "-//W3C//DTD SVG 1.1//EN" "http://www.w3.org/Graphics/SVG/1.1/DTD/svg11.dtd">
<svg version="1.1" id="Layer_1" xmlns="http://www.w3.org/2000/svg" xmlns:xlink="http://www.w3.org/1999/xlink" x="0px" y="0px"
	 viewBox="0 0 100 100" enable-background="new 0 0 100 100" xml:space="preserve">
<g id="Page-1_7_">
	<g id="menu_7_" transform="translate(-983.000000, -52.000000)">
		<path id="facebook_3_" d="M1007.3,106.3h15.2v45.1h18.2v-45.1h15.2l2.3-17.6h-17.5V77.6c0-2.5,0.5-4.6,1.6-6.2
			c1.1-1.6,3.4-2.4,7.1-2.4h9.4V53.3c-0.8-0.1-2.5-0.3-5-0.5c-2.5-0.2-5.4-0.3-8.6-0.3c-3.3,0-6.4,0.5-9.2,1.5
			c-2.8,1-5.2,2.5-7.2,4.5s-3.5,4.4-4.6,7.3c-1.1,2.9-1.6,6.2-1.6,10v12.9h-15.2V106.3z"/>
	</g>
</g>
</svg>
