<?xml version="1.0" encoding="utf-8"?>
<!-- Generator: Adobe Illustrator 18.1.1, SVG Export Plug-In . SVG Version: 6.00 Build 0)  -->
<!DOCTYPE svg PUBLIC "-//W3C//DTD SVG 1.1//EN" "http://www.w3.org/Graphics/SVG/1.1/DTD/svg11.dtd">
<svg version="1.1" id="Layer_1" xmlns="http://www.w3.org/2000/svg" xmlns:xlink="http://www.w3.org/1999/xlink" x="0px" y="0px"
	 viewBox="0 0 100 100" enable-background="new 0 0 100 100" xml:space="preserve">
<g>
	<g>
		<path d="M3.2,31.4h93.6c1.4,0,2.6-1.2,2.6-2.6V17.2c0-1.4-1.2-2.6-2.6-2.6H3.2c-1.4,0-2.6,1.2-2.6,2.6v11.6
			C0.6,30.3,1.8,31.4,3.2,31.4z"/>
		<path d="M3.2,58.4h93.6c1.4,0,2.6-1.2,2.6-2.6V44.2c0-1.4-1.2-2.6-2.6-2.6H3.2c-1.4,0-2.6,1.2-2.6,2.6v11.6
			C0.6,57.2,1.8,58.4,3.2,58.4z"/>
		<path d="M3.2,85.4h93.6c1.4,0,2.6-1.2,2.6-2.6V71.2c0-1.4-1.2-2.6-2.6-2.6H3.2c-1.4,0-2.6,1.2-2.6,2.6v11.6
			C0.6,84.2,1.8,85.4,3.2,85.4z"/>
	</g>
</g>
</svg>
