<?xml version="1.0" encoding="utf-8"?>
<!-- Generator: Adobe Illustrator 18.1.1, SVG Export Plug-In . SVG Version: 6.00 Build 0)  -->
<!DOCTYPE svg PUBLIC "-//W3C//DTD SVG 1.1//EN" "http://www.w3.org/Graphics/SVG/1.1/DTD/svg11.dtd">
<svg version="1.1" id="Layer_1" xmlns="http://www.w3.org/2000/svg" xmlns:xlink="http://www.w3.org/1999/xlink" x="0px" y="0px"
	 viewBox="0 0 205.8 134" style="enable-background:new 0 0 205.8 134;" xml:space="preserve">
<style type="text/css">
	.st0{fill:#010101;}
</style>
<g>
	<g>
		<path class="st0" d="M36.5,49.2c6.4-0.8,12.7-1.4,19.1-1.9c0,0,0,0.1,0,0.1c0.3,2.3,3.9,2.3,3.6,0c0-0.1,0-0.3-0.1-0.4
			c13.8-1,27.7-1.6,41.5-1.7c22.9-0.1,45.6,2.3,68.4,3.9c2.3,0.2,2.3-3.5,0-3.6c-22.8-1.6-45.5-4-68.4-3.9c-7.3,0-14.6,0.2-21.9,0.5
			c0.7-0.2,1.4-0.8,1.4-1.7c0-4.3-1.9-12.6,3.8-13.9c7.6-1.8,11.2,6.2,13,12c0.6,1.9,3.7,1.6,3.6-0.5c-0.1-3.5,0.8-9.5,5.6-9.2
			c4.5,0.3,5.2,5.7,4.8,9.2c-0.3,2.2,2.9,2.3,3.6,0.5c1.3-3.5,1.3-10,6.2-10.2c5.8-0.3,8.6,6.5,8.7,11.3c0.1,2.1,3,2.5,3.6,0.5
			c1.4-4.4,1.5-15.5,7.1-16.9c4.1-1,7.1,2.6,7.8,6.1c0.6,3.5,0,7.1-0.5,10.5c-0.3,2.3,3.2,3.3,3.5,1c0.4-3,0.8-6.5,0.6-9.8
			c0.9-0.6,2.9-0.7,3.8-1.1c1.2-0.5,2.3-1,3.3-1.8c2.1-1.7,3.5-4.3,4.8-6.6c1.2-2-2-3.9-3.1-1.8c-1.4,2.4-2.7,5.1-5.3,6.4
			c-1,0.5-2.6,0.7-4,1.2c-1.1-4.2-3.7-7.5-9.4-7.8c-6.8-0.4-9,6.2-10.4,12.4c-1.8-3.8-5-6.8-9.5-7.1c-4.8-0.3-6.9,2.3-8.3,5.6
			c-1.3-2.8-3.7-5-7.3-5.1c-4.3-0.1-6.9,2.6-8.2,6.1c-2.8-5.3-7.2-9.6-14.1-8.5c-3.5,0.6-5.4,2.4-6.4,4.8c-2-6.2-5.6-11.5-12.8-10.3
			c-6.3,1-9.1,5-10.1,9.9c-4.7-1.7-8.3-5.2-12-8.5c-1.8-1.5-4.3,1-2.6,2.6c4.4,3.8,8.5,7.8,14.1,9.6c-0.2,4.2,0.4,8.7,0.9,12.7
			c-6.2,0.5-12.4,1.1-18.6,1.9C34.2,45.8,34.2,49.5,36.5,49.2z M65,21c9.5-1.9,10.7,13.7,11.7,20c0.1,0.7,0.6,1.1,1.2,1.3
			c-6.4,0.3-12.8,0.7-19.2,1.1C57.3,35.1,55.4,23,65,21z"/>
		<path class="st0" d="M55.3,9.3c0,0.1,0,0.2,0,0.3c0.2,2.1,1.7,3.8,3.8,4.3c2.8,0.6,6.5,0.3,7.9-2.6C69.1,7.1,65.5,0.2,60.7,0
			c-3.8-0.1-5.6,4.1-6.4,7.2C54,8.2,54.6,8.9,55.3,9.3z M60.1,3.8C60.1,3.7,60.1,3.7,60.1,3.8c0.1-0.1,0.2-0.1,0.3-0.1
			c0,0,0.1,0,0.1,0c0,0,0,0,0,0c0.1,0,0.2,0,0.3,0c0.1,0,0.2,0,0.3,0.1c0.1,0,0.1,0,0.1,0c0,0,0,0,0.1,0c0.1,0.1,0.3,0.2,0.4,0.3
			c0.1,0.1,0.1,0,0.1,0c0,0,0,0,0.2,0.1c0.3,0.3,0.5,0.5,0.8,0.8c0,0.1,0.2,0.2,0.2,0.3c0.1,0.2,0.2,0.3,0.3,0.5
			c0.1,0.2,0.2,0.4,0.3,0.6c0,0.1,0.1,0.1,0.1,0.2c0,0,0,0,0,0c0,0,0,0,0,0.1c0.1,0.3,0.2,0.7,0.3,1.1c0,0.1,0.1,0.3,0.1,0.4
			c0,0.1,0,0.3,0,0.4c0,0.1,0,0.3,0,0.4c0,0.1,0,0.2-0.1,0.2c-0.1,0.3-0.1,0.3-0.2,0.5c-0.1,0.1-0.1,0.2-0.4,0.3
			c-0.1,0-0.1,0.1-0.1,0.1c0,0,0,0-0.1,0c-0.2,0.1-0.5,0.1-0.8,0.2c-0.1,0-1.1,0-1.5,0c-0.5,0-1.2,0-1.5-0.4
			c-0.8-0.8-0.1-2.1,0.7-2.7c1.3-0.9,0.9-2.7-0.2-3.3c0,0,0.1-0.1,0.1-0.1C59.9,3.9,59.8,3.9,60.1,3.8z"/>
		<path class="st0" d="M88.1,19.1c2.1-0.8,4-2.5,3.9-4.9c-0.1-2.1-1.7-3.8-3.6-4.5c-1.4-0.5-2.9-0.3-4.2,0.2
			c-0.2-0.1-0.5-0.1-0.8-0.1c-0.6-0.1-1.2,0.4-1.6,0.9c-1.4,2-2.3,4.8-0.9,7C82.5,20.2,85.8,20,88.1,19.1z M88.2,14
			c0-0.1,0.1,0.4,0.1,0.4c0,0.1-0.1,0.4,0,0.2c0,0,0,0.1,0,0.1c-0.1,0.2-0.1,0.3-0.3,0.5c-0.3,0.3-0.7,0.4-1.1,0.6
			C86.1,16,85,16.3,84.3,16c-0.3-0.1-0.4-0.4-0.3-1c0-0.2,0.1-0.3,0.1-0.5c0,0,0.1-0.1,0.1-0.1c0.1,0.1,0.3,0.2,0.4,0.3
			c1.3,0.8,2.6-0.3,2.7-1.5c0.1,0,0.1,0,0.2,0.1C87.6,13.3,88.1,13.7,88.2,14z"/>
		<path class="st0" d="M99.7,18.4c0.3,1.4,1.2,2.8,2.4,3.6c1.5,1,3.3,0.8,4.7-0.2c2.6-1.8,4.6-6.4,2.2-9.1c-1.7-1.9-4.6-1.5-6.8-0.8
			c-1,0.3-1.3,1.2-1.3,2C100,15.1,99.4,16.6,99.7,18.4z M104.2,18.9C104.2,19,104.2,19,104.2,18.9C104.2,19,104.2,19,104.2,18.9z
			 M104.4,19L104.4,19C104.4,19.1,104.4,19.1,104.4,19z M106,14.9c0.1,0,0.2,0,0.2,0.1c0.1,0,0.1,0,0.1,0c0,0,0,0,0.1,0.1
			c0,0,0,0,0,0c0,0,0,0,0,0c0,0,0,0,0,0.1c0,0.1,0.1,0.2,0.1,0.4c-0.1-0.5,0,0.2,0,0.5c0,0.1,0,0.1,0,0.1c-0.1,0.2-0.1,0.4-0.1,0.5
			c0,0.1-0.1,0.2-0.1,0.3c0,0.1-0.1,0.3-0.1,0.3c-0.2,0.3-0.3,0.6-0.5,0.8c0,0,0,0,0,0.1c0,0,0,0-0.1,0.1c-0.1,0.1-0.2,0.2-0.3,0.4
			c-0.1,0.1-0.1,0.1-0.2,0.2c-0.1,0-0.2,0.2-0.3,0.2c0,0-0.1,0.1-0.2,0.1c0,0-0.1,0-0.1,0c0,0,0,0,0,0c0,0,0,0,0,0
			c0.2-0.1,0,0-0.1,0c0,0-0.1,0-0.1,0c0,0-0.1-0.1-0.1-0.1c0,0,0,0,0,0.1c0,0,0,0,0,0c0,0-0.1-0.1-0.1-0.1c0,0-0.2-0.2-0.2-0.2
			c-0.3-0.3-0.6-0.8-0.6-1.2c0-0.6,0.5-1.1,0.9-1.5c0.3-0.3,0.4-0.6,0.5-0.9C105,14.9,105.5,14.9,106,14.9z"/>
		<path class="st0" d="M125.3,21.1c2.2-1.1,3.4-3.6,2.7-6c-0.7-2.3-2.8-3.2-5-3c-0.2-0.2-0.5-0.4-0.8-0.6c-0.9-0.5-2-0.2-2.5,0.7
			c-1.2,1.9-2,4.6-1.1,6.8C119.6,21.7,122.9,22.3,125.3,21.1z M123.2,18c-0.4,0.1-0.8,0.1-1.1,0c0,0-0.1-0.2-0.1-0.1
			c-0.1-0.2-0.1-0.5-0.2-0.6c0-0.3,0-0.7,0.1-1c0.8,0.5,1.7,0.2,2.2-0.5c0,0,0.1,0,0.1,0c0.2,0.1,0.3,0.2,0.3,0.5
			C124.7,16.9,124.2,17.8,123.2,18z"/>
		<path class="st0" d="M145.6,17.8c2.1-0.4,3.7-2.4,4.8-4.2c1-1.7,1.9-4,1.3-6c-1-3-4.1-2.4-6.5-1.3c-1.1-0.3-2.2-0.3-3.1,0.4
			c-2,1.3-1.9,4.3-1.5,6.3C141,15.6,142.6,18.5,145.6,17.8z M147.1,12.1c-0.1,0.2-0.2,0.3-0.3,0.5c0,0.1-0.1,0.1-0.1,0.2
			c0,0,0,0,0,0c0,0,0,0,0,0c-0.2,0.3-0.5,0.5-0.7,0.8c-0.1,0.1-0.2,0.2-0.4,0.3c-0.1,0-0.2,0.1-0.2,0.2c-0.1,0.1-0.2,0.1-0.3,0.2
			c0,0-0.1,0-0.1,0c0,0,0,0,0,0c0,0,0,0,0,0c0,0-0.1,0-0.1-0.1c0,0,0,0,0,0c-0.1-0.2-0.2-0.3-0.3-0.5c0,0-0.2-0.4-0.2-0.6
			c-0.1-0.3-0.2-0.7-0.2-1c-0.1-0.6-0.1-1.3-0.1-1.9c0.4,0.2,0.8,0.2,1.3,0.1c0.2,0.1,0.4,0.2,0.5,0.3c0.8,0.5,1.6,0.3,2.1-0.3
			c0,0.1-0.1,0.2-0.1,0.3c-0.1,0.1-0.1,0.2-0.2,0.3C147.4,11.4,147.3,11.7,147.1,12.1z M148.2,9C148.2,8.9,148.2,8.9,148.2,9
			C148.2,8.9,148.2,8.9,148.2,9z"/>
		<path class="st0" d="M133.4,82.8c-2.5,4.7-7.4-0.3-7-4.1c0.2-1.4,1-2.9,1.7-4.1c0.4-0.6,0.9-1.6,1.5-2c0.4-0.2,0.1-0.2,0.5,0.6
			c1,2.1,4.2,0.3,3.1-1.8c-2.8-5.6-7.3-1-9.4,3.4c-1.4-3.9-4.7-6.8-10.1-5.5c-2.3,0.5-1.3,4,1,3.5c8.8-2.1,8.3,15.1,0.4,11.7
			c-2.1-0.9-4,2.2-1.8,3.1c5.5,2.4,9.1-0.2,10.5-4.1c2.7,4.9,9.2,7.4,12.6,1.1C137.6,82.6,134.5,80.7,133.4,82.8z"/>
		<path class="st0" d="M154.5,70.5c-1.3,3.4-2.9,6.6-4.7,9.8c-2.7-2.8-4.2-6.6-5.9-10c-1-2.1-4.2-0.3-3.1,1.8c2,4,3.8,8.4,7.2,11.4
			c-0.9,1.4-1.8,2.7-2.7,4.1c-0.7,1-3.4,5.2-5.1,6.1c-0.3-0.6-0.9-1.1-1.6-1.1c-0.3,0-0.7,0-1,0c-1.4,0-2.2,1.5-1.6,2.7
			c6,11,20.8-20.9,22-23.9C158.9,69.3,155.4,68.4,154.5,70.5z"/>
		<path class="st0" d="M7.2,69.2C6.8,69,6.3,68.9,5.8,69c-0.2,0-0.4,0.1-0.5,0.1c-0.6,0-1.2,0-1.7,0.1c-1.4,0.2-1.9,1.5-1.7,2.5
			c-2.3,3.4-2.6,8.9-0.6,11.9C4.3,88.6,11.4,88.6,16,86c4.4-2.5,6.1-7.8,2.3-11.7C15.7,71.5,11.3,69.6,7.2,69.2z M15.9,81.5
			c-1.9,2.4-6.4,3.4-9.2,2.2c-2.1-0.9-3.1-2.8-3.1-4.9c0-1.7,0.6-4.7,2.2-5.8C10.9,73.5,19.9,76.6,15.9,81.5z"/>
		<path class="st0" d="M85.9,84c-3,0.2-7.2,0.1-8.8-2.9c-1.8-3.4,0.2-8.9,4.5-8.2c2.3,0.4,3.3-3.1,1-3.5c-5.8-0.9-9.6,3.3-9.7,8.7
			c-0.1,0-0.2,0.1-0.3,0.2c-0.7,0.5-1.3,1-2,1.5c0.1-2.6,0.4-5.2,0.6-7.8c0.2-2.3-3.4-2.3-3.6,0c-0.2,1.8-1.3,3.5-2.7,4.8
			c-1.5-4.7-7.9-9.8-12.4-6.9c-2,1.3-0.1,4.4,1.8,3.1c2.7-1.7,7.1,3.2,7.2,5.7c0.3,4.4-5.2,6.1-8.7,5.6c-2.3-0.3-3.3,3.2-1,3.5
			c5.2,0.7,11.7-1.5,13-6.7c0.1,0,0.2-0.1,0.4-0.2c0.6-0.3,1.1-0.7,1.7-1.2c-0.1,1.7-0.1,3.5,0,5.2c0.1,1.7,2.5,2.7,3.4,0.9
			c0.8-1.6,1.9-2.8,3.2-3.9c1.9,4.7,7.6,6,12.4,5.7C88.2,87.5,88.3,83.9,85.9,84z"/>
		<path class="st0" d="M44.4,79.8c-0.8,0-1.6,0-2.4,0c-0.3-2.8,0.3-5.6,0.4-8.4c0-1.1-0.9-1.7-1.8-1.8c-3.7-0.4-7-1.5-10.1,0.6
			c-0.8,0.2-1.4,0.7-1.4,1.7c0,2.9,0,5.8-0.4,8.6c-1,0-2.1,0-3.1,0c-1.3,0-2,1.2-1.8,2.3c0.4,2.3,0.4,4.5,0.7,6.8
			c0.3,2.3,3.9,2.3,3.6,0c-0.2-1.8-0.3-3.7-0.5-5.5c5-0.1,10-0.7,15-0.7c0.1,1.5,0.2,3.2-0.4,4.4c-1.1,2.1,2,3.9,3.1,1.8
			c1.4-2.5,0.9-5.4,0.8-8.1C46.2,80.7,45.4,79.9,44.4,79.8z M32.7,73.1c1.7-1,3.9-0.5,6-0.1c-0.1,2.4-0.4,4.7-0.3,7
			c-2,0.1-4,0.3-6,0.4C32.6,77.9,32.7,75.5,32.7,73.1z"/>
		<path class="st0" d="M107,80.7c0.1-3.8-0.3-7.6-3-10.3c-3.5-3.4-8.6-1.7-10.7,2.3c-1.1,2.1,2,3.9,3.1,1.8c1.9-3.6,5.4-2.5,6.4,1.1
			c0.3,1,0.4,2,0.5,3.1c-4-1.3-9.5-2.2-10.8,2.7c-0.6,2.4,0.9,4.7,2.9,5.9c2.6,1.5,5.3,0.6,7.9-0.2c0.8,1.3,3.4,1,3.4-1
			c0-1.2,0.1-2.5,0.1-3.8C107.1,81.8,107.2,81.2,107,80.7z M98,84.4c-1.2-0.3-2.8-1.9-1.3-2.9c1.7-1.1,4.4,0,6.5,0.9
			c0,0.3,0,0.6,0,0.9c0,0,0,0,0,0C101.6,83.8,99.7,84.8,98,84.4z"/>
		<path class="st0" d="M166.6,70.1c-0.5-1.8-3.6-1.6-3.6,0.5c0.1,4.7,0.1,9.5-0.2,14.2c-0.2,3.7-0.7,7.4-0.1,11.2
			c0.3,2.3,3.8,1.3,3.5-1c-0.3-2.5-0.2-5.1,0.1-7.6c3.5,0.8,7.3,1,9.8-2.2c2.3-2.9,2.9-7.5,1-10.8C175.2,71.1,170.1,68.9,166.6,70.1
			z M173.3,82.9c-1.7,2.2-4.4,1.5-6.8,0.9c0.2-2.9,0.2-5.8,0.2-8.7c1-3.5,5.9-0.9,7.2,1.3C175,78.2,174.6,81.2,173.3,82.9z"/>
		<path class="st0" d="M203,83.9c-3.3,1.6-3.4-2.4-3.6-4.8c-0.2-2.9,0.1-5.9-0.2-8.8c-0.3-2.3-3.9-2.3-3.6,0
			c0.3,2.3,0.1,6.5,0.5,10.2c-0.1,0-0.2,0.1-0.3,0.1c-1.9,1.2-6.2,5-8.5,3.5c-2-1.2-1.7-4.7-1.5-6.6c0.3-2.6,0.6-5-0.1-7.5
			c-0.6-2.2-4.2-1.3-3.5,1c1.5,5.1-2.7,13.4,3.7,16.5c3.7,1.9,7.9-1.1,11-3.2c1.1,3.2,3.3,5,8,2.7C207,86,205.1,82.9,203,83.9z"/>
	</g>
	<g>
		<path class="st0" d="M167.9,124.7c-1,1.7-3.3,0.2-3.2-1.5c0-0.6,0.4-1.2,0.8-1.7c0.2-0.3,0.4-0.6,0.7-0.8c0.3-0.2,0.1-0.2,0.3,0.2
			c0.5,1,2,0.1,1.5-0.9c-1.3-2.3-3.4-0.6-4.4,1.3c-0.7-1.6-2.1-2.8-4.5-2.3c-1.1,0.2-0.6,1.9,0.5,1.7c3.8-0.9,3.5,6.5,0.2,5
			c-1-0.4-1.9,1-0.9,1.5c2.5,1.1,4.1-0.1,4.7-1.9c1.3,2,4.3,2.7,5.8,0.2C169.9,124.6,168.5,123.8,167.9,124.7z"/>
		<path class="st0" d="M154.8,119.8c-0.7,1.8-1.6,3.6-2.5,5.2c-1.5-1.5-2.3-3.5-3.2-5.4c-0.5-1-2-0.1-1.5,0.9c1,2.1,2,4.4,3.8,6
			c-0.5,0.8-1,1.5-1.5,2.2c-0.4,0.5-1.8,2.8-2.7,3.2c-0.1-0.3-0.4-0.6-0.8-0.6c-0.2,0-0.3,0-0.5,0c-0.7,0-1,0.7-0.7,1.3
			c1.5,2.8,4.1,0.1,5.2-1.5c2.5-3.4,4.6-7,6.1-11C156.9,119.3,155.2,118.8,154.8,119.8z"/>
		<path class="st0" d="M177.4,119.7c0.2,1.2,0.2,2.4,0.3,3.6c-1.3-0.2-2.7-0.2-4-0.3c0-1.2,0.1-2.5,0.4-3.7c0.3-1.1-1.4-1.5-1.7-0.5
			c-0.4,1.5-0.5,3-0.5,4.6c-0.1,0.2-0.1,0.5,0,0.7c0,1.1,0.1,2.1,0.1,3.2c0,1.1,1.7,1.1,1.7,0c0-0.9,0-1.7-0.1-2.6
			c1.3,0.2,2.7,0.2,4,0.3c0,0.8,0,1.5,0,2.3c0,1.1,1.7,1.1,1.7,0c0-2.5,0-5-0.3-7.6C179,118.7,177.3,118.6,177.4,119.7z"/>
		<path class="st0" d="M145.6,124.8c-0.4-1-2.1-0.6-1.7,0.5c0.5,1.2-1.1,0.7-1.7,0.3c-0.7-0.4-1.2-1-1.7-1.5
			c-0.2-0.2-0.4-0.4-0.7-0.5c1.2-0.8,2-2.2,1.9-3.9c-0.1-1.1-1.8-1.1-1.7,0c0.1,1.9-1.1,2.9-2.8,3c0.1-0.9,0.1-1.8,0.2-2.6
			c0.1-1.1-1.5-1.5-1.7-0.5c-0.3,2.4-0.2,5-0.8,7.4c-0.3,1.1,1.4,1.5,1.7,0.5c0.3-1,0.4-2,0.4-3c2.4,0.2,3.4,2.8,5.8,3.3
			C144.8,127.9,146.4,126.8,145.6,124.8z"/>
		<path class="st0" d="M35.9,119.3c-1-0.6-2.1-0.6-3.2-0.1c-0.2,0.1-0.4,0.2-0.6,0.3c-0.3-0.8-1.7-0.8-1.7,0.3
			c0.1,2.4,0,4.7-0.1,7.1c-0.1,1.9-0.4,3.8-0.1,5.7c0.2,1.1,1.8,0.6,1.7-0.5c-0.3-1.9,0.1-3.8,0.2-5.7c0-0.3,0-0.6,0-1
			c1.7,1.3,4.8,1.2,5.5-1.1C38.2,122.6,37.5,120.3,35.9,119.3z M35.9,124.1c-0.8,1.1-3.3,0.3-3.3-1c0-0.4-0.2-0.6-0.4-0.7
			c0-0.1,0-0.3,0-0.4c0.2-0.1,0.3-0.3,0.4-0.5c0.8-0.8,2-1.4,2.9-0.2C36,121.9,36.4,123.3,35.9,124.1z"/>
		<path class="st0" d="M47.2,119.7c-0.7,1.8-1.6,3.6-2.5,5.2c-1.5-1.5-2.3-3.5-3.2-5.4c-0.5-1-2-0.1-1.5,0.9c1,2.1,2,4.4,3.8,6
			c-0.5,0.8-1,1.5-1.5,2.2c-0.4,0.5-1.8,2.8-2.7,3.2c-0.1-0.3-0.4-0.6-0.8-0.6c-0.2,0-0.3,0-0.5,0c-0.7,0-1,0.7-0.7,1.3
			c1.5,2.8,4.1,0.1,5.2-1.5c2.5-3.4,4.6-7,6.1-11C49.3,119.1,47.6,118.7,47.2,119.7z"/>
		<path class="st0" d="M56.8,123.8c0.2-0.2,0.5-0.4,0.6-0.6c0.7-0.9,1-2.2,0.4-3.2c-1-1.6-4.5-2.8-6-1.3c-0.8,0.8,0.4,2,1.2,1.2
			c0.6-0.6,2.7,0.2,3.1,0.7c1.6,1.8-2.3,2.2-3.2,2.2c-0.9,0-1.2,1.5-0.2,1.7c0.8,0.1,5.7,0.8,3.7,2.3c-1.1,0.9-3.3,1.1-4.2-0.3
			c-0.6-0.9-2.1-0.1-1.5,0.9c1.4,2.4,5.1,2.3,7,0.5c0.8-0.7,1.3-1.8,0.7-2.9C58.1,124.6,57.5,124.1,56.8,123.8z"/>
		<path class="st0" d="M71.1,124.1c-0.2,0.3-0.6,0.8-1.1,0.8c-0.5-0.1-0.5-0.7-0.6-1.1c0-0.1,0-0.3,0-0.4c0-1.1,0.3-2.1,0.4-3.2
			c0.1-1.1-1.6-1.1-1.7,0c-0.1,0.9-0.4,2.1-0.4,3.2c-0.8,1-2.7,2.1-3.9,1.7c-1.7-0.5-0.5-3.9-0.5-5.2c0-1.1-1.7-1.1-1.7,0
			c-0.1,2.3-1.4,6,1.8,6.8c1.6,0.4,3.4-0.3,4.7-1.4c0.1,0.2,0.2,0.4,0.4,0.5c1.3,1.4,3.3,0.5,4.1-0.9
			C73.2,124,71.7,123.1,71.1,124.1z"/>
		<path class="st0" d="M80.2,120c0.2,1.2,0.2,2.4,0.3,3.6c-1.3-0.2-2.7-0.2-4-0.3c0-1.2,0.1-2.5,0.4-3.7c0.3-1.1-1.4-1.5-1.7-0.5
			c-0.4,1.5-0.5,3-0.5,4.6c-0.1,0.2-0.1,0.5,0,0.7c0,1.1,0.1,2.1,0.1,3.2c0,1.1,1.7,1.1,1.7,0c0-0.9,0-1.7-0.1-2.6
			c1.3,0.2,2.7,0.2,4,0.3c0,0.8,0,1.5,0,2.3c0,1.1,1.7,1.1,1.7,0c0-2.5,0-5-0.3-7.6C81.8,118.9,80.1,118.9,80.2,120z"/>
		<path class="st0" d="M92.3,119.7c-2.9-2.1-7.3,0.1-7.6,3.5c-0.4,3.5,4,7.2,6.9,4.1c0.8-0.8-0.4-2-1.2-1.2c-1.9,2-4.5-1.2-3.9-3.3
			c0.6-2,3.2-3,4.9-1.7C92.3,121.9,93.2,120.4,92.3,119.7z"/>
		<path class="st0" d="M103.6,125.8c0,0.3-0.2,0.5-0.5,0.5c-0.4,0.2-0.8,0.1-1.1-0.3c-0.2-0.2-0.2-0.5-0.3-0.8
			c-0.2-0.6-0.4-1.1-0.8-1.6c-0.4-0.5-0.8-0.8-1.3-1.1c1.8-0.7,3.5-1.9,2.8-3.7c-0.4-1-2-0.6-1.7,0.5c0.4,1.3-2.7,2-3.9,2.2
			c0.1-0.9,0.2-1.8,0.2-2.6c0-1.1-1.7-1.1-1.7,0c-0.1,3.1-1.2,6.6,0.3,9.5c0.5,1,2,0.1,1.5-0.9c-0.6-1.3-0.7-2.8-0.5-4.3
			c0.9,0.2,1.9,0.6,2.6,1.2c0.6,0.6,0.7,1.2,1,1.9c0.4,0.9,1,1.5,1.9,1.7c1.8,0.4,3.9-1.3,2.9-3.2
			C104.6,123.9,103.1,124.8,103.6,125.8z"/>
		<path class="st0" d="M31.8,111.7c1.1,0.2,1.5-1.4,0.5-1.7c-3-0.6-6-0.6-8.9,0.2c-0.3-0.3-0.9-0.4-1.2,0c-0.2,0.2-0.4,0.5-0.5,0.7
			c-0.3,0.4-0.2,1.1,0.2,1.4c-0.3,4.9,0.1,9.8-0.9,14.6c-0.2,1.1,1.4,1.5,1.7,0.5c1.1-5,0.7-10.2,1-15.4
			C26.3,111.1,29,111.1,31.8,111.7z"/>
		<path class="st0" d="M115,124.7c0.1-2.2-0.1-4.6-1.9-5.7c-2.1-1.3-4.9,0.1-6,2.1c-0.6,1,0.9,1.8,1.5,0.9c0.8-1.3,3.1-2.6,4.2-0.9
			c0.5,0.8,0.7,1.9,0.6,3c-0.8-0.4-1.7-0.4-2.5-0.2c-1.2,0.3-3.1,1.5-2.8,2.9c0.3,1.7,2.3,1.5,3.5,1.1c0.6-0.2,1.2-0.4,1.7-0.8
			c0,1.1,1.7,1.1,1.7,0c0-0.4,0-0.9,0.1-1.4c0,0,0.1-0.1,0.1-0.1C115.3,125.3,115.2,125,115,124.7z M109.8,126.5
			C109.8,126.5,109.8,126.5,109.8,126.5C109.8,126.5,109.8,126.5,109.8,126.5c0-0.2,0.4-0.5,0.5-0.6c0.2-0.2,0.5-0.3,0.7-0.4
			c0.4-0.1,1.1-0.3,1.5,0c-0.2,0.1-0.4,0.2-0.6,0.3C111.5,126.1,110.2,126.8,109.8,126.5z"/>
		<path class="st0" d="M123,118.1c-0.9,0-1.7,0.4-2.3,1c-1.1,1.1-1.9,3.2-0.6,4.5c0.2,0.2,0.5,0.3,0.7,0.4c-0.8,1.5-1.6,3.8-3.3,3.4
			c-1.1-0.2-1.5,1.4-0.5,1.7c3.3,0.7,4.1-2.8,5.6-4.9c0.3,0,0.7-0.1,1-0.2c0,1,0,2,0,2.9c0,1.1,1.7,1.1,1.7,0c0-1.4,0-2.8,0-4.1
			c0-0.6,0-1.3-0.1-2c0,0,0,0,0.1,0c0.4-0.2,0.6-0.8,0.3-1.2C125,118.7,124.2,118.1,123,118.1z M123.3,122.3
			c-0.5,0.1-1.2,0.2-1.5,0.2c-0.1,0-0.2,0-0.3-0.1c0,0,0,0,0,0c0,0,0,0,0,0c0,0-0.1,0-0.1-0.1c0,0,0,0-0.1-0.1c0,0-0.1-0.1-0.1-0.1
			c0,0,0-0.1,0-0.1c0,0,0,0,0,0c0,0,0,0,0,0c0-0.1,0-0.1,0-0.2c0,0,0,0,0,0c0,0,0,0,0-0.1c0-0.1,0-0.2,0.1-0.3
			c0.1-0.2,0-0.1,0.1-0.3c0.2-0.4,0.3-0.5,0.6-0.8c0.2-0.2,0.1-0.1,0.3-0.2c0.1-0.1,0.2-0.1,0.3-0.1c0,0,0,0,0,0c0,0,0,0,0,0
			c0.3-0.1,0.5-0.1,0.7,0c0,0.1,0,0.3,0,0.4c0.2,0.6,0.3,1.3,0.3,2C123.5,122.2,123.4,122.2,123.3,122.3z"/>
		<path class="st0" d="M190.3,120.3c-0.6-0.8-1.5-1.5-2.6-1.5c-0.9,0-1.7,0.4-2.3,1c-1.1,1.1-1.9,3.2-0.6,4.5
			c0.2,0.2,0.5,0.3,0.7,0.4c-0.8,1.5-1.6,3.8-3.3,3.4c-1.1-0.2-1.5,1.4-0.5,1.7c3.3,0.7,4.1-2.8,5.6-4.9c0.3,0,0.7-0.1,1-0.2
			c0,1,0,2,0,2.9c0,1.1,1.7,1.1,1.7,0c0-1.4,0-2.8,0-4.1c0-0.6,0-1.3-0.1-2c0,0,0,0,0.1,0C190.4,121.3,190.6,120.7,190.3,120.3z
			 M188,123c-0.5,0.1-1.2,0.2-1.5,0.2c-0.1,0-0.2,0-0.3-0.1c0,0,0,0,0,0c0,0,0,0,0,0c0,0-0.1,0-0.1-0.1c0,0,0,0-0.1-0.1
			c0,0-0.1-0.1-0.1-0.1c0,0,0-0.1,0-0.1c0,0,0,0,0,0c0,0,0,0,0,0c0-0.1,0-0.1,0-0.2c0,0,0,0,0,0c0,0,0,0,0-0.1c0-0.1,0-0.2,0.1-0.3
			c0.1-0.2,0-0.1,0.1-0.3c0.2-0.4,0.3-0.5,0.6-0.8c0.2-0.2,0.1-0.1,0.3-0.2c0.1-0.1,0.2-0.1,0.3-0.1c0,0,0,0,0,0c0,0,0,0,0,0
			c0.3-0.1,0.5-0.1,0.7,0c0,0.1,0,0.3,0,0.4c0.2,0.6,0.3,1.3,0.3,2C188.2,123,188.1,123,188,123z"/>
	</g>
</g>
</svg>
