<?xml version="1.0" encoding="utf-8"?>
<!-- Generator: Adobe Illustrator 18.1.1, SVG Export Plug-In . SVG Version: 6.00 Build 0)  -->
<!DOCTYPE svg PUBLIC "-//W3C//DTD SVG 1.1//EN" "http://www.w3.org/Graphics/SVG/1.1/DTD/svg11.dtd">
<svg version="1.1" id="Layer_1" xmlns="http://www.w3.org/2000/svg" xmlns:xlink="http://www.w3.org/1999/xlink" x="0px" y="0px"
	 viewBox="0 0 100 100" enable-background="new 0 0 100 100" xml:space="preserve">
<g>
	<circle fill="none" stroke="#66469B" stroke-miterlimit="10" cx="50" cy="50" r="49.5"/>
	<g>
		<g>
			<path fill="#66469B" d="M60.7,36.5H35.3c-0.5,0-0.9-0.4-0.9-0.9c0-0.5,0.4-0.9,0.9-0.9h25.3c0.5,0,0.9,0.4,0.9,0.9
				C61.5,36.1,61.2,36.5,60.7,36.5z"/>
			<path fill="#FFFFFF" d="M60.7,36.9H35.3c-0.7,0-1.3-0.6-1.3-1.3s0.6-1.3,1.3-1.3h25.3c0.7,0,1.3,0.6,1.3,1.3S61.4,36.9,60.7,36.9
				z M35.3,35.2c-0.2,0-0.4,0.2-0.4,0.4s0.2,0.4,0.4,0.4h25.3c0.2,0,0.4-0.2,0.4-0.4s-0.2-0.4-0.4-0.4H35.3z"/>
		</g>
		<g>
			<path fill="#66469B" d="M60.7,41.5H35.3c-0.5,0-0.9-0.4-0.9-0.9c0-0.5,0.4-0.9,0.9-0.9h25.3c0.5,0,0.9,0.4,0.9,0.9
				C61.5,41.2,61.2,41.5,60.7,41.5z"/>
			<path fill="#FFFFFF" d="M60.7,42H35.3c-0.7,0-1.3-0.6-1.3-1.3s0.6-1.3,1.3-1.3h25.3c0.7,0,1.3,0.6,1.3,1.3S61.4,42,60.7,42z
				 M35.3,40.3c-0.2,0-0.4,0.2-0.4,0.4s0.2,0.4,0.4,0.4h25.3c0.2,0,0.4-0.2,0.4-0.4s-0.2-0.4-0.4-0.4H35.3z"/>
		</g>
		<g>
			<path fill="#66469B" d="M60.7,46.8H35.3c-0.5,0-0.9-0.4-0.9-0.9s0.4-0.9,0.9-0.9h25.3c0.5,0,0.9,0.4,0.9,0.9S61.2,46.8,60.7,46.8
				z"/>
			<path fill="#FFFFFF" d="M60.7,47.3H35.3c-0.7,0-1.3-0.6-1.3-1.3c0-0.7,0.6-1.3,1.3-1.3h25.3c0.7,0,1.3,0.6,1.3,1.3
				C62,46.7,61.4,47.3,60.7,47.3z M35.3,45.6c-0.2,0-0.4,0.2-0.4,0.4s0.2,0.4,0.4,0.4h25.3c0.2,0,0.4-0.2,0.4-0.4s-0.2-0.4-0.4-0.4
				H35.3z"/>
		</g>
		<g>
			<path fill="#66469B" d="M60.7,51.7H35.3c-0.5,0-0.9-0.4-0.9-0.9c0-0.5,0.4-0.9,0.9-0.9h25.3c0.5,0,0.9,0.4,0.9,0.9
				C61.5,51.3,61.2,51.7,60.7,51.7z"/>
			<path fill="#FFFFFF" d="M60.7,52.2H35.3c-0.7,0-1.3-0.6-1.3-1.3s0.6-1.3,1.3-1.3h25.3c0.7,0,1.3,0.6,1.3,1.3S61.4,52.2,60.7,52.2
				z M35.3,50.4c-0.2,0-0.4,0.2-0.4,0.4s0.2,0.4,0.4,0.4h25.3c0.2,0,0.4-0.2,0.4-0.4s-0.2-0.4-0.4-0.4H35.3z"/>
		</g>
		<g>
			<path fill="#66469B" d="M51.9,56.8H35.3c-0.5,0-0.9-0.4-0.9-0.9c0-0.5,0.4-0.9,0.9-0.9h16.6c0.5,0,0.9,0.4,0.9,0.9
				C52.8,56.4,52.4,56.8,51.9,56.8z"/>
			<path fill="#FFFFFF" d="M51.9,57.3H35.3c-0.7,0-1.3-0.6-1.3-1.3s0.6-1.3,1.3-1.3h16.6c0.7,0,1.3,0.6,1.3,1.3S52.7,57.3,51.9,57.3
				z M35.3,55.5c-0.2,0-0.4,0.2-0.4,0.4s0.2,0.4,0.4,0.4h16.6c0.2,0,0.4-0.2,0.4-0.4s-0.2-0.4-0.4-0.4H35.3z"/>
		</g>
		<g>
			<path fill="#66469B" d="M65.7,74.9H29.9c-1.4,0-2.6-1.2-2.6-2.6v-49c0-1.4,1.2-2.6,2.6-2.6h35.8c1.4,0,2.6,1.2,2.6,2.6v49
				C68.3,73.7,67.2,74.9,65.7,74.9z M29.9,22.5c-0.5,0-0.9,0.4-0.9,0.9v49c0,0.5,0.4,0.9,0.9,0.9h35.8c0.5,0,0.9-0.4,0.9-0.9v-49
				c0-0.5-0.4-0.9-0.9-0.9H29.9z"/>
			<path fill="#FFFFFF" d="M65.7,75.4H29.9c-1.7,0-3.1-1.4-3.1-3.1v-49c0-1.7,1.4-3.1,3.1-3.1h35.8c1.7,0,3.1,1.4,3.1,3.1v49
				C68.8,74,67.4,75.4,65.7,75.4z M29.9,21.2c-1.2,0-2.2,1-2.2,2.2v49c0,1.2,1,2.2,2.2,2.2h35.8c1.2,0,2.2-1,2.2-2.2v-49
				c0-1.2-1-2.2-2.2-2.2H29.9z M65.7,73.6H29.9c-0.7,0-1.3-0.6-1.3-1.3v-49c0-0.7,0.6-1.3,1.3-1.3h35.8c0.7,0,1.3,0.6,1.3,1.3v49
				C67.1,73,66.5,73.6,65.7,73.6z M29.9,22.9c-0.2,0-0.4,0.2-0.4,0.4v49c0,0.2,0.2,0.4,0.4,0.4h35.8c0.2,0,0.4-0.2,0.4-0.4v-49
				c0-0.2-0.2-0.4-0.4-0.4H29.9z"/>
		</g>
		<g>
			<path fill="#66469B" d="M71,79.3H33.4c-1,0-1.7-0.8-1.7-1.7v-4h1.7v3.9H71V26.8h-4.4v-1.7H71c1,0,1.7,0.8,1.7,1.7v50.7
				C72.7,78.5,71.9,79.3,71,79.3z"/>
			<path fill="#FFFFFF" d="M71,79.7H33.4c-1.2,0-2.2-1-2.2-2.2v-4.4h2.7v3.9h36.6V27.3h-4.4v-2.7H71c1.2,0,2.2,1,2.2,2.2v50.7
				C73.2,78.8,72.2,79.7,71,79.7z M32.1,74v3.5c0,0.7,0.6,1.3,1.3,1.3H71c0.7,0,1.3-0.6,1.3-1.3V26.8c0-0.7-0.6-1.3-1.3-1.3h-3.9
				v0.8h4.4V78H32.9V74H32.1z"/>
		</g>
		<g>
			<path fill="#FFFFFF" d="M63,58l0.3-0.5c0.3-0.4,0.2-0.9-0.2-1.2c-0.1-0.1-0.1-0.1-0.2-0.1L62.4,56v-0.6c0-0.5-0.4-0.9-0.9-0.9
				c-0.1,0-0.2,0-0.3,0l-0.6,0.2l-0.4-0.5c-0.2-0.2-0.4-0.3-0.7-0.3l0,0c-0.3,0-0.5,0.1-0.7,0.3l-0.4,0.5L58,54.6
				c-0.5-0.1-1,0.1-1.1,0.6c0,0.1,0,0.2,0,0.3V56l-0.5,0.2c-0.5,0.2-0.7,0.6-0.6,1.1c0,0.1,0.1,0.2,0.1,0.2l0.3,0.5l-0.3,0.5
				c-0.3,0.4-0.2,0.9,0.2,1.2c0.1,0.1,0.1,0.1,0.2,0.1l0.5,0.2v0.6c0,0.5,0.4,0.9,0.9,0.9c0.1,0,0.1,0,0.2,0l-0.7,4.8
				c0,0.3,0.2,0.5,0.4,0.6c0.1,0,0.2,0,0.3,0l1.7-0.9l1.7,0.9c0.2,0.1,0.5,0,0.7-0.2c0-0.1,0.1-0.2,0-0.3l-0.8-4.8
				c0.5,0.1,0.9-0.2,1.1-0.6c0-0.1,0-0.2,0-0.2V60l0.5-0.2c0.5-0.2,0.7-0.6,0.6-1.1c0-0.1-0.1-0.2-0.1-0.2L63,58z"/>
			<path fill="#66469B" d="M61.5,67.2c-0.1,0-0.3,0-0.4-0.1l-1.5-0.8L58,67.1c-0.2,0.1-0.4,0.1-0.6,0.1c-0.3,0-0.5-0.2-0.6-0.4
				c-0.2-0.2-0.2-0.5-0.2-0.7l0.7-4.3c-0.2-0.1-0.4-0.2-0.6-0.3c-0.2-0.3-0.4-0.6-0.4-1v-0.2l-0.2-0.1c-0.1,0-0.2-0.1-0.3-0.2
				c-0.3-0.2-0.5-0.5-0.5-0.9c-0.1-0.4,0-0.7,0.2-1l0.1-0.2l-0.1-0.2c-0.1-0.1-0.1-0.2-0.2-0.3c-0.1-0.3-0.1-0.7,0.1-1
				c0.2-0.3,0.4-0.6,0.8-0.7l0.2-0.1v-0.2c0-0.1,0-0.3,0.1-0.4c0.2-0.7,1-1.1,1.7-0.9l0.3,0.1l0.2-0.2c0.2-0.3,0.6-0.5,1.1-0.5h0
				c0.4,0,0.8,0.2,1.1,0.5l0.2,0.2l0.3-0.1c0.1,0,0.2-0.1,0.4-0.1c0.7,0,1.3,0.6,1.3,1.3v0.3l0.2,0.1c0.1,0,0.2,0.1,0.3,0.2
				c0.6,0.4,0.7,1.3,0.3,1.9L63.6,58l0.1,0.2c0.1,0.1,0.1,0.2,0.2,0.3c0.1,0.3,0.1,0.7-0.1,1c-0.2,0.3-0.4,0.6-0.8,0.7l-0.2,0.1v0.2
				c0,0.1,0,0.2,0,0.3c-0.1,0.5-0.5,0.9-1,1l0.7,4.3c0,0.2,0,0.4-0.1,0.6C62.2,67,61.9,67.2,61.5,67.2z M59.6,65.5l2,1c0,0,0,0,0,0
				l-1-5.7l0.7,0.2c0.2,0.1,0.5-0.1,0.5-0.3c0,0,0-0.1,0-0.1v-1l0.9-0.3c0.1,0,0.2-0.1,0.3-0.2s0.1-0.2,0-0.3c0,0,0-0.1-0.1-0.1
				l-0.4-0.8l0.5-0.7c0.1-0.2,0.1-0.5-0.1-0.6c0,0-0.1,0-0.1-0.1L62,56.1v-0.9c0-0.3-0.3-0.5-0.6-0.4L60.5,55L60,54.3
				c-0.2-0.2-0.6-0.2-0.7,0L58.7,55l-0.9-0.3c-0.3-0.1-0.5,0.1-0.5,0.3c0,0,0,0.1,0,0.1v0.9l-0.9,0.3c-0.1,0-0.2,0.1-0.3,0.2
				c-0.1,0.1-0.1,0.2,0,0.3c0,0,0,0.1,0.1,0.1l0.5,0.8l-0.5,0.8C56,58.7,56,58.9,56,59c0,0.1,0.1,0.2,0.2,0.3c0,0,0.1,0,0.1,0.1
				l0.9,0.3v0.9c0,0.1,0,0.2,0.1,0.3c0.1,0.1,0.2,0.1,0.3,0.1c0,0,0,0,0.1,0l0.7-0.1l-0.9,5.6L59.6,65.5z"/>
		</g>
	</g>
</g>
</svg>
