<?xml version="1.0" encoding="utf-8"?>
<!-- Generator: Adobe Illustrator 18.1.1, SVG Export Plug-In . SVG Version: 6.00 Build 0)  -->
<!DOCTYPE svg PUBLIC "-//W3C//DTD SVG 1.1//EN" "http://www.w3.org/Graphics/SVG/1.1/DTD/svg11.dtd">
<svg version="1.1" id="Layer_1" xmlns="http://www.w3.org/2000/svg" xmlns:xlink="http://www.w3.org/1999/xlink" x="0px" y="0px"
	 viewBox="0 0 100 100" enable-background="new 0 0 100 100" xml:space="preserve">
<g>
	<circle fill="none" stroke="#66469B" stroke-miterlimit="10" cx="50" cy="50" r="49.5"/>
	<g>
		<path fill="#66469B" d="M80.9,41.1c0-3.8-3.1-7-7-7h-7v-5c0-1.7-1.3-3-3-3H36c-1.7,0-3,1.3-3,3v5h-7c-3.9,0-7,3.1-7,7v9h3V71
			c0,1.7,1.3,3,3,3h49.8c1.7,0,3-1.3,3-3V50h3V41.1z M35.1,29.1c0-0.5,0.5-1,1-1H64c0.5,0,1,0.5,1,1v5H35.1V29.1z M75.9,71
			c0,0.5-0.5,1-1,1H25.1c-0.5,0-1-0.5-1-1V50h6v10h8V50H62v10h8V50h6V71z M32.1,56h4v2h-4V56z M36,54h-4v-4h4V54z M64,56h4v2h-4V56z
			 M67.9,54h-4v-4h4V54z M78.9,48H21.1v-7c0-2.7,2.2-5,5-5h47.8c2.7,0,5,2.2,5,5L78.9,48L78.9,48z"/>
		<path fill="#FFFFFF" d="M74.9,74.6H25.1c-2,0-3.6-1.6-3.6-3.6V50.6h-3v-9.6c0-4.2,3.4-7.6,7.6-7.6h6.4v-4.4c0-2,1.6-3.6,3.6-3.6
			h27.9c2,0,3.6,1.6,3.6,3.6v4.4h6.4c4.2,0,7.6,3.4,7.6,7.6v9.6h-3V71C78.5,72.9,76.9,74.6,74.9,74.6z M19.7,49.4h3V71
			c0,1.3,1.1,2.4,2.4,2.4h49.8c1.3,0,2.4-1.1,2.4-2.4V49.4h3v-8.3c0-3.5-2.9-6.4-6.4-6.4h-7.6v-5.6c0-1.3-1.1-2.4-2.4-2.4H36
			c-1.3,0-2.4,1.1-2.4,2.4v5.6h-7.6c-3.5,0-6.4,2.9-6.4,6.4V49.4z M74.9,72.6H25.1c-0.9,0-1.6-0.7-1.6-1.6V49.4h7.2v10h6.7v-10h25.1
			v10h6.7v-10h7.2V71C76.5,71.8,75.8,72.6,74.9,72.6z M24.7,50.6V71c0,0.2,0.2,0.4,0.4,0.4h49.8c0.2,0,0.4-0.2,0.4-0.4V50.6h-4.7v10
			h-9.2v-10H38.7v10h-9.2v-10H24.7z M68.6,58.6h-5.2v-3.2h5.2V58.6z M64.6,57.4h2.8v-0.8h-2.8V57.4z M36.7,58.6h-5.2v-3.2h5.2V58.6z
			 M32.7,57.4h2.8v-0.8h-2.8V57.4z M68.6,54.6h-5.2v-5.2h5.2V54.6z M64.6,53.4h2.8v-2.8h-2.8V53.4z M36.7,54.6h-5.2v-5.2h5.2V54.6z
			 M32.7,53.4h2.8v-2.8h-2.8V53.4z M79.5,48.6h-59V41c0-3.1,2.5-5.6,5.6-5.6h47.8c3.1,0,5.6,2.5,5.6,5.6V48.6z M21.7,47.4h56.6V41
			c0-2.4-2-4.4-4.4-4.4H26.1c-2.4,0-4.4,2-4.4,4.4V47.4z M65.6,34.7H34.4v-5.6c0-0.9,0.7-1.6,1.6-1.6H64c0.9,0,1.6,0.7,1.6,1.6V34.7
			z M35.7,33.5h28.7v-4.4c0-0.2-0.2-0.4-0.4-0.4H36c-0.2,0-0.4,0.2-0.4,0.4V33.5z"/>
	</g>
	<g>
		<path fill="#66469B" d="M51.6,43.7h-3.2v-3.2h3.2V43.7z M49.6,42.4h0.8v-0.8h-0.8V42.4z"/>
		<rect x="49" y="41.1" fill="#FFFFFF" width="2" height="2"/>
	</g>
	<g>
		<path fill="#66469B" d="M55.6,43.7h-3.2v-3.2h3.2V43.7z M53.6,42.4h0.8v-0.8h-0.8V42.4z"/>
		<rect x="53" y="41.1" fill="#FFFFFF" width="2" height="2"/>
	</g>
	<g>
		<path fill="#66469B" d="M47.6,43.7h-3.2v-3.2h3.2V43.7z M45.6,42.4h0.8v-0.8h-0.8V42.4z"/>
		<rect x="45" y="41.1" fill="#FFFFFF" width="2" height="2"/>
	</g>
</g>
</svg>
