<?xml version="1.0" encoding="utf-8"?>
<!-- Generator: Adobe Illustrator 18.1.1, SVG Export Plug-In . SVG Version: 6.00 Build 0)  -->
<!DOCTYPE svg PUBLIC "-//W3C//DTD SVG 1.1//EN" "http://www.w3.org/Graphics/SVG/1.1/DTD/svg11.dtd">
<svg version="1.1" id="Layer_1" xmlns="http://www.w3.org/2000/svg" xmlns:xlink="http://www.w3.org/1999/xlink" x="0px" y="0px"
	 viewBox="0 0 100 100" enable-background="new 0 0 100 100" xml:space="preserve">
<g>
	<circle fill="none" stroke="#66469B" stroke-miterlimit="10" cx="50" cy="50" r="49.5"/>
	<g>
		<g>
			<path fill="#66469B" stroke="#FFFFFF" stroke-width="0.5" stroke-miterlimit="10" d="M69.2,64.1c-0.1-0.1-0.3-0.2-0.5-0.2
				c-0.2,0-0.3,0.1-0.5,0.2l-4.2,4.2c-0.3,0.3-0.3,0.7,0,0.9l1.4,1.4c0.1,0.1,0.3,0.2,0.5,0.2s0.3-0.1,0.5-0.2l4.2-4.2
				c0.3-0.3,0.3-0.7,0-0.9L69.2,64.1z M66,69.2l-0.5-0.5l3.3-3.3l0.5,0.5L66,69.2z M55,33.9l-1.3-0.3l-1.2,4.5l1.3,0.3L55,33.9z
				 M47.5,38.1l-1.2-4.5L45,33.9l1.2,4.5L47.5,38.1z M62.4,38.6l-0.9-0.9l-3.3,3.3l0.9,0.9L62.4,38.6z M40.4,73.2L26.8,59.6
				c-0.4-0.4-0.9-0.6-1.4-0.6s-1,0.2-1.4,0.6l-6.6,6.6c-0.6,0.6-0.7,1.5-0.4,2.2c0,0,0,0.1,0.1,0.1c1.5,2.5,3.7,5.3,6.4,8
				c2.7,2.7,5.5,4.9,8,6.4c0,0,0,0,0.1,0c0.3,0.1,0.6,0.2,0.9,0.2c0.5,0,1-0.2,1.4-0.6l6.6-6.6C41.2,75.3,41.2,74,40.4,73.2z
				 M39.4,75.1l-6.6,6.6c-0.2,0.2-0.4,0.2-0.5,0.2c-0.1,0-0.2,0-0.3-0.1l-0.1,0l0,0c-2.5-1.5-5.1-3.6-7.6-6.1
				c-2.5-2.5-4.6-5.1-6.1-7.6l0,0l-0.1-0.2c-0.1-0.2-0.1-0.5,0.1-0.7l6.6-6.6c0.2-0.2,0.4-0.2,0.5-0.2c0.1,0,0.3,0,0.5,0.2
				l13.6,13.6c0.2,0.2,0.2,0.4,0.2,0.5C39.6,74.7,39.6,74.9,39.4,75.1z M41.9,40.9l-3.3-3.3l-0.9,0.9l3.3,3.3L41.9,40.9z M83,31.6
				c0,0,0-0.1-0.1-0.1c-1.5-2.5-3.7-5.3-6.4-8c-2.7-2.7-5.5-4.9-8-6.4c0,0,0,0-0.1,0c-0.3-0.1-0.6-0.2-0.9-0.2c-0.5,0-1,0.2-1.4,0.6
				L59.6,24c-0.8,0.8-0.8,2,0,2.8l13.6,13.6c0.4,0.4,0.9,0.6,1.4,0.6c0.5,0,1-0.2,1.4-0.6l6.6-6.6C83.2,33.2,83.3,32.3,83,31.6z
				 M81.7,32.9l-6.6,6.6c-0.2,0.2-0.4,0.2-0.5,0.2c-0.1,0-0.3,0-0.5-0.2L60.6,25.8c-0.3-0.3-0.3-0.7,0-0.9l6.6-6.6
				c0.2-0.2,0.4-0.2,0.5-0.2c0.1,0,0.2,0,0.3,0.1l0.1,0l0.1,0c2.5,1.5,5.1,3.6,7.6,6.1c2.5,2.5,4.6,5.1,6.1,7.6l0,0l0.1,0.2
				C81.9,32.3,81.9,32.6,81.7,32.9z M61.9,47.5l4.5-1.2L66.1,45l-4.5,1.2L61.9,47.5z M61.6,53.8l4.5,1.2l0.3-1.3l-4.5-1.2L61.6,53.8
				z M38.4,46.2L33.9,45l-0.3,1.3l4.5,1.2L38.4,46.2z M50,30.1c-5.1,0-10.2,1.9-14.1,5.8c-7.8,7.8-7.8,20.4,0,28.2
				c3.9,3.9,9,5.8,14.1,5.8c5.1,0,10.2-1.9,14.1-5.8c7.8-7.8,7.8-20.4,0-28.2C60.2,32,55.1,30.1,50,30.1z M63.1,63.1
				c-3.5,3.5-8.2,5.4-13.1,5.4c-5,0-9.6-1.9-13.1-5.4c-7.2-7.2-7.2-19,0-26.3c3.5-3.5,8.2-5.4,13.1-5.4c5,0,9.6,1.9,13.1,5.4
				C70.4,44.1,70.4,55.9,63.1,63.1z M76.8,40.1L72,44.9c-0.9-4-2.9-7.8-6-10.9c-3.1-3.1-6.9-5.1-10.9-6l4.8-4.8c0,0-1.1-1.1-1.5-1.5
				c0,0-0.2-0.1-0.3-0.1c-1,0-4.1,1-4.1,1s-3.5,2.7-5.9,4.9C43,27.9,38,30.1,34,34s-6.1,9-6.5,14.1c-2.2,2.4-4.9,5.9-4.9,5.9
				s-1.3,4-0.9,4.4c0.4,0.4,1.5,1.5,1.5,1.5l4.8-4.8c0.9,4,2.9,7.8,6,10.9c3.1,3.1,6.9,5.1,10.9,6l-4.8,4.8c0,0,1.1,1.1,1.5,1.5
				c0,0,0.2,0.1,0.3,0.1c1,0,4.1-1,4.1-1s3.5-2.7,5.9-4.9C57,72.1,62,69.9,66,66c3.9-3.9,6.1-9,6.5-14.1c2.2-2.4,4.9-5.9,4.9-5.9
				s1.3-4,0.9-4.4C77.9,41.2,76.8,40.1,76.8,40.1z M23.2,58L23,57.8c0.1-0.7,0.4-2,0.8-3.2c0.5-0.6,2.1-2.6,3.6-4.4
				c0,1.1,0.1,2.2,0.3,3.3L23.2,58z M54.7,23.8c1.1-0.3,2.5-0.7,3.2-0.8l0.2,0.2l-4.5,4.5c-1.1-0.2-2.2-0.3-3.3-0.3
				C52,25.9,54.1,24.3,54.7,23.8z M45.3,76.2c-1.1,0.3-2.5,0.7-3.2,0.8L42,76.8l4.5-4.5c1.1,0.2,2.2,0.3,3.3,0.3
				C48,74.1,45.9,75.7,45.3,76.2z M71.1,52.4C70.6,57,68.5,61.5,65,65c-3.4,3.4-7.8,5.5-12.6,6.1l0,0c-0.8,0.1-1.6,0.1-2.4,0.1
				c-1.3,0-2.6-0.1-3.9-0.4l0,0c-4.2-0.8-8-2.8-11-5.8c-3.1-3.1-5.1-7-5.8-11.1c-0.1-0.5-0.2-1-0.2-1.4c0-0.1,0-0.1,0-0.2
				c-0.1-0.5-0.1-1-0.1-1.5c0,0,0,0,0-0.1c0-1,0-2.1,0.1-3.1C29.4,43,31.5,38.5,35,35c3.4-3.4,7.8-5.5,12.6-6.1l0,0
				c0.8-0.1,1.6-0.1,2.4-0.1c1.3,0,2.6,0.1,3.9,0.4l0,0c4.2,0.8,8,2.8,11,5.8c3.1,3.1,5.1,7,5.8,11.1c0.1,0.5,0.2,0.9,0.2,1.4
				c0,0.1,0,0.1,0,0.2c0.1,0.5,0.1,1,0.1,1.5c0,0,0,0,0,0.1C71.2,50.3,71.2,51.4,71.1,52.4z M76.2,45.3c-0.5,0.6-2.1,2.6-3.6,4.4
				c0-1.1-0.1-2.2-0.3-3.3l4.5-4.5l0.2,0.2C76.9,42.8,76.6,44.2,76.2,45.3z M52.5,48.2l-2.1,0.9l-2.2-6.6L47,42.9l2.2,6.7l-9.8,4.2
				l0.5,1.2l9.7-4.2l0.6,1.9l1.3-0.4L51,50.7l16.3,0.1l0-1.3L53,49.3L52.5,48.2z M37.6,61.4l0.9,0.9l3.3-3.3l-0.9-0.9L37.6,61.4z
				 M38.1,52.5l-4.5,1.2l0.3,1.3l4.5-1.2L38.1,52.5z M58.1,59.1l3.3,3.3l0.9-0.9l-3.3-3.3L58.1,59.1z M45,66.1l1.3,0.3l1.2-4.5
				l-1.3-0.3L45,66.1z M52.5,61.9l1.2,4.5l1.3-0.3l-1.2-4.5L52.5,61.9z"/>
		</g>
	</g>
</g>
</svg>
