<?xml version="1.0" encoding="utf-8"?>
<!-- Generator: Adobe Illustrator 18.1.1, SVG Export Plug-In . SVG Version: 6.00 Build 0)  -->
<!DOCTYPE svg PUBLIC "-//W3C//DTD SVG 1.1//EN" "http://www.w3.org/Graphics/SVG/1.1/DTD/svg11.dtd">
<svg version="1.1" id="Layer_1" xmlns="http://www.w3.org/2000/svg" xmlns:xlink="http://www.w3.org/1999/xlink" x="0px" y="0px"
	 viewBox="0 0 100 100" enable-background="new 0 0 100 100" xml:space="preserve">
<g>
	<circle fill="none" stroke="#66469B" stroke-miterlimit="10" cx="50" cy="50" r="49.5"/>
	<g>
		<g>
			<path fill="#66469B" stroke="#FFFFFF" stroke-width="0.25" stroke-miterlimit="10" d="M59.6,57.4c8.5,1.3,14.4,4.3,14.4,7.8
				c0,4.7-10.7,8.6-24,8.6S26,70,26,65.2c0-3.5,5.9-6.5,14.4-7.8c-9.5,1.4-16.2,4.7-16.2,8.5c0,5.1,11.5,9.2,25.8,9.2
				s25.8-4.1,25.8-9.2C75.8,62.1,69.1,58.8,59.6,57.4z"/>
		</g>
		<g>
			<path fill="#66469B" stroke="#FFFFFF" stroke-width="0.25" stroke-miterlimit="10" d="M58.1,59.2c5.9,0.9,8.6,2.6,8.6,5
				c0,3.3-7.5,5.9-16.7,5.9s-16.7-2.7-16.7-5.9c0-2.4,2.5-4.2,8.4-5.2c-6.6,0.9-9.7,3-9.7,5.6c0,3.5,8,6.4,17.9,6.4
				s17.9-2.9,17.9-6.4C67.9,62,64.7,60.1,58.1,59.2z"/>
		</g>
		<g>
			<g>
				<path fill="#66469B" d="M36,49.5c0,7.1,6.3,12.9,14,12.9s14-5.8,14-12.9S50,23.4,50,23.4S36,42.4,36,49.5z M54.9,33.8
					c6.5,10.5,7.2,14.4,7.2,15.6c0,6.1-5.4,11-12.1,11s-12.1-4.9-12.1-11c0-1.2,0.7-5.1,7.2-15.6c1.8-2.9,3.5-5.5,4.9-7.5
					C51.4,28.3,53.2,31,54.9,33.8z"/>
				<path fill="#FFFFFF" d="M50,62.8c-7.9,0-14.3-5.9-14.3-13.3c0-7.2,13.4-25.5,14-26.3l0.2-0.3l0.2,0.3c0.6,0.8,14,19.1,14,26.3
					C64.3,56.8,57.9,62.8,50,62.8z M50,23.9c-1.9,2.6-13.6,19.2-13.6,25.6c0,7,6.1,12.6,13.6,12.6s13.6-5.7,13.6-12.6
					C63.6,43.1,51.9,26.5,50,23.9z M50,60.7c-6.8,0-12.4-5.1-12.4-11.3c0-1.2,0.7-5.2,7.2-15.7c1.5-2.5,3.3-5.2,4.9-7.5l0.3-0.4
					l0.3,0.4c1.9,2.7,3.5,5.2,4.9,7.5c6.5,10.5,7.2,14.5,7.2,15.8C62.4,55.7,56.8,60.7,50,60.7z M50,26.9c-1.6,2.3-3.2,4.8-4.7,7.2
					c-6.4,10.4-7.1,14.2-7.1,15.4c0,5.9,5.3,10.7,11.8,10.7s11.8-4.8,11.8-10.7c0-1.2-0.7-5-7.1-15.5C53.3,31.8,51.8,29.5,50,26.9z"
					/>
			</g>
			<g>
				<path fill="#FFFFFF" d="M41.4,48.9c0-0.4-0.3-0.8-0.8-0.8s-0.8,0.3-0.8,0.8c0,5.1,4,9.2,9,9.2c0.4,0,0.8-0.3,0.8-0.8
					c0-0.4-0.3-0.8-0.8-0.8C44.8,56.6,41.4,53.2,41.4,48.9z"/>
				<path fill="#66469B" d="M40.7,48.5c-0.3,0-0.4,0.2-0.4,0.5c0,4.9,3.9,8.9,8.6,8.9c0.3,0,0.4-0.2,0.4-0.5s-0.2-0.5-0.4-0.5
					c-4.3,0-7.8-3.6-7.8-8C41.1,48.7,40.9,48.5,40.7,48.5z"/>
			</g>
		</g>
	</g>
</g>
</svg>
