<?xml version="1.0" encoding="utf-8"?><!DOCTYPE svg PUBLIC "-//W3C//DTD SVG 1.1//EN" "http://www.w3.org/Graphics/SVG/1.1/DTD/svg11.dtd"><svg xmlns="http://www.w3.org/2000/svg" xmlns:xlink="http://www.w3.org/1999/xlink"><symbol viewBox="0 0 100 100" id="access-round-icon"><circle fill="none" stroke="#66469B" stroke-miterlimit="10" cx="50" cy="50" r="49.5"/><circle fill="#66469B" cx="34.7" cy="66.3" r="1.8"/><path fill="#FFF" d="M34.7 68.4c-.6 0-1.1-.2-1.5-.6-.8-.8-.8-2.2 0-3.1.8-.8 2.3-.8 3.1 0 .4.4.6 1 .6 1.5 0 .6-.2 1.1-.6 1.5-.4.5-1 .7-1.6.7zm0-3.6c-.4 0-.7.1-1 .4-.5.5-.5 1.4 0 2 .3.3.6.4 1 .4s.7-.1 1-.4c.3-.3.4-.6.4-1s-.1-.7-.4-1c-.2-.2-.6-.4-1-.4z"/><circle fill="#66469B" cx="57.9" cy="43" r="1.8"/><path fill="#FFF" d="M57.9 45.2c-.6 0-1.1-.2-1.5-.6-.8-.8-.8-2.2 0-3.1.8-.8 2.3-.8 3.1 0 .4.4.6 1 .6 1.5 0 .6-.2 1.1-.6 1.5-.4.5-1 .7-1.6.7zm0-3.6c-.4 0-.7.1-1 .4-.5.5-.5 1.4 0 2 .3.3.6.4 1 .4s.7-.1 1-.4c.3-.3.4-.6.4-1s-.1-.7-.4-1c-.2-.2-.6-.4-1-.4z"/><g><path fill="#66469B" d="M56.8 33.2l-3-3-21.1 21.1 3 3-15.4 15.4 11 11 15.4-15.4 3 3 21.1-21.1-3-3 11.9-11.9-11-11-11.9 11.9zM31.3 78.6l-8.9-8.9 14.2-14.2 7.7 7.7 1.1 1.1-14.1 14.3zm34.3-34.3L50.4 59.5l-4-4 .5-.6 1.1-1.1c.7.4 1.7.3 2.3-.3.7-.7.7-1.9 0-2.7-.7-.7-1.9-.7-2.7 0-.6.6-.7 1.5-.3 2.2l-1.7 1.7-4-4 15.2-15.2 8.8 8.8zm-10-9.9L39.4 50.6l5.1 5.1-.2.3-2.3 2.2.8.8 2.5-2.5 5.1 5.1 16.2-16.2 1.8 1.8L49.7 66l-6.3-6.3-.6.6-2-2 .6-.6-6.4-6.4 18.8-18.8 1.8 1.9zm22-2.1l-1.1 1.1-9.7 9.7-8.9-8.9 10.9-10.9 8.8 9z"/><path fill="#FFF" d="M31.3 81.2L19.7 69.7l15.4-15.4-3-3 21.6-21.6 3 3 11.9-11.9 11.5 11.5-11.8 11.9 3 3-21.6 21.6-3-3-15.4 15.4zM20.8 69.7l10.4 10.4 15.4-15.4 3 3 20.5-20.5-3-3L79 32.3 68.7 21.8l-11.9 12-3-3-20.5 20.5 3 3-15.5 15.4zm10.5 9.4l-9.4-9.4 14.8-14.8 9.4 9.4-14.8 14.8zM23 69.7l8.3 8.3L45 64.3 36.7 56 23 69.7zm26.7-3.2l-6.3-6.3-.6.6-2.5-2.5.6-.6-6.3-6.3L53.8 32l2.4 2.4-16.3 16.2 5.1 5.1-2.5 2.5.2.2 2.5-2.5 5.1 5.1 16.2-16.2 2.4 2.4-19.2 19.3zm-6.4-7.4l6.3 6.3 18.2-18.2-1.3-1.3-16.1 16.2-5.1-5.1-2.5 2.5-1.3-1.3 2.5-2.5-5.1-5.1 16.2-16.2-1.3-1.3-18.2 18.2 6.3 6.3-.6.6 1.4 1.4.6-.5zm7.1.9l-4.6-4.6.7-.9 1.3-1.3.3.2c.6.3 1.3.3 1.8-.2.3-.3.4-.7.4-1.1s-.1-.8-.3-1.1c-.6-.6-1.5-.6-2.1 0-.5.5-.6 1.2-.3 1.8l.1.3-2.2 2.2-4.5-4.7 15.7-15.7 9.4 9.4L50.4 60zm-3.5-4.6l3.5 3.5L65 44.3 56.7 36 42.1 50.6l3.5 3.5 1.2-1.2c-.3-.8-.1-1.8.5-2.4.9-.9 2.3-.9 3.2 0 .4.4.7 1 .7 1.6 0 .6-.2 1.2-.7 1.6-.6.6-1.7.8-2.5.5l-.9.9-.2.3zm19.8-11.7l-9.4-9.4 11.4-11.4 9.4 9.4-11.4 11.4zm-8.3-9.4l8.3 8.3L77 32.3 68.7 24 58.4 34.3z"/></g><g><circle fill="#66469B" cx="67.4" cy="33.6" r="1.8"/><path fill="#FFF" d="M67.4 35.8c-.6 0-1.1-.2-1.5-.6-.8-.8-.8-2.2 0-3.1.8-.8 2.3-.8 3.1 0 .4.4.6 1 .6 1.5 0 .6-.2 1.1-.6 1.5-.5.4-1 .7-1.6.7zm0-3.6c-.4 0-.7.1-1 .4-.5.5-.5 1.4 0 2 .3.3.6.4 1 .4s.7-.1 1-.4c.3-.3.4-.6.4-1s-.1-.7-.4-1c-.3-.3-.6-.4-1-.4z"/></g></symbol><symbol viewBox="0 0 100 100" id="close-btn"><path d="M95.6 80.1L65.5 50l30.1-30.1c4.3-4.3 4.3-11.2 0-15.5C91.3.1 84.4.1 80.1 4.4L50 34.5 19.9 4.4C15.6.1 8.7.1 4.4 4.4.1 8.7.1 15.6 4.4 19.9L34.5 50 4.4 80.1C.1 84.4.1 91.3 4.4 95.6c4.3 4.3 11.2 4.3 15.5 0L50 65.5l30.1 30.1c4.3 4.3 11.2 4.3 15.5 0 4.3-4.3 4.3-11.2 0-15.5z"/></symbol><symbol viewBox="0 0 100 100" id="f-btn"><path d="M24.3 54.3h15.2v45.1h18.2V54.3h15.2l2.3-17.6H57.7V25.6c0-2.5.5-4.6 1.6-6.2 1.1-1.6 3.4-2.4 7.1-2.4h9.4V1.3c-.8-.1-2.5-.3-5-.5S65.4.5 62.2.5C58.9.5 55.8 1 53 2c-2.8 1-5.2 2.5-7.2 4.5s-3.5 4.4-4.6 7.3c-1.1 2.9-1.6 6.2-1.6 10v12.9H24.4v17.6z"/></symbol><symbol viewBox="0 0 100 100" id="hum-btn"><path d="M3.2 31.4h93.6c1.4 0 2.6-1.2 2.6-2.6V17.2c0-1.4-1.2-2.6-2.6-2.6H3.2c-1.4 0-2.6 1.2-2.6 2.6v11.6c0 1.5 1.2 2.6 2.6 2.6zM3.2 58.4h93.6c1.4 0 2.6-1.2 2.6-2.6V44.2c0-1.4-1.2-2.6-2.6-2.6H3.2c-1.4 0-2.6 1.2-2.6 2.6v11.6c0 1.4 1.2 2.6 2.6 2.6zM3.2 85.4h93.6c1.4 0 2.6-1.2 2.6-2.6V71.2c0-1.4-1.2-2.6-2.6-2.6H3.2c-1.4 0-2.6 1.2-2.6 2.6v11.6c0 1.4 1.2 2.6 2.6 2.6z"/></symbol><symbol viewBox="0 0 100 100" id="sertif-round-icon"><circle fill="none" stroke="#66469B" stroke-miterlimit="10" cx="50" cy="50" r="49.5"/><path fill="#66469B" d="M60.7 36.5H35.3c-.5 0-.9-.4-.9-.9s.4-.9.9-.9h25.3c.5 0 .9.4.9.9s-.3.9-.8.9z"/><path fill="#FFF" d="M60.7 36.9H35.3c-.7 0-1.3-.6-1.3-1.3s.6-1.3 1.3-1.3h25.3c.7 0 1.3.6 1.3 1.3s-.5 1.3-1.2 1.3zm-25.4-1.7c-.2 0-.4.2-.4.4s.2.4.4.4h25.3c.2 0 .4-.2.4-.4s-.2-.4-.4-.4H35.3z"/><path fill="#66469B" d="M60.7 41.5H35.3c-.5 0-.9-.4-.9-.9s.4-.9.9-.9h25.3c.5 0 .9.4.9.9 0 .6-.3.9-.8.9z"/><path fill="#FFF" d="M60.7 42H35.3c-.7 0-1.3-.6-1.3-1.3s.6-1.3 1.3-1.3h25.3c.7 0 1.3.6 1.3 1.3s-.5 1.3-1.2 1.3zm-25.4-1.7c-.2 0-.4.2-.4.4s.2.4.4.4h25.3c.2 0 .4-.2.4-.4s-.2-.4-.4-.4H35.3z"/><path fill="#66469B" d="M60.7 46.8H35.3c-.5 0-.9-.4-.9-.9s.4-.9.9-.9h25.3c.5 0 .9.4.9.9s-.3.9-.8.9z"/><path fill="#FFF" d="M60.7 47.3H35.3c-.7 0-1.3-.6-1.3-1.3 0-.7.6-1.3 1.3-1.3h25.3c.7 0 1.3.6 1.3 1.3.1.7-.5 1.3-1.2 1.3zm-25.4-1.7c-.2 0-.4.2-.4.4s.2.4.4.4h25.3c.2 0 .4-.2.4-.4s-.2-.4-.4-.4H35.3z"/><path fill="#66469B" d="M60.7 51.7H35.3c-.5 0-.9-.4-.9-.9s.4-.9.9-.9h25.3c.5 0 .9.4.9.9s-.3.9-.8.9z"/><path fill="#FFF" d="M60.7 52.2H35.3c-.7 0-1.3-.6-1.3-1.3s.6-1.3 1.3-1.3h25.3c.7 0 1.3.6 1.3 1.3s-.5 1.3-1.2 1.3zm-25.4-1.8c-.2 0-.4.2-.4.4s.2.4.4.4h25.3c.2 0 .4-.2.4-.4s-.2-.4-.4-.4H35.3z"/><g><path fill="#66469B" d="M51.9 56.8H35.3c-.5 0-.9-.4-.9-.9s.4-.9.9-.9h16.6c.5 0 .9.4.9.9s-.4.9-.9.9z"/><path fill="#FFF" d="M51.9 57.3H35.3c-.7 0-1.3-.6-1.3-1.3s.6-1.3 1.3-1.3h16.6c.7 0 1.3.6 1.3 1.3s-.5 1.3-1.3 1.3zm-16.6-1.8c-.2 0-.4.2-.4.4s.2.4.4.4h16.6c.2 0 .4-.2.4-.4s-.2-.4-.4-.4H35.3z"/></g><g><path fill="#66469B" d="M65.7 74.9H29.9c-1.4 0-2.6-1.2-2.6-2.6v-49c0-1.4 1.2-2.6 2.6-2.6h35.8c1.4 0 2.6 1.2 2.6 2.6v49c0 1.4-1.1 2.6-2.6 2.6zM29.9 22.5c-.5 0-.9.4-.9.9v49c0 .5.4.9.9.9h35.8c.5 0 .9-.4.9-.9v-49c0-.5-.4-.9-.9-.9H29.9z"/><path fill="#FFF" d="M65.7 75.4H29.9c-1.7 0-3.1-1.4-3.1-3.1v-49c0-1.7 1.4-3.1 3.1-3.1h35.8c1.7 0 3.1 1.4 3.1 3.1v49c0 1.7-1.4 3.1-3.1 3.1zM29.9 21.2c-1.2 0-2.2 1-2.2 2.2v49c0 1.2 1 2.2 2.2 2.2h35.8c1.2 0 2.2-1 2.2-2.2v-49c0-1.2-1-2.2-2.2-2.2H29.9zm35.8 52.4H29.9c-.7 0-1.3-.6-1.3-1.3v-49c0-.7.6-1.3 1.3-1.3h35.8c.7 0 1.3.6 1.3 1.3v49c.1.7-.5 1.3-1.3 1.3zM29.9 22.9c-.2 0-.4.2-.4.4v49c0 .2.2.4.4.4h35.8c.2 0 .4-.2.4-.4v-49c0-.2-.2-.4-.4-.4H29.9z"/></g><g><path fill="#66469B" d="M71 79.3H33.4c-1 0-1.7-.8-1.7-1.7v-4h1.7v3.9H71V26.8h-4.4v-1.7H71c1 0 1.7.8 1.7 1.7v50.7c0 1-.8 1.8-1.7 1.8z"/><path fill="#FFF" d="M71 79.7H33.4c-1.2 0-2.2-1-2.2-2.2v-4.4h2.7V77h36.6V27.3h-4.4v-2.7H71c1.2 0 2.2 1 2.2 2.2v50.7c0 1.3-1 2.2-2.2 2.2zM32.1 74v3.5c0 .7.6 1.3 1.3 1.3H71c.7 0 1.3-.6 1.3-1.3V26.8c0-.7-.6-1.3-1.3-1.3h-3.9v.8h4.4V78H32.9v-4h-.8z"/></g><g><path fill="#FFF" d="M63 58l.3-.5c.3-.4.2-.9-.2-1.2-.1-.1-.1-.1-.2-.1l-.5-.2v-.6c0-.5-.4-.9-.9-.9h-.3l-.6.2-.4-.5c-.2-.2-.4-.3-.7-.3-.3 0-.5.1-.7.3l-.4.5-.4-.1c-.5-.1-1 .1-1.1.6v.8l-.5.2c-.5.2-.7.6-.6 1.1 0 .1.1.2.1.2l.3.5-.3.5c-.3.4-.2.9.2 1.2.1.1.1.1.2.1l.5.2v.6c0 .5.4.9.9.9h.2l-.7 4.8c0 .3.2.5.4.6h.3l1.7-.9 1.7.9c.2.1.5 0 .7-.2 0-.1.1-.2 0-.3l-.8-4.8c.5.1.9-.2 1.1-.6v-1l.5-.2c.5-.2.7-.6.6-1.1 0-.1-.1-.2-.1-.2L63 58z"/><path fill="#66469B" d="M61.5 67.2c-.1 0-.3 0-.4-.1l-1.5-.8-1.6.8c-.2.1-.4.1-.6.1-.3 0-.5-.2-.6-.4-.2-.2-.2-.5-.2-.7l.7-4.3-.6-.3c-.2-.3-.4-.6-.4-1v-.2l-.2-.1c-.1 0-.2-.1-.3-.2-.3-.2-.5-.5-.5-.9-.1-.4 0-.7.2-1l.1-.2-.1-.2c-.1-.1-.1-.2-.2-.3-.1-.3-.1-.7.1-1 .2-.3.4-.6.8-.7l.2-.1v-.2c0-.1 0-.3.1-.4.2-.7 1-1.1 1.7-.9l.3.1.2-.2c.2-.3.6-.5 1.1-.5.4 0 .8.2 1.1.5l.2.2.3-.1c.1 0 .2-.1.4-.1.7 0 1.3.6 1.3 1.3v.3l.2.1c.1 0 .2.1.3.2.6.4.7 1.3.3 1.9l-.3.2.1.2c.1.1.1.2.2.3.1.3.1.7-.1 1-.2.3-.4.6-.8.7l-.2.1v.5c-.1.5-.5.9-1 1l.7 4.3c0 .2 0 .4-.1.6-.2.3-.5.5-.9.5zm-1.9-1.7l2 1-1-5.7.7.2c.2.1.5-.1.5-.3v-1.1l.9-.3c.1 0 .2-.1.3-.2s.1-.2 0-.3c0 0 0-.1-.1-.1l-.4-.8.5-.7c.1-.2.1-.5-.1-.6 0 0-.1 0-.1-.1l-.8-.4v-.9c0-.3-.3-.5-.6-.4l-.9.2-.5-.7c-.2-.2-.6-.2-.7 0l-.6.7-.9-.3c-.3-.1-.5.1-.5.3v1l-.9.3c-.1 0-.2.1-.3.2-.1.1-.1.2 0 .3 0 0 0 .1.1.1l.5.8-.5.8c-.2.2-.2.4-.2.5 0 .1.1.2.2.3 0 0 .1 0 .1.1l.9.3v.9c0 .1 0 .2.1.3.1.1.2.1.3.1h.1l.7-.1-.9 5.6 2.1-1z"/></g></symbol><symbol viewBox="0 0 100 100" id="tools-round-icon"><circle fill="none" stroke="#66469B" stroke-miterlimit="10" cx="50" cy="50" r="49.5"/><path fill="#66469B" d="M80.9 41.1c0-3.8-3.1-7-7-7h-7v-5c0-1.7-1.3-3-3-3H36c-1.7 0-3 1.3-3 3v5h-7c-3.9 0-7 3.1-7 7v9h3V71c0 1.7 1.3 3 3 3h49.8c1.7 0 3-1.3 3-3V50h3v-8.9zm-45.8-12c0-.5.5-1 1-1H64c.5 0 1 .5 1 1v5H35.1v-5zM75.9 71c0 .5-.5 1-1 1H25.1c-.5 0-1-.5-1-1V50h6v10h8V50H62v10h8V50h6v21zM32.1 56h4v2h-4v-2zm3.9-2h-4v-4h4v4zm28 2h4v2h-4v-2zm3.9-2h-4v-4h4v4zm11-6H21.1v-7c0-2.7 2.2-5 5-5h47.8c2.7 0 5 2.2 5 5v7z"/><path fill="#FFF" d="M74.9 74.6H25.1c-2 0-3.6-1.6-3.6-3.6V50.6h-3V41c0-4.2 3.4-7.6 7.6-7.6h6.4V29c0-2 1.6-3.6 3.6-3.6H64c2 0 3.6 1.6 3.6 3.6v4.4H74c4.2 0 7.6 3.4 7.6 7.6v9.6h-3V71c-.1 1.9-1.7 3.6-3.7 3.6zM19.7 49.4h3V71c0 1.3 1.1 2.4 2.4 2.4h49.8c1.3 0 2.4-1.1 2.4-2.4V49.4h3v-8.3c0-3.5-2.9-6.4-6.4-6.4h-7.6v-5.6c0-1.3-1.1-2.4-2.4-2.4H36c-1.3 0-2.4 1.1-2.4 2.4v5.6H26c-3.5 0-6.4 2.9-6.4 6.4v8.3zm55.2 23.2H25.1c-.9 0-1.6-.7-1.6-1.6V49.4h7.2v10h6.7v-10h25.1v10h6.7v-10h7.2V71c.1.8-.6 1.6-1.5 1.6zm-50.2-22V71c0 .2.2.4.4.4h49.8c.2 0 .4-.2.4-.4V50.6h-4.7v10h-9.2v-10H38.7v10h-9.2v-10h-4.8zm43.9 8h-5.2v-3.2h5.2v3.2zm-4-1.2h2.8v-.8h-2.8v.8zm-27.9 1.2h-5.2v-3.2h5.2v3.2zm-4-1.2h2.8v-.8h-2.8v.8zm35.9-2.8h-5.2v-5.2h5.2v5.2zm-4-1.2h2.8v-2.8h-2.8v2.8zm-27.9 1.2h-5.2v-5.2h5.2v5.2zm-4-1.2h2.8v-2.8h-2.8v2.8zm46.8-4.8h-59V41c0-3.1 2.5-5.6 5.6-5.6h47.8c3.1 0 5.6 2.5 5.6 5.6v7.6zm-57.8-1.2h56.6V41c0-2.4-2-4.4-4.4-4.4H26.1c-2.4 0-4.4 2-4.4 4.4v6.4zm43.9-12.7H34.4v-5.6c0-.9.7-1.6 1.6-1.6h28c.9 0 1.6.7 1.6 1.6v5.6zm-29.9-1.2h28.7v-4.4c0-.2-.2-.4-.4-.4H36c-.2 0-.4.2-.4.4v4.4z"/><path fill="#66469B" d="M51.6 43.7h-3.2v-3.2h3.2v3.2zm-2-1.3h.8v-.8h-.8v.8z"/><path fill="#FFF" d="M49 41.1h2v2h-2z"/><g><path fill="#66469B" d="M55.6 43.7h-3.2v-3.2h3.2v3.2zm-2-1.3h.8v-.8h-.8v.8z"/><path fill="#FFF" d="M53 41.1h2v2h-2z"/></g><g><path fill="#66469B" d="M47.6 43.7h-3.2v-3.2h3.2v3.2zm-2-1.3h.8v-.8h-.8v.8z"/><path fill="#FFF" d="M45 41.1h2v2h-2z"/></g></symbol><symbol viewBox="0 0 100 100" id="tw-btn"><path d="M.8 80.9c.8.1 1.6.2 2.4.2h2.5c4.7 0 9.2-.8 13.5-2.3 4.3-1.5 8.1-3.7 11.6-6.3-4.4-.1-8.3-1.4-11.8-4-3.4-2.6-5.8-6-7.1-10l1.8.3c.6.1 1.3.1 1.9.1 1 0 1.9-.1 2.7-.2.9-.1 1.7-.3 2.6-.5-4.6-1-8.5-3.3-11.6-7s-4.7-8-4.7-12.8v-.2c1.3.8 2.8 1.4 4.3 1.8 1.5.4 3.1.7 4.8.7-2.7-1.8-4.9-4.2-6.5-7.1a20 20 0 0 1-2.5-9.7c0-1.8.2-3.6.7-5.3.5-1.7 1.1-3.3 2-4.8 2.5 3 5.3 5.8 8.4 8.3 3.1 2.5 6.4 4.7 9.9 6.5 3.5 1.8 7.3 3.3 11.2 4.4 3.9 1.1 8 1.7 12.2 1.9-.1-.7-.2-1.4-.3-2.2-.1-.8-.1-1.6-.1-2.4 0-2.8.5-5.4 1.6-7.8s2.5-4.6 4.3-6.4c1.8-1.8 4-3.3 6.4-4.3 2.4-1.1 5.1-1.6 7.9-1.6 2.9 0 5.6.6 8.2 1.7 2.6 1.2 4.7 2.7 6.5 4.7 2.3-.4 4.5-1.1 6.7-1.9 2.1-.8 4.2-1.8 6.2-3-.8 2.3-1.9 4.4-3.5 6.3-1.5 1.9-3.4 3.5-5.5 4.8 2.1-.3 4.1-.7 6-1.2 2-.5 3.8-1.2 5.6-2-1.3 2-2.9 3.9-4.6 5.6-1.7 1.8-3.5 3.4-5.5 4.9v2.5c0 6.7-1.2 13.4-3.7 20.2-2.5 6.8-6.2 13-11.1 18.5-4.9 5.5-10.9 10-18 13.5S40.8 90 31.5 90c-2.8 0-5.6-.2-8.4-.6-2.8-.4-5.4-1-8-1.8-2.6-.8-5.1-1.7-7.5-2.9C5.4 83.6 3 82.3.8 80.9z"/></symbol><symbol viewBox="0 0 100 100" id="watch-round-icon"><circle fill="none" stroke="#66469B" stroke-miterlimit="10" cx="50" cy="50" r="49.5"/><path fill="#66469B" stroke="#FFF" stroke-width=".5" stroke-miterlimit="10" d="M69.2 64.1c-.1-.1-.3-.2-.5-.2s-.3.1-.5.2L64 68.3c-.3.3-.3.7 0 .9l1.4 1.4c.1.1.3.2.5.2s.3-.1.5-.2l4.2-4.2c.3-.3.3-.7 0-.9l-1.4-1.4zM66 69.2l-.5-.5 3.3-3.3.5.5-3.3 3.3zM55 33.9l-1.3-.3-1.2 4.5 1.3.3 1.2-4.5zm-7.5 4.2l-1.2-4.5-1.3.3 1.2 4.5 1.3-.3zm14.9.5l-.9-.9-3.3 3.3.9.9 3.3-3.3zm-22 34.6L26.8 59.6c-.4-.4-.9-.6-1.4-.6s-1 .2-1.4.6l-6.6 6.6c-.6.6-.7 1.5-.4 2.2 0 0 0 .1.1.1 1.5 2.5 3.7 5.3 6.4 8s5.5 4.9 8 6.4h.1c.3.1.6.2.9.2.5 0 1-.2 1.4-.6l6.6-6.6c.7-.6.7-1.9-.1-2.7zm-1 1.9l-6.6 6.6c-.2.2-.4.2-.5.2-.1 0-.2 0-.3-.1h-.1c-2.5-1.5-5.1-3.6-7.6-6.1-2.5-2.5-4.6-5.1-6.1-7.6l-.1-.2c-.1-.2-.1-.5.1-.7l6.6-6.6c.2-.2.4-.2.5-.2.1 0 .3 0 .5.2l13.6 13.6c.2.2.2.4.2.5 0 0 0 .2-.2.4zm2.5-34.2l-3.3-3.3-.9.9 3.3 3.3.9-.9zM83 31.6s0-.1-.1-.1c-1.5-2.5-3.7-5.3-6.4-8s-5.5-4.9-8-6.4h-.1c-.3-.1-.6-.2-.9-.2-.5 0-1 .2-1.4.6L59.6 24c-.8.8-.8 2 0 2.8l13.6 13.6c.4.4.9.6 1.4.6.5 0 1-.2 1.4-.6l6.6-6.6c.6-.6.7-1.5.4-2.2zm-1.3 1.3l-6.6 6.6c-.2.2-.4.2-.5.2-.1 0-.3 0-.5-.2L60.6 25.8c-.3-.3-.3-.7 0-.9l6.6-6.6c.2-.2.4-.2.5-.2.1 0 .2 0 .3.1h.2c2.5 1.5 5.1 3.6 7.6 6.1 2.5 2.5 4.6 5.1 6.1 7.6l.1.2c-.1.2-.1.5-.3.8zM61.9 47.5l4.5-1.2-.3-1.3-4.5 1.2.3 1.3zm-.3 6.3l4.5 1.2.3-1.3-4.5-1.2-.3 1.3zm-23.2-7.6L33.9 45l-.3 1.3 4.5 1.2.3-1.3zM50 30.1c-5.1 0-10.2 1.9-14.1 5.8-7.8 7.8-7.8 20.4 0 28.2 3.9 3.9 9 5.8 14.1 5.8s10.2-1.9 14.1-5.8c7.8-7.8 7.8-20.4 0-28.2-3.9-3.9-9-5.8-14.1-5.8zm13.1 33c-3.5 3.5-8.2 5.4-13.1 5.4-5 0-9.6-1.9-13.1-5.4-7.2-7.2-7.2-19 0-26.3 3.5-3.5 8.2-5.4 13.1-5.4 5 0 9.6 1.9 13.1 5.4 7.3 7.3 7.3 19.1 0 26.3zm13.7-23L72 44.9c-.9-4-2.9-7.8-6-10.9-3.1-3.1-6.9-5.1-10.9-6l4.8-4.8-1.5-1.5s-.2-.1-.3-.1c-1 0-4.1 1-4.1 1s-3.5 2.7-5.9 4.9C43 27.9 38 30.1 34 34s-6.1 9-6.5 14.1c-2.2 2.4-4.9 5.9-4.9 5.9s-1.3 4-.9 4.4l1.5 1.5 4.8-4.8c.9 4 2.9 7.8 6 10.9 3.1 3.1 6.9 5.1 10.9 6l-4.8 4.8 1.5 1.5s.2.1.3.1c1 0 4.1-1 4.1-1s3.5-2.7 5.9-4.9C57 72.1 62 69.9 66 66c3.9-3.9 6.1-9 6.5-14.1 2.2-2.4 4.9-5.9 4.9-5.9s1.3-4 .9-4.4l-1.5-1.5zM23.2 58l-.2-.2c.1-.7.4-2 .8-3.2.5-.6 2.1-2.6 3.6-4.4 0 1.1.1 2.2.3 3.3L23.2 58zm31.5-34.2c1.1-.3 2.5-.7 3.2-.8l.2.2-4.5 4.5c-1.1-.2-2.2-.3-3.3-.3 1.7-1.5 3.8-3.1 4.4-3.6zm-9.4 52.4c-1.1.3-2.5.7-3.2.8l-.1-.2 4.5-4.5c1.1.2 2.2.3 3.3.3-1.8 1.5-3.9 3.1-4.5 3.6zm25.8-23.8C70.6 57 68.5 61.5 65 65c-3.4 3.4-7.8 5.5-12.6 6.1-.8.1-1.6.1-2.4.1-1.3 0-2.6-.1-3.9-.4-4.2-.8-8-2.8-11-5.8-3.1-3.1-5.1-7-5.8-11.1-.1-.5-.2-1-.2-1.4v-.2c-.1-.5-.1-1-.1-1.5v-.1c0-1 0-2.1.1-3.1.3-4.6 2.4-9.1 5.9-12.6 3.4-3.4 7.8-5.5 12.6-6.1.8-.1 1.6-.1 2.4-.1 1.3 0 2.6.1 3.9.4 4.2.8 8 2.8 11 5.8 3.1 3.1 5.1 7 5.8 11.1.1.5.2.9.2 1.4v.2c.1.5.1 1 .1 1.5v.1c.2 1 .2 2.1.1 3.1zm5.1-7.1c-.5.6-2.1 2.6-3.6 4.4 0-1.1-.1-2.2-.3-3.3l4.5-4.5.2.2c-.1.7-.4 2.1-.8 3.2zm-23.7 2.9l-2.1.9-2.2-6.6-1.2.4 2.2 6.7-9.8 4.2.5 1.2 9.7-4.2.6 1.9 1.3-.4-.5-1.6 16.3.1v-1.3L53 49.3l-.5-1.1zM37.6 61.4l.9.9 3.3-3.3-.9-.9-3.3 3.3zm.5-8.9l-4.5 1.2.3 1.3 4.5-1.2-.3-1.3zm20 6.6l3.3 3.3.9-.9-3.3-3.3-.9.9zm-13.1 7l1.3.3 1.2-4.5-1.3-.3-1.2 4.5zm7.5-4.2l1.2 4.5 1.3-.3-1.2-4.5-1.3.3z"/></symbol><symbol viewBox="0 0 100 100" id="water-round-icon"><circle fill="none" stroke="#66469B" stroke-miterlimit="10" cx="50" cy="50" r="49.5"/><path fill="#66469B" stroke="#FFF" stroke-width=".25" stroke-miterlimit="10" d="M59.6 57.4c8.5 1.3 14.4 4.3 14.4 7.8 0 4.7-10.7 8.6-24 8.6S26 70 26 65.2c0-3.5 5.9-6.5 14.4-7.8-9.5 1.4-16.2 4.7-16.2 8.5 0 5.1 11.5 9.2 25.8 9.2s25.8-4.1 25.8-9.2c0-3.8-6.7-7.1-16.2-8.5z"/><path fill="#66469B" stroke="#FFF" stroke-width=".25" stroke-miterlimit="10" d="M58.1 59.2c5.9.9 8.6 2.6 8.6 5 0 3.3-7.5 5.9-16.7 5.9s-16.7-2.7-16.7-5.9c0-2.4 2.5-4.2 8.4-5.2-6.6.9-9.7 3-9.7 5.6 0 3.5 8 6.4 17.9 6.4s17.9-2.9 17.9-6.4c.1-2.6-3.1-4.5-9.7-5.4z"/><path fill="#66469B" d="M36 49.5c0 7.1 6.3 12.9 14 12.9s14-5.8 14-12.9-14-26.1-14-26.1-14 19-14 26.1zm18.9-15.7c6.5 10.5 7.2 14.4 7.2 15.6 0 6.1-5.4 11-12.1 11s-12.1-4.9-12.1-11c0-1.2.7-5.1 7.2-15.6 1.8-2.9 3.5-5.5 4.9-7.5 1.4 2 3.2 4.7 4.9 7.5z"/><path fill="#FFF" d="M50 62.8c-7.9 0-14.3-5.9-14.3-13.3 0-7.2 13.4-25.5 14-26.3l.2-.3.2.3c.6.8 14 19.1 14 26.3.2 7.3-6.2 13.3-14.1 13.3zm0-38.9c-1.9 2.6-13.6 19.2-13.6 25.6 0 7 6.1 12.6 13.6 12.6s13.6-5.7 13.6-12.6c0-6.4-11.7-23-13.6-25.6zm0 36.8c-6.8 0-12.4-5.1-12.4-11.3 0-1.2.7-5.2 7.2-15.7 1.5-2.5 3.3-5.2 4.9-7.5l.3-.4.3.4c1.9 2.7 3.5 5.2 4.9 7.5 6.5 10.5 7.2 14.5 7.2 15.8 0 6.2-5.6 11.2-12.4 11.2zm0-33.8c-1.6 2.3-3.2 4.8-4.7 7.2-6.4 10.4-7.1 14.2-7.1 15.4 0 5.9 5.3 10.7 11.8 10.7s11.8-4.8 11.8-10.7c0-1.2-.7-5-7.1-15.5-1.4-2.2-2.9-4.5-4.7-7.1z"/><g><path fill="#FFF" d="M41.4 48.9c0-.4-.3-.8-.8-.8s-.8.3-.8.8c0 5.1 4 9.2 9 9.2.4 0 .8-.3.8-.8 0-.4-.3-.8-.8-.8-4 .1-7.4-3.3-7.4-7.6z"/><path fill="#66469B" d="M40.7 48.5c-.3 0-.4.2-.4.5 0 4.9 3.9 8.9 8.6 8.9.3 0 .4-.2.4-.5s-.2-.5-.4-.5c-4.3 0-7.8-3.6-7.8-8 0-.2-.2-.4-.4-.4z"/></g></symbol></svg>